<svg width="244" height="202" viewBox="0 0 244 202" fill="none" xmlns="http://www.w3.org/2000/svg">
<g clip-path="url(#clip0_87_672)">
<path fill-rule="evenodd" clip-rule="evenodd" d="M6.59478 118.297C5.87508 118.297 5.15757 118.311 4.43877 118.349C3.89086 118.377 3.05357 118.264 2.58995 118.605C2.10825 118.959 2.14143 119.685 2.21667 120.197C2.61447 122.906 3.58535 125.308 5.61642 127.227C8.74369 130.182 12.3288 131.683 16.5711 132.352C19.5511 132.821 22.3022 132.169 24.4959 130.052C26.0987 133.024 27.3146 136.312 27.9248 139.631C28.2258 141.269 28.3177 142.887 28.2647 144.554C28.2307 145.623 28.1717 146.688 28.0571 147.751C28.0074 148.213 27.7716 148.912 27.9526 149.349C28.1651 149.861 28.8816 149.911 29.2032 149.474C29.4709 149.11 29.4217 148.396 29.4767 147.965C29.5678 147.25 29.6523 146.534 29.7127 145.816C29.8108 144.653 29.8833 143.487 29.878 142.319C29.8657 139.696 29.282 137.063 28.4834 134.573C26.9514 129.797 24.4658 125.552 20.6 122.221C18.223 120.173 15.5025 119.344 12.4161 118.898C10.4944 118.621 8.54144 118.297 6.59478 118.297Z" fill="#B69FFF"/>
<path fill-rule="evenodd" clip-rule="evenodd" d="M17.6941 137.29C9.92634 137.29 4.69473 143.543 2.22115 150.043C1.2887 152.493 1.07016 155.183 0.710793 157.755C0.595414 158.581 0.638157 159.839 0.302706 160.574C0.180966 160.841 -0.0981308 160.937 0.0353117 161.3C0.11609 161.52 0.274592 161.655 0.512601 161.699C1.00121 161.789 1.69209 161.257 2.11099 161.047C5.58558 159.307 7.86848 156.615 9.73082 153.322C10.8852 151.281 12.0566 149.162 12.7424 146.922C13.1613 145.553 13.4051 144.111 13.5484 142.691C13.6047 142.132 13.6593 141.559 13.656 140.997C13.6527 140.439 13.3927 140.144 13.2058 139.658C15.7977 138.678 18.7232 138.411 21.3487 139.426C23.777 140.365 25.7942 142.181 26.9237 144.461C27.2171 145.054 27.4434 145.679 27.6083 146.317C27.7162 146.735 27.7214 147.277 27.9214 147.654C28.4063 148.57 29.4265 147.958 29.3286 147.106C29.0554 144.728 27.6938 142.341 25.9534 140.688C23.7584 138.603 20.7831 137.29 17.6941 137.29Z" fill="#B69FFF"/>
<path d="M108.105 0H30.4216C28.0214 0 26.0757 1.94361 26.0757 4.34118V159.538C26.0757 161.936 28.0214 163.879 30.4216 163.879H108.105C110.506 163.879 112.451 161.936 112.451 159.538V4.34118C112.451 1.94361 110.506 0 108.105 0Z" fill="#DFE1E2"/>
<path d="M68.9919 153.569C73.4923 153.569 77.1405 149.925 77.1405 145.429C77.1405 140.934 73.4923 137.29 68.9919 137.29C64.4915 137.29 60.8433 140.934 60.8433 145.429C60.8433 149.925 64.4915 153.569 68.9919 153.569Z" fill="white"/>
<path d="M61.9297 10.8528C62.5298 10.8528 63.0162 10.3669 63.0162 9.76743C63.0162 9.16804 62.5298 8.68213 61.9297 8.68213C61.3297 8.68213 60.8433 9.16804 60.8433 9.76743C60.8433 10.3669 61.3297 10.8528 61.9297 10.8528Z" fill="white"/>
<path d="M76.054 8.68213H66.8189C66.2189 8.68213 65.7324 9.16804 65.7324 9.76743C65.7324 10.3669 66.2189 10.8528 66.8189 10.8528H76.054C76.6541 10.8528 77.1405 10.3669 77.1405 9.76743C77.1405 9.16804 76.6541 8.68213 76.054 8.68213Z" fill="white"/>
<path d="M102.673 15.1943H35.8542C34.6541 15.1943 33.6812 16.1661 33.6812 17.3649V42.3267C33.6812 43.5254 34.6541 44.4973 35.8542 44.4973H102.673C103.873 44.4973 104.846 43.5254 104.846 42.3267V17.3649C104.846 16.1661 103.873 15.1943 102.673 15.1943Z" fill="white"/>
<path d="M76.5973 23.9849H40.2C39.3 23.9849 38.5703 24.7138 38.5703 25.6129V26.7524C38.5703 27.6515 39.3 28.3804 40.2 28.3804H76.5973C77.4974 28.3804 78.2271 27.6515 78.2271 26.7524V25.6129C78.2271 24.7138 77.4974 23.9849 76.5973 23.9849Z" fill="#DFE1E2"/>
<path d="M63.5595 31.311H40.2C39.3 31.311 38.5703 32.0398 38.5703 32.9389V34.0785C38.5703 34.9775 39.3 35.7064 40.2 35.7064H63.5595C64.4596 35.7064 65.1892 34.9775 65.1892 34.0785V32.9389C65.1892 32.0398 64.4596 31.311 63.5595 31.311Z" fill="#DFE1E2"/>
<path d="M97.2407 33.6439C99.3408 33.6439 101.043 31.9432 101.043 29.8454C101.043 27.7475 99.3408 26.0469 97.2407 26.0469C95.1405 26.0469 93.438 27.7475 93.438 29.8454C93.438 31.9432 95.1405 33.6439 97.2407 33.6439Z" fill="#DFE1E2"/>
<path d="M97.2406 31.4736C98.1406 31.4736 98.8703 30.7448 98.8703 29.8457C98.8703 28.9466 98.1406 28.2178 97.2406 28.2178C96.3405 28.2178 95.6108 28.9466 95.6108 29.8457C95.6108 30.7448 96.3405 31.4736 97.2406 31.4736Z" fill="#DFE1E2"/>
<path d="M102.673 48.8384H35.8542C34.6541 48.8384 33.6812 49.8102 33.6812 51.009V69.459C33.6812 70.6578 34.6541 71.6296 35.8542 71.6296H102.673C103.873 71.6296 104.846 70.6578 104.846 69.459V51.009C104.846 49.8102 103.873 48.8384 102.673 48.8384Z" fill="white"/>
<path d="M92.8947 55.6758H56.4974C55.5974 55.6758 54.8677 56.4047 54.8677 57.3037V57.4665C54.8677 58.3656 55.5974 59.0945 56.4974 59.0945H92.8947C93.7948 59.0945 94.5245 58.3656 94.5245 57.4665V57.3037C94.5245 56.4047 93.7948 55.6758 92.8947 55.6758Z" fill="#DFE1E2"/>
<path d="M79.8569 61.3735H56.4974C55.5974 61.3735 54.8677 62.1024 54.8677 63.0015V63.1642C54.8677 64.0633 55.5974 64.7922 56.4974 64.7922H79.8569C80.757 64.7922 81.4866 64.0633 81.4866 63.1642V63.0015C81.4866 62.1024 80.757 61.3735 79.8569 61.3735Z" fill="#DFE1E2"/>
<path d="M45.0892 66.7458C48.6895 66.7458 51.6081 63.8304 51.6081 60.234C51.6081 56.6377 48.6895 53.7222 45.0892 53.7222C41.4889 53.7222 38.5703 56.6377 38.5703 60.234C38.5703 63.8304 41.4889 66.7458 45.0892 66.7458Z" fill="#B69FFF"/>
<path d="M102.673 75.9707H35.8542C34.6541 75.9707 33.6812 76.9425 33.6812 78.1413V96.5913C33.6812 97.7901 34.6541 98.7619 35.8542 98.7619H102.673C103.873 98.7619 104.846 97.7901 104.846 96.5913V78.1413C104.846 76.9425 103.873 75.9707 102.673 75.9707Z" fill="white"/>
<path d="M76.5973 82.8081H40.2C39.3 82.8081 38.5703 83.537 38.5703 84.4361V84.5989C38.5703 85.4979 39.3 86.2268 40.2 86.2268H76.5973C77.4974 86.2268 78.2271 85.4979 78.2271 84.5989V84.4361C78.2271 83.537 77.4974 82.8081 76.5973 82.8081Z" fill="#DFE1E2"/>
<path d="M63.5595 88.5059H40.2C39.3 88.5059 38.5703 89.2348 38.5703 90.1339V90.2967C38.5703 91.1958 39.3 91.9246 40.2 91.9246H63.5595C64.4596 91.9246 65.1892 91.1958 65.1892 90.2967V90.1339C65.1892 89.2348 64.4596 88.5059 63.5595 88.5059Z" fill="#AFB9C5"/>
<path d="M97.2407 91.1645C99.3408 91.1645 101.043 89.4638 101.043 87.366C101.043 85.2681 99.3408 83.5674 97.2407 83.5674C95.1405 83.5674 93.438 85.2681 93.438 87.366C93.438 89.4638 95.1405 91.1645 97.2407 91.1645Z" fill="#DFE1E2"/>
<path d="M97.2406 88.9942C98.1406 88.9942 98.8703 88.2653 98.8703 87.3663C98.8703 86.4672 98.1406 85.7383 97.2406 85.7383C96.3405 85.7383 95.6108 86.4672 95.6108 87.3663C95.6108 88.2653 96.3405 88.9942 97.2406 88.9942Z" fill="#DFE1E2"/>
<path d="M102.673 103.103H35.8542C34.6541 103.103 33.6812 104.075 33.6812 105.274V123.724C33.6812 124.922 34.6541 125.894 35.8542 125.894H102.673C103.873 125.894 104.846 124.922 104.846 123.724V105.274C104.846 104.075 103.873 103.103 102.673 103.103Z" fill="white"/>
<path d="M92.8947 109.94H56.4974C55.5974 109.94 54.8677 110.669 54.8677 111.568V111.731C54.8677 112.63 55.5974 113.359 56.4974 113.359H92.8947C93.7948 113.359 94.5245 112.63 94.5245 111.731V111.568C94.5245 110.669 93.7948 109.94 92.8947 109.94Z" fill="#DFE1E2"/>
<path d="M79.8569 115.638H56.4974C55.5974 115.638 54.8677 116.367 54.8677 117.266V117.429C54.8677 118.328 55.5974 119.057 56.4974 119.057H79.8569C80.757 119.057 81.4866 118.328 81.4866 117.429V117.266C81.4866 116.367 80.757 115.638 79.8569 115.638Z" fill="#DFE1E2"/>
<path d="M45.0892 121.01C48.6895 121.01 51.6081 118.095 51.6081 114.499C51.6081 110.902 48.6895 107.987 45.0892 107.987C41.4889 107.987 38.5703 110.902 38.5703 114.499C38.5703 118.095 41.4889 121.01 45.0892 121.01Z" fill="#967EFB"/>
<path d="M239.57 13.5664H66.2757C63.8755 13.5664 61.9297 15.51 61.9297 17.9075V196.981C61.9297 199.378 63.8755 201.322 66.2757 201.322H239.57C241.971 201.322 243.916 199.378 243.916 196.981V17.9075C243.916 15.51 241.971 13.5664 239.57 13.5664Z" fill="#DFE1E2"/>
<path d="M230.878 36.8999H201.543C199.143 36.8999 197.197 38.8435 197.197 41.2411V76.5131C197.197 78.9107 199.143 80.8543 201.543 80.8543H230.878C233.279 80.8543 235.224 78.9107 235.224 76.5131V41.2411C235.224 38.8435 233.279 36.8999 230.878 36.8999Z" fill="white"/>
<path d="M216.211 62.4043C221.011 62.4043 224.903 58.5171 224.903 53.722C224.903 48.9268 221.011 45.0396 216.211 45.0396C211.41 45.0396 207.519 48.9268 207.519 53.722C207.519 58.5171 211.41 62.4043 216.211 62.4043Z" fill="#CFC4FD"/>
<path d="M228.162 64.5752H204.259C203.359 64.5752 202.63 65.3041 202.63 66.2032C202.63 67.1022 203.359 67.8311 204.259 67.8311H228.162C229.062 67.8311 229.792 67.1022 229.792 66.2032C229.792 65.3041 229.062 64.5752 228.162 64.5752Z" fill="#DFE1E2"/>
<path d="M223.816 70.0015H208.605C207.705 70.0015 206.976 70.7303 206.976 71.6294C206.976 72.5285 207.705 73.2574 208.605 73.2574H223.816C224.716 73.2574 225.446 72.5285 225.446 71.6294C225.446 70.7303 224.716 70.0015 223.816 70.0015Z" fill="#DFE1E2"/>
<path fill-rule="evenodd" clip-rule="evenodd" d="M66.2757 13.5664H239.57C241.971 13.5664 243.916 15.51 243.916 17.9075V28.2178H61.9297V17.9075C61.9297 15.51 63.8755 13.5664 66.2757 13.5664Z" fill="#A9AEB1"/>
<path d="M68.9917 23.3339C70.1918 23.3339 71.1647 22.3621 71.1647 21.1633C71.1647 19.9645 70.1918 18.9927 68.9917 18.9927C67.7916 18.9927 66.8188 19.9645 66.8188 21.1633C66.8188 22.3621 67.7916 23.3339 68.9917 23.3339Z" fill="#DFE1E2"/>
<path d="M75.5109 23.3339C76.711 23.3339 77.6838 22.3621 77.6838 21.1633C77.6838 19.9645 76.711 18.9927 75.5109 18.9927C74.3108 18.9927 73.3379 19.9645 73.3379 21.1633C73.3379 22.3621 74.3108 23.3339 75.5109 23.3339Z" fill="#DFE1E2"/>
<path d="M82.0299 23.3339C83.23 23.3339 84.2029 22.3621 84.2029 21.1633C84.2029 19.9645 83.23 18.9927 82.0299 18.9927C80.8298 18.9927 79.8569 19.9645 79.8569 21.1633C79.8569 22.3621 80.8298 23.3339 82.0299 23.3339Z" fill="#DFE1E2"/>
<path d="M230.878 85.1958H201.543C199.143 85.1958 197.197 87.1394 197.197 89.537V186.128C197.197 188.525 199.143 190.469 201.543 190.469H230.878C233.279 190.469 235.224 188.525 235.224 186.128V89.537C235.224 87.1394 233.279 85.1958 230.878 85.1958Z" fill="white"/>
<path d="M223.273 94.9634H209.149C207.949 94.9634 206.976 95.9352 206.976 97.134V106.901C206.976 108.1 207.949 109.072 209.149 109.072H223.273C224.473 109.072 225.446 108.1 225.446 106.901V97.134C225.446 95.9352 224.473 94.9634 223.273 94.9634Z" fill="#CFC4FD"/>
<path d="M223.273 113.413H209.149C207.949 113.413 206.976 114.385 206.976 115.584V124.809C206.976 126.008 207.949 126.979 209.149 126.979H223.273C224.473 126.979 225.446 126.008 225.446 124.809V115.584C225.446 114.385 224.473 113.413 223.273 113.413Z" fill="#B69FFF"/>
<path d="M223.273 131.321H209.149C207.949 131.321 206.976 132.292 206.976 133.491V142.716C206.976 143.915 207.949 144.887 209.149 144.887H223.273C224.473 144.887 225.446 143.915 225.446 142.716V133.491C225.446 132.292 224.473 131.321 223.273 131.321Z" fill="#CFC4FD"/>
<path d="M223.273 167.135H209.149C207.949 167.135 206.976 168.107 206.976 169.306V178.531C206.976 179.73 207.949 180.701 209.149 180.701H223.273C224.473 180.701 225.446 179.73 225.446 178.531V169.306C225.446 168.107 224.473 167.135 223.273 167.135Z" fill="#CFC4FD"/>
<path d="M223.273 149.228H209.149C207.949 149.228 206.976 150.2 206.976 151.398V160.623C206.976 161.822 207.949 162.794 209.149 162.794H223.273C224.473 162.794 225.446 161.822 225.446 160.623V151.398C225.446 150.2 224.473 149.228 223.273 149.228Z" fill="#967EFB"/>
<path d="M190.678 37.4424H72.7946C71.5945 37.4424 70.6216 38.4142 70.6216 39.613V60.7762C70.6216 61.975 71.5945 62.9468 72.7946 62.9468H190.678C191.879 62.9468 192.851 61.975 192.851 60.7762V39.613C192.851 38.4142 191.879 37.4424 190.678 37.4424Z" fill="white"/>
<path d="M164.603 45.0938H77.1404C76.2404 45.0938 75.5107 45.8227 75.5107 46.7218V47.2915C75.5107 48.1905 76.2404 48.9195 77.1404 48.9195H164.603C165.503 48.9195 166.232 48.1905 166.232 47.2915V46.7218C166.232 45.8227 165.503 45.0938 164.603 45.0938Z" fill="#DFE1E2"/>
<path d="M134.776 51.4702H77.1404C76.2404 51.4702 75.5107 52.1991 75.5107 53.0982V53.668C75.5107 54.567 76.2404 55.2959 77.1404 55.2959H134.776C135.676 55.2959 136.406 54.567 136.406 53.668V53.0982C136.406 52.1991 135.676 51.4702 134.776 51.4702Z" fill="#DFE1E2"/>
<path d="M179.789 53.9936C181.889 53.9936 183.591 52.2929 183.591 50.195C183.591 48.0972 181.889 46.3965 179.789 46.3965C177.688 46.3965 175.986 48.0972 175.986 50.195C175.986 52.2929 177.688 53.9936 179.789 53.9936Z" fill="#DFE1E2"/>
<path d="M179.789 51.8228C180.689 51.8228 181.418 51.0939 181.418 50.1948C181.418 49.2958 180.689 48.5669 179.789 48.5669C178.889 48.5669 178.159 49.2958 178.159 50.1948C178.159 51.0939 178.889 51.8228 179.789 51.8228Z" fill="#DFE1E2"/>
<path d="M190.678 67.2881H72.7946C71.5945 67.2881 70.6216 68.2599 70.6216 69.4587V86.2808C70.6216 87.4795 71.5945 88.4514 72.7946 88.4514H190.678C191.879 88.4514 192.851 87.4795 192.851 86.2808V69.4587C192.851 68.2599 191.879 67.2881 190.678 67.2881Z" fill="white"/>
<path d="M164.643 73.6372H77.0997C76.2221 73.6372 75.5107 74.3478 75.5107 75.2244C75.5107 76.101 76.2221 76.8117 77.0997 76.8117H164.643C165.521 76.8117 166.232 76.101 166.232 75.2244C166.232 74.3478 165.521 73.6372 164.643 73.6372Z" fill="#DFE1E2"/>
<path d="M134.817 78.9282H77.0997C76.2221 78.9282 75.5107 79.6388 75.5107 80.5154C75.5107 81.392 76.2221 82.1027 77.0997 82.1027H134.817C135.695 82.1027 136.406 81.392 136.406 80.5154C136.406 79.6388 135.695 78.9282 134.817 78.9282Z" fill="#DFE1E2"/>
<path d="M179.789 81.6684C181.889 81.6684 183.591 79.9677 183.591 77.8698C183.591 75.7719 181.889 74.0713 179.789 74.0713C177.688 74.0713 175.986 75.7719 175.986 77.8698C175.986 79.9677 177.688 81.6684 179.789 81.6684Z" fill="#DFE1E2"/>
<path d="M179.789 79.4976C180.689 79.4976 181.418 78.7687 181.418 77.8696C181.418 76.9705 180.689 76.2417 179.789 76.2417C178.889 76.2417 178.159 76.9705 178.159 77.8696C178.159 78.7687 178.889 79.4976 179.789 79.4976Z" fill="#DFE1E2"/>
<path d="M190.678 92.7925H72.7946C71.5945 92.7925 70.6216 93.7643 70.6216 94.9631V111.785C70.6216 112.984 71.5945 113.956 72.7946 113.956H190.678C191.879 113.956 192.851 112.984 192.851 111.785V94.9631C192.851 93.7643 191.879 92.7925 190.678 92.7925Z" fill="white"/>
<path d="M164.643 99.1416H77.0997C76.2221 99.1416 75.5107 99.8522 75.5107 100.729C75.5107 101.605 76.2221 102.316 77.0997 102.316H164.643C165.521 102.316 166.232 101.605 166.232 100.729C166.232 99.8522 165.521 99.1416 164.643 99.1416Z" fill="#DFE1E2"/>
<path d="M134.817 104.432H77.0997C76.2221 104.432 75.5107 105.143 75.5107 106.02C75.5107 106.896 76.2221 107.607 77.0997 107.607H134.817C135.695 107.607 136.406 106.896 136.406 106.02C136.406 105.143 135.695 104.432 134.817 104.432Z" fill="#DFE1E2"/>
<path d="M179.789 107.173C181.889 107.173 183.591 105.472 183.591 103.374C183.591 101.276 181.889 99.5757 179.789 99.5757C177.688 99.5757 175.986 101.276 175.986 103.374C175.986 105.472 177.688 107.173 179.789 107.173Z" fill="#DFE1E2"/>
<path d="M179.789 105.002C180.689 105.002 181.418 104.273 181.418 103.374C181.418 102.475 180.689 101.746 179.789 101.746C178.889 101.746 178.159 102.475 178.159 103.374C178.159 104.273 178.889 105.002 179.789 105.002Z" fill="#AFB9C5"/>
<path d="M190.678 169.306H72.7946C71.5945 169.306 70.6216 170.278 70.6216 171.476V188.298C70.6216 189.497 71.5945 190.469 72.7946 190.469H190.678C191.879 190.469 192.851 189.497 192.851 188.298V171.476C192.851 170.278 191.879 169.306 190.678 169.306Z" fill="white"/>
<path d="M164.643 175.655H77.0997C76.2221 175.655 75.5107 176.365 75.5107 177.242C75.5107 178.119 76.2221 178.829 77.0997 178.829H164.643C165.521 178.829 166.232 178.119 166.232 177.242C166.232 176.365 165.521 175.655 164.643 175.655Z" fill="#DFE1E2"/>
<path d="M134.817 180.946H77.0997C76.2221 180.946 75.5107 181.656 75.5107 182.533C75.5107 183.409 76.2221 184.12 77.0997 184.12H134.817C135.695 184.12 136.406 183.409 136.406 182.533C136.406 181.656 135.695 180.946 134.817 180.946Z" fill="#DFE1E2"/>
<path d="M179.789 183.686C181.889 183.686 183.591 181.985 183.591 179.887C183.591 177.79 181.889 176.089 179.789 176.089C177.688 176.089 175.986 177.79 175.986 179.887C175.986 181.985 177.688 183.686 179.789 183.686Z" fill="#DFE1E2"/>
<path d="M179.789 181.515C180.689 181.515 181.418 180.787 181.418 179.887C181.418 178.988 180.689 178.26 179.789 178.26C178.889 178.26 178.159 178.988 178.159 179.887C178.159 180.787 178.889 181.515 179.789 181.515Z" fill="#DFE1E2"/>
<path d="M190.678 143.801H72.7946C71.5945 143.801 70.6216 144.773 70.6216 145.972V162.794C70.6216 163.993 71.5945 164.965 72.7946 164.965H190.678C191.879 164.965 192.851 163.993 192.851 162.794V145.972C192.851 144.773 191.879 143.801 190.678 143.801Z" fill="white"/>
<path d="M164.643 150.15H77.0997C76.2221 150.15 75.5107 150.861 75.5107 151.738C75.5107 152.614 76.2221 153.325 77.0997 153.325H164.643C165.521 153.325 166.232 152.614 166.232 151.738C166.232 150.861 165.521 150.15 164.643 150.15Z" fill="#DFE1E2"/>
<path d="M134.817 155.441H77.0997C76.2221 155.441 75.5107 156.152 75.5107 157.028C75.5107 157.905 76.2221 158.616 77.0997 158.616H134.817C135.695 158.616 136.406 157.905 136.406 157.028C136.406 156.152 135.695 155.441 134.817 155.441Z" fill="#DFE1E2"/>
<path d="M179.789 158.182C181.889 158.182 183.591 156.481 183.591 154.383C183.591 152.285 181.889 150.585 179.789 150.585C177.688 150.585 175.986 152.285 175.986 154.383C175.986 156.481 177.688 158.182 179.789 158.182Z" fill="#DFE1E2"/>
<path d="M179.789 156.011C180.689 156.011 181.418 155.282 181.418 154.383C181.418 153.484 180.689 152.755 179.789 152.755C178.889 152.755 178.159 153.484 178.159 154.383C178.159 155.282 178.889 156.011 179.789 156.011Z" fill="#DFE1E2"/>
<path d="M190.678 118.297H72.7946C71.5945 118.297 70.6216 119.269 70.6216 120.468V137.29C70.6216 138.488 71.5945 139.46 72.7946 139.46H190.678C191.879 139.46 192.851 138.488 192.851 137.29V120.468C192.851 119.269 191.879 118.297 190.678 118.297Z" fill="white"/>
<path d="M164.643 124.646H77.0997C76.2221 124.646 75.5107 125.357 75.5107 126.233C75.5107 127.11 76.2221 127.82 77.0997 127.82H164.643C165.521 127.82 166.232 127.11 166.232 126.233C166.232 125.357 165.521 124.646 164.643 124.646Z" fill="#DFE1E2"/>
<path d="M134.817 129.937H77.0997C76.2221 129.937 75.5107 130.647 75.5107 131.524C75.5107 132.401 76.2221 133.111 77.0997 133.111H134.817C135.695 133.111 136.406 132.401 136.406 131.524C136.406 130.647 135.695 129.937 134.817 129.937Z" fill="#DFE1E2"/>
<path d="M179.789 132.677C181.889 132.677 183.591 130.977 183.591 128.879C183.591 126.781 181.889 125.08 179.789 125.08C177.688 125.08 175.986 126.781 175.986 128.879C175.986 130.977 177.688 132.677 179.789 132.677Z" fill="#DFE1E2"/>
<path d="M179.789 130.507C180.689 130.507 181.418 129.778 181.418 128.879C181.418 127.98 180.689 127.251 179.789 127.251C178.889 127.251 178.159 127.98 178.159 128.879C178.159 129.778 178.889 130.507 179.789 130.507Z" fill="#DFE1E2"/>
</g>
<defs>
<clipPath id="clip0_87_672">
<rect width="244" height="202" fill="white"/>
</clipPath>
</defs>
</svg>
