<svg xmlns="http://www.w3.org/2000/svg" width="599" height="341" viewBox="0 0 599 341">
    <g fill="none">
        <g>
            <path fill="#E0E0E0" d="M167.535 13.487c2.468-1.044 4.176-3.514 4.176-6.458 0-3.895-2.942-7.029-6.55-7.029-3.606 0-6.549 3.134-6.549 6.934 0 2.944 1.709 5.509 4.177 6.553-10.062 1.52-9.682 12.538-9.682 12.538l23.92.095s.57-11.113-9.492-12.633z" transform="translate(0 2.908)"/>
            <path fill="#F5F5F5" d="M555.381 71.332L544.275 59.364 547.882 56.039 555.476 64.303 571.612 48.441 575.029 51.955z" transform="translate(0 2.908)"/>
            <path fill="#EBEBEB" d="M394.68 136.49c0-8.17-8.543-13.298-17.276-9.214-1.993.95-3.607 2.47-4.556 4.37-2.183 4.273-1.234 9.117.76 13.107l6.834 17.191c.95 2.47 4.461 2.47 5.41 0l6.645-17.286c2.278-5.224 2.183-8.169 2.183-8.169zm-8.163 7.123c-5.885 3.42-11.77-2.85-8.638-9.118.475-.855 1.044-1.52 1.898-1.995 5.886-3.42 11.77 2.85 8.638 9.118-.474.855-1.139 1.52-1.898 1.995z" transform="translate(0 2.908)"/>
            <g>
                <path fill="#EBEBEB" d="M18.13 128.51C-.19 111.795-1.234 85.295 2.753 62.119c.664-3.894.76-7.978 3.132-11.208 2.373-3.134 7.024-4.844 10.346-2.754 2.753 1.805 3.512 5.319 4.841 8.263 1.709 3.99 4.462 7.504 8.069 9.973 2.373 1.615 5.315 2.85 7.973 1.805 3.607-1.425 4.651-5.984 5.22-9.783.95-7.219 1.899-14.437 2.848-21.561.475-3.894 1.044-7.788 2.753-11.303 1.708-3.514 4.84-6.554 8.733-7.028 3.891-.475 8.163 2.28 8.448 6.078.094 1.615-.475 3.23-.57 4.844-.095 1.615.38 3.515 1.898 4.18 1.52.665 3.228-.19 4.557-1.14 4.556-3.325 7.973-7.979 11.2-12.633 3.228-4.654 6.455-9.403 10.631-13.202C97.104 2.944 102.61.19 108.21.665c5.6.475 11.105 4.654 11.77 10.353.664 5.604-3.323 10.733-7.404 14.627-6.075 5.794-13.004 10.733-20.503 14.627-1.329.665-2.848 1.425-3.512 2.85-1.234 2.47.95 5.319 3.417 6.554 2.753 1.33 5.98 1.52 9.018 2.28 3.037.76 6.074 2.564 6.929 5.603 1.044 4.18-2.848 7.884-6.55 10.068-7.309 4.56-15.472 7.789-23.825 9.593-3.037.665-6.17 1.14-8.733 2.85-2.562 1.71-4.46 4.939-3.417 7.883 1.044 2.945 4.462 4.275 7.594 4.18 3.132-.095 5.98-1.425 9.017-2.09 5.6-1.235 12.53.095 15.378 5.129 1.803 3.324 1.518 7.504-.19 11.018-1.614 3.42-4.367 6.174-7.214 8.738-9.967 8.834-22.117 15.292-35.12 17.857-13.195 2.374-24.965 1.9-36.735-4.274" transform="translate(0 2.908) translate(477.45 126.326)"/>
                <path fill="#E0E0E0" d="M19.649 137.914c2.088-9.118 1.613-11.873 6.644-23.176 5.03-11.208 11.675-23.175 18.984-35.333 1.804-3.04 3.702-6.079 5.506-9.023 1.803-2.945 3.607-5.89 5.505-8.644 3.797-5.509 7.878-10.543 11.96-15.197 4.082-4.654 8.068-8.928 11.865-12.917 3.797-3.99 7.404-7.599 10.821-10.733 6.834-6.364 12.91-10.828 17.276-13.773 2.183-1.424 3.891-2.564 5.03-3.23.57-.379 1.044-.569 1.33-.759.284-.19.474-.285.474-.285s-.095.095-.475.285c-.285.19-.76.475-1.329.855-1.139.76-2.847 1.9-4.936 3.324-4.271 2.945-10.346 7.504-17.085 13.868-3.417 3.134-7.024 6.838-10.726 10.828-3.797 3.989-7.784 8.263-11.77 12.917-3.987 4.654-8.069 9.688-11.866 15.197-1.898 2.755-3.701 5.604-5.505 8.644-1.803 2.944-3.607 5.984-5.41 9.023-7.31 12.158-13.954 24.03-18.985 35.238-5.125 11.208-4.556 13.963-6.739 22.986" transform="translate(0 2.908) translate(477.45 126.326)"/>
                <path fill="#E0E0E0" d="M56.383 61.833s-.095-.57-.095-1.71c-.095-1.14-.095-2.659-.095-4.653 0-3.895.095-9.309.285-15.293.19-5.983.285-11.397.19-15.292 0-1.994-.095-3.514-.19-4.654-.095-1.14-.095-1.71 0-1.71l.285 1.71c.094 1.045.284 2.66.38 4.654.19 3.895.19 9.309 0 15.292-.19 5.89-.38 11.303-.475 15.293 0 1.9-.095 3.419-.095 4.654-.095 1.044-.095 1.71-.19 1.71z" transform="translate(0 2.908) translate(477.45 126.326)"/>
                <path fill="#E0E0E0" d="M107.925 59.459h-.57c-.38 0-.949 0-1.518-.095-1.33-.095-3.228-.19-5.506-.285-4.651-.19-11.106-.095-18.225.19-7.119.38-13.573.95-18.224 1.52-2.279.284-4.177.57-5.506.76-.57.094-1.044.19-1.519.19-.38 0-.57.094-.57 0 0 0 .19-.096.476-.19.38-.096.854-.19 1.518-.286 1.33-.285 3.133-.57 5.506-.95 4.65-.664 11.105-1.33 18.224-1.71 7.12-.379 13.574-.284 18.32 0 2.373.096 4.272.286 5.506.476.569.095 1.044.095 1.518.19.38.095.57.19.57.19zM26.957 113.978s-.094-.19-.284-.664c-.19-.475-.38-1.14-.57-1.9-.474-1.71-1.234-4.084-1.993-7.124-1.614-5.984-3.607-14.437-5.695-23.65-2.089-9.308-3.987-17.667-5.6-23.746-.76-2.944-1.425-5.414-1.804-7.123-.19-.76-.38-1.425-.475-1.9-.095-.475-.19-.665-.095-.665 0 0 .095.19.285.665.19.475.38 1.14.57 1.9.474 1.71 1.234 4.084 1.993 7.123 1.614 5.984 3.607 14.438 5.695 23.65 2.088 9.309 3.987 17.667 5.6 23.746.76 2.945 1.424 5.414 1.804 7.124.19.76.38 1.425.475 1.9.094.38.094.664.094.664zM96.63 101.916s-.286.095-.665.19c-.57.095-1.234.19-1.994.38-1.803.285-4.366.76-7.498 1.33-6.265 1.044-14.998 2.659-24.585 4.559-9.587 1.804-18.32 3.324-24.68 4.369-3.131.475-5.694.855-7.498 1.14-.854.094-1.519.19-2.088.284-.475.095-.76.095-.76.095s.285-.095.665-.19c.57-.095 1.234-.19 1.993-.38 1.804-.284 4.367-.76 7.499-1.33 6.265-1.044 14.998-2.754 24.584-4.558 9.587-1.805 18.32-3.325 24.585-4.37 3.132-.474 5.695-.854 7.499-1.14.854-.094 1.518-.19 2.088-.284.664-.095.854-.095.854-.095z" transform="translate(0 2.908) translate(477.45 126.326)"/>
            </g>
            <g>
                <path fill="#EBEBEB" d="M2.848 1.52s5.695-6.46 18.51 7.788c12.908 14.248 18.699 22.89 18.699 22.89s3.132 2.85 4.935-.094c1.804-2.945 3.228-10.163 7.594-10.163 4.556.095 7.12 4.369 8.258 11.398 1.044 7.123 3.987 22.51 4.272 23.935.284 1.33 1.613 3.135 3.037 1.33 1.519-1.805 9.017-16.622 15.852-12.728 6.834 3.99 6.55 24.22 6.55 26.405 0 2.185.664 2.945 1.803 3.23 1.139.285 3.132-5.034 5.41-9.119 2.278-4.179 5.695-8.548 9.397-5.888 3.797 2.66 8.448 16.431 1.33 42.931l-4.082 12.063-12.53 2.66c-27.147 4.084-40.341-2.185-42.524-6.27-2.183-3.988 2.563-6.933 6.929-8.737 4.366-1.805 9.777-3.23 9.682-4.37-.095-1.14-.76-1.9-3.038-2.09-2.183-.284-22.306-2.374-25.438-9.592-3.133-7.22 12.434-13.013 14.428-14.248 1.993-1.33.38-2.754-.95-3.23-1.329-.38-16.326-5.128-23.255-6.933-6.93-1.9-10.916-5.034-10.441-9.498.474-4.37 7.878-5.034 10.915-6.364 3.133-1.425.665-4.844.665-4.844s-7.879-6.744-20.598-21.18C-4.366 6.363 2.848 1.424 2.848 1.424" transform="translate(0 2.908) translate(0 136.774)"/>
                <path fill="#E0E0E0" d="M14.428 14.247l.285.285c.19.19.38.475.664.76.665.665 1.519 1.71 2.658 2.945 2.278 2.564 5.6 6.268 9.682 10.828 8.163 9.118 19.459 21.75 31.988 35.713 12.53 13.962 23.825 26.595 31.893 35.808 3.987 4.654 7.214 8.358 9.492 10.923 1.14 1.33 1.994 2.28 2.563 3.04.285.284.475.57.665.76.19.19.19.284.19.284l-.285-.285c-.19-.19-.38-.475-.665-.76-.664-.664-1.518-1.71-2.657-2.944-2.278-2.565-5.6-6.269-9.682-10.828-8.163-9.213-19.459-21.75-31.989-35.713C46.701 51.1 35.5 38.468 27.337 29.254c-3.987-4.654-7.214-8.358-9.492-10.922-1.139-1.33-1.993-2.28-2.563-3.04-.285-.285-.474-.57-.664-.76-.095-.19-.19-.285-.19-.285z" transform="translate(0 2.908) translate(0 136.774)"/>
                <path fill="#E0E0E0" d="M50.972 32.294c.095 0 .095 1.33.19 3.42.095 2.279.19 5.128.285 8.263.095 3.23.19 6.174.19 8.263 0 1.045 0 1.9-.095 2.47 0 .57-.095.95-.095.95-.095 0-.095-1.33-.19-3.42-.095-2.28-.19-5.129-.285-8.263-.095-3.23-.19-6.174-.095-8.264 0-1.045 0-1.9.095-2.47-.095-.664-.095-.95 0-.95zM50.308 56.134c0 .095-6.075.19-13.479.095-7.404-.095-13.479-.285-13.479-.475 0-.095 6.075-.19 13.48-.095 7.403.19 13.478.38 13.478.475zM73.563 79.69s-.284.19-.854.38c-.57.19-1.424.475-2.468.855-2.088.665-4.936 1.52-8.163 2.184-3.227.76-6.17 1.235-8.258 1.615-1.044.19-1.898.285-2.563.38-.57.095-.95.095-.95.095 0-.095 1.33-.285 3.418-.76 2.088-.38 5.03-.95 8.258-1.71 3.227-.76 6.075-1.52 8.163-2.09 2.089-.664 3.323-1.044 3.417-.949zM78.879 58.224c.095 0-.19 1.235-.664 3.134-.475 1.9-1.14 4.655-1.899 7.599-.76 2.944-1.519 5.604-2.088 7.504-.57 1.9-.95 3.134-.95 3.039-.094 0 .19-1.235.665-3.134.475-1.9 1.14-4.655 1.899-7.599.759-2.944 1.518-5.604 2.088-7.504.474-1.9.854-3.134.949-3.039zM102.04 76.366s0 .38-.19 1.14c-.19.76-.475 1.804-.76 2.944-.664 2.47-1.518 5.889-2.562 9.688-1.045 3.8-1.994 7.219-2.658 9.593-.38 1.14-.665 2.09-.854 2.945-.19.665-.38 1.044-.38 1.044s0-.38.19-1.14c.19-.76.474-1.804.76-2.944.664-2.47 1.518-5.889 2.562-9.688 1.044-3.8 1.993-7.219 2.658-9.593.38-1.14.664-2.09.854-2.945.19-.664.285-1.044.38-1.044zM94.541 102.96s-.38.19-1.14.38c-.758.19-1.803.57-3.131.855-2.658.665-6.36 1.615-10.442 2.47-4.081.855-7.878 1.425-10.536 1.805-1.329.19-2.468.284-3.227.38-.76.094-1.234.094-1.234.094l1.139-.285c.854-.19 1.898-.38 3.227-.57 2.658-.474 6.455-1.14 10.536-1.994 4.082-.855 7.784-1.71 10.442-2.28 1.234-.285 2.278-.57 3.132-.76.854-.094 1.234-.094 1.234-.094z" transform="translate(0 2.908) translate(0 136.774)"/>
            </g>
        </g>
        <g>
            <g fill="#455A64">
                <path d="M41.455 32.01s.569.094 1.328-.474c.38-.284.759-.758.949-1.42.094-.285.094-.664.094-1.137v-1.326c0-3.693.095-8.902.095-15.342 0-1.61 0-3.314.095-5.114V4.451 3.125c-.095-.379-.284-.852-.569-1.136-.285-.284-.664-.568-1.138-.568-.38-.095-.949 0-1.423 0H3.605c-1.139 0-2.087.947-2.182 2.083 0 1.231 0 2.462-.095 3.599 0 2.367-.095 4.83-.095 7.102-.095 4.64-.095 9.186-.19 13.448v1.61c0 .473.095.947.38 1.42.285.38.664.758 1.043.853.475.19.949.094 1.423.19h16.506c6.451 0 11.763.094 15.368.094h5.218c.284.19.474.19.474.19h-5.597c-3.7 0-8.917 0-15.368.094H3.984c-.474 0-1.043.095-1.612-.19-.57-.189-.95-.568-1.329-1.041-.284-.474-.474-1.042-.379-1.61v-1.61c.095-4.262.095-8.807.19-13.448 0-2.367.095-4.735.095-7.102 0-1.231 0-2.463.094-3.694C1.138 2.083 2.372.852 3.7.852H40.98c.474 0 .948 0 1.517.095.475.095 1.044.379 1.328.758.38.378.57.852.664 1.325.095.474 0 .947 0 1.421v2.746c0 1.8-.094 3.504-.094 5.114-.095 6.44-.19 11.743-.285 15.342v1.326c0 .379 0 .757-.095 1.136-.19.663-.664 1.137-1.043 1.42-.38.285-.76.38-1.044.38-.38.094-.474.094-.474.094z" transform="translate(7 19.908) translate(0 110.801)"/>
                <path d="M24.095 14.016L29.312 17.141 24 20.266 18.688 23.297 18.878 17.141 18.972 10.891z" transform="translate(7 19.908) translate(0 110.801)"/>
            </g>
            <path fill="#E8505B" d="M504.004 34.282c3.32-1.42 5.692-4.83 5.692-8.807 0-5.303-3.985-9.565-8.917-9.565-4.933 0-9.012 4.262-9.012 9.47 0 4.072 2.371 7.482 5.691 8.902-13.85 2.084-13.186 17.046-13.186 17.046l32.633.19s.759-15.152-12.901-17.236z" transform="translate(7 19.908)"/>
            <g>
                <path fill="#FFF" d="M1.885 2.933L55.101 2.942 55.106 38.738 1.891 38.73z" transform="translate(7 19.908) translate(257.077) rotate(-5.419 28.496 20.836)"/>
                <path fill="#455A64" d="M56.728 36.176s0-.19-.095-.663c-.095-.473-.095-1.041-.19-1.894-.19-1.704-.38-4.072-.759-7.197-.569-6.156-1.518-15.058-2.561-25.854l.19.19C38.703 2.178 20.3 3.883.379 5.777c-.094.095.38-.474.19-.284V6.06l.095.568.095 1.231c.095.758.19 1.61.19 2.368.19 1.61.284 3.125.474 4.64.285 3.125.57 6.156.854 9.092.569 5.966 1.138 11.743 1.612 17.14l-.284-.189c15.557-1.42 28.743-2.651 38.134-3.504 4.649-.379 8.348-.757 10.91-.947 1.233-.094 2.276-.19 2.94-.284.285 0 .57 0 .76-.095.284.095.379.095.379.095h-.285c-.19 0-.38.095-.759.095-.664.095-1.612.19-2.846.284-2.56.284-6.26.663-10.814 1.136-9.391.947-22.672 2.179-38.23 3.694h-.19v-.19c-.474-5.398-1.043-11.174-1.612-17.14-.284-2.936-.57-6.062-.854-9.092-.19-1.515-.284-3.125-.474-4.64-.095-.758-.19-1.61-.19-2.368L.38 6.724l-.094-.568v-.569c-.19.19.284-.378.19-.284C20.394 3.41 38.798 1.705 53.407.38h.19v.19c.948 10.89 1.802 19.792 2.37 26.042.285 3.03.475 5.493.665 7.103.095.758.095 1.42.19 1.894-.095.379-.095.568-.095.568z" transform="translate(7 19.908) translate(257.077)"/>
                <path fill="#455A64" d="M53.313.568s-.095.19-.38.568c-.284.38-.759.853-1.233 1.421-1.138 1.326-2.751 3.125-4.648 5.303-3.984 4.451-9.486 10.607-15.653 17.52l-.094.19-.19-.095-1.423-.852c-8.063-5.21-15.368-9.85-20.775-13.259C6.356 9.66 4.174 8.24 2.657 7.292 1.991 6.82 1.422 6.44.948 6.156c-.38-.284-.57-.38-.57-.38s.19.096.664.38c.475.284 1.044.568 1.708 1.041 1.518.947 3.7 2.273 6.356 3.978 5.407 3.41 12.711 8.05 20.775 13.163l1.423.853h-.285c6.166-6.819 11.763-12.974 15.747-17.425 1.992-2.179 3.605-3.883 4.743-5.209.57-.568.949-1.042 1.328-1.42.285-.474.475-.663.475-.569z" transform="translate(7 19.908) translate(257.077)"/>
            </g>
            <g fill="#263238">
                <path d="M28.554 14.679c-.095 0 0-1.231-.57-3.41-.284-1.041-.758-2.367-1.612-3.693C25.518 6.25 24.38 4.83 22.767 3.6c-1.613-1.137-3.605-2.178-5.881-2.557-2.277-.38-4.838-.284-7.305.663-1.233.473-2.466 1.041-3.51 1.894-1.138.757-2.087 1.799-2.94 2.935C1.422 8.807.473 11.743.473 14.774c0 3.03.949 5.966 2.656 8.239.854 1.136 1.803 2.178 2.941 2.935 1.139.853 2.277 1.42 3.51 1.894 2.467.947 5.028 1.042 7.305.663 2.276-.379 4.268-1.42 5.881-2.557 1.613-1.23 2.751-2.557 3.605-3.977.854-1.326 1.328-2.652 1.612-3.694.57-2.367.475-3.598.57-3.598V15.53c0 .284 0 .663-.095 1.137-.095.473-.095.947-.285 1.515-.19 1.136-.759 2.462-1.518 3.788-.853 1.42-1.992 2.84-3.604 4.072-1.613 1.231-3.605 2.273-5.977 2.746-2.371.38-5.027.38-7.589-.568-1.233-.473-2.466-1.136-3.605-1.989-1.138-.852-2.181-1.894-3.035-3.03C1.043 20.834.095 17.804 0 14.679c0-3.125 1.043-6.156 2.846-8.523.854-1.231 1.897-2.179 3.035-3.03 1.139-.853 2.372-1.516 3.605-1.99C12.048.19 14.704.095 17.076.568c2.37.474 4.363 1.515 5.976 2.747 1.612 1.23 2.75 2.651 3.604 4.072.76 1.42 1.328 2.746 1.518 3.788.19.568.19 1.042.285 1.515.095.474.095.758.095 1.136v.853z" transform="translate(7 19.908) translate(164.112 28.41)"/>
                <path d="M47.526 38.26c-.095.094-5.123-3.126-11.194-7.198-6.07-4.072-11.004-7.481-10.909-7.576.095-.095 5.123 3.125 11.194 7.197 6.071 3.978 11.004 7.387 10.91 7.577z" transform="translate(7 19.908) translate(164.112 28.41)"/>
            </g>
            <path fill="#E8505B" d="M253.567 92.619L242.468 80.781 246.073 77.466 253.757 85.611 269.789 69.89 273.204 73.394z" transform="translate(7 19.908)"/>
        </g>
        <g>
            <g fill="#263238">
                <path d="M68.394.757H69.629c.285 0 .57.095.95.095 1.33.19 3.42.757 5.51 2.46 2.089 1.61 4.179 4.449 4.654 8.234.095.947.095 1.893.095 2.934v21.484c0 1.325 0 2.84-.38 4.165-.76 2.744-2.47 5.394-5.035 7.192-1.235.852-2.755 1.515-4.274 1.799-1.52.378-3.23.284-4.845.284H23.938l.19-.095-9.594 9.559-.38.378v-.567-4.354-5.205l.285.284c-1.045 0-2.09 0-3.135-.095s-2.09-.379-3.04-.757C6.27 47.795 4.56 46.47 3.23 44.955 1.9 43.346 1.045 41.454.57 39.466.38 38.425.285 37.48.285 36.437v-2.933-11.452-5.584c0-1.798-.095-3.597.19-5.49.285-1.798.95-3.501 1.995-5.015.95-1.515 2.28-2.745 3.8-3.597C7.693 1.42 9.403.852 11.018.568c1.71-.284 3.325-.095 4.845-.19h17.668c10.829 0 19.568.095 25.553.095h8.739c.38.284.57.284.57.284H59.085c-6.08 0-14.724 0-25.553.095H15.864c-1.615 0-3.23-.095-4.845.19-1.615.283-3.135.85-4.56 1.703-1.424.851-2.66 2.082-3.61 3.501-.95 1.42-1.614 3.124-1.9 4.827-.284 1.704-.094 3.597-.19 5.395v17.036c0 1.987-.094 3.975.286 5.867.38 1.893 1.235 3.691 2.565 5.3 1.33 1.515 2.944 2.745 4.844 3.502.95.379 1.9.663 2.945.757 1.045.095 1.995.095 3.04.095h.285v9.843l-.38-.19 9.594-9.558.095-.095h42.461c1.615 0 3.23.095 4.75-.284 1.52-.284 2.944-.946 4.18-1.798 2.469-1.704 4.179-4.26 4.939-6.91.38-1.324.475-2.744.38-4.069V31.99v-7.571-6.814-3.124c0-1.04 0-1.987-.095-2.934-.38-3.785-2.47-6.53-4.56-8.139-2.09-1.609-4.085-2.177-5.414-2.46-.38-.095-.665-.095-.95-.19h-1.33z" transform="translate(35 .908) translate(468.307 99.375)"/>
                <g>
                    <path d="M5.984 3.029s-.095-.284-.19-.663C5.7 1.987 5.414 1.42 4.75.946 4.18.473 3.23.284 2.375.663 1.52.946.76 1.893.76 3.029c0 1.135.76 1.987 1.615 2.366.855.378 1.805.094 2.375-.284.57-.473.854-.947 1.044-1.42.19-.473.19-.662.19-.662s.095.284 0 .662c-.095.473-.285 1.136-.95 1.609-.664.568-1.71.852-2.754.473C1.235 5.395.285 4.353.285 3.03c0-1.325.95-2.461 1.995-2.745C3.325-.095 4.465.189 5.035.757c.664.568.95 1.136.95 1.61.094.378 0 .662 0 .662zM18.618 2.934s-.095-.284-.19-.663c-.095-.378-.38-.946-1.045-1.42-.57-.472-1.52-.662-2.374-.283-.855.284-1.615 1.23-1.615 2.366 0 1.136.76 1.987 1.615 2.366s1.804.095 2.374-.284c.57-.473.855-.946 1.045-1.42.095-.473.095-.662.19-.662 0 0 .095.284 0 .662-.095.474-.285 1.136-.95 1.61-.665.567-1.71.851-2.754.473-1.045-.379-1.995-1.42-1.995-2.745 0-1.325.95-2.46 1.995-2.745 1.045-.378 2.184-.094 2.754.473.665.568.95 1.136.95 1.61.095.378 0 .662 0 .662zM31.157 2.934s-.095-.284-.19-.663c-.095-.378-.38-.946-1.045-1.42-.57-.472-1.52-.662-2.375-.283-.854.284-1.614 1.23-1.614 2.366 0 1.136.76 1.987 1.614 2.366.855.379 1.805.095 2.375-.284.57-.473.855-.946 1.045-1.42.19-.473.19-.662.19-.662s.095.284 0 .662c-.095.474-.285 1.136-.95 1.61-.665.567-1.71.851-2.754.473-1.045-.379-1.995-1.42-1.995-2.745 0-1.325.95-2.46 1.995-2.745 1.044-.378 2.184-.094 2.754.473.665.568.95 1.136.95 1.61.095.378.095.662 0 .662z" transform="translate(35 .908) translate(468.307 99.375) translate(24.698 23.66)"/>
                </g>
            </g>
            <g>
                <path fill="#E8505B" d="M60.035 42.968c0-8.14-8.55-13.25-17.289-9.18-1.995.946-3.61 2.46-4.56 4.353-2.184 4.259-1.234 9.086.76 13.06l6.84 17.131c.95 2.46 4.464 2.46 5.414 0l6.65-17.225c2.28-5.205 2.185-8.14 2.185-8.14zm-8.17 7.098c-5.89 3.407-11.779-2.84-8.644-9.086.475-.851 1.045-1.514 1.9-1.987 5.89-3.407 11.779 2.84 8.644 9.086-.475.851-1.14 1.514-1.9 1.987z" transform="translate(35 .908) translate(0 17.982)"/>
                <path fill="#263238" d="M90.242 70.982s.095.095.095.284c.095.19.19.473.285.947.285.851.665 1.987 1.14 3.596 1.045 3.123 2.564 7.76 4.464 13.723l.095.19h-.19c-5.32-.947-11.779-2.177-19.188-3.502h-.095v-.095l.285.095c-5.7 4.353-13.299 7.855-22.133 9.085-2.185.284-4.465.474-6.744.474-2.28-.095-4.655-.095-7.03-.568-2.375-.284-4.75-.947-7.124-1.61-1.14-.378-2.375-.851-3.515-1.324-.57-.19-1.14-.473-1.71-.757l-1.71-.852c-4.56-2.272-8.929-5.395-12.823-9.275-3.8-3.786-7.03-8.518-9.404-13.629C.19 57.448-.855 44.955 2.85 33.41c3.324-10.505 10.449-19.402 19.093-25.27C30.683 2.461 40.846-.284 50.44.19c9.595.284 18.429 3.597 25.458 8.424 6.934 4.92 12.254 11.167 15.389 17.603 3.23 6.436 4.75 12.966 5.034 18.645.475 5.678-.38 10.694-1.33 14.575-.95 3.88-2.28 6.814-3.134 8.707-.475.946-.855 1.703-1.14 2.082-.285.473-.38.663-.475.757.095-.094.19-.284.38-.757.285-.473.57-1.23 1.045-2.177.855-1.893 2.09-4.827 3.04-8.707.95-3.88 1.71-8.802 1.234-14.48-.38-5.679-1.805-12.115-5.13-18.456-3.229-6.435-8.453-12.587-15.293-17.414C68.584 4.26 59.75.946 50.25.662 40.751.19 30.682 2.934 22.038 8.613c-8.55 5.774-15.484 14.575-18.903 24.986C-.475 45.05.57 57.448 5.225 67.575c2.374 5.11 5.509 9.748 9.309 13.534 3.8 3.786 8.074 6.909 12.634 9.18l1.71.852c.57.284 1.14.568 1.71.757 1.14.473 2.374.852 3.514 1.325 2.375.663 4.75 1.325 7.124 1.61 2.375.472 4.655.472 7.03.567 2.28 0 4.56-.095 6.744-.473 8.74-1.136 16.339-4.732 22.038-8.991l.285-.19v.284l-.095-.189c7.41 1.42 13.869 2.555 19.093 3.597l-.095.189c-1.9-5.963-3.324-10.6-4.37-13.723-.474-1.61-.854-2.745-1.14-3.597-.094-.378-.19-.662-.284-.946-.19-.19-.19-.379-.19-.379z" transform="translate(35 .908) translate(0 17.982)"/>
            </g>
            <g>
                <g fill="#455A64">
                    <path d="M54.335 28.488c-.095 0-.095-.568-.19-1.704 0-.568-.095-1.23-.19-1.988-.095-.757-.19-1.703-.57-2.744-.475-1.988-1.33-4.448-2.85-7.004-1.424-2.555-3.61-5.205-6.554-7.477-2.945-2.271-6.554-4.164-10.829-5.016-4.275-.851-9.024-.757-13.584.852-2.28.757-4.56 1.893-6.65 3.407-1.044.663-1.994 1.61-2.944 2.461-.855.946-1.805 1.893-2.565 2.934-3.324 4.164-5.224 9.464-5.414 15.048C1.9 32.841 3.61 38.33 6.649 42.59c.76 1.136 1.615 2.082 2.47 3.029.95.852 1.805 1.798 2.85 2.555 1.995 1.61 4.18 2.84 6.46 3.691 4.559 1.893 9.308 2.082 13.583 1.515 4.275-.663 8.074-2.366 11.114-4.543 3.04-2.177 5.32-4.732 6.84-7.193 1.614-2.46 2.66-4.827 3.134-6.814.38-.947.475-1.893.665-2.65.19-.758.285-1.42.285-1.988l.285-1.703c.095 0 .095.567 0 1.703 0 .568 0 1.23-.19 2.082-.095.852-.19 1.704-.57 2.745-.475 2.082-1.425 4.543-3.04 7.098-1.614 2.555-3.894 5.3-6.934 7.572-3.135 2.27-7.03 4.164-11.494 4.826-4.465.663-9.5.473-14.249-1.42-2.374-.851-4.75-2.176-6.839-3.88-1.045-.757-1.995-1.703-3.04-2.65-.855-1.04-1.805-2.082-2.564-3.218C2.185 38.804.38 33.03.475 27.163c.19-5.868 2.28-11.547 5.7-15.9.854-1.136 1.804-2.083 2.754-3.03 1.045-.85 1.995-1.797 3.135-2.554 2.185-1.515 4.56-2.745 7.03-3.502C23.937.473 28.971.473 33.436 1.42c4.465.946 8.264 3.028 11.209 5.394 2.945 2.461 5.13 5.206 6.554 7.856 1.425 2.65 2.28 5.205 2.66 7.287.285 1.041.285 1.988.38 2.745.095.852.095 1.514.095 2.082.095 1.136.095 1.704 0 1.704z" transform="translate(35 .908) translate(322.97) translate(20.898 20.821)"/>
                    <path d="M49.016 11.925c.095.095-.38.473-1.33 1.136-.475.378-1.045.757-1.71 1.23-.38.19-.665.473-1.045.757-.38.19-.855.473-1.33.663-3.515 2.082-9.214 4.164-15.579 3.88-.76 0-1.614-.095-2.374-.095-.76-.094-1.52-.284-2.28-.378-.38-.095-.76-.095-1.14-.19-.38-.094-.665-.189-1.045-.283-.665-.19-1.425-.379-1.995-.568-2.565-.947-4.844-1.988-6.65-3.029-3.514-2.177-5.319-4.07-5.129-4.259.19-.189 2.09 1.515 5.7 3.313 1.805.946 3.99 1.893 6.554 2.65.665.19 1.33.284 1.995.473.38.095.665.19 1.045.284.38.095.665.095 1.045.19.665.094 1.425.188 2.185.283.76 0 1.52.095 2.28.095 6.079.19 11.493-1.61 15.103-3.407.475-.19.855-.379 1.33-.568.38-.19.76-.473 1.14-.663.665-.378 1.235-.662 1.805-1.04.76-.285 1.425-.569 1.425-.474zM6.554 44.104c-.095-.095.38-.474 1.33-1.136.475-.379 1.045-.757 1.71-1.23.38-.19.665-.474 1.045-.758.38-.189.855-.473 1.33-.662 3.515-2.082 9.214-4.164 15.578-3.88.76 0 1.615.094 2.375.094.76.095 1.52.284 2.28.379.38.094.76.094 1.14.189.38.095.665.19 1.045.284.665.19 1.425.379 1.995.568 2.564.946 4.844 1.987 6.65 3.028 3.514 2.177 5.319 4.07 5.129 4.26-.19.189-2.09-1.515-5.7-3.313-1.805-.947-3.99-1.893-6.554-2.65-.665-.19-1.33-.284-1.995-.473-.38-.095-.665-.19-1.045-.284-.38-.095-.665-.095-1.045-.19-.665-.094-1.425-.189-2.185-.284-.76 0-1.52-.094-2.28-.094-6.079-.19-11.493 1.609-15.103 3.407-.475.19-.855.378-1.33.568-.38.19-.76.473-1.14.662-.665.379-1.235.663-1.805 1.041-.76.284-1.33.568-1.425.474zM54.335 29.055c0 .379-11.874.474-26.598.095-14.628-.379-26.502-.946-26.502-1.325s11.874-.473 26.597-.095c14.63.284 26.503.947 26.503 1.325z" transform="translate(35 .908) translate(322.97) translate(20.898 20.821)"/>
                    <path d="M26.598 54.23c-.38 0-.475-11.83-.095-26.5.38-14.575.95-26.405 1.33-26.405.38 0 .474 11.83.094 26.5-.38 14.575-.95 26.405-1.33 26.405z" transform="translate(35 .908) translate(322.97) translate(20.898 20.821)"/>
                    <path d="M26.598 54.23c-.095.19-3.04-1.798-6.365-6.34-1.71-2.272-3.42-5.111-4.75-8.613s-2.184-7.572-2.09-11.83c.096-4.354 1.14-8.33 2.66-11.736 1.52-3.407 3.42-6.152 5.225-8.329 3.61-4.259 6.554-6.246 6.65-6.057.19.19-2.565 2.366-5.795 6.72-1.615 2.176-3.42 4.921-4.75 8.234-1.424 3.312-2.374 7.098-2.47 11.262-.094 4.07.666 8.045 1.9 11.357 1.235 3.407 2.85 6.152 4.37 8.423 2.945 4.449 5.51 6.72 5.415 6.91zM28.497 1.325c.095-.19 3.04 1.798 6.365 6.341 1.71 2.271 3.42 5.11 4.75 8.613 1.33 3.501 2.184 7.571 2.09 11.83-.096 4.353-1.14 8.328-2.66 11.736-1.52 3.407-3.42 6.151-5.225 8.328-3.61 4.26-6.554 6.247-6.65 6.057-.19-.189 2.565-2.366 5.795-6.72 1.615-2.176 3.42-4.92 4.75-8.233 1.424-3.313 2.374-7.098 2.47-11.263.094-4.07-.666-8.044-1.9-11.357-1.235-3.407-2.85-6.152-4.37-8.423-2.945-4.448-5.605-6.72-5.415-6.909z" transform="translate(35 .908) translate(322.97) translate(20.898 20.821)"/>
                </g>
                <path fill="#263238" d="M22.133 88.018s-.095 0-.285.094c-.19.095-.57.095-.95.19-.855.19-2.09.473-3.705.852-3.23.757-7.979 1.798-14.153 3.217h-.19l.095-.189c1.425-5.205 3.23-11.452 5.224-18.645v-.094h.095l-.19.284C4.274 67.67 1.33 59.814.95 50.917c-.095-2.176-.095-4.447.19-6.813.38-2.272.57-4.638 1.235-6.91.475-2.365 1.425-4.637 2.185-7.003.57-1.136 1.044-2.271 1.614-3.407.285-.568.57-1.136.95-1.704.285-.567.665-1.135.95-1.609 2.66-4.353 6.175-8.423 10.354-11.83 4.18-3.502 9.12-6.246 14.439-8.14 10.734-3.785 23.273-3.69 34.577.947 10.259 4.26 18.523 12.114 23.558 21.2 4.94 9.18 6.744 19.497 5.414 28.96-1.14 9.465-5.224 17.983-10.639 24.513-5.51 6.436-12.254 11.168-18.998 13.724-6.744 2.65-13.394 3.501-19.093 3.407-5.795-.095-10.64-1.325-14.439-2.556-3.8-1.325-6.554-2.839-8.454-3.88-.95-.568-1.615-.946-1.995-1.325-.285-.284-.475-.379-.665-.473.095.094.285.19.665.378.475.284 1.14.758 2.09 1.23 1.805 1.042 4.654 2.462 8.454 3.786 3.8 1.23 8.644 2.461 14.344 2.461 5.7.095 12.254-.757 18.903-3.407 6.744-2.555 13.299-7.287 18.808-13.628 5.32-6.436 9.404-14.86 10.544-24.324 1.33-9.37-.475-19.59-5.414-28.677-5.035-8.99-13.204-16.657-23.273-20.916C56.14.284 43.696.19 33.057 3.975c-5.32 1.893-10.164 4.543-14.344 8.045-4.18 3.407-7.599 7.476-10.259 11.735-.285.568-.665 1.041-.95 1.61-.285.567-.665 1.04-.95 1.608-.57 1.136-1.045 2.272-1.614 3.407-.855 2.272-1.71 4.543-2.185 6.91-.665 2.27-.855 4.637-1.235 6.908-.19 2.272-.285 4.543-.19 6.72.38 8.802 3.23 16.562 7.03 22.62l.19.283h-.286l.19-.094C6.46 80.92 4.654 87.26 3.134 92.37l-.094-.189c6.08-1.325 10.924-2.366 14.153-3.123 1.615-.379 2.85-.663 3.705-.757.38-.095.76-.19.95-.19.19-.094.285-.094.285-.094z" transform="translate(35 .908) translate(322.97)"/>
            </g>
        </g>
        <g>
            <path fill="#E8505B" d="M48.021 6.632c-4.659 1.042-7.607 5.779-8.653 10.42-.95 4.643-.475 9.474-.95 14.211-.476 4.737-2.093 9.758-6.087 12.316l3.994 1.137c-.76 2.463-2.472 4.642-4.66 5.968 1.522 1.232 3.519 1.895 5.42 1.8-2.376.663-2.947 3.98-1.71 5.969 1.33 2.084 3.708 3.031 6.085 3.6 2.758.663 5.706 1.042 8.463.284 3.9-1.137 6.752-4.548 8.178-8.242 1.522-3.695 1.712-7.769 1.902-11.842.285-10.042-.285-20.18-2.853-29.842-.665-2.369-1.521-4.832-3.518-6.253-1.997-1.421-5.42-.853-5.99 1.516" transform="translate(372 105.908)"/>
            <path fill="#455A64" d="M153.098 151.484c-1.14-4.168-7.512-27.758-13.313-43.2-6.37-17.147-19.494-20.652-19.494-20.652-29.573-10.043-56.199-10.137-84.631-.285-.951.285-1.807.569-2.663.948h-.095c-21.11 8.242-23.298 30.41-23.298 30.41l-8.843 53.81c-.095.474-.19.853-.19 1.327l-.096.474c-.38 5.02 2.568 10.042 7.227 12.126 12.362 5.684 24.154 4.358 34.329.19l-7.418 10.705h87.866l-5.896-14.116 1.997-8.526 13.598 16.294c1.616 1.99 3.804 3.411 6.276 4.074 15.69 1.8 18.258-21.505 15.31-35.052" transform="translate(372 105.908)"/>
            <path fill="#FFBE9D" d="M97.47 81.853s-14.17 71.052-19.21 70.484c-5.04-.569-28.432-69.158-28.432-69.158s29.954-7.958 47.641-1.326z" transform="translate(372 105.908)"/>
            <g>
                <g>
                    <path fill="#FFBE9D" d="M14.454 78.537c-.095-8.148-.285-16.769-.285-16.769S3.613 60.063 1.33 46.326c-2.187-13.073-.19-43.39-.19-43.39C16.356-3.315 34.423.664 45.264 12.696l-.476 66.41c-.095 7.674-6.751 13.832-15.024 13.642-8.368 0-15.215-6.442-15.31-14.21z" transform="translate(372 105.908) translate(40.89) translate(1.902 8.526)"/>
                    <path fill="#EB996E" d="M14.169 61.768s9.319.569 18.448-5.02c0 0-4.47 9.473-18.258 8.241l-.19-3.22z" transform="translate(372 105.908) translate(40.89) translate(1.902 8.526)"/>
                </g>
                <path fill="#E8505B" d="M39.748 10.232C34.804 17.526 21.586 25.105 12.077 27c1.046-1.516 6.941-5.21 7.987-6.726C15.785 23.589 9.7 28.042 3.9 28.42c-.666 0-1.427.095-1.997-.284-.76-.474-.951-1.326-1.046-2.18-.476-3.315-.285-9.094.19-12.504.475-3.316 1.997-6.727 4.85-9C9.509 1.516 14.834.758 19.779.568c4.184-.19 8.463 0 12.267 1.421 3.804 1.422 7.132 4.358 7.798 7.864" transform="translate(372 105.908) translate(40.89)"/>
                <path fill="#E8505B" d="M56.01 43.484c.665-3.6 1.14-6.916 1.235-9.19.286-7.105 2.378-32.683-22.061-30.22l1.426 6.915s-4.564 15.916 5.991 26.716c0 0-3.043 22.453 4.28 29.748-.096-.095 7.797-16.295 9.128-23.969" transform="translate(372 105.908) translate(40.89)"/>
                <path fill="#FFBE9D" d="M42.22 36.474c1.427-.285 3.044-.285 4.47.284 1.427.474 2.663 1.516 3.233 2.937.57 1.326.57 2.937.095 4.358-.475 1.42-1.426 2.652-2.472 3.694-.76.758-1.617 1.421-2.663 1.8-1.046.285-2.282.19-3.043-.473" transform="translate(372 105.908) translate(40.89)"/>
                <path fill="#EB996E" d="M43.077 45.379c-.19.095.475.947 1.806.568.666-.19 1.237-.758 1.617-1.42.38-.759.666-1.516.76-2.464.096-.947-.094-1.895-.665-2.558-.475-.663-1.236-1.137-1.902-1.137-1.426 0-1.806.948-1.616.948.095.095.665-.38 1.521-.19.856.19 1.712 1.327 1.522 2.842-.19 1.516-.761 2.937-1.522 3.221-.856.474-1.426.095-1.521.19z" transform="translate(372 105.908) translate(40.89)"/>
            </g>
            <path fill="#263238" d="M34.709 153.19c-.096 0-.286-5.59-.286-12.506s.095-12.505.286-12.505c.19 0 .285 5.59.285 12.505 0 6.916-.095 12.505-.285 12.505z" transform="translate(372 105.908)"/>
            <g>
                <g fill="#FFBE9D">
                    <path d="M14.359.853S1.997.947 1.236 3.695C-.095 8.242 2.282 32.968 2.282 32.968l11.316 3.79s5.515-1.232 2.948-11.747C13.979 14.495 9.034 6.158 9.034 6.158s15.12.379 14.644-2.937c-.38-3.505-9.32-2.368-9.32-2.368z" transform="translate(372 105.908) translate(56.104 98.526) translate(0 28.421)"/>
                    <path d="M9.414 8.147c.666-.094 15.785-1.42 14.834 1.042-.95 2.369-14.834 3.032-14.834 3.032V8.147z" transform="translate(372 105.908) translate(56.104 98.526) translate(0 28.421)"/>
                </g>
                <path fill="#263238" d="M57.911 0.189L56.009 47.084 49.163 65.179 6.847 66.032 5.135 7.863z" transform="translate(372 105.908) translate(56.104 98.526)"/>
            </g>
            <path fill="#263238" d="M56.39 144.379s-.19.095-.476.284c-.38.19-.856.38-1.521.663-1.427.569-3.329 1.421-5.61 2.369-4.85 1.99-11.412 4.737-18.639 7.768-3.613 1.516-7.132 2.937-10.27 4.169-3.138 1.231-5.99 2.463-8.178 3.79-2.187 1.325-3.708 2.746-4.564 3.883-.856 1.137-1.141 1.895-1.236 1.895 0 0 .095-.19.19-.568.19-.38.475-.853.856-1.421.856-1.232 2.377-2.748 4.564-4.074 2.187-1.421 5.04-2.558 8.273-3.884 3.138-1.327 6.657-2.748 10.27-4.264 7.322-2.936 13.884-5.684 18.733-7.578l5.706-2.274c.665-.284 1.14-.474 1.521-.569.095-.19.285-.284.38-.19zM70.368 162.758s-.285.379-.95 1.137c-.666.663-1.522 1.705-2.758 2.842-2.378 2.368-5.801 5.495-9.7 8.81-3.899 3.316-7.607 6.064-10.365 8.053-1.331.947-2.472 1.8-3.233 2.274-.76.568-1.236.758-1.236.758s.38-.38 1.14-.948c.857-.663 1.903-1.42 3.139-2.368 2.662-2.084 6.276-4.927 10.27-8.148 3.899-3.315 7.417-6.347 9.794-8.715 1.237-1.137 2.187-2.085 2.853-2.748.57-.663.951-1.042 1.046-.947zM134.08 192.79c-.095.094-6.276-7.011-13.884-15.822-7.512-8.81-13.598-16.01-13.503-16.105.095-.095 6.276 7.01 13.884 15.821 7.512 8.81 13.598 16.01 13.503 16.105zM145.966 158.684s-.475-.19-1.331-.473c-.856-.38-2.092-.853-3.614-1.516-3.042-1.327-7.227-3.41-11.696-5.969-4.47-2.558-8.273-5.115-11.03-7.105-1.332-.947-2.473-1.8-3.139-2.368-.76-.569-1.14-.948-1.14-.948s.475.284 1.236.758c.855.569 1.901 1.326 3.233 2.274 2.757 1.895 6.656 4.358 11.03 6.916 4.47 2.558 8.559 4.642 11.602 6.063 1.426.663 2.662 1.231 3.613 1.705.856.379 1.236.568 1.236.663z" transform="translate(372 105.908)"/>
            <path fill="#263238" d="M124.095 148.358c-.095 0-.856-5.021-1.616-11.18-.761-6.157-1.332-11.273-1.142-11.273.096 0 .856 5.021 1.617 11.18.76 6.252 1.236 11.273 1.141 11.273zM88.34 45.284s-.095.19-.38.569c-.285.473-.76.947-1.236 1.61-1.141 1.421-2.568 3.41-4.374 5.684v-.284c2.092 1.61 4.564 3.6 7.132 5.59.19.19.475.379.665.473h-.38c2.282-2.842 4.374-5.494 6.18-7.673v.284c-1.901-1.516-3.422-2.842-4.659-3.79-.475-.473-.95-.758-1.236-1.042-.285-.284-.475-.379-.38-.379 0 0 .19.095.475.285.38.284.856.568 1.332.947 1.236.947 2.852 2.179 4.754 3.6l.19.095-.095.19c-1.807 2.273-3.899 4.925-6.086 7.768l-.19.189-.19-.19c-.19-.189-.475-.378-.666-.473-2.567-2.084-5.04-3.98-7.132-5.59l-.19-.094.095-.19c1.807-2.274 3.329-4.168 4.565-5.59.475-.568.95-1.136 1.331-1.515l.475-.474z" transform="translate(372 105.908)"/>
            <path fill="#FFBE9D" d="M106.503 160.105c-6.942-.094-16.166-1.516-20.445-2.179-7.987-1.231-7.892-1.99-7.607-2.937.76-2.463 14.169 1.706 11.791-.852-2.377-2.558-16.926-3.126-15.975-5.684 1.141-3.316 15.12 1.326 16.356 1.61 1.14.284 1.616-1.42.57-1.61-1.616-.285-18.162-3.98-17.021-7.2.665-1.8 3.708-.285 3.708-.285s15.31 4.548 15.786 3.032c.475-1.61-8.368-4.547-11.506-5.305-3.043-.758-3.9-2.558-2.473-3.6.951-.758 10.365 1.516 13.408 2.368 3.043.853 11.221 3.316 8.083-1.137-.095-.094-.095-.19-.095-.19-3.233-4.357-4.184-8.81-3.614-10.325.57-1.422 2.568-1.327 3.424 0 .095.189.285.473.285.757 0 .095.095.285.095.38.57 1.42 1.807 3.41 2.758 4.83.95 1.422 2.092 2.559 3.423 3.6 1.521 1.138 5.515 5.306 6.656 6.064" transform="translate(372 105.908)"/>
        </g>
        <g>
            <g>
                <g>
                    <path fill="#B78876" d="M32.664 94.782c-8.925-.19-16.047-7.292-16.332-16.098-.19-7.385-.38-14.487-.38-14.487S2.374 62.967 1.33 49.521C.38 36.075.76 5.113.76 5.113c15.193-7.67 33.33-6.533 47.383 3.03l2.089 1.42-.57 68.742c-.19 9.185-7.786 16.57-16.997 16.477z" transform="translate(82 106.908) translate(70.266) translate(11.394 8.522)"/>
                    <path fill="#A36957" d="M15.857 63.913s8.546.19 17.282-6.06c0 0-3.513 9.942-17.092 9.563l-.19-3.503z" transform="translate(82 106.908) translate(70.266) translate(11.394 8.522)"/>
                    <g>
                        <path fill="#B78876" d="M.095 2.462C.095 1.42.95.473 1.994.473c2.469-.094 6.647.947 7.027 7.86.57 9.847-8.926 7.385-9.021 7.1C0 15.15 0 6.25.095 2.463z" transform="translate(82 106.908) translate(70.266) translate(11.394 8.522) translate(49.376 23.671)"/>
                        <path fill="#A36957" d="M2.184 11.457s.19.095.475.19c.285.094.76.189 1.33 0 1.044-.474 1.803-2.178 1.803-3.883 0-.947-.285-1.704-.664-2.462-.38-.662-.855-1.136-1.33-1.23-.57-.095-.854.284-.95.568-.094.284 0 .473-.094.473 0 0-.19-.19-.19-.568 0-.19.095-.474.38-.663.19-.19.57-.284.95-.284.759 0 1.518.663 1.898 1.42.475.758.76 1.705.76 2.746.095 1.989-.855 3.882-2.28 4.356-.664.19-1.233 0-1.613-.19-.475-.189-.475-.473-.475-.473z" transform="translate(82 106.908) translate(70.266) translate(11.394 8.522) translate(49.376 23.671)"/>
                    </g>
                </g>
                <path fill="#263238" d="M46.148 8.995c-1.804 4.166-.95 9.374 2.279 12.593 1.329 1.326 3.038 2.368 4.178 3.977 2.373 3.125 1.994 7.48 2.373 11.457.19 1.8.57 3.788 1.9 5.019 1.329 1.23 3.893 1.325 4.747-.284.285-.474.38-1.042.475-1.61.855-4.356 1.614-8.711 2.469-13.161.664-3.315 1.234-6.629.664-9.943-.664-3.882-3.038-7.385-6.266-9.468-3.324-2.083-7.502-2.746-11.3-1.704" transform="translate(82 106.908) translate(70.266)"/>
                <path fill="#263238" d="M48.142 6.25c-4.558-.853-7.122-2.368-10.35-3.788-3.229-1.42-6.837-2.083-10.255-1.136-2.28.662-4.463 1.988-6.837 1.988-2.374 0-4.463-1.42-6.742-2.083-3.038-.947-6.457-.568-9.305.947C2.469 3.408.475 5.586.285 8.238c-.19 2.65 2.184 5.397 4.558 4.64-2.47.851-3.514 4.544-2.28 6.911 1.235 2.462 4.084 3.504 6.648 3.125 2.563-.379 4.842-2.083 6.741-4.071.095 2.935 3.039 5.018 5.792 4.923 2.754-.095 5.223-1.704 7.502-3.409 2.279-1.704 4.558-3.503 7.311-4.166 1.9-.378 3.799-.19 5.698-.378 1.899-.19 3.893-1.042 4.842-2.841.95-1.8 4.558-3.882 2.659-3.977" transform="translate(82 106.908) translate(70.266)"/>
                <path fill="#263238" d="M21.175 20.736s.285.284 1.044.568c.665.284 1.804.38 3.039 0 .664-.189 1.33-.473 1.994-.852.665-.379 1.33-.947 2.089-1.42.76-.568 1.52-1.042 2.374-1.515.854-.474 1.899-.758 2.943-.758 2.09 0 3.988.569 5.792.38 1.71-.096 3.134-1.042 3.894-2.084.76-1.041 1.044-2.083 1.139-2.84.095-.758 0-1.137.095-1.137 0 0 0 .095.095.284 0 .19.095.474.095.852 0 .758-.285 1.894-1.045 3.03-.38.569-.95 1.137-1.614 1.515-.665.474-1.52.758-2.469.758-1.804.19-3.798-.379-5.792-.379-1.994 0-3.703 1.136-5.127 2.178-.76.473-1.425 1.041-2.09 1.42-.664.379-1.424.663-2.088.852-1.33.38-2.47.19-3.229-.189-.38-.19-.57-.379-.76-.473-.38-.095-.38-.19-.38-.19zM46.812 1.515c.19 0-.19 1.42.285 3.125.38 1.704 1.33 2.84 1.235 2.935-.095.095-1.235-.947-1.71-2.746-.474-1.799.095-3.314.19-3.314zM51.845 1.326c.095.094-1.14 1.23-1.994 3.03-.95 1.799-1.14 3.503-1.33 3.408-.094 0-.094-1.799.855-3.693.95-1.799 2.374-2.84 2.469-2.745z" transform="translate(82 106.908) translate(70.266)"/>
            </g>
            <path fill="#B78876" d="M185.635 141.745L206.24 194.769 174.621 194.769 159.903 156.989zM73.59 98.663S46.337 126.69 34.562 126.69c-3.893 0-6.836-46.586-6.931-60.031 1.044-2.462 1.519-3.409 2.658-4.829 1.045-1.326 2.09-2.746 3.419-3.787 1.614-1.326 3.893-2.936 5.317-3.41 1.804-.662 1.994-3.124.285-3.692-1.71-.473-6.837 1.136-11.394 5.492-4.558 4.355-3.229-5.397-2.754-8.9.475-3.504 1.234-14.582.285-15.53-1.425-1.42-3.324-.094-3.609 3.41-.38 3.598-2.183 14.108-3.988 13.824-1.804-.284.665-18.275.665-18.275s1.14-3.787-.95-4.166c-3.988-.568-5.222 18.653-5.222 20.547 0 1.23-2.089 1.042-1.994-.284.095-1.42 2.849-17.896-1.044-18.653-3.039-.568-1.14 15.812-3.609 19.032-2.469 3.124-.19-12.594-3.038-13.067-1.045-.19-1.9-.095-1.9 9.09 0 4.924 1.9 12.404 1.14 21.967 1.234 28.216-.095 107.28 31.335 97.905 34.563-10.32 58.207-32.856 58.207-32.856L73.589 98.663z" transform="translate(82 106.908)"/>
            <path fill="#263238" d="M149.933 123.755l.284 1.136c.19.757.38 1.799.665 3.124.475 2.652 1.045 6.25 1.52 10.227.474 4.071.664 7.67.759 10.32 0 1.326.095 2.367.095 3.125 0 .757 0 1.136-.095 1.136 0 0-.095-.379-.095-1.136-.095-.852-.095-1.894-.19-3.125-.19-2.65-.475-6.249-.95-10.32-.474-3.977-.949-7.67-1.329-10.227-.19-1.23-.38-2.272-.475-3.124-.19-.758-.284-1.136-.19-1.136z" transform="translate(82 106.908)"/>
            <g>
                <g>
                    <path fill="#455A64" d="M30.006 110.499l87.072.473-2.943-18.37c1.33-12.592-.095-26.132-.095-26.132l4.368 11.93 35.987-17.99s-13.103-34.75-24.023-46.586C116.509-1.042 91.631.38 91.631.38L74.824 11.74 59.346.947S47.002 2.083 35.418 7.859l-.76.19v.189C25.543 12.972 12.534 24.618.095 35.886l14.338 13.919 15.857 14.77s2.66-.283 2.754-.094c.19 1.515-3.038 46.018-3.038 46.018z" transform="translate(82 106.908) translate(38.931 78.59) translate(0 5.681)"/>
                    <path fill="#000" d="M111.381 33.898l11.87 42.135-4.748 2.367-4.368-11.93c-.095 0-4.368-24.998-2.754-32.572z" opacity=".2" transform="translate(82 106.908) translate(38.931 78.59) translate(0 5.681)"/>
                </g>
                <path fill="#455A64" d="M58.397 6.439V1.894S71.975.852 74.729 16.854c0 0 4.463-14.96 17.661-16.475l1.9 7.007S88.021 26.89 87.167 27.08c-.95.19-12.344 3.504-12.344 3.504l-6.647-1.515-7.406-8.333L58.397 6.44z" transform="translate(82 106.908) translate(38.931 78.59)"/>
                <path fill="#263238" d="M94.574 6.912l-.76.758-2.088 2.083c-1.71 1.799-3.893 4.45-5.887 7.764l-1.14 1.988-.19.38-.19-.38c-1.519-2.84-2.848-5.302-3.893-7.196-.285-.473-.57-.757-.854-.947-.285-.19-.665-.284-.95-.378-.57 0-.855.189-.855.189s.19-.284.855-.284c.285 0 .665.095 1.045.284.38.19.664.568 1.044 1.041 1.045 1.8 2.469 4.261 3.988 7.197h-.475l1.14-1.989c1.994-3.314 4.273-5.965 6.077-7.764.854-.852 1.614-1.515 2.184-1.988.664-.569.95-.853.95-.758zM57.542 7.67s.285.189.665.662c.38.474.95 1.137 1.614 1.989 1.33 1.704 3.229 3.977 5.223 6.628.095.19.19.284.284.379h-.38c.76-1.326.76-2.841 1.14-4.261.285-1.326.95-2.557 1.9-3.125.949-.568 1.898-.568 2.468-.284.285.095.475.284.57.379.095.094.19.19.095.19 0 0-.285-.19-.76-.38-.475-.189-1.424-.094-2.184.38-.76.567-1.33 1.703-1.614 2.934-.285 1.326-.38 2.84-1.14 4.356l-.19.379-.19-.284c-.094-.095-.19-.284-.284-.38-1.994-2.65-3.798-5.018-5.128-6.722-.664-.852-1.14-1.61-1.52-2.083-.474-.473-.569-.757-.569-.757zM67.228 116.18v-.284-.758c0-.663.094-1.704.19-2.935.19-2.557.38-6.155.664-10.605.665-8.995 1.52-21.399 2.374-35.034 1.044-13.73 1.899-26.038 2.564-35.034.38-4.45.664-8.048.854-10.604.095-1.231.19-2.178.285-2.841 0-.284.095-.568.095-.757v-.285 1.042c0 .663-.095 1.704-.19 2.935-.19 2.557-.38 6.155-.664 10.605-.665 8.995-1.52 21.4-2.374 35.129-1.045 13.634-1.9 26.038-2.564 35.033-.38 4.45-.665 8.049-.855 10.605-.095 1.231-.19 2.178-.285 2.936 0 .284-.094.568-.094.757v.095zM35.893 31.91s0 .567-.095 1.514c-.095 1.042-.19 2.462-.285 4.072-.285 3.408-.57 8.237-.855 13.54-.285 5.302-.57 10.036-.95 13.54-.19 1.704-.38 3.124-.474 4.071-.19.947-.285 1.515-.285 1.515s0-.568.095-1.515c.095-1.041.19-2.461.285-4.071.285-3.409.57-8.238.854-13.54.285-5.303.57-10.037.95-13.54.19-1.705.38-3.125.475-4.072.19-.947.285-1.515.285-1.515z" transform="translate(82 106.908) translate(38.931 78.59)"/>
                <g fill="#E8505B">
                    <path d="M8.261 4.166s-4.653 6.06-3.988 7.007c.665.947 3.988 5.302 3.988 5.302h2.849s2.658-7.48 1.994-8.427c-.665-.947-4.843-3.882-4.843-3.882z" transform="translate(82 106.908) translate(38.931 78.59) translate(65.518 10.415)"/>
                    <path d="M15.478 2.557L10.255 6.533 12.249 10.321 17.567 6.439zM.285 5.113L5.033 8.995 7.596 5.113 1.709.568zM8.261 16.475L1.139 80.578 8.166 102.829 17.567 80.767 11.394 15.718z" transform="translate(82 106.908) translate(38.931 78.59) translate(65.518 10.415)"/>
                </g>
                <path fill="#263238" d="M123.915 14.96s-.285-.284-.95-.662c-.664-.284-1.709-.569-2.943-.19-1.234.379-2.469 1.326-3.703 2.557-1.235 1.23-2.374 2.746-3.324 4.45-1.994 3.503-2.753 7.101-2.848 9.753-.19 2.65.19 4.26.095 4.26l-.285-1.136c-.095-.757-.19-1.799-.19-3.124 0-2.652.76-6.344 2.754-9.942 1.044-1.8 2.184-3.314 3.513-4.545 1.234-1.231 2.564-2.273 3.893-2.557 1.33-.379 2.469-.095 3.134.379.284.19.57.379.664.568.19.095.285.19.19.19z" transform="translate(82 106.908) translate(38.931 78.59)"/>
            </g>
        </g>
        <g>
            <path fill="#263238" d="M77.607 3.892c-6.057 3.701-10.316 9.966-12.777 16.61-2.46 6.644-3.407 13.857-4.164 20.881-1.987 18.698-2.65 37.586-1.987 56.38 22.903 2.942 46.09 5.79 69.089 4.27-3.975-26.386-6.53-52.772-3.313-79.348" transform="translate(235 116.908)"/>
            <g>
                <path fill="#E8505B" d="M129.093 145.6l-16.657-33.885 6.34-24.773 1.42 9.777 35.87-1.899c1.325-.095 2.272-1.234 2.177-2.562l-7.004-49.546s-2.271-22.97-23.944-31.512h-.095c-.852-.38-1.798-.664-2.745-.95C95.211.096 67.765.096 37.29 10.537c0 0-13.534 3.701-20.064 21.356-6.53 17.749-13.25 43.755-13.25 43.755l30.38 10.726.19-5.126 6.72 25.817L26.5 144.651l51.391 1.234 51.202-.285z" transform="translate(235 116.908) translate(0 77.83)"/>
                <path fill="#E8505B" d="M3.975 75.363L.568 91.498c-2.934 13.953 7.287 28.19 21.39 29.804l74.862 7.688c16.657 1.898 31.516-10.346 32.935-27.051l-94.359-9.017.568-9.112-31.989-8.447z" transform="translate(235 116.908) translate(0 77.83)"/>
                <path fill="#FFBE9D" d="M97.577 91.878l5.773-1.044s13.818-15.092 16.373-15.376c2.082-.19 13.818-.095 17.982 0 .757 0 1.42.664 1.42 1.423 0 .76-.568 1.424-1.325 1.424l-13.818.57-.094 1.139 13.912.19c1.42.094 2.271 2.372-2.177 2.752l-11.64.38v.759l11.735 1.613c.568.095 2.177.38 2.177.95 0 0 .757 1.518-2.65 1.898-1.136.19-11.358-.19-11.358-.19l.38.95 10.6 2.277c.756.19 1.324.854 1.135 1.709-.095.759-.852 1.329-1.61 1.329l-11.262-1.045-11.073 8.922H97.198l.379-10.63z" transform="translate(235 116.908) translate(0 77.83)"/>
                <path fill="#FAFAFA" d="M60.76 3.322s14.576 74.793 19.686 74.224c5.111-.57 29.245-71.661 29.245-71.661s-30.759-9.492-48.93-2.563z" transform="translate(235 116.908) translate(0 77.83)"/>
                <path fill="#263238" d="M125.307 75.647c-.094 0-.284-5.125-.284-11.484 0-6.36.095-11.485.284-11.485.095 0 .284 5.125.284 11.485 0 6.359-.095 11.484-.284 11.484zM35.775 76.122c-.095 0 .095-1.234.284-3.322.284-2.088.662-4.84 1.041-7.973.473-3.132.852-5.885 1.23-7.973.379-1.993.568-3.322.663-3.227.094 0-.095 1.234-.284 3.322-.284 2.088-.663 4.84-1.041 7.973-.473 3.132-.852 5.885-1.23 7.973-.284 1.993-.568 3.227-.663 3.227zM77.986 145.885v-.665-1.993c0-1.708 0-4.176.094-7.308.095-6.17.474-14.712.852-24.109.379-9.396.852-17.939 1.041-24.108.095-3.038.19-5.505.19-7.309 0-.854 0-1.518.094-1.993 0-.475 0-.664.095-.664v2.657c0 1.709 0 4.176-.095 7.309-.095 6.17-.473 14.712-.852 24.108-.378 9.397-.851 17.94-1.04 24.109-.095 3.037-.19 5.505-.19 7.308 0 .854 0 1.519-.095 1.993-.094.475-.094.665-.094.665z" transform="translate(235 116.908) translate(0 77.83)"/>
                <path fill="#263238" d="M109.691 5.695s.095.285.19.95c.094.569.283 1.518.757 2.562.378 1.139 1.04 2.373 1.892 3.796.852 1.424 1.799 3.038 2.65 5.03.852 1.9 1.61 4.272 1.136 6.835-.19 1.234-.757 2.468-1.514 3.607-.757 1.139-1.704 2.088-2.65 3.132-1.893 1.993-3.975 4.081-5.679 6.549-1.703 2.468-2.934 5.41-2.934 8.637 0 1.614.379 3.132 1.041 4.461.568 1.424 1.42 2.753 1.799 4.271.189.76.378 1.52.283 2.278-.094.76-.283 1.519-.757 2.183-.851 1.33-2.082 2.183-3.123 2.943-4.448 3.322-8.518 6.264-11.83 8.732-3.407 2.468-6.057 4.461-8.045 5.885-.946.664-1.703 1.234-2.177 1.613-.189.19-.378.285-.568.38-.094.095-.189.095-.189.095l.19-.19c.189-.095.283-.285.567-.475.568-.38 1.23-.949 2.177-1.613 1.893-1.424 4.638-3.512 7.95-5.98 3.407-2.562 7.382-5.505 11.83-8.827 1.136-.854 2.272-1.708 3.03-2.847.378-.57.567-1.234.662-1.994.094-.664-.095-1.423-.284-2.088-.474-1.423-1.23-2.752-1.799-4.176-.662-1.424-1.04-3.037-1.04-4.746 0-3.322 1.324-6.359 3.028-8.827 1.703-2.563 3.786-4.65 5.773-6.549 1.893-1.898 3.691-3.986 4.07-6.454.473-2.373-.284-4.651-1.041-6.55-.852-1.898-1.799-3.511-2.65-5.03-.852-1.424-1.42-2.752-1.799-3.891-.378-1.14-.567-1.994-.662-2.658-.095-.285-.095-.57-.095-.664-.189-.285-.189-.38-.189-.38zM80.446 76.786h-.189c-.19 0-.378-.094-.662-.094-.568-.095-1.42-.38-2.556-.665-2.177-.76-5.205-2.088-8.328-4.746-1.515-1.328-3.123-3.037-4.448-5.03-1.326-1.993-2.461-4.366-3.218-6.929-.758-2.563-1.136-5.505-.947-8.447.095-1.52.284-2.943.568-4.461.284-1.424.473-3.038.095-4.461-.19-.665-.568-1.33-1.136-1.804s-1.23-.76-1.987-.949c-.663-.285-1.42-.475-2.177-.76-.663-.284-1.325-.759-1.893-1.233-1.041-1.044-1.704-2.563-1.988-3.892-.284-1.423-.284-2.847-.189-4.176.473-5.41 1.704-10.156 3.123-13.953 1.42-3.796 2.84-6.833 3.975-8.732.568-.949 1.041-1.708 1.325-2.278.19-.19.284-.38.379-.57.095-.094.095-.19.095-.19s0 .096-.095.19l-.284.57c-.284.475-.757 1.33-1.23 2.278-1.041 1.993-2.461 4.936-3.786 8.827-1.325 3.797-2.556 8.543-2.934 13.858-.095 1.329 0 2.658.284 4.081.284 1.33.852 2.658 1.798 3.702.473.475 1.136.854 1.798 1.139.663.285 1.42.475 2.082.664.758.285 1.42.57 2.083 1.044.662.57 1.135 1.234 1.325 1.994.473 1.613.189 3.227-.095 4.65-.284 1.52-.568 2.943-.568 4.367-.19 2.847.19 5.695.947 8.257 1.42 5.126 4.448 9.207 7.382 11.77 3.028 2.657 6.057 4.081 8.139 4.84 1.041.38 1.893.665 2.46.76.285.095.474.095.663.19.19.095.19.19.19.19z" transform="translate(235 116.908) translate(0 77.83)"/>
                <path fill="#E8505B" d="M119.818 91.973L57.07 89.98l.094 20.881 41.549 9.112 29.244 4.65c18.172 0 32.652-16.704 29.907-34.738h-.094l-37.952 2.088z" transform="translate(235 116.908) translate(0 77.83)"/>
                <path fill="#263238" d="M137.137 91.593s-.283 0-.851.095c-.568 0-1.325 0-2.366.095-2.082 0-5.016.095-8.613.19-7.287.095-17.225.19-28.298.095-11.073-.095-21.105-.475-28.298-1.044-3.597-.285-6.53-.475-8.518-.665-.947-.095-1.704-.19-2.366-.284-.568-.095-.852-.095-.852-.095h.852c.568 0 1.325.095 2.366.19 1.987.19 4.921.284 8.518.569 7.193.38 17.225.76 28.298.854 11.073.095 21.01 0 28.298 0H137.137z" transform="translate(235 116.908) translate(0 77.83)"/>
                <path fill="#FFBE9D" d="M56.596 91.878l-5.773-1.044S37.005 75.742 34.45 75.458c-2.082-.19-13.818-.095-17.982 0-.757 0-1.42.664-1.42 1.423 0 .76.568 1.424 1.325 1.424l13.818.57.095 1.139-13.913.19c-1.42.094-2.271 2.372 2.177 2.752l11.641.38v.759l-11.736 1.613c-.567.095-2.176.38-2.176.95 0 0-.758 1.518 2.65 1.898 1.135.19 11.357-.19 11.357-.19l-.379.95-10.6 2.277c-.757.19-1.325.854-1.136 1.709.095.759.852 1.329 1.61 1.329l11.262-1.045 11.073 8.922h14.859l-.379-10.63z" transform="translate(235 116.908) translate(0 77.83)"/>
                <path fill="#263238" d="M126.916 124.339h-.757c-.473-.095-1.23-.095-1.988-.19-1.798-.19-4.353-.474-7.476-.949-6.247-.854-14.954-2.278-24.418-4.081-9.465-1.899-17.982-3.892-24.134-5.41-3.029-.76-5.584-1.424-7.288-1.899-.851-.19-1.514-.38-1.987-.57-.473-.094-.663-.19-.663-.19s.284 0 .663.096c.473.095 1.136.285 1.987.474 1.799.475 4.26 1.044 7.288 1.804 6.152 1.518 14.67 3.417 24.134 5.315 9.464 1.898 18.077 3.322 24.418 4.271 3.123.475 5.584.854 7.382 1.14.852.094 1.514.189 1.987.284.568-.19.852-.095.852-.095zM57.827 110.956c-.095 0-.284-1.14-.568-2.942-.284-1.804-.473-4.461-.663-7.214-.189-2.847-.189-5.41-.094-7.308.094-1.899.19-3.038.19-3.038.094 0 .094 1.14.094 3.038s.094 4.46.189 7.308c.19 2.847.379 5.41.473 7.214.284 1.803.473 2.942.379 2.942zM64.641 111.715s-.095-.284-.284-.76c-.19-.474-.284-1.233-.568-2.182-.378-1.898-.757-4.556-.946-7.498-.19-2.943-.095-5.6.094-7.499.095-.949.19-1.708.284-2.278.095-.57.19-.854.19-.854.094 0 0 1.234-.095 3.132-.095 1.899-.095 4.556.095 7.499.189 2.942.568 5.505.852 7.403.283 1.898.473 3.037.378 3.037zM58.868 93.776c.094.095-.284.285-.284.95 0 .284.095.664.378.854.284.19.663.19 1.042 0 .378-.19.567-.57.473-.95-.095-.38-.284-.569-.568-.759-.473-.285-.947-.095-.947-.19-.094 0 .38-.38 1.136-.095.284.19.757.475.852.95.095.57-.19 1.139-.663 1.423-.473.285-1.23.285-1.608-.095-.379-.38-.474-.854-.474-1.233.095-.76.663-.95.663-.855zM70.32 114.847H67.859c-1.609 0-3.88.19-6.72.665-2.839.474-6.152 1.234-9.843 2.183-3.69.95-7.666 2.183-11.925 3.037-4.259.95-8.423 1.424-12.303 1.329-3.786-.095-7.193-.854-9.938-1.898-2.65-1.044-4.637-2.373-5.962-3.322-.663-.475-1.041-.95-1.42-1.234l-.473-.475s.662.57 1.893 1.519c1.23.949 3.218 2.183 5.962 3.132 2.65.95 6.058 1.709 9.749 1.803 3.785.095 7.95-.474 12.208-1.328 4.26-.95 8.234-2.089 11.925-3.038 3.692-.949 7.004-1.708 9.843-2.088 2.84-.38 5.206-.474 6.815-.474.757 0 1.42 0 1.892.095.474 0 .758.094.758.094z" transform="translate(235 116.908) translate(0 77.83)"/>
            </g>
            <g>
                <g>
                    <g>
                        <path fill="#FFBE9D" d="M31.61 81.342c1.515-8.352 3.219-17.084 3.219-17.084s11.073.095 15.71-13.478c4.448-13.004 7.666-44.326 7.666-44.326-14.29-9.017-33.314-8.068-46.47 2.373L.758 76.787c-1.23 7.877 4.448 15.28 12.872 16.61 8.517 1.328 16.562-4.082 17.982-12.055z" transform="translate(235 116.908) translate(53.946) translate(10.41) translate(1.893 8.542)"/>
                        <path fill="#EB996E" d="M34.829 64.258s-9.56-1.044-17.888-8.353c0 0 2.84 10.44 17.036 11.58l.852-3.227z" transform="translate(235 116.908) translate(53.946) translate(10.41) translate(1.893 8.542)"/>
                    </g>
                    <path fill="#263238" d="M23.093 7.403c3.69 8.258 15.805 18.319 25.175 21.926-.852-1.709-6.152-6.55-7.004-8.163 3.786 4.081 9.18 9.681 14.954 11.105.662.19 1.42.285 2.082.095.852-.285 1.23-1.234 1.42-1.993 1.04-3.322 1.892-9.302 1.987-12.719.095-3.512-.852-7.213-3.312-9.966-3.218-3.607-8.424-5.315-13.44-6.36C40.791.476 36.343-.094 32.18.665c-4.165.76-8.045 3.228-9.275 6.74" transform="translate(235 116.908) translate(53.946) translate(10.41)"/>
                    <path fill="#263238" d="M.757 38.536c0-3.797.095-7.309.379-9.587C2.082 21.641 4.354-4.936 28.77 1.9l-2.555 6.833s1.893 17.085-10.695 26.292c0 0 .095 17.084-8.612 23.16 0-.096-6.057-11.58-6.152-19.648" transform="translate(235 116.908) translate(53.946) translate(10.41)"/>
                    <path fill="#FFBE9D" d="M15.995 33.79c-1.42-.57-3.029-.76-4.543-.475-1.514.285-2.934 1.14-3.786 2.373-.852 1.329-1.136 2.943-.852 4.461.284 1.519.947 2.943 1.893 4.176.663.95 1.42 1.804 2.366 2.278.947.475 2.272.665 3.218.095" transform="translate(235 116.908) translate(53.946) translate(10.41)"/>
                    <path fill="#EB996E" d="M13.629 42.712c.189.095-.663.854-1.988.285-.662-.285-1.136-.95-1.42-1.804-.284-.76-.378-1.613-.284-2.657.095-.95.474-1.899 1.136-2.563.663-.665 1.514-.95 2.177-.854 1.42.19 1.704 1.234 1.514 1.234-.094.094-.568-.475-1.514-.475-.946 0-1.988 1.044-2.082 2.658-.095 1.613.284 3.132 1.04 3.606.663.76 1.326.475 1.42.57z" transform="translate(235 116.908) translate(53.946) translate(10.41)"/>
                </g>
                <path fill="#263238" d="M24.04 46.698c-3.786 22.685-.663 45.94 0 68.909.094 2.183.094 4.556-.947 6.454-1.514 2.942-5.016 4.461-8.329 4.65-3.312.19-6.625-.569-9.937-.853-.379-2.183-.757-4.366-1.041-6.644-1.136 2.562-2.177 5.125-3.313 7.593C1.893 110.67 3.502 94.536 5.3 78.4" transform="translate(235 116.908) translate(53.946)"/>
            </g>
        </g>
    </g>
</svg>
