<svg width="43" height="36" viewBox="0 0 43 36" fill="none" xmlns="http://www.w3.org/2000/svg">
<path fill-rule="evenodd" clip-rule="evenodd" d="M21.1509 36L5.35249 20.8898C4.49565 20.113 3.7696 19.3524 3.17584 18.6083C2.58256 17.8652 2.0956 17.096 1.71642 16.3012C1.33772 15.5074 1.06533 14.6709 0.899746 13.7913C0.735628 12.9131 0.652832 11.9326 0.652832 10.8506C0.652832 9.36338 0.891906 7.96056 1.37005 6.64208C1.84869 5.32361 2.54926 4.17534 3.47273 3.19426C4.39669 2.21419 5.55041 1.43747 6.93635 0.86208C8.3218 0.287695 9.92133 0 11.7345 0C13.5829 0 15.2221 0.338405 16.658 1.01421C18.0925 1.69052 19.304 2.5521 20.2941 3.59995C21.2832 4.6483 22.0426 5.81414 22.5697 7.09848C23.0978 8.38382 23.3785 9.65108 23.4104 10.9013C23.4104 11.2055 23.3041 11.4676 23.0895 11.687C22.8754 11.9074 22.6192 12.0169 22.3228 12.0169H20.0467C19.7831 12.0169 19.5269 11.9155 19.2795 11.7121C19.0331 11.5098 18.8592 11.2231 18.7607 10.8506C18.5628 10.0392 18.3075 9.25343 17.9935 8.49277C17.6804 7.73211 17.2508 7.0563 16.7075 6.46434C16.1627 5.87389 15.4871 5.40846 14.6788 5.07056C13.8705 4.73265 12.8897 4.56345 11.7345 4.56345C9.52598 4.56345 7.9093 5.16394 6.88686 6.36292C5.86492 7.56341 5.35249 9.05962 5.35249 10.8506C5.35249 12.3719 5.59989 13.606 6.09518 14.5524C6.58949 15.4984 7.3317 16.4282 8.3218 17.3405L22.8171 30.8787C23.2134 31.2513 23.4937 31.5721 23.6578 31.8422C23.8238 32.1129 23.9057 32.4337 23.9057 32.8057V34.6308C23.9057 35.0034 23.7739 35.3242 23.5093 35.5943C23.2463 35.8654 22.9332 36 22.5697 36H21.1509Z" fill="black"/>
<path fill-rule="evenodd" clip-rule="evenodd" d="M34.2228 17.3405C35.2192 16.4282 35.9656 15.4984 36.4636 14.5519C36.962 13.606 37.211 12.3719 37.211 10.8506C37.211 9.05912 36.6953 7.56341 35.6669 6.36292C34.638 5.16394 33.011 4.56295 30.788 4.56295C29.626 4.56295 28.639 4.73265 27.825 5.07056C27.0116 5.40846 26.3317 5.87339 25.784 6.46434C25.2367 7.0563 24.8044 7.73211 24.4898 8.49227C24.1733 9.25343 23.9169 10.0392 23.7173 10.8506C23.6182 11.2226 23.4437 11.5093 23.1957 11.7121C22.9467 11.915 22.6884 12.0164 22.4231 12.0164H20.1331C19.8343 12.0164 19.577 11.9069 19.361 11.687C19.1456 11.4676 19.0381 11.2055 19.0381 10.9013C19.0706 9.65108 19.3531 8.38331 19.8841 7.09848C20.4146 5.81414 21.1793 4.6478 22.1746 3.59945C23.1705 2.5521 24.3902 1.69052 25.8333 1.01371C27.2783 0.337903 28.9284 0 30.788 0C32.6127 0 34.2228 0.287193 35.6166 0.861578C37.0113 1.43697 38.1728 2.21419 39.1022 3.19376C40.0315 4.17484 40.737 5.32361 41.2182 6.64158C41.6993 7.96006 41.9399 9.36338 41.9399 10.8506C41.9399 11.9326 41.8566 12.9126 41.6915 13.7913C41.5253 14.6709 41.2512 15.5074 40.8696 16.3012C40.488 17.096 39.9985 17.8652 39.4014 18.6083C38.8039 19.3524 38.0732 20.1125 37.211 20.8898L26.1074 31.436H41.3429C41.7077 31.436 42.0228 31.5716 42.2885 31.8417C42.5542 32.1129 42.6868 32.4337 42.6868 32.8052V34.6308C42.6868 35.0029 42.5542 35.3237 42.2885 35.5938C42.0228 35.8654 41.7077 36 41.3429 36H19.8841C19.5188 36 19.2033 35.8654 18.9385 35.5938C18.6723 35.3237 18.5397 35.0029 18.5397 34.6308V32.8052C18.5397 32.4337 18.622 32.1129 18.7891 31.8417C18.9543 31.5716 19.2368 31.2513 19.6351 30.8787L34.2228 17.3405Z" fill="#2AC4F3"/>
</svg>
