<svg width="42" height="38" viewBox="0 0 42 38" fill="none" xmlns="http://www.w3.org/2000/svg">
<path fill-rule="evenodd" clip-rule="evenodd" d="M21.226 5.89854C13.2031 5.89854 6.69932 12.4024 6.69932 20.4252C6.69932 28.4481 13.2031 34.9519 21.226 34.9519C29.2489 34.9519 35.7527 28.4481 35.7527 20.4252C35.7527 12.4024 29.2489 5.89854 21.226 5.89854ZM5.82471 20.4252C5.82471 11.9193 12.7201 5.02393 21.226 5.02393C29.7319 5.02393 36.6273 11.9193 36.6273 20.4252C36.6273 28.9311 29.7319 35.8265 21.226 35.8265C12.7201 35.8265 5.82471 28.9311 5.82471 20.4252Z" fill="#010101"/>
<path d="M13.3802 8.72382C14.0357 8.72382 14.5671 8.19245 14.5671 7.53696C14.5671 6.88147 14.0357 6.3501 13.3802 6.3501C12.7247 6.3501 12.1934 6.88147 12.1934 7.53696C12.1934 8.19245 12.7247 8.72382 13.3802 8.72382Z" fill="white"/>
<path fill-rule="evenodd" clip-rule="evenodd" d="M13.38 6.78721C12.9661 6.78721 12.6305 7.1228 12.6305 7.53677C12.6305 7.95074 12.9661 8.28632 13.38 8.28632C13.794 8.28632 14.1296 7.95074 14.1296 7.53677C14.1296 7.1228 13.794 6.78721 13.38 6.78721ZM11.7559 7.53677C11.7559 6.63977 12.483 5.9126 13.38 5.9126C14.277 5.9126 15.0042 6.63977 15.0042 7.53677C15.0042 8.43377 14.277 9.16094 13.38 9.16094C12.483 9.16094 11.7559 8.43377 11.7559 7.53677Z" fill="#010101"/>
<path d="M31.1712 10.4333C31.8267 10.4333 32.3581 9.90192 32.3581 9.24643C32.3581 8.59095 31.8267 8.05957 31.1712 8.05957C30.5158 8.05957 29.9844 8.59095 29.9844 9.24643C29.9844 9.90192 30.5158 10.4333 31.1712 10.4333Z" fill="white"/>
<path fill-rule="evenodd" clip-rule="evenodd" d="M31.1715 8.49669C30.7576 8.49669 30.422 8.83227 30.422 9.24624C30.422 9.66021 30.7576 9.9958 31.1715 9.9958C31.5855 9.9958 31.9211 9.66021 31.9211 9.24624C31.9211 8.83227 31.5855 8.49669 31.1715 8.49669ZM29.5474 9.24624C29.5474 8.34924 30.2745 7.62207 31.1715 7.62207C32.0685 7.62207 32.7957 8.34924 32.7957 9.24624C32.7957 10.1432 32.0685 10.8704 31.1715 10.8704C30.2745 10.8704 29.5474 10.1432 29.5474 9.24624Z" fill="#010101"/>
<path d="M6.62729 24.6301C7.28278 24.6301 7.81415 24.0987 7.81415 23.4432C7.81415 22.7877 7.28278 22.2563 6.62729 22.2563C5.97181 22.2563 5.44043 22.7877 5.44043 23.4432C5.44043 24.0987 5.97181 24.6301 6.62729 24.6301Z" fill="white"/>
<path fill-rule="evenodd" clip-rule="evenodd" d="M6.6271 22.6935C6.21313 22.6935 5.87755 23.0291 5.87755 23.443C5.87755 23.857 6.21313 24.1926 6.6271 24.1926C7.04107 24.1926 7.37665 23.857 7.37665 23.443C7.37665 23.0291 7.04107 22.6935 6.6271 22.6935ZM5.00293 23.443C5.00293 22.546 5.73009 21.8188 6.6271 21.8188C7.5241 21.8188 8.25127 22.546 8.25127 23.443C8.25127 24.34 7.5241 25.0672 6.6271 25.0672C5.73009 25.0672 5.00293 24.34 5.00293 23.443Z" fill="#010101"/>
<path d="M19.3929 36.3732C20.0484 36.3732 20.5798 35.8419 20.5798 35.1864C20.5798 34.5309 20.0484 33.9995 19.3929 33.9995C18.7374 33.9995 18.2061 34.5309 18.2061 35.1864C18.2061 35.8419 18.7374 36.3732 19.3929 36.3732Z" fill="white"/>
<path fill-rule="evenodd" clip-rule="evenodd" d="M19.3932 34.4366C18.9792 34.4366 18.6437 34.7722 18.6437 35.1862C18.6437 35.6002 18.9792 35.9357 19.3932 35.9357C19.8072 35.9357 20.1428 35.6002 20.1428 35.1862C20.1428 34.7722 19.8072 34.4366 19.3932 34.4366ZM17.769 35.1862C17.769 34.2892 18.4962 33.562 19.3932 33.562C20.2902 33.562 21.0174 34.2892 21.0174 35.1862C21.0174 36.0832 20.2902 36.8104 19.3932 36.8104C18.4962 36.8104 17.769 36.0832 17.769 35.1862Z" fill="#010101"/>
<path d="M35.2372 27.0891C35.8926 27.0891 36.424 26.5577 36.424 25.9022C36.424 25.2467 35.8926 24.7153 35.2372 24.7153C34.5817 24.7153 34.0503 25.2467 34.0503 25.9022C34.0503 26.5577 34.5817 27.0891 35.2372 27.0891Z" fill="white"/>
<path fill-rule="evenodd" clip-rule="evenodd" d="M35.237 25.1524C34.823 25.1524 34.4874 25.488 34.4874 25.902C34.4874 26.316 34.823 26.6516 35.237 26.6516C35.6509 26.6516 35.9865 26.316 35.9865 25.902C35.9865 25.488 35.6509 25.1524 35.237 25.1524ZM33.6128 25.902C33.6128 25.005 34.34 24.2778 35.237 24.2778C36.134 24.2778 36.8611 25.005 36.8611 25.902C36.8611 26.799 36.134 27.5262 35.237 27.5262C34.34 27.5262 33.6128 26.799 33.6128 25.902Z" fill="#010101"/>
<path d="M21.1326 11.6841C24.359 11.6841 26.9746 9.06852 26.9746 5.84204C26.9746 2.61557 24.359 0 21.1326 0C17.9061 0 15.2905 2.61557 15.2905 5.84204C15.2905 9.06852 17.9061 11.6841 21.1326 11.6841Z" fill="#49A464"/>
<path d="M5.9104 21.2778C9.13688 21.2778 11.7524 18.6623 11.7524 15.4358C11.7524 12.2093 9.13688 9.59375 5.9104 9.59375C2.68393 9.59375 0.0683594 12.2093 0.0683594 15.4358C0.0683594 18.6623 2.68393 21.2778 5.9104 21.2778Z" fill="#9CDBF2"/>
<path d="M36.158 21.2778C39.3844 21.2778 42 18.6623 42 15.4358C42 12.2093 39.3844 9.59375 36.158 9.59375C32.9315 9.59375 30.3159 12.2093 30.3159 15.4358C30.3159 18.6623 32.9315 21.2778 36.158 21.2778Z" fill="#06A6D2"/>
<path d="M12.0779 37.9995C15.3044 37.9995 17.9199 35.3839 17.9199 32.1575C17.9199 28.931 15.3044 26.3154 12.0779 26.3154C8.85141 26.3154 6.23584 28.931 6.23584 32.1575C6.23584 35.3839 8.85141 37.9995 12.0779 37.9995Z" fill="#102F51"/>
<path d="M30.3411 37.9995C33.5675 37.9995 36.1831 35.3839 36.1831 32.1575C36.1831 28.931 33.5675 26.3154 30.3411 26.3154C27.1146 26.3154 24.499 28.931 24.499 32.1575C24.499 35.3839 27.1146 37.9995 30.3411 37.9995Z" fill="#205594"/>
<path d="M28.2083 22.5931L27.9665 22.8039L21.157 28.7528C21.1444 28.7421 21.1318 28.7314 21.1201 28.7207L14.3331 22.7932L14.0572 22.5514C12.1555 20.8905 11.9613 18.004 13.6212 16.1033C14.5244 15.0689 15.7919 14.5405 17.0642 14.5405C18.1297 14.5405 19.201 14.9115 20.0673 15.6681L21.157 16.619L22.1973 15.7099C23.0636 14.9533 24.1349 14.5823 25.2013 14.5823C26.4746 14.5823 27.7411 15.1106 28.6444 16.145C30.3042 18.0477 30.109 20.9342 28.2083 22.5931Z" fill="#F9C643"/>
</svg>
