<svg width="400" height="313" viewBox="0 0 400 313" fill="none" xmlns="http://www.w3.org/2000/svg">
<path d="M399.083 206.495L384.606 308.538H17.2698L6.45777 230.646C5.26677 221.889 10.0308 213.501 18.0948 210.09L50.7138 196.447V163.815C50.7138 154.228 57.6778 146.024 67.1148 144.641L74.8118 143.535L87.7318 99.473C90.1138 91.268 97.6278 85.645 106.148 85.645H238.642C243.682 85.645 248.262 87.581 251.745 90.808C255.227 94.034 257.425 98.551 257.792 103.621L320.832 110.35C330.178 111.364 337.417 119.015 338.058 128.417L340.624 172.48L385.154 185.109C394.501 187.782 400.366 196.908 399.083 206.495Z" fill="#F0F0F0"/>
<path d="M39.2608 227.512L50.7138 308.539H342.274L350.887 246.778C351.803 239.864 348.047 233.135 341.633 230.462L315.793 219.677V193.774C315.793 186.123 310.204 179.67 302.783 178.564L296.643 177.642L286.381 142.706C284.457 136.161 278.501 131.736 271.721 131.736H166.531C162.501 131.736 158.835 133.303 156.178 135.884C153.428 138.465 151.688 141.968 151.321 146.024L101.293 151.371C93.8708 152.201 88.0978 158.284 87.6398 165.751L85.6238 200.503L50.2558 210.551C42.9258 212.671 38.2528 219.953 39.2608 227.512Z" fill="#DFE1E2"/>
<path d="M279.875 278.396C279.875 269.639 273.553 262.264 264.94 260.974L257.976 259.96L246.248 219.953C244.048 212.487 237.268 207.324 229.48 207.324H109.081C104.5 207.324 100.285 209.076 97.1687 212.026C94.0537 214.976 91.9467 219.031 91.6717 223.641L39.5347 229.171L50.8047 308.539H281.158L279.875 307.986V278.396Z" fill="#DFE1E2"/>
<path d="M82.9761 17.709H172.461V101.299H82.9761V17.709Z" fill="#1B1B1B"/>
<path d="M82.9761 17.709H172.461V26.518H82.9761V17.709Z" fill="#3D4551"/>
<path d="M153.116 22.297C153.116 23.215 152.382 23.949 151.465 23.949C150.548 23.949 149.815 23.215 149.815 22.297C149.815 21.38 150.548 20.646 151.465 20.646C152.382 20.646 153.116 21.38 153.116 22.297Z" fill="#606BF1"/>
<path d="M159.9 22.297C159.9 23.215 159.166 23.949 158.25 23.949C157.333 23.949 156.6 23.215 156.6 22.297C156.6 21.38 157.333 20.646 158.25 20.646C159.166 20.646 159.9 21.38 159.9 22.297Z" fill="#FBD15B"/>
<path d="M166.135 22.3888C166.135 23.3058 165.401 24.0408 164.485 24.0408C163.567 24.0408 162.834 23.3058 162.834 22.3888C162.834 21.4708 163.567 20.7368 164.484 20.7368C165.401 20.8288 166.135 21.5628 166.135 22.3888Z" fill="#FF8578"/>
<path d="M98.9292 34.7759H111.582V35.8769H98.9292V34.7759Z" fill="#FF8578"/>
<path d="M113.782 34.7759H126.435V35.8769H113.782V34.7759Z" fill="#FBD15B"/>
<path d="M102.78 40.5566H122.401V41.6576H102.78V40.5566Z" fill="#656BD7"/>
<path d="M125.701 40.5566H135.695V41.6576H125.701V40.5566Z" fill="#FF8578"/>
<path d="M109.656 46.2461H118.274V47.3471H109.656V46.2461ZM123.226 46.2461H151.832V47.3471H123.226V46.2461Z" fill="#FBD15B"/>
<path d="M116.349 52.0259H149.081V53.1269H116.349V52.0259Z" fill="#656BD7"/>
<path d="M108.189 57.7148H118.274V58.8158H108.189V57.7148Z" fill="#FF8578"/>
<path d="M122.492 57.7148H132.577V58.8158H122.492V57.7148Z" fill="#656BD7"/>
<path d="M98.9292 87.5356H113.599V88.6366H98.9292V87.5356Z" fill="#FF8578"/>
<path d="M118.641 87.5356H133.311V88.6366H118.641V87.5356Z" fill="#FBD15B"/>
<path d="M137.896 87.5356H152.566V88.6366H137.896V87.5356Z" fill="#FF8578"/>
<path d="M102.78 81.7549H131.386V82.8559H102.78V81.7549Z" fill="#656BD7"/>
<path d="M135.878 81.7544H164.484V82.8554H135.878V81.7544ZM109.656 76.0654H138.079V77.1664H109.656V76.0654Z" fill="#FF8578"/>
<path d="M140.554 76.0656H148.439V77.1666H140.554V76.0656ZM107.731 70.2856H118.458V71.3866H107.731V70.2856Z" fill="#FBD15B"/>
<path d="M124.143 70.2856H134.87V71.3866H124.143V70.2856Z" fill="#656BD7"/>
<path d="M141.746 70.2856H152.473V71.3866H141.746V70.2856Z" fill="#FF8578"/>
<path d="M120.2 64.5967H135.236V65.6977H120.2V64.5967Z" fill="#FBD15B"/>
<path d="M99.479 64.5967H114.515V65.6977H99.479V64.5967Z" fill="#656BD7"/>
<path d="M90.5859 33.7671H91.9609V35.1431H90.5859V33.7671ZM91.9609 83.7741H90.5859V81.0211H91.9609V83.7741ZM91.9609 76.8921H90.5859V74.1411H91.9609V76.8921ZM91.9609 69.9191H90.5859V67.1661H91.9609V69.9191ZM91.9609 62.9451H90.5859V60.1931H91.9609V62.9451ZM91.9609 55.9721H90.5859V53.2191H91.9609V55.9721ZM91.9609 48.9981H90.5859V46.2461H91.9609V48.9981ZM91.9609 42.1171H90.5859V39.3641H91.9609V42.1171ZM90.5859 87.9951H91.9609V89.3711H90.5859V87.9951Z" fill="#F9FBFC"/>
<path d="M191.715 0H265.339V45.419H191.715V0Z" fill="#009EC1"/>
<path d="M220.321 18.2589L211.519 22.0209L220.321 25.6909L219.129 28.3519L208.585 23.6729V20.4609L219.129 15.6899L220.321 18.2589ZM233.157 9.6339L226.831 34.0409L223.805 33.3069L230.223 8.8999L233.157 9.6339ZM248.377 20.3699V23.5809L237.925 28.3519L236.824 25.6909L245.535 22.0209L236.824 18.2589L237.925 15.6899L248.377 20.3699Z" fill="#F9FBFC"/>
<path d="M262.772 87.9941H304.764V117.907H262.772V87.9941Z" fill="#5942D2"/>
<path d="M280.376 94.4169C279.001 94.4169 278.543 94.7839 278.543 95.7929V100.289C278.543 102.032 277.809 102.583 276.617 102.95C277.809 103.317 278.543 103.776 278.543 105.52V110.015C278.543 111.025 279.001 111.392 280.376 111.392V113.319C276.984 113.319 275.976 112.217 275.976 109.924V105.703C275.976 104.51 275.609 104.051 274.508 104.051V101.757C275.608 101.757 275.975 101.298 275.975 100.014V95.7929C275.975 93.4989 276.984 92.3979 280.376 92.3979V94.4169ZM291.562 95.8839V100.106C291.562 101.298 291.929 101.849 293.029 101.849V104.143C291.929 104.143 291.562 104.602 291.562 105.794V110.015C291.562 112.309 290.553 113.41 287.162 113.41V111.484C288.445 111.484 288.995 111.117 288.995 110.108V105.612C288.995 103.869 289.728 103.318 290.92 103.042C289.728 102.676 288.995 102.125 288.995 100.382V95.8839C288.995 94.8739 288.536 94.5069 287.161 94.5069V92.5819C290.645 92.4899 291.562 93.5909 291.562 95.8849V95.8839Z" fill="#F1F2F2"/>
<path d="M54.5532 6.51514H101.588V37.9871H54.5532V6.51514Z" fill="#FFBE2E"/>
<path d="M70.1401 15.5072C67.8481 18.3512 67.9401 22.3882 70.2311 25.2332C72.7991 28.3532 77.2911 28.9032 80.5011 26.7932L85.4511 31.7482C85.6351 31.9312 86.0011 31.9312 86.1851 31.7482L87.5601 30.3712C87.7431 30.1882 87.7431 29.8212 87.5601 29.6372L82.6091 24.6822C84.6261 21.6542 84.2591 17.6172 81.6001 14.9562C78.3911 11.6532 72.9821 11.9292 70.1401 15.5072ZM80.0421 24.2242C77.9331 26.3342 74.4491 26.3342 72.3401 24.2242C70.2311 22.1142 70.2311 18.6262 72.3401 16.5162C74.4491 14.4062 77.9331 14.4062 80.0421 16.5162C82.1511 18.6262 82.1511 22.1132 80.0421 24.2242Z" fill="#F9FBFC"/>
<path d="M238.475 103.776C238.383 104.786 236.916 115.705 225.822 115.705C214.086 115.705 216.103 104.052 216.103 104.052V103.96C217.203 103.685 218.487 103.593 219.771 103.776V98.2718L233.065 90.8398H233.524V103.686C233.524 103.777 235.632 103.502 238.474 103.777L238.475 103.776Z" fill="url(#paint0_radial_82_607)"/>
<path d="M232.057 66.3397C233.982 68.2667 235.357 70.7437 236.091 73.7717C237.375 79.3687 236.183 85.3327 234.533 90.8387C234.257 91.7557 233.891 92.6737 233.341 93.4987C232.974 94.0497 232.424 94.5087 231.874 94.9677C229.49 96.9857 227.106 99.0967 224.814 101.116C223.255 102.492 213.354 103.685 211.519 102.308C204.276 97.1697 202.901 82.1217 204.368 74.4147C206.66 61.7517 222.98 57.1647 232.057 66.3397Z" fill="url(#paint1_radial_82_607)"/>
<path d="M227.931 82.6718C228.023 81.4798 229.306 80.1028 230.59 80.9288C231.873 81.7548 231.598 83.9568 231.048 85.1488C230.59 86.0668 229.214 87.0768 228.206 86.2508C227.381 85.5168 228.664 84.6908 228.664 83.9568C228.664 83.3148 227.472 82.9468 228.023 82.3048" fill="#F7B094"/>
<path d="M228.206 88.362C229.49 88.728 231.782 87.719 232.332 85.884C232.882 84.049 232.882 81.938 232.882 81.938C232.882 81.938 233.524 83.59 233.249 86.251C232.974 88.911 231.965 91.481 229.856 91.481C227.656 91.573 228.206 88.361 228.206 88.361V88.362Z" fill="#F7B094"/>
<path d="M226.556 86.4338H226.372C225.547 86.5258 225.272 85.5168 225.089 84.9658C224.814 83.4978 224.814 82.0298 224.814 80.5618C224.814 80.1948 224.814 79.7358 224.722 79.3688C224.263 78.3588 223.072 77.6258 222.705 76.5248C222.246 75.2398 223.53 73.9548 222.98 72.5788C222.246 70.4688 219.496 70.0098 217.57 70.0098C214.636 70.0098 211.702 70.5598 208.86 71.0198C205.743 71.4778 201.892 71.9368 199.141 70.0098C195.841 67.6238 194.466 61.5678 196.941 58.1728C198.225 56.3378 200.791 55.4218 202.992 55.3288C205.376 55.2368 207.302 56.7048 209.502 57.3478C211.244 57.8978 212.894 56.2468 214.453 55.9708C216.47 55.6038 217.295 57.8058 219.129 57.8058C220.871 57.8978 222.521 56.5218 224.263 56.2458C227.656 55.6038 227.381 58.9988 229.673 60.1918C231.048 60.9258 232.882 60.4668 234.257 61.2018C235.357 61.7518 235.449 62.7618 235.724 63.8618C235.908 64.7798 235.908 65.8808 236.274 66.7988C236.549 67.6238 237.191 68.0828 237.741 68.7248C238.291 69.4598 238.658 70.1938 239.025 71.1108C239.667 73.0378 239.85 75.1478 239.667 77.1668C239.392 80.5618 238.291 83.8648 237.191 87.0768C236.458 89.1868 236.183 91.2968 235.082 93.2238C234.807 93.7748 233.432 95.2438 232.974 94.1418C232.882 93.8668 232.882 93.5918 232.882 93.3158C233.065 91.2058 234.991 77.4418 229.856 79.0938C228.756 79.4608 228.023 80.3788 227.656 81.3878C227.197 82.6718 227.106 83.8648 227.197 85.1498V85.6998C226.831 86.0668 226.739 86.3428 226.556 86.4338Z" fill="#453C7B"/>
<path d="M219.679 102.584C225.547 101.666 229.489 96.9858 229.489 96.9858C229.489 96.9858 227.931 104.877 219.313 105.245L219.679 102.584Z" fill="#F7B094"/>
<path d="M229.398 209.938H237.833V291.142C237.833 291.968 237.191 292.61 236.366 292.61H230.865C230.04 292.61 229.398 291.968 229.398 291.142V209.938Z" fill="#0A2033"/>
<path d="M210.419 211.039H256.904V212.322C256.904 215.534 254.336 218.103 251.127 218.103H216.195C212.986 218.103 210.419 215.533 210.419 212.323V211.038V211.039Z" fill="#30475E"/>
<path d="M229.398 282.976H237.833V301.786C237.833 302.612 237.191 303.254 236.366 303.254H230.865C230.04 303.254 229.398 302.612 229.398 301.786V282.976ZM189.698 298.391C189.698 301.144 191.898 303.346 194.648 303.346C197.399 303.346 199.6 301.144 199.6 298.391C199.6 295.638 197.4 293.436 194.649 293.436C191.99 293.436 189.698 295.638 189.698 298.391ZM267.631 298.391C267.631 301.144 269.831 303.346 272.581 303.346C275.333 303.346 277.533 301.144 277.533 298.391C277.533 295.638 275.333 293.436 272.582 293.436C269.832 293.436 267.631 295.638 267.631 298.391Z" fill="#0A2033"/>
<path d="M242.189 291.549H225.135V276.684H242.189V291.549Z" fill="#30475E"/>
<path d="M189.698 295.088H277.533V293.344C277.533 290.408 275.149 288.022 272.215 288.022H194.924C191.99 288.022 189.606 290.408 189.606 293.344V295.088H189.698Z" fill="#FFBE2E"/>
<path d="M230.682 219.848H233.616V275.361H230.682V219.848Z" fill="#30475E"/>
<path d="M266.898 151.031C264.881 150.939 263.23 152.683 263.322 154.701C263.872 164.794 261.763 189.385 252.412 197.735C240.951 208.012 208.402 206.635 208.402 206.635C208.402 206.635 202.992 213.242 213.812 214.71C224.539 216.178 254.795 215.169 262.13 208.379C269.19 201.772 273.407 184.43 270.29 154.242C270.015 152.407 268.64 151.122 266.898 151.031Z" fill="#FFBE2E"/>
<path d="M205.928 275.361L209.778 284.17L197.951 289.4L194.1 280.591L205.928 275.361Z" fill="url(#paint2_radial_82_607)"/>
<path d="M261.854 177.274C261.121 178.742 208.494 177.274 203.451 177.733C203.451 177.733 171.269 193.148 166.593 207.553C166.135 209.021 165.951 210.948 166.135 213.243C167.418 233.52 190.523 282.151 190.523 282.151L194.099 280.591L205.927 275.453L207.577 274.719C207.577 274.719 189.24 220.124 192.907 217.188C196.575 214.252 238.108 206.911 252.503 203.058C266.989 199.02 261.854 177.274 261.854 177.274Z" fill="#5E519E"/>
<path d="M160.725 277.655L161.642 290.868H148.715L147.798 277.655H160.725Z" fill="url(#paint3_radial_82_607)"/>
<path d="M203.177 177.274L202.719 177.457C202.719 177.457 148.807 185.073 140.005 200.213C134.321 210.031 145.323 282.06 145.323 282.06H164.393C164.393 282.06 161.552 222.05 162.468 218.748C163.568 214.894 165.402 213.518 166.136 213.151C165.952 210.857 166.136 208.93 166.594 207.461C171.179 193.056 203.452 177.641 203.452 177.641C203.36 177.733 203.269 177.549 203.177 177.274Z" fill="#453C7B"/>
<path d="M255.345 127.45L251.769 127.909C251.769 127.909 250.853 137.635 248.744 147.453L203.634 164.611L202.993 167.915H202.443V169.841C202.534 173.604 202.809 176.356 203.176 177.366C203.268 177.549 203.359 177.733 203.451 177.824C204.643 178.834 220.596 176.907 237.833 183.238C252.778 188.743 261.121 194.708 261.58 193.882C266.256 184.064 257.73 145.71 255.345 127.45Z" fill="#009EC1"/>
<path d="M250.578 149.839C249.386 155.619 246.268 167.089 240.217 168.649C232.24 170.667 216.837 170.576 202.442 169.749V167.823H202.992L203.634 164.52L248.744 147.361C250.853 137.635 251.769 127.817 251.769 127.817V128.001C251.769 129.561 252.411 141.305 250.578 149.839ZM205.468 113.044C204.643 114.512 203.543 130.203 202.901 145.801L193.732 137.176C197.492 129.56 205.468 113.044 205.468 113.044Z" fill="#0081A1"/>
<path d="M199.875 157.087C192.082 158.464 184.93 159.565 184.93 159.565V159.932C176.312 153.05 163.11 133.414 163.11 133.414C163.11 133.414 167.052 128.643 168.06 127.45C168.244 127.267 189.698 142.04 190.798 141.948C191.073 141.948 192.174 140.021 193.641 137.084L202.809 145.71C202.626 149.38 202.534 153.142 202.442 156.629C201.617 156.812 200.792 156.996 199.875 157.087Z" fill="#F7B094"/>
<path d="M184.93 159.657L184.747 166.079H161.275C161.275 166.079 163.568 156.904 169.985 156.904C176.404 156.904 178.787 160.299 178.787 160.299L184.93 159.657Z" fill="url(#paint4_radial_82_607)"/>
<path d="M167.878 127.359L168.061 127.542C167.053 128.826 163.111 133.506 163.111 133.506L160.635 131.763C160.635 131.763 157.975 133.414 154.767 131.671C151.467 129.927 153.483 125.707 153.667 125.156C153.025 125.34 149.082 128.459 148.532 128.184C147.89 127.817 147.432 126.716 151.832 122.404C156.234 118.091 162.102 123.596 162.285 123.596L167.878 127.358V127.359Z" fill="#F7B094"/>
<path d="M155.408 130.937C155.408 130.937 154.491 132.68 156.141 133.506C157.791 134.24 161.092 134.791 162.467 134.699C163.843 134.607 164.943 132.589 164.943 132.589L160.725 128.643H157.334L155.408 130.937Z" fill="#F7B094"/>
<path d="M155.134 131.854C155.409 131.029 157.792 131.487 159.259 131.487C160.359 131.487 161.001 131.212 161.276 130.387C161.643 129.56 159.993 128.184 159.718 128.643C159.443 129.102 160.268 129.653 160.36 130.203C160.36 130.753 158.801 130.937 157.517 130.937C156.234 130.937 154.125 131.304 154.125 131.304L155.134 131.854Z" fill="#E8987C"/>
<path d="M246.36 155.802L223.439 147.636C221.789 150.756 219.955 153.141 218.212 153.6C215.554 154.334 209.044 155.527 202.534 156.628C201.709 156.812 200.792 156.903 199.967 157.087C192.174 158.463 185.022 159.564 185.022 159.564V160.207L184.839 165.987V167.455C184.839 167.455 192.632 167.088 202.442 167.731C216.195 168.74 233.982 169.291 239.85 166.538C242.51 165.253 244.71 161.032 246.36 155.802Z" fill="url(#paint5_radial_82_607)"/>
<path d="M223.439 147.636L246.36 155.802L245.351 158.83L222.613 149.104L223.439 147.636Z" fill="#F7B094"/>
<path d="M223.439 147.636C221.789 150.756 219.955 153.141 218.212 153.6C215.554 154.334 209.044 155.527 202.534 156.628C202.626 153.141 202.718 149.471 202.901 145.709C203.543 130.111 204.643 114.42 205.468 112.952C206.752 110.475 210.419 105.152 216.104 103.96V104.052C216.104 104.052 214.178 115.705 225.822 115.705C237.008 115.705 238.383 104.877 238.475 103.776C244.251 104.419 253.053 107.263 254.245 118.824C254.52 121.118 254.887 124.054 255.345 127.358L251.77 127.817C251.77 127.817 250.303 144.057 246.543 155.619H246.452L223.439 147.636Z" fill="#009EC1"/>
<path d="M223.164 145.526L232.332 123.321L225.547 146.443L223.164 145.526Z" fill="#0E4F5C"/>
<path d="M238.475 103.776H233.524C233.524 103.776 226.373 111.576 221.88 111.576C217.387 111.576 219.771 103.776 219.771 103.776H217.571C211.153 103.776 205.743 108.548 205.01 114.971C204.918 115.705 204.826 116.347 204.826 116.989C204.368 121.761 223.439 125.156 223.439 125.156L233.249 124.606L239.209 112.952L240.4 108.181L238.475 103.776Z" fill="#009EC1"/>
<path d="M178.237 299.585C178.696 301.97 180.347 303.713 182.73 303.255L214.545 297.29C215.37 297.107 215.92 296.373 215.737 295.547L215.187 292.702C215.187 292.702 181.721 298.575 178.237 299.585Z" fill="#F1F2F2"/>
<path d="M187.681 291.51C188.048 291.234 188.323 290.959 188.69 290.684C189.331 290.134 189.973 289.583 190.523 289.032C190.798 288.757 191.165 288.482 191.44 288.206C191.99 287.656 192.54 287.197 193.09 286.738C193.457 286.463 193.732 286.096 194.1 285.821C194.65 285.361 195.108 284.903 195.383 284.628C195.658 284.353 196.024 284.353 196.3 284.628C197.583 285.728 201.8 288.206 209.502 283.527C209.869 283.343 210.327 283.435 210.511 283.802L215.187 292.702C215.187 292.702 181.721 298.575 178.237 299.492C179.337 298.85 183.647 295.088 187.681 291.51Z" fill="#453C7B"/>
<path d="M128.085 299.218C128.177 301.604 129.552 303.622 131.936 303.53L164.302 302.706C165.128 302.706 165.769 301.972 165.769 301.146L165.678 298.301C165.678 298.393 131.754 298.851 128.086 299.219L128.085 299.218Z" fill="#F1F2F2"/>
<path d="M138.722 292.886C139.088 292.611 139.455 292.428 139.822 292.153C140.555 291.693 141.288 291.235 141.93 290.776C142.297 290.501 142.664 290.317 143.03 290.134C143.672 289.675 144.314 289.308 144.864 288.941C145.231 288.666 145.597 288.482 145.964 288.207C146.606 287.84 147.064 287.473 147.431 287.29C147.706 287.106 148.165 287.106 148.348 287.381C149.448 288.666 153.208 291.877 161.551 288.391C161.918 288.207 162.376 288.391 162.559 288.849L165.677 298.392C165.677 298.392 131.752 298.851 128.085 299.218C129.369 298.668 134.137 295.731 138.721 292.887L138.722 292.886Z" fill="#453C7B"/>
<path d="M105.072 167.548L87.8354 121.394H136.979L154.307 167.548H105.072Z" fill="#A9AEB1"/>
<path d="M157.333 167.548H154.307L136.979 121.394L139.729 121.486L155.774 163.235L157.333 167.548Z" fill="#71767A"/>
<path d="M156.326 167.547H188.874L188.782 164.611H155.684" fill="#71767A"/>
<path d="M287.069 176.264H294.862V304.906H287.069V176.264Z" fill="#71767A"/>
<path d="M244.526 176.264H252.319V304.906H244.526V176.264Z" fill="#BDBDBD"/>
<path d="M108.464 176.264H116.257V304.906H108.464V176.264Z" fill="#71767A"/>
<path d="M65.9224 176.264H73.7154V304.906H65.9224V176.264Z" fill="#A9AEB1"/>
<path d="M302.655 176.815H58.4953C56.3883 176.815 54.7373 175.071 54.7373 173.053V171.401C54.7373 169.291 56.4803 167.639 58.4973 167.639H302.747C304.857 167.639 306.507 169.382 306.507 171.401V173.053C306.507 175.071 304.765 176.815 302.657 176.815H302.655Z" fill="#3D4551"/>
<path d="M95.9951 126.257L96.8201 128.459H106.631L105.806 126.257H95.9951Z" fill="#71767A"/>
<path d="M193.641 137.084L192.907 138.46L202.809 148.737V145.709L193.641 137.084Z" fill="#E8987C"/>
<path d="M0 303.347H395.991V312.431H0V303.347Z" fill="#A9AEB1"/>
<path d="M333.277 236.181C331.718 243.797 332.177 256.826 322.091 258.937C319.341 259.487 316.774 257.56 315.123 255.45C313.014 252.606 312.556 246.641 312.556 243.246C312.556 240.494 313.473 237.466 313.84 234.805C314.206 231.869 314.39 228.841 314.756 225.905C316.04 215.261 321.541 206.36 330.986 201.039C331.719 204.525 333.37 207.461 334.836 210.856C335.478 212.416 336.12 213.976 336.579 215.628C337.312 218.472 336.395 221.317 335.754 224.069C334.654 227.923 334.103 232.144 333.277 236.181Z" fill="#5942D2"/>
<path d="M320.349 259.212L320.624 257.285C321.816 257.285 323.1 256.551 324.108 256.092C325.85 255.175 327.318 253.89 328.693 252.514C328.784 252.422 328.601 252.33 328.601 252.422C327.226 253.615 325.759 254.716 324.201 255.45C323.283 255.909 321.908 256.551 320.808 256.735C320.899 256.001 320.991 255.175 321.174 254.441C322.458 254.257 323.558 253.431 324.659 252.789C326.492 251.689 328.051 250.312 329.609 249.027C327.134 250.862 324.383 253.34 321.266 253.89C321.45 252.973 321.633 251.963 321.816 251.046V250.862C325.392 249.945 327.868 247.1 330.618 244.806C330.618 244.806 330.618 244.715 330.526 244.715C327.776 246.825 325.209 249.211 321.908 250.312C322.183 248.935 322.458 247.651 322.825 246.274C326.125 245.082 328.693 243.154 330.985 240.494C330.985 240.494 330.985 240.402 330.893 240.402C328.509 242.879 325.943 244.256 322.917 245.632C323.192 244.256 323.558 242.972 323.833 241.595C325.209 240.861 326.767 240.494 328.051 239.576C329.335 238.659 330.526 237.558 331.351 236.273C331.351 236.181 331.26 236.181 331.26 236.181C329.426 238.842 326.676 239.668 324.017 241.044C324.292 239.76 324.475 238.567 324.75 237.282C327.684 235.631 330.985 234.162 332.635 231.042C332.635 231.042 332.635 230.952 332.544 231.042C330.801 233.887 327.684 235.172 324.842 236.732C324.842 236.548 324.934 236.273 324.934 236.089C325.117 234.897 325.3 233.796 325.484 232.603C327.226 231.96 328.784 230.951 330.344 229.942C331.444 229.208 332.635 228.565 333.277 227.372C333.277 227.281 333.185 227.189 333.185 227.281C331.627 229.575 328.143 230.859 325.575 232.052C325.759 230.859 325.942 229.667 326.034 228.474C328.876 226.73 332.268 225.813 334.011 222.693C334.102 222.601 333.919 222.51 333.827 222.601C331.993 225.446 328.784 226.363 326.034 227.923C326.126 227.189 326.217 226.455 326.401 225.721C329.518 224.62 333.094 221.959 334.744 219.206C334.836 219.023 334.652 218.931 334.469 219.023C332.819 221.5 329.518 224.161 326.492 225.079L327.042 221.5C327.042 221.5 327.042 221.408 327.134 221.408C328.509 221.041 329.884 220.032 331.077 219.298C332.544 218.38 333.919 217.371 334.836 215.903C334.927 215.72 334.652 215.628 334.561 215.72C333.185 218.197 329.976 219.849 327.226 220.766C327.317 220.307 327.409 219.94 327.501 219.482C327.592 218.839 327.776 218.197 327.868 217.555C328.968 216.821 330.343 216.454 331.443 215.628C332.36 214.894 333.277 214.068 334.103 213.242C334.193 213.15 334.103 213.059 334.011 213.15C332.911 214.16 331.718 215.169 330.343 215.903C329.61 216.27 328.693 216.545 327.959 217.004C328.143 215.994 328.418 214.894 328.601 213.884C328.693 213.884 328.693 213.884 328.784 213.793C330.251 213.426 331.444 212.141 332.452 211.04C331.352 212.05 330.16 213.059 328.784 213.517H328.693C328.876 212.692 328.968 211.774 329.151 210.948C329.243 210.948 329.335 210.856 329.335 210.765C330.16 210.215 330.893 209.572 331.535 208.93C331.627 208.838 331.535 208.838 331.443 208.838C330.71 209.48 330.068 209.938 329.243 210.398C329.518 208.654 329.701 206.819 329.885 205.076C329.885 204.892 329.61 204.892 329.61 205.076C329.426 206.819 329.243 208.563 328.876 210.214C328.051 209.114 327.134 208.012 326.584 206.727C326.584 206.636 326.492 206.727 326.492 206.727C326.767 207.461 327.134 208.196 327.592 208.837C327.959 209.48 328.234 210.122 328.784 210.673L328.234 213.426C327.226 213.242 326.309 213.059 325.484 212.325C324.475 211.407 323.925 210.215 323.834 208.838C323.834 208.654 323.558 208.654 323.558 208.838C323.65 210.122 324.2 211.223 325.025 212.233C325.942 213.243 326.951 213.517 328.235 213.793C328.051 214.802 327.775 215.903 327.592 216.913C326.676 216.362 325.85 215.628 325.025 214.985C323.742 213.885 322.917 212.692 321.725 211.499C321.633 211.407 321.45 211.591 321.541 211.682C322.641 212.875 323.375 214.068 324.567 215.077C325.484 215.811 326.401 216.729 327.501 217.279V217.463C327.409 217.555 327.409 217.646 327.501 217.738C327.317 218.748 327.042 219.757 326.859 220.766V220.95C324.475 219.849 320.991 218.013 320.716 215.26C320.716 214.985 320.258 215.077 320.349 215.353C321.083 218.473 324.475 219.849 326.767 221.5C326.492 222.601 326.309 223.794 326.126 224.895C324.566 224.345 323.192 223.702 321.908 222.693C320.716 221.775 319.066 220.674 318.608 219.206H318.516C318.974 220.583 320.441 221.592 321.541 222.601C322.917 223.794 324.291 224.895 326.034 225.354V225.537C325.942 226.272 325.759 227.006 325.667 227.74C322.825 227.556 318.791 225.354 317.324 223.152C318.332 224.803 319.799 225.721 321.541 226.639C322.825 227.281 324.201 228.015 325.575 228.107C325.392 229.483 325.209 230.767 324.934 232.144C323.742 231.685 322.366 231.502 321.174 230.951C319.341 230.217 317.965 228.932 316.865 227.281C316.774 227.189 316.682 227.281 316.682 227.373C318.699 230.493 321.542 231.41 324.842 232.603L324.292 235.906C321.542 235.356 318.057 233.704 316.682 231.318C316.59 231.135 316.315 231.318 316.407 231.502C317.324 233.062 318.791 233.979 320.349 234.713C321.449 235.263 323.009 236.181 324.292 236.273V236.365C324.017 237.925 323.742 239.576 323.375 241.136C320.349 240.402 318.332 238.108 316.132 235.998C315.948 235.814 315.765 236.089 315.857 236.181C318.149 238.383 320.074 240.769 323.192 241.503C322.917 242.788 322.642 244.073 322.275 245.357C319.708 244.623 317.14 242.787 315.398 240.677C315.307 240.494 315.032 240.769 315.215 240.861C316.956 243.155 319.432 244.898 322.183 245.815C321.816 247.191 321.541 248.567 321.174 249.944C318.516 249.577 316.498 247.834 314.848 245.723C314.848 245.631 314.756 245.723 314.756 245.815C316.223 247.833 318.424 250.219 321.083 250.402C320.991 250.862 320.899 251.32 320.716 251.687C320.624 251.962 320.533 252.237 320.533 252.513C318.516 251.963 316.682 251.228 315.032 249.852C314.94 249.852 314.94 249.852 314.94 249.944C316.498 251.32 318.424 252.329 320.441 252.972C320.258 253.797 319.983 254.623 319.708 255.541C319.249 255.266 318.699 255.082 318.148 254.899C317.14 254.623 316.498 253.981 315.673 253.43C315.582 253.339 315.49 253.522 315.582 253.522C316.315 253.981 316.865 254.623 317.782 254.99C318.424 255.266 319.066 255.54 319.616 255.816C318.699 259.211 317.874 262.881 318.332 266.093C318.424 266.827 319.616 267.01 319.799 266.276C320.074 264.166 320.074 261.597 320.349 259.212Z" fill="#9287D8"/>
<path d="M301.279 233.979C303.113 241.595 308.981 253.156 300.729 259.304C298.529 260.955 295.319 260.313 292.936 259.028C289.91 257.377 286.885 252.147 285.509 249.027C284.409 246.55 283.951 243.43 283.034 240.769C282.117 237.924 281.108 235.172 280.1 232.327C276.706 222.142 277.991 211.682 284.316 202.874C286.426 205.718 289.176 207.737 291.926 210.122C293.21 211.223 294.402 212.416 295.502 213.701C297.427 215.995 297.794 218.931 298.252 221.684C299.078 225.904 300.363 229.942 301.279 233.979Z" fill="#5942D2"/>
<path d="M299.262 260.313C299.079 259.671 298.895 259.12 298.62 258.478C299.72 257.928 300.546 256.826 301.28 255.908C302.471 254.348 303.205 252.514 303.846 250.678C303.846 250.587 303.755 250.495 303.663 250.587C302.93 252.238 302.104 253.798 300.913 255.175C300.271 255.909 299.353 257.102 298.345 257.744C298.162 257.01 297.887 256.276 297.704 255.542C298.804 254.899 299.446 253.615 300.179 252.605C301.371 250.862 302.196 248.935 303.113 247.1C301.646 249.761 300.179 253.248 297.612 255.083C297.337 254.165 297.153 253.248 296.878 252.238V252.055C299.721 249.669 300.821 246.091 302.288 242.879C302.288 242.788 302.196 242.788 302.196 242.788C300.637 245.816 299.354 249.118 296.695 251.504C296.42 250.128 296.053 248.844 295.778 247.467C298.254 244.99 299.812 242.145 300.729 238.75C300.729 238.659 300.637 238.659 300.637 238.75C299.537 241.962 297.795 244.347 295.687 246.917C295.411 245.54 295.137 244.256 294.77 242.879C295.778 241.686 296.97 240.677 297.704 239.301C298.529 237.924 299.079 236.456 299.262 234.897C299.262 234.805 299.171 234.805 299.171 234.897C298.621 238.017 296.511 239.943 294.678 242.329C294.403 241.044 294.036 239.851 293.761 238.659C295.778 235.906 298.071 233.153 298.254 229.666H298.162C297.795 233.061 295.503 235.447 293.578 238.108C293.486 237.924 293.486 237.649 293.394 237.466C293.028 236.365 292.752 235.172 292.386 234.071C293.669 232.694 294.678 231.134 295.686 229.575C296.42 228.474 297.153 227.372 297.336 225.996C297.336 225.904 297.246 225.904 297.246 225.996C296.786 228.749 294.128 231.41 292.294 233.52C291.927 232.42 291.561 231.226 291.286 230.125C293.119 227.372 295.778 225.079 296.053 221.5C296.053 221.408 295.87 221.408 295.87 221.5C295.411 224.895 292.844 227.005 291.102 229.575C290.919 228.841 290.644 228.198 290.46 227.465C292.752 225.17 294.953 221.317 295.228 218.013C295.228 217.83 294.953 217.83 294.953 218.013C294.495 220.95 292.569 224.712 290.277 226.913C289.91 225.721 289.635 224.62 289.268 223.427V223.335C290.368 222.418 291.194 220.95 291.928 219.757C292.844 218.38 293.669 216.82 293.853 215.077C293.853 214.894 293.578 214.894 293.578 215.077C293.394 217.83 291.102 220.766 289.085 222.693C288.993 222.234 288.902 221.867 288.718 221.408C288.535 220.766 288.443 220.124 288.26 219.481C288.902 218.289 290.094 217.371 290.735 216.178C291.285 215.168 291.744 213.976 292.111 212.875C292.111 212.783 292.019 212.691 291.927 212.783C291.377 214.251 290.735 215.628 289.819 216.82C289.269 217.555 288.627 218.105 288.169 218.84C287.893 217.83 287.709 216.729 287.435 215.72C287.526 215.72 287.526 215.628 287.618 215.628C288.81 214.618 289.268 212.967 289.727 211.59C289.727 211.59 289.727 211.499 289.635 211.59C289.085 212.967 288.443 214.435 287.343 215.352H287.251C287.068 214.527 286.793 213.701 286.61 212.783C286.701 212.691 286.701 212.6 286.701 212.508C287.16 211.682 287.526 210.765 287.893 209.847C287.893 209.755 287.801 209.755 287.801 209.847C287.435 210.673 286.976 211.407 286.426 212.141C285.968 210.398 285.418 208.746 284.684 207.003C284.592 206.819 284.409 206.911 284.409 207.094C284.959 208.746 285.509 210.398 285.968 212.049C284.776 211.407 283.492 210.765 282.484 209.847C282.392 209.755 282.392 209.847 282.392 209.939C282.942 210.489 283.584 210.949 284.317 211.407C284.959 211.774 285.509 212.324 286.151 212.6C286.426 213.517 286.61 214.435 286.793 215.352C285.784 215.628 284.868 215.812 283.859 215.536C282.575 215.169 281.567 214.343 280.833 213.15C280.742 212.967 280.558 213.15 280.558 213.242C281.2 214.343 282.117 215.169 283.308 215.628C284.501 216.178 285.601 215.995 286.793 215.719C287.068 216.729 287.251 217.829 287.526 218.839C286.426 218.747 285.418 218.472 284.409 218.197C282.759 217.83 281.475 217.004 280.009 216.362C279.825 216.27 279.733 216.545 279.916 216.637C281.383 217.187 282.576 218.013 284.134 218.472C285.234 218.747 286.518 219.206 287.71 219.298V219.481C287.71 219.573 287.71 219.665 287.801 219.665C287.985 220.675 288.26 221.684 288.443 222.693C288.443 222.785 288.443 222.785 288.535 222.876C285.968 222.876 282.025 222.693 280.558 220.307C280.467 220.124 280.1 220.307 280.283 220.491C282.209 222.968 285.876 222.785 288.718 223.335C288.993 224.436 289.268 225.629 289.635 226.73C288.077 226.914 286.426 226.914 284.868 226.547C283.401 226.18 281.475 225.904 280.375 224.803C280.375 224.803 280.283 224.803 280.283 224.895C281.292 225.996 283.033 226.271 284.409 226.638C286.151 227.189 287.893 227.556 289.635 227.281C289.635 227.372 289.635 227.372 289.727 227.464C289.91 228.198 290.094 228.841 290.369 229.574C287.709 230.584 283.125 230.309 280.925 228.932C282.484 230.033 284.317 230.217 286.151 230.309C287.526 230.309 289.085 230.4 290.461 229.942C290.827 231.226 291.194 232.602 291.652 233.887C290.369 233.979 289.085 234.346 287.71 234.437C285.784 234.529 283.95 233.979 282.3 232.97C282.209 232.878 282.117 233.061 282.209 233.153C285.326 235.172 288.259 234.805 291.836 234.438C292.111 235.538 292.477 236.548 292.752 237.649C290.094 238.291 286.152 238.291 283.951 236.732C283.767 236.64 283.584 236.823 283.767 237.007C285.234 238.017 286.977 238.291 288.718 238.291C289.91 238.291 291.744 238.567 292.936 238.016V238.108C293.394 239.668 293.761 241.228 294.128 242.788C291.01 243.338 288.352 242.145 285.418 241.228C285.234 241.136 285.051 241.503 285.326 241.503C288.26 242.604 291.102 243.797 294.219 243.246L295.045 247.1C292.385 247.559 289.268 246.917 286.885 245.724C286.701 245.632 286.61 245.907 286.793 245.999C289.36 247.375 292.386 247.834 295.136 247.559L295.961 251.688C293.394 252.422 290.827 251.78 288.443 250.587C288.352 250.587 288.352 250.679 288.352 250.679C290.552 251.871 293.486 253.064 296.053 252.239C296.145 252.697 296.237 253.156 296.328 253.523C296.42 253.798 296.42 254.073 296.512 254.349C294.402 254.624 292.477 254.808 290.369 254.257C290.277 254.257 290.277 254.349 290.369 254.349C292.386 254.991 294.495 255.083 296.603 254.716C296.787 255.542 296.878 256.459 297.062 257.286C296.512 257.286 295.962 257.286 295.412 257.376C294.402 257.56 293.486 257.193 292.477 257.102C292.386 257.102 292.386 257.193 292.477 257.285C293.394 257.377 294.127 257.744 295.045 257.744C295.686 257.652 296.42 257.744 297.062 257.744C297.704 261.231 298.437 264.901 300.271 267.654C300.637 268.296 301.829 267.929 301.738 267.194C301.188 264.901 300.088 262.607 299.262 260.313Z" fill="#9287D8"/>
<path d="M318.792 228.107C319.25 237.741 323.742 253.247 312.282 258.753C309.165 260.221 305.497 258.753 302.93 256.643C299.63 253.89 297.154 246.825 296.145 242.696C295.32 239.393 295.595 235.539 295.045 232.144C294.495 228.474 293.945 224.895 293.486 221.225C291.744 208.104 295.686 195.717 305.406 186.449C307.331 190.395 310.265 193.515 313.016 197.093C314.299 198.745 315.491 200.488 316.499 202.231C318.241 205.443 318.059 209.113 318.059 212.6C317.966 217.83 318.609 222.968 318.792 228.107Z" fill="#5942D2"/>
<path d="M310.265 259.579C310.173 258.753 310.081 258.019 309.99 257.193C311.457 256.826 312.74 255.633 313.749 254.716C315.583 253.064 316.866 251.046 318.149 249.027C318.241 248.935 318.059 248.844 317.966 248.935C316.683 250.771 315.307 252.514 313.566 253.89C312.556 254.716 311.182 255.909 309.898 256.46C309.806 255.542 309.715 254.533 309.623 253.615C311.09 253.065 312.19 251.688 313.29 250.587C315.124 248.752 316.591 246.641 318.15 244.531C315.766 247.467 313.199 251.321 309.623 252.973C309.531 251.78 309.44 250.587 309.44 249.394V249.211C313.474 247.009 315.583 242.879 318.15 239.301C318.15 239.209 318.15 239.209 318.058 239.209C315.399 242.604 313.107 246.274 309.348 248.477C309.256 246.733 309.256 245.082 309.165 243.338C312.74 240.861 315.307 237.833 317.233 233.888C317.233 233.796 317.141 233.796 317.141 233.796C315.032 237.466 312.374 239.943 309.165 242.512C309.165 240.861 309.073 239.117 308.981 237.466C310.448 236.181 312.098 235.264 313.382 233.796C314.666 232.327 315.674 230.676 316.316 228.841C316.316 228.749 316.224 228.657 316.133 228.749C314.757 232.419 311.64 234.254 308.889 236.732L308.614 232.052C311.64 229.208 315.124 226.363 316.133 222.142C316.133 222.142 316.041 222.051 316.041 222.142C314.757 226.18 311.457 228.565 308.523 231.318C308.523 231.043 308.523 230.768 308.431 230.492C308.339 229.024 308.156 227.556 307.973 226.18C309.806 224.803 311.457 223.152 313.015 221.5C314.115 220.307 315.307 219.115 315.765 217.555C315.765 217.463 315.675 217.371 315.583 217.463C314.391 220.674 310.54 223.335 307.881 225.446C307.698 223.978 307.606 222.51 307.422 221.041C310.356 218.105 314.024 215.903 315.216 211.682C315.216 211.591 315.032 211.499 315.032 211.591C313.749 215.536 310.173 217.555 307.331 220.307L307.056 217.555C310.448 215.261 313.932 211.04 315.032 207.186C315.124 207.003 314.757 206.911 314.666 207.094C313.382 210.581 310.265 214.71 306.964 216.821C306.781 215.353 306.689 213.884 306.597 212.416V212.233C308.156 211.315 309.44 209.755 310.723 208.471C312.19 207.003 313.565 205.351 314.116 203.241C314.207 203.057 313.841 202.874 313.749 203.149C312.832 206.544 309.439 209.48 306.506 211.407C306.506 210.857 306.414 210.306 306.414 209.755C306.414 208.93 306.322 208.104 306.322 207.37C307.422 206.085 308.982 205.26 310.082 203.975C310.998 202.874 311.732 201.589 312.465 200.305C312.557 200.213 312.374 200.029 312.282 200.213C311.273 201.773 310.173 203.333 308.798 204.617C307.973 205.351 307.056 205.902 306.322 206.636C306.231 205.351 306.231 203.975 306.139 202.69H306.231C306.322 202.69 306.414 202.598 306.414 202.598C308.064 201.681 309.073 199.754 309.99 198.194C309.99 198.194 309.99 198.102 309.898 198.194C308.889 199.662 307.789 201.314 306.231 202.324H306.139C306.047 201.222 306.047 200.213 305.956 199.112C306.047 199.02 306.139 198.928 306.139 198.836C306.964 197.919 307.606 196.91 308.156 195.9C308.156 195.808 308.064 195.717 308.064 195.808C307.422 196.726 306.689 197.552 305.864 198.286C305.68 196.084 305.405 193.882 304.947 191.679C304.947 191.496 304.58 191.588 304.672 191.771C305.039 193.881 305.222 195.991 305.405 198.194C304.122 197.184 302.655 196.084 301.646 194.707C301.555 194.616 301.463 194.707 301.555 194.799C302.105 195.625 302.838 196.359 303.48 197.001C304.122 197.644 304.672 198.378 305.405 198.928C305.497 200.121 305.589 201.222 305.589 202.415C304.305 202.507 303.205 202.598 301.921 201.956C300.454 201.222 299.354 199.937 298.804 198.378C298.712 198.194 298.437 198.286 298.529 198.469C299.079 199.937 299.996 201.222 301.279 202.048C302.655 202.965 304.03 202.965 305.589 202.965C305.68 204.342 305.68 205.626 305.772 207.003C304.489 206.636 303.297 205.993 302.105 205.443C300.179 204.617 298.895 203.241 297.154 202.231C296.97 202.14 296.787 202.415 296.97 202.507C298.62 203.516 299.904 204.801 301.646 205.718C302.93 206.36 304.396 207.186 305.864 207.461V207.737C305.772 207.829 305.864 207.92 305.864 208.012C305.864 209.297 305.956 210.582 305.956 211.866V212.141C302.838 211.591 298.071 210.398 296.879 207.186C296.787 206.911 296.329 207.094 296.512 207.37C298.254 210.856 302.747 211.499 306.047 212.783C306.139 214.251 306.231 215.628 306.322 217.096C304.305 216.912 302.38 216.637 300.546 215.72C298.896 214.986 296.604 214.16 295.503 212.6C295.503 212.508 295.412 212.6 295.412 212.692C296.42 214.252 298.437 214.986 300.088 215.812C302.105 216.912 304.03 217.738 306.322 217.738V217.922L306.597 220.674C303.113 221.317 297.704 219.849 295.228 217.738C296.878 219.39 298.988 220.124 301.28 220.583C303.022 220.95 304.855 221.408 306.597 221.133C306.781 222.785 306.964 224.528 307.056 226.18C305.406 225.996 303.756 226.18 302.196 225.905C299.813 225.538 297.704 224.436 295.962 222.785C295.87 222.693 295.687 222.877 295.778 222.968C299.079 226.18 302.747 226.363 307.148 226.822C307.239 228.198 307.422 229.575 307.514 230.952C304.122 231.135 299.354 230.217 296.97 227.832C296.787 227.648 296.512 227.923 296.695 228.107C298.162 229.667 300.271 230.401 302.38 230.859C303.847 231.226 305.956 231.869 307.606 231.593V231.685C307.789 233.704 307.881 235.631 307.973 237.649C304.122 237.649 301.004 235.539 297.795 233.704C297.612 233.612 297.337 233.887 297.612 234.071C301.004 236.089 304.03 238.2 308.064 238.291C308.156 239.943 308.156 241.503 308.156 243.155C304.856 243.063 301.188 241.687 298.529 239.576C298.346 239.393 298.162 239.76 298.346 239.852C301.096 242.054 304.672 243.43 308.156 243.705V248.935C304.856 249.302 301.83 247.835 299.262 245.815C299.171 245.724 299.079 245.907 299.171 245.907C301.555 247.927 304.855 250.037 308.156 249.486V252.147C305.589 252.055 303.113 251.78 300.729 250.587C300.638 250.587 300.638 250.679 300.729 250.679C303.022 251.872 305.589 252.514 308.248 252.606C308.248 253.615 308.156 254.716 308.156 255.817C307.514 255.725 306.872 255.542 306.139 255.542C304.855 255.45 303.847 254.9 302.655 254.532C302.563 254.532 302.471 254.624 302.563 254.716C303.663 255.083 304.489 255.726 305.589 255.817C306.414 255.909 307.239 256.092 308.064 256.276C307.973 260.68 308.156 265.268 309.623 269.03C309.99 269.856 311.457 269.764 311.457 268.755C311.457 265.635 310.723 262.607 310.265 259.579Z" fill="#9287D8"/>
<path d="M325.118 263.249L324.751 271.049L324.017 283.252L322.917 303.347H295.87L294.77 283.252L294.036 271.049L293.669 263.249H325.118Z" fill="#71767A"/>
<path d="M324.751 271.049L324.659 272.609L324.568 274.26L324.017 283.252H294.77L294.219 274.26L294.128 272.609L294.036 271.049H324.751Z" fill="#BDBDBD"/>
<path d="M324.659 272.609L324.568 274.26H294.219L294.128 272.609H324.659Z" fill="#71767A"/>
<defs>
<radialGradient id="paint0_radial_82_607" cx="0" cy="0" r="1" gradientUnits="userSpaceOnUse" gradientTransform="translate(1339.37 1215.98) scale(1185.13 1185.05)">
<stop stop-color="#FFC8AF"/>
<stop offset="1" stop-color="#FFBB9C"/>
</radialGradient>
<radialGradient id="paint1_radial_82_607" cx="0" cy="0" r="1" gradientTransform="matrix(1826.46 -311.703 496.965 1826.44 2245.43 1359.83)" gradientUnits="userSpaceOnUse">
<stop stop-color="#FFC8AF"/>
<stop offset="1" stop-color="#FFBB9C"/>
</radialGradient>
<radialGradient id="paint2_radial_82_607" cx="0" cy="0" r="1" gradientUnits="userSpaceOnUse" gradientTransform="translate(890.348 978.223) scale(745.026 745.05)">
<stop stop-color="#FFC8AF"/>
<stop offset="1" stop-color="#FFBB9C"/>
</radialGradient>
<radialGradient id="paint3_radial_82_607" cx="0" cy="0" r="1" gradientUnits="userSpaceOnUse" gradientTransform="translate(811.263 938.106) scale(678.591 678.62)">
<stop stop-color="#FFC8AF"/>
<stop offset="1" stop-color="#FFBB9C"/>
</radialGradient>
<radialGradient id="paint4_radial_82_607" cx="0" cy="0" r="1" gradientUnits="userSpaceOnUse" gradientTransform="translate(1497.81 148.591) scale(3799.91 3799.59)">
<stop stop-color="#FFC8AF"/>
<stop offset="1" stop-color="#FFBB9C"/>
</radialGradient>
<radialGradient id="paint5_radial_82_607" cx="0" cy="0" r="1" gradientUnits="userSpaceOnUse" gradientTransform="translate(480.214 1066.08) scale(3799.81 3799.88)">
<stop stop-color="#FFC8AF"/>
<stop offset="1" stop-color="#FFBB9C"/>
</radialGradient>
</defs>
</svg>
