<svg width="370" height="246" viewBox="0 0 370 246" fill="none" xmlns="http://www.w3.org/2000/svg">
<path opacity="0.345889" fill-rule="evenodd" clip-rule="evenodd" d="M43.9074 35.9917C73.3411 22.7071 207.732 133.218 196.213 174.514C184.695 215.809 125.261 240.884 81.237 193.183C37.2128 145.483 14.4737 49.2763 43.9074 35.9917Z" fill="#EDEEEF"/>
<path opacity="0.345889" fill-rule="evenodd" clip-rule="evenodd" d="M181.254 69.3143C229.622 44.2933 379.473 95.1507 345.575 139.76C311.676 184.368 214.736 233.203 170.416 205.452C126.096 177.7 132.886 94.3352 181.254 69.3143Z" fill="#DFE1E2"/>
<path opacity="0.5" fill-rule="evenodd" clip-rule="evenodd" d="M70.6992 92.1127C66.4545 92.1604 62.2118 92.317 57.9755 92.5851C53.9469 92.8404 49.5758 92.6466 45.6128 93.4275C44.4875 93.6491 42.9674 94.6748 44.4637 95.8028C45.5154 96.5959 49.3632 95.6836 50.6191 95.6065C55.2441 95.3222 59.8715 94.9817 64.5031 94.8181C68.8878 94.6631 73.2722 94.6084 77.659 94.5647C78.3287 94.5581 79.4405 94.3433 80.1074 94.5378C81.0657 94.8174 80.8384 94.8933 80.9101 96.1097C81.0402 98.3137 81.0043 100.525 80.9606 102.731C80.9183 104.866 80.8393 107.001 80.8471 109.136C80.8524 110.66 80.3653 113.688 81.13 115.011C82.2305 116.916 83.3722 114.847 83.4544 113.582C83.6118 111.161 83.5413 108.71 83.542 106.286C83.5425 104.011 83.5588 101.736 83.4787 99.4618C83.4205 97.8191 83.6553 94.9515 82.7704 93.4581C81.8691 91.9372 79.6991 92.2651 78.1157 92.1927C75.6457 92.0791 73.1713 92.087 70.6992 92.1127Z" fill="#967EFB"/>
<path opacity="0.5" fill-rule="evenodd" clip-rule="evenodd" d="M43.6924 94.8579C43.6971 99.1328 43.2026 103.379 43.064 107.649C43.0005 109.612 42.8715 111.768 43.3682 113.696C43.8695 115.641 45.4618 116.063 45.6452 113.891C46.0166 109.492 45.9255 104.93 46.2147 100.496C46.3168 98.9301 46.9812 96.0609 46.361 94.5949C45.8148 93.3035 43.6901 93.0559 43.6924 94.8579Z" fill="#967EFB"/>
<path opacity="0.5" fill-rule="evenodd" clip-rule="evenodd" d="M83.496 113.701C76.1243 114.677 68.418 114.321 60.9938 114.475C57.4319 114.548 53.8707 114.553 50.3084 114.59C49.0651 114.603 45.9078 114.13 44.8323 114.829C43.1201 115.942 44.9778 116.8 46.1113 116.825C53.1414 116.979 60.2497 116.656 67.2784 116.425C70.4364 116.321 73.6046 116.271 76.7542 116.002C78.6931 115.837 80.812 115.677 82.6949 115.156C83.096 115.045 83.9695 115.068 84.0594 114.521C84.1148 114.182 84.0143 113.63 83.496 113.701Z" fill="#967EFB"/>
<path opacity="0.5" fill-rule="evenodd" clip-rule="evenodd" d="M52.8428 119.915C50.7941 119.927 44.6202 118.976 43.7717 120.974C42.6405 123.638 47.0532 123.016 48.24 122.986C50.9354 122.916 53.6289 122.909 56.325 122.91C58.9705 122.911 61.6156 122.894 64.2606 122.831C65.0268 122.813 66.8105 123.131 67.2513 122.208C67.5863 121.507 67.3216 120.954 66.7037 120.582C65.217 119.689 61.3547 120.207 59.6141 120.127C57.3604 120.023 55.0993 119.915 52.8428 119.915Z" fill="#967EFB"/>
<path opacity="0.5" fill-rule="evenodd" clip-rule="evenodd" d="M77.7676 120.409C76.5967 120.478 74.2283 119.996 73.1794 120.531C71.9873 121.141 72.4073 122.094 73.4366 122.513C74.1494 122.803 77.0733 122.651 77.7676 122.315C78.4913 121.964 79.3096 120.314 77.7676 120.409Z" fill="#967EFB"/>
<path opacity="0.5" fill-rule="evenodd" clip-rule="evenodd" d="M90.604 95.2772C89.3535 95.6204 89.7328 102.72 89.7006 103.846C89.6123 106.929 89.2656 110.807 90.2902 113.777C90.9437 115.67 92.1986 115.413 91.9849 113.42C91.797 111.671 91.4749 109.942 91.3354 108.181C91.02 104.197 90.5909 99.947 90.8888 95.9595C91.0156 96.1912 92.2019 98.3402 92.481 98.1799C92.3967 98.2299 91.1128 95.1431 90.604 95.2772Z" fill="#967EFB"/>
<path opacity="0.5" fill-rule="evenodd" clip-rule="evenodd" d="M104.671 92.6626C102.14 92.7 99.6096 92.7449 97.0796 92.815C95.068 92.8711 91.907 92.5406 90.0622 93.3868C87.8655 94.3942 88.9076 96.6391 90.9709 96.6865C92.7961 96.7286 94.7426 96.317 96.5844 96.2539C101.559 96.0835 106.543 96.0472 111.52 96.0047C116.021 95.9659 120.713 96.446 125.175 95.77C125.837 101.647 124.047 107.548 124.656 113.492C124.75 114.415 124.708 115.718 125.883 115.928C127.366 116.194 127.427 114.725 127.483 113.673C127.643 110.671 127.556 107.666 127.776 104.659C127.98 101.873 128.381 99.0251 128.042 96.2345C127.625 92.8003 125.98 93.0757 123.071 92.9329C116.927 92.6316 110.821 92.5724 104.671 92.6626Z" fill="#967EFB"/>
<path opacity="0.5" fill-rule="evenodd" clip-rule="evenodd" d="M96.1897 113.529C94.9002 113.562 92.7585 113.165 91.9322 114.401C91.0725 115.688 92.0924 116.81 93.3425 117.074C94.8222 117.386 96.7516 116.958 98.2873 116.953C99.8866 116.949 101.486 116.966 103.086 116.973C109.942 117 116.828 117.103 123.68 116.82C124.637 116.78 127.353 117.101 128.015 116.183C128.603 115.369 128.192 114.639 127.418 114.224C126.148 113.544 123.54 113.803 122.127 113.749C120.383 113.682 118.636 113.661 116.891 113.633C110.002 113.527 103.078 113.359 96.1897 113.529Z" fill="#967EFB"/>
<path opacity="0.5" fill-rule="evenodd" clip-rule="evenodd" d="M101.99 119.477C99.4237 119.521 96.686 119.408 94.1455 119.797C91.9117 120.14 91.6367 122.299 94.0413 122.551C96.251 122.784 98.9301 122.35 101.151 122.207C101.939 122.156 102.856 122.228 103.234 121.357C103.629 120.446 102.875 119.572 101.99 119.477Z" fill="#967EFB"/>
<path opacity="0.5" fill-rule="evenodd" clip-rule="evenodd" d="M121.388 119.704C120.019 119.738 116.018 119.149 115.34 120.713C114.211 123.318 119.626 122.328 120.665 122.29C121.975 122.242 127.078 123.006 127.079 120.922C127.08 118.878 122.643 119.673 121.388 119.704Z" fill="#967EFB"/>
<path opacity="0.5" fill-rule="evenodd" clip-rule="evenodd" d="M43.4707 132.645C43.4739 137.383 43.1791 142.165 43.6113 146.89C43.79 148.845 43.7594 152.589 44.8915 154.246C45.6951 155.422 46.8097 155.34 47.2486 153.927C47.542 152.983 47.0727 151.095 47.0204 150.085C46.9699 149.116 46.9111 148.147 46.8662 147.177C46.751 144.68 46.7601 142.186 46.7945 139.686C46.8239 137.543 47.34 134.707 46.8534 132.645C46.3997 130.724 43.4707 130.274 43.4707 132.645Z" fill="#967EFB"/>
<path opacity="0.5" fill-rule="evenodd" clip-rule="evenodd" d="M91.0851 128.477C82.8654 128.683 74.6273 128.499 66.415 128.906C62.3648 129.107 58.3306 129.547 54.3008 129.986C52.3209 130.202 50.3422 130.425 48.3659 130.668C47.7695 130.742 42.8136 130.934 44.6776 132.819C45.4915 133.642 48.0816 132.782 49.1064 132.661C51.0907 132.426 53.079 132.222 55.0661 132.012C58.8473 131.612 62.6333 131.233 66.4306 131.023C75.374 130.527 84.3542 130.676 93.3065 130.346C95.7281 130.257 98.1425 130.193 100.565 130.288C101.201 130.313 105.876 130.55 103.846 128.824C102.886 128.007 99.268 128.429 98.0686 128.404C95.7409 128.356 93.4118 128.419 91.0851 128.477Z" fill="#967EFB"/>
<path opacity="0.5" fill-rule="evenodd" clip-rule="evenodd" d="M103.887 153.472C103.885 153.474 103.884 153.476 103.883 153.478C103.435 154.138 101.78 153.954 101.055 154.003C98.8499 154.153 96.6853 154.406 94.4994 154.734C90.1439 155.387 85.8263 155.788 81.4237 155.897C72.7163 156.112 63.9729 155.911 55.2785 156.507C53.3529 156.64 51.4564 156.866 49.5623 157.229C48.2097 157.488 45.603 158.375 45.4449 156.14C45.254 153.448 52.0101 153.452 53.9418 153.273C62.2362 152.501 70.667 152.664 78.9869 152.78C83.0101 152.836 87.0259 152.958 91.0459 152.713C95.062 152.467 99.2142 152.531 103.201 152.1C102.687 150.109 102.763 147.619 102.619 145.585C102.248 140.363 102.348 135.122 102.109 129.894C102.004 127.591 105.142 127.242 106.072 129.106C107.012 130.989 106.401 134.726 106.462 136.814C106.603 141.648 107.499 147.06 106.552 151.841C106.223 153.504 104.82 154.378 103.887 153.472Z" fill="#967EFB"/>
<path opacity="0.5" fill-rule="evenodd" clip-rule="evenodd" d="M108.943 131.581C107.832 131.732 106.906 132.683 107.402 133.888C108.026 135.406 109.886 134.813 111.114 134.717C115.02 134.411 119.097 135.022 122.955 134.561C124.008 134.435 125.537 133.861 124.591 132.445C123.88 131.381 121.289 131.568 120.188 131.466C116.421 131.118 112.704 131.211 108.943 131.581Z" fill="#967EFB"/>
<path opacity="0.5" fill-rule="evenodd" clip-rule="evenodd" d="M115.533 138.203C114.019 138.305 110.494 138.224 109.855 139.948C108.711 143.039 113.195 141.95 114.56 141.774C116.146 141.57 119.884 142.117 120.729 140.579C122.239 137.828 116.862 138.111 115.533 138.203Z" fill="#967EFB"/>
<path opacity="0.5" fill-rule="evenodd" clip-rule="evenodd" d="M111.639 144.987C110.921 145.706 110.919 146.989 111.639 147.708C112.52 148.588 114.439 148.405 115.597 148.469C117.211 148.56 121.848 149.413 122.65 147.512C123.732 144.947 119.533 145.001 118.152 144.855C116.555 144.687 112.962 143.663 111.639 144.987Z" fill="#967EFB"/>
<path opacity="0.5" fill-rule="evenodd" clip-rule="evenodd" d="M55.043 101.08C55.043 103.838 59.3501 103.838 59.3501 101.08C59.3501 98.3374 55.043 98.2955 55.043 101.08Z" fill="#967EFB"/>
<path opacity="0.5" fill-rule="evenodd" clip-rule="evenodd" d="M63.2129 101.111C63.2129 104.264 68.1187 104.258 68.1187 101.111C68.1187 97.9693 63.2129 97.9373 63.2129 101.111Z" fill="#967EFB"/>
<path opacity="0.5" fill-rule="evenodd" clip-rule="evenodd" d="M58.2707 105.303C55.8859 105.961 58.0828 107.982 59.1902 108.444C60.9499 109.178 63.3517 109.719 65.112 108.619C65.8123 108.181 66.381 107.599 65.8677 106.749C65.3208 105.845 64.5721 106.247 63.7395 106.331C62.6847 106.437 61.8323 106.42 60.8138 106.082C60.0536 105.83 59.0997 105.075 58.2707 105.303Z" fill="#967EFB"/>
<path opacity="0.5" fill-rule="evenodd" clip-rule="evenodd" d="M101.527 101.255C101.527 103.12 104.423 103.12 104.423 101.255C104.423 99.389 101.527 99.389 101.527 101.255Z" fill="#967EFB"/>
<path opacity="0.5" fill-rule="evenodd" clip-rule="evenodd" d="M107.932 101.535C107.932 103.608 111.15 103.608 111.15 101.535C111.15 99.4628 107.932 99.4631 107.932 101.535Z" fill="#967EFB"/>
<path opacity="0.5" fill-rule="evenodd" clip-rule="evenodd" d="M107.694 106.033C106.003 106.251 101.115 106.746 100.842 108.83C100.42 112.044 105.776 109.442 106.998 109.19C108.555 108.869 109.946 108.952 111.5 109.015C112.354 109.049 113.489 109.187 113.399 107.887C113.253 105.753 109.171 105.843 107.694 106.033Z" fill="#967EFB"/>
<path opacity="0.5" fill-rule="evenodd" clip-rule="evenodd" d="M65.1984 135.674C63.9733 136 62.3707 138.118 63.2136 139.414C64.5957 141.54 65.2052 138.276 65.7836 137.962C66.836 137.39 67.6903 139.479 68.7902 138.384C70.5257 136.655 66.291 135.381 65.1984 135.674Z" fill="#967EFB"/>
<path opacity="0.5" fill-rule="evenodd" clip-rule="evenodd" d="M79.2356 134.102C77.7827 134.115 74.7156 136.172 74.4984 137.691C74.3694 138.594 74.9677 139.46 75.9405 139.473C77.265 139.489 77.686 137.767 78.8342 137.406C80.0728 137.018 79.889 137.912 80.9587 138.376C81.7415 138.716 82.7206 138.574 82.9925 137.611C83.5055 135.796 80.7283 134.074 79.2356 134.102Z" fill="#967EFB"/>
<path opacity="0.5" fill-rule="evenodd" clip-rule="evenodd" d="M68.1148 142.798C65.791 144.16 69.6145 147.078 70.9401 147.444C72.9412 147.994 76.9686 146.966 77.4429 144.522C77.6316 143.549 77.0231 142.668 75.9494 142.842C75.0654 142.985 74.4984 144.094 73.6796 144.491C72.5744 145.027 71.5918 144.991 70.6527 144.184C69.8876 143.527 69.4779 142.003 68.1148 142.798Z" fill="#967EFB"/>
<path opacity="0.5" fill-rule="evenodd" clip-rule="evenodd" d="M69.7992 162.918C67.723 163.361 65.6126 163.064 63.5264 163.48C61.3992 163.905 60.1279 164.709 58.1515 163.899C58.0585 163.86 57.9658 163.82 57.873 163.781C56.3433 163.122 54.7401 162.927 53.1389 163.977C52.1914 164.599 49.3149 166.748 49.6616 168.059C50.4129 170.903 53.6496 166.444 54.4749 166.01C56.0488 165.181 57.1278 166.24 58.7481 166.538C60.689 166.896 62.2507 165.871 64.0789 165.462C66.2172 164.985 68.6227 164.818 70.7981 164.562C71.6575 164.461 74.9129 165.141 75.2068 164.072C75.7116 162.234 70.6152 162.745 69.7992 162.918Z" fill="#967EFB"/>
<path opacity="0.5" fill-rule="evenodd" clip-rule="evenodd" d="M84.7778 168.645C84.9135 168.747 84.8046 168.665 84.7778 168.645ZM90.5924 162.807C92.3697 162.627 98.0563 161.357 99.2239 163.194C99.9843 164.39 98.7774 168.805 97.6262 169.376C96.706 169.832 94.5626 169.328 93.5529 169.292C91.6742 169.226 89.7916 169.197 87.915 169.08C87.2856 169.04 85.2604 169.156 84.767 168.599C84.1844 167.941 84.2103 164.435 84.0732 163.565C85.7073 164.094 88.8837 162.981 90.5924 162.807ZM94.3876 161.007C92.1113 161.105 89.8355 161.276 87.5762 161.582C86.3168 161.752 85.0408 162.204 83.8777 162.419C83.5027 162.488 82.8942 162.296 82.4344 162.518C81.0909 163.167 82.2674 167.556 82.5914 168.728C83.089 170.529 84.3414 170.821 86.0961 170.99C88.4074 171.214 90.7662 171.144 93.0848 171.115C95.3197 171.088 98.3333 171.583 99.5874 169.341C100.398 167.891 101.267 164.514 100.575 162.898C99.6631 160.772 96.2596 160.928 94.3876 161.007Z" fill="#967EFB"/>
<path opacity="0.5" fill-rule="evenodd" clip-rule="evenodd" d="M119.878 169.851C119.756 170.007 119.756 170.007 119.878 169.851ZM120.377 169.249C120.339 169.307 120.165 169.491 120.377 169.249ZM114.948 169.084C115.952 168.895 116.956 168.709 117.96 168.525C117.009 169.857 116.007 169.307 114.382 169.191C114.571 169.155 114.76 169.12 114.948 169.084ZM110.161 168.613C110.416 168.528 110.67 168.443 110.924 168.358C110.917 168.551 110.958 168.733 111.049 168.901C110.614 168.854 110.179 168.804 109.744 168.75C109.883 168.705 110.022 168.659 110.161 168.613ZM107.943 166.975C107.929 166.626 108.454 166.865 108.755 166.842C108.175 167.353 107.904 167.397 107.943 166.975ZM115.877 163.012C115.953 162.915 116.054 162.92 116.18 163.027C116.043 163.073 115.514 163.297 115.877 163.012ZM121.022 162.407C121.321 162.793 121.035 162.407 121.022 162.407ZM120.877 162.281C120.952 162.338 120.952 162.338 120.877 162.281ZM120.235 162.206C121.287 162.383 121.207 163.618 120.235 162.206ZM107.876 162.122C107.735 162.127 107.662 162.299 107.876 162.122ZM111.899 159.493C110.113 159.597 106.835 159.493 105.343 160.444C103.397 161.686 104.421 165.962 104.595 167.836C104.852 170.607 106.156 171.396 108.765 171.686C111.879 172.034 115.078 172.098 118.208 172.016C121.027 171.942 122.632 170.972 123.149 168.005C123.307 167.096 123.708 165.692 123.696 164.822C123.687 164.219 123.386 163.944 123.272 163.43C122.625 160.51 121.543 160.163 118.549 160.036C116.345 159.942 114.061 159.38 111.899 159.493Z" fill="#967EFB"/>
<path opacity="0.5" fill-rule="evenodd" clip-rule="evenodd" d="M206.504 92.3903C211.045 92.487 216.197 95.0001 215.479 100.324C214.953 104.224 211.576 107.39 207.665 107.663C203.462 107.957 199.018 104.731 198.447 100.451C197.804 95.6372 202.064 92.2942 206.504 92.3903ZM204.277 90.2231C202.437 90.4979 200.678 91.4645 199.057 92.3304C198.438 92.6611 195.301 94.6771 197.761 95.1779C191.833 104.738 205.784 113.618 213.628 107.405C217.15 104.615 219.005 99.3247 216.728 95.1838C214.373 90.9011 208.789 89.5455 204.277 90.2231Z" fill="#967EFB"/>
<path opacity="0.5" fill-rule="evenodd" clip-rule="evenodd" d="M203.192 98.3606C203.192 100.146 205.964 100.146 205.964 98.3606C205.964 96.5751 203.192 96.5751 203.192 98.3606Z" fill="#967EFB"/>
<path opacity="0.5" fill-rule="evenodd" clip-rule="evenodd" d="M208.331 98.6467C208.331 100.582 211.336 100.582 211.336 98.6467C211.336 96.7108 208.331 96.7108 208.331 98.6467Z" fill="#967EFB"/>
<path opacity="0.5" fill-rule="evenodd" clip-rule="evenodd" d="M204.863 102.475C204.459 103.944 209.069 104.697 209.223 102.997C209.296 102.185 205.144 101.45 204.863 102.475Z" fill="#967EFB"/>
<path opacity="0.5" fill-rule="evenodd" clip-rule="evenodd" d="M218.379 101.567C223.684 100.931 229.155 101.225 234.486 101.378C235.82 101.416 237.154 101.454 238.488 101.476C239.337 101.49 241.169 101.897 241.909 101.5C244.941 99.8741 238.993 99.0879 238.151 99.0131C232.849 98.5768 224.665 98.4211 219.347 98.627C217.774 98.688 217.434 101.681 218.379 101.567Z" fill="#967EFB"/>
<path opacity="0.5" fill-rule="evenodd" clip-rule="evenodd" d="M242.253 127.941C242.298 122.383 242.498 116.786 242.925 111.244C243.099 108.985 243.308 106.729 243.481 104.47C243.562 103.406 243.94 101.915 243.315 100.982C242.67 100.02 241.256 99.8199 240.405 100.672C239.385 101.993 239.681 104.208 239.554 105.805C239.359 108.261 239.124 110.715 239.007 113.175C238.78 117.938 238.727 122.784 239.11 127.54C239.291 129.785 239.683 131.975 240.204 134.163C240.441 135.16 242.33 139.598 241.933 140.21C241.317 141.159 236.77 140.801 235.784 140.827C233.252 140.895 230.72 140.939 228.188 140.988C226.021 141.029 223.853 141.059 221.685 141.078C220.824 141.085 215.766 140.932 216.888 142.208C204.342 143.083 191.556 141.623 179.087 141.123C178.457 141.097 177.426 140.918 176.475 140.867C176.361 140.407 176.267 139.997 176.244 139.712C176.08 137.707 176.038 135.697 175.86 133.693C175.535 130.027 174.904 126.398 174.529 122.739C174.155 119.083 174.193 115.417 173.975 111.752C173.938 111.124 173.849 105.981 172.551 104.731C173.167 104.964 174.159 104.995 174.73 104.948C179.356 104.575 183.948 103.772 188.534 103.082C189.846 102.884 192.824 103.024 193.912 102.368C194.854 101.8 195.226 99.8101 193.588 99.9711C189.015 100.461 184.467 101.221 179.93 101.97C178.716 102.17 177.506 102.384 176.296 102.603C175.487 102.749 173.354 102.737 172.727 103.225C171.966 103.816 171.885 104.219 172.143 104.486C171.784 104.388 171.354 104.543 170.838 105.059C169.862 106.33 170.78 109.459 170.896 110.949C171.036 112.736 171.105 114.527 171.186 116.317C171.343 119.782 171.706 123.199 172.263 126.622C172.888 130.456 173.419 134.307 174.046 138.14C174.209 139.138 174.421 140.112 174.693 141.076C173.005 141.939 174.152 143.312 175.491 143.555C175.5 143.557 175.51 143.558 175.52 143.56C175.937 144.577 176.52 145.52 176.976 144.156C177.011 144.052 177.027 143.923 177.031 143.779C180.487 144.17 184.286 143.927 187.689 144.066C195.06 144.367 202.476 144.819 209.854 144.59C212.775 144.499 215.704 144.24 218.601 143.85C220.298 143.622 222.001 143.349 223.671 142.971C223.79 142.944 223.972 142.915 224.182 142.881C224.217 142.88 224.251 142.879 224.284 142.879C226.841 142.84 229.395 142.771 231.95 142.665C234.095 142.576 236.248 142.53 238.386 142.328C239.714 142.202 242.52 142.226 243.335 140.891C244.076 139.676 242.837 136.549 242.661 135.185C242.351 132.784 242.233 130.361 242.253 127.941Z" fill="#967EFB"/>
<path opacity="0.5" fill-rule="evenodd" clip-rule="evenodd" d="M216.342 111.891C214.299 112.066 212.409 113.025 210.348 113.037C208.617 113.047 206.913 112.53 205.173 112.606C203.132 112.695 202.009 114.015 200.221 114.457C198.797 114.808 197.901 113.718 196.649 113.236C195.068 112.628 193.9 112.942 192.545 113.863C191.549 114.539 189.228 116.057 189.246 117.426C189.299 121.57 194.134 115.845 195.109 115.776C196.404 115.683 197.851 117.16 199.23 117.244C201.052 117.355 202.22 116.181 203.898 115.753C205.594 115.32 207.428 115.85 209.129 116.015C211.07 116.203 212.768 115.77 214.646 115.307C216.465 114.858 218.016 114.882 219.864 115.259C221.112 115.513 224.22 116.992 224.766 115.09C225.51 112.5 217.77 111.769 216.342 111.891Z" fill="#967EFB"/>
<path opacity="0.5" fill-rule="evenodd" clip-rule="evenodd" d="M216.963 119.796C212.777 120.202 208.566 120.558 204.36 120.672C202.539 120.722 195.537 119.941 196.158 122.256C196.69 124.24 206.219 122.991 208.159 122.839C210.302 122.673 212.441 122.44 214.573 122.171C215.328 122.075 217.153 122.174 217.686 121.54C218.194 120.936 217.944 119.697 216.963 119.796Z" fill="#967EFB"/>
<path opacity="0.5" fill-rule="evenodd" clip-rule="evenodd" d="M188.084 130.336C187.989 130.376 187.989 130.376 188.084 130.336ZM188.967 130.324C190.011 130.291 189.787 129.741 190.828 130.027C191.309 130.16 191.358 129.963 191.73 130.422C192.456 131.318 191.772 133.268 191.056 133.989C188.405 136.661 185.224 130.443 188.967 130.324ZM188.967 127.703C181.71 127.947 184.747 139.157 191.063 136.869C193.672 135.924 195.311 131.666 193.777 129.273C193.03 128.109 192.079 127.902 190.828 127.822C190.538 127.803 190.173 128.225 189.992 128.206C189.561 128.16 189.601 127.679 188.967 127.703Z" fill="#967EFB"/>
<path opacity="0.5" fill-rule="evenodd" clip-rule="evenodd" d="M206.322 130.72C206.193 130.68 208.614 131.384 208.349 131.108C208.914 131.696 208.154 133.086 207.515 133.329C205.966 133.917 205.097 131.509 206.322 130.72ZM207.396 127.68C205.124 128.002 203.37 128.948 203.06 131.475C202.773 133.808 204.349 136.17 206.835 136.215C212.253 136.314 212.418 126.979 207.396 127.68Z" fill="#967EFB"/>
<path opacity="0.5" fill-rule="evenodd" clip-rule="evenodd" d="M232.131 130.822C232.449 134.964 228.154 131.173 232.131 130.822ZM230.288 126.391C229.913 127.033 230.233 127.714 230.8 128.088C225.734 129.158 226.881 136.782 232.036 135.655C234.658 135.083 235.14 132.326 234.749 130.05C234.563 128.968 231.866 123.693 230.288 126.391Z" fill="#967EFB"/>
<path opacity="0.5" fill-rule="evenodd" clip-rule="evenodd" d="M242.273 130.369C240.763 130.637 237.193 132.305 237.224 134.096C237.273 136.893 240.307 133.838 240.982 133.428C244.607 131.221 249.304 134.08 253.079 134.689C254.81 134.968 258.196 135.483 259.725 134.323C262.443 132.26 256.156 132.777 255.355 132.694C251.002 132.244 246.672 129.583 242.273 130.369Z" fill="#CFC4FD"/>
<path opacity="0.5" fill-rule="evenodd" clip-rule="evenodd" d="M335.626 157.978C335.626 159.007 336.54 157.978 336.533 157.978C336.54 157.978 335.626 156.948 335.626 157.978Z" fill="#967EFB"/>
<path opacity="0.5" fill-rule="evenodd" clip-rule="evenodd" d="M283.604 110.709C283.603 113.57 283.458 116.49 283.985 119.317C284.145 120.173 284.271 121.812 285.174 122.256C286.081 122.702 286.96 122.201 287.185 121.271C287.448 120.19 286.871 118.571 286.813 117.435C286.733 115.884 286.727 114.331 286.727 112.778C286.726 111.657 287.095 109.853 285.771 109.276C284.787 108.846 283.604 109.644 283.604 110.709Z" fill="#967EFB"/>
<path opacity="0.5" fill-rule="evenodd" clip-rule="evenodd" d="M328.835 106.183C319.356 107.135 309.74 107.333 300.227 107.829C295.829 108.058 290.514 107.766 286.371 109.468C285.602 109.784 282.847 111.543 285.084 112.26C285.781 112.483 286.489 111.732 287.062 111.48C288.015 111.062 289.119 110.932 290.136 110.769C298.781 109.38 307.823 109.622 316.556 108.973C318.794 108.807 321.033 108.636 323.266 108.416C324.861 108.259 328.215 107.109 329.687 107.698C332.203 108.703 332.144 115.233 332.194 117.478C332.22 118.64 331.092 122.809 333.333 122.386C335.127 122.048 334.477 117.717 334.338 116.532C333.971 113.427 333.345 105.726 328.835 106.183Z" fill="#967EFB"/>
<path opacity="0.5" fill-rule="evenodd" clip-rule="evenodd" d="M332.331 122.236C324.097 122.979 315.674 122.25 307.406 122.542C303.072 122.696 298.743 122.94 294.409 123.083C292.535 123.145 290.658 123.148 288.783 123.161C287.886 123.167 283.804 123.711 286.329 125.489C287.447 126.277 291.01 125.642 292.293 125.627C294.22 125.604 296.146 125.524 298.072 125.449C302.532 125.274 306.99 125.033 311.453 124.912C315.722 124.796 319.993 124.772 324.262 124.656C326.386 124.598 328.539 124.533 330.644 124.223C331.119 124.153 332.662 124.098 332.992 123.568C333.304 123.067 333.085 122.163 332.331 122.236Z" fill="#967EFB"/>
<path opacity="0.5" fill-rule="evenodd" clip-rule="evenodd" d="M291.864 116.054C291.819 116.159 291.819 116.159 291.864 116.054ZM295.429 114.97C295.559 115.025 295.559 115.025 295.429 114.97ZM295.262 114.94C297.184 116.899 294.229 119.237 292.429 117.325C290.518 115.297 294.025 114.947 295.262 114.94ZM293.224 111.977C286.606 113.155 288.949 121.976 295.131 120.701C297.845 120.141 299.397 117.407 298.463 114.781C298.098 113.755 297.302 112.629 296.194 112.306C295.642 112.145 295.154 112.398 294.627 112.339C294.126 112.282 293.847 111.865 293.224 111.977Z" fill="#967EFB"/>
<path opacity="0.5" fill-rule="evenodd" clip-rule="evenodd" d="M318.555 114.46C314.563 114.472 310.571 114.642 306.581 114.718C305.357 114.741 302.211 114.193 302.206 116.123C302.201 118.184 305.705 117.423 306.871 117.395C310.83 117.301 314.798 117.127 318.74 116.75C319.736 116.655 323.184 116.819 323.18 115.465C323.177 114.03 319.359 114.46 318.555 114.46Z" fill="#967EFB"/>
<path opacity="0.5" fill-rule="evenodd" clip-rule="evenodd" d="M328.087 127.917C318.216 128.182 308.36 128.274 298.497 128.78C294.808 128.969 291.124 129.109 287.429 129.109C286.718 129.109 285.285 128.834 284.615 129.282C282.798 130.497 284.867 131.54 286.052 131.606C294.154 132.056 302.374 130.937 310.472 130.684C315.212 130.536 319.954 130.492 324.692 130.251C325.985 130.185 327.277 130.109 328.568 130.009C329.31 129.951 331.273 130.109 331.872 129.675C334.491 127.779 328.97 127.894 328.087 127.917Z" fill="#967EFB"/>
<path opacity="0.5" fill-rule="evenodd" clip-rule="evenodd" d="M282.798 132.744C282.705 135.303 282.695 137.818 283.03 140.363C283.162 141.364 283.222 142.501 284.396 142.755C285.462 142.986 286.003 142.18 286.224 141.286C286.763 139.103 286.288 135.96 286.282 133.692C286.279 132.571 286.278 131.316 284.892 131.062C283.835 130.869 282.838 131.633 282.798 132.744Z" fill="#967EFB"/>
<path opacity="0.5" fill-rule="evenodd" clip-rule="evenodd" d="M338.55 138.914C322.571 139.756 306.614 140.491 290.624 141.167C289.377 141.219 279.689 141.114 283.076 144.492C284.122 145.535 286.817 144.829 288.17 144.763C290.203 144.663 292.237 144.586 294.27 144.483C302.33 144.073 310.411 143.962 318.465 143.501C322.898 143.248 327.32 142.852 331.729 142.335C333.826 142.09 336.43 142.115 338.394 141.293C339.404 140.871 340.495 138.81 338.55 138.914Z" fill="#967EFB"/>
<path opacity="0.5" fill-rule="evenodd" clip-rule="evenodd" d="M329.362 125.931C328.147 127.142 328.772 129.529 328.864 131.025C328.99 133.083 329.143 135.143 329.4 137.19C329.567 138.52 329.478 140.59 330.188 141.738C331.018 143.084 332.848 142.935 333.599 141.635C334.263 140.486 333.927 138.068 333.91 136.794C333.886 135.032 333.776 133.268 333.672 131.511C333.584 130.041 333.917 127.687 333.109 126.43C332.288 125.152 330.501 124.799 329.362 125.931Z" fill="#967EFB"/>
<path opacity="0.5" fill-rule="evenodd" clip-rule="evenodd" d="M292.84 135.323C292.698 135.433 292.698 135.433 292.84 135.323ZM295.678 134.967C298.326 135.5 294.044 138.592 292.691 136.47C292.48 136.138 292.37 135.731 292.709 135.443C293.019 135.179 293.214 135.645 293.506 135.52C294.01 135.304 295.141 134.947 295.678 134.967ZM295.313 132.429C293.505 132.572 291.019 132.684 290.124 134.496C288.922 136.93 290.978 139.315 293.357 139.685C295.646 140.041 299.063 138.774 299.246 136.104C299.394 133.951 297.347 132.264 295.313 132.429Z" fill="#967EFB"/>
<path opacity="0.5" fill-rule="evenodd" clip-rule="evenodd" d="M310.407 133.716C308.536 133.747 304.857 133.193 303.226 134.105C301.613 135.008 302.332 136.616 303.804 137C304.777 137.254 306.367 136.844 307.38 136.803C308.713 136.749 310.046 136.737 311.38 136.719C313.622 136.688 315.863 136.714 318.106 136.714C320.396 136.714 322.726 136.776 325.012 136.608C327.905 136.395 327.827 134.229 324.998 133.958C320.192 133.498 315.229 133.641 310.407 133.716Z" fill="#967EFB"/>
<path opacity="0.5" fill-rule="evenodd" clip-rule="evenodd" d="M284.97 149.693C285.029 152.684 285.067 155.679 285.195 158.668C285.236 159.613 284.965 161.459 286.111 161.941C287.386 162.477 287.782 161.14 287.929 160.234C288.395 157.364 287.939 154.087 287.894 151.183C287.879 150.207 288.09 148.85 286.982 148.364C286.079 147.967 284.952 148.703 284.97 149.693Z" fill="#967EFB"/>
<path opacity="0.5" fill-rule="evenodd" clip-rule="evenodd" d="M334.167 149.739C334.243 149.918 334.243 149.918 334.167 149.739ZM334.274 149.709C334.583 149.838 334.335 149.735 334.274 149.709ZM310.106 147.291C305.513 147.363 300.918 147.418 296.328 147.614C294.369 147.698 292.388 147.766 290.436 147.951C289.053 148.081 285.619 148.136 284.722 149.266C282.871 151.598 286.796 150.962 287.641 150.772C289.179 150.428 290.749 150.317 292.321 150.234C295.731 150.054 299.142 149.958 302.556 149.89C311.814 149.703 321.08 149.732 330.34 149.69C331.236 149.686 332.857 149.325 333.685 149.688C334.514 150.051 334.467 150.945 334.554 151.983C334.668 153.363 333.758 155.994 334.451 157.155C335.528 158.956 337.093 157.427 337.332 156.114C337.663 154.299 337.139 152.12 336.626 150.386C335.902 147.939 334.898 147.842 332.531 147.65C329.765 147.427 327.01 147.291 324.235 147.266C319.527 147.223 314.815 147.218 310.106 147.291Z" fill="#967EFB"/>
<path opacity="0.5" fill-rule="evenodd" clip-rule="evenodd" d="M328.271 159.658C318.31 160.814 308.065 160.133 298.05 160.174C295.615 160.184 293.178 160.203 290.745 160.321C289.46 160.383 286.414 160.029 285.533 161.02C283.678 163.11 287.021 163.414 288.241 163.328C290.708 163.152 293.182 163.072 295.655 163.053C304.369 162.986 313.131 163.392 321.837 162.962C325.485 162.782 329.051 162.158 332.631 161.461C333.424 161.307 338.853 160.275 335.757 159.037C333.927 158.306 330.193 159.433 328.271 159.658Z" fill="#967EFB"/>
<path opacity="0.5" fill-rule="evenodd" clip-rule="evenodd" d="M299.187 155.832C299.117 155.921 299.117 155.921 299.187 155.832ZM299.12 155.817C299.096 155.881 299.023 156.039 299.12 155.817ZM298.491 155.006C298.565 155.101 298.506 155.025 298.491 155.006ZM298.467 155C298.707 155.287 298.869 155.606 298.952 155.958C296.888 156.517 296.093 154.848 298.467 155ZM294.946 152.435C293.611 154.098 292.508 156.037 294.173 157.937C295.662 159.635 298.658 159.855 300.548 158.72C302.495 157.552 302.326 155.092 300.968 153.486C300.094 152.452 299.385 152.481 298.117 152.312C297.253 152.197 295.679 151.525 294.946 152.435Z" fill="#967EFB"/>
<path opacity="0.5" fill-rule="evenodd" clip-rule="evenodd" d="M308.754 155.513C308.754 157.728 318.318 156.775 320.02 156.772C321.445 156.77 330.063 157.557 329.445 155.277C328.936 153.404 320.447 154.335 318.64 154.332C317.077 154.33 308.754 153.257 308.754 155.513Z" fill="#967EFB"/>
<path opacity="0.5" fill-rule="evenodd" clip-rule="evenodd" d="M213.895 176.266C218.685 176.962 223.667 179.214 223.625 184.789C223.59 189.477 219.658 194.466 214.61 194.186C210.067 193.934 205.789 188.966 205.22 184.708C204.925 182.502 205.477 180.127 206.774 178.313C208.474 175.935 211.172 175.939 213.895 176.266ZM211.632 173.236C208.168 173.255 205.633 174.508 203.489 177.153C202.72 178.101 201.826 179.122 201.241 180.197C200.694 181.2 200.79 183.752 202.666 182.556C202.204 187.497 205.092 192.292 209.243 194.824C213.755 197.576 218.855 197.04 222.61 193.182C226.048 189.651 227.258 183.687 224.743 179.32C222.229 174.955 216.406 173.189 211.632 173.236Z" fill="#967EFB"/>
<path opacity="0.5" fill-rule="evenodd" clip-rule="evenodd" d="M222.02 171.911C219.802 173.537 217.777 175.678 216.095 177.849C214.451 179.971 213.364 182.621 211.389 184.471C210.392 183.385 209.223 180.451 207.234 181.615C205.583 182.581 206.646 184.242 207.45 185.332C209.526 188.149 211.832 189.282 214.495 186.499C216.914 183.973 218.287 180.602 220.548 177.929C221.54 176.757 223.073 175.593 223.863 174.298C224.579 173.125 223.693 170.682 222.02 171.911Z" fill="#967EFB"/>
<path opacity="0.75" fill-rule="evenodd" clip-rule="evenodd" d="M265.214 84.004C262.119 84.0638 254.476 85.1895 253.34 88.8506C252.478 91.6296 255.04 91.0194 256.413 90.0082C258.27 88.6408 259.899 87.8224 262.201 87.4064C270.968 85.8205 279.393 91.5074 288.076 92.2267C291.365 92.4991 295.335 92.6766 298.476 91.6114C300.712 90.8528 301.004 89.1988 298.452 88.9468C296.283 88.7329 293.883 89.4073 291.66 89.3882C282.46 89.3095 274.282 83.831 265.214 84.004Z" fill="#CFC4FD"/>
</svg>
