<svg width="370" height="213" fill="none" xmlns="http://www.w3.org/2000/svg"><g clip-path="url(#a)" fill-rule="evenodd" clip-rule="evenodd"><path opacity=".346" d="M15.33 1.274C49.376-14.093 204.832 113.74 191.508 161.509c-13.324 47.768-82.074 76.774-132.999 21.596C7.585 127.928-18.718 16.641 15.33 1.274Z" fill="#EDEEEF"/><path opacity=".346" d="M174.205 39.82c55.95-28.944 229.29 29.886 190.078 81.488-39.212 51.6-151.348 108.09-202.615 75.989-51.267-32.102-43.413-128.535 12.537-157.477Z" fill="#DFE1E2"/><path opacity=".5" d="M46.32 66.192c-4.91.055-9.817.236-14.717.546-4.66.295-9.717.071-14.3.975-1.303.256-3.06 1.442-1.33 2.747 1.216.918 5.667-.138 7.12-.227 5.35-.329 10.703-.723 16.06-.912 5.072-.18 10.144-.242 15.218-.293.775-.008 2.061-.256 2.833-.031 1.108.323.845.411.928 1.818.15 2.55.11 5.108.059 7.66-.05 2.469-.14 4.939-.132 7.408.007 1.763-.557 5.266.328 6.796 1.273 2.204 2.593-.19 2.688-1.653.182-2.8.1-5.635.102-8.44 0-2.631.02-5.263-.074-7.893-.067-1.9.205-5.218-.819-6.945-1.042-1.76-3.553-1.38-5.384-1.464-2.857-.131-5.72-.122-8.58-.092Z" fill="#967EFB"/><path opacity=".5" d="M15.08 69.367c.006 4.945-.566 9.857-.726 14.796-.074 2.27-.223 4.765.352 6.995.58 2.25 2.421 2.738 2.634.226.43-5.089.324-10.366.658-15.495.118-1.811.887-5.13.17-6.826-.632-1.494-3.09-1.78-3.087.304Z" fill="#967EFB"/><path opacity=".5" d="M61.123 91.164c-8.527 1.129-17.441.717-26.029.895-4.12.085-8.24.09-12.36.133-1.438.015-5.09-.532-6.335.277-1.98 1.287.169 2.28 1.48 2.308 8.132.179 16.354-.195 24.485-.462 3.653-.12 7.318-.178 10.96-.49 2.244-.19 4.695-.376 6.873-.978.464-.129 1.474-.102 1.578-.735.064-.392-.052-1.03-.651-.948ZM25.665 98.352c-2.37.014-9.511-1.086-10.492 1.225-1.31 3.081 3.795 2.362 5.168 2.327 3.118-.081 6.234-.089 9.352-.088 3.06.001 6.12-.018 9.18-.091.886-.021 2.95.347 3.46-.721.387-.811.08-1.45-.634-1.88-1.72-1.034-6.187-.434-8.2-.527-2.608-.12-5.223-.245-7.834-.245ZM54.497 98.923c-1.354.08-4.094-.478-5.307.141-1.38.706-.893 1.808.297 2.293.825.336 4.207.16 5.01-.229.837-.406 1.784-2.315 0-2.205ZM69.346 69.852c-1.447.397-1.008 8.61-1.045 9.912-.103 3.566-.504 8.052.682 11.488.756 2.19 2.207 1.892 1.96-.413-.217-2.023-.59-4.023-.751-6.06-.365-4.609-.861-9.525-.517-14.138.147.268 1.519 2.754 1.842 2.569-.098.058-1.583-3.513-2.171-3.358Z" fill="#967EFB"/><path opacity=".5" d="M85.618 66.828c-2.928.043-5.855.095-8.782.176-2.327.065-5.983-.318-8.117.661-2.541 1.166-1.336 3.762 1.051 3.817 2.111.049 4.363-.427 6.493-.5 5.755-.197 11.52-.24 17.277-.288 5.207-.045 10.634.51 15.796-.272.765 6.798-1.305 13.624-.601 20.5.109 1.068.06 2.575 1.42 2.818 1.715.308 1.786-1.392 1.85-2.609.185-3.472.085-6.948.339-10.427.236-3.222.7-6.516.308-9.745-.482-3.972-2.385-3.654-5.75-3.819-7.107-.348-14.17-.417-21.284-.312Z" fill="#967EFB"/><path opacity=".5" d="M75.807 90.965c-1.492.038-3.97-.421-4.925 1.008-.994 1.49.185 2.787 1.631 3.093 1.712.36 3.944-.135 5.72-.14 1.85-.005 3.7.015 5.551.023 7.93.03 15.896.15 23.822-.177 1.107-.047 4.249.325 5.015-.737.68-.942.205-1.786-.691-2.266-1.469-.787-4.486-.487-6.12-.55-2.017-.077-4.038-.101-6.057-.134-7.969-.122-15.978-.317-23.946-.12ZM82.516 97.845c-2.968.051-6.135-.08-9.074.37-2.584.397-2.902 2.895-.12 3.186 2.556.27 5.655-.233 8.224-.398.911-.059 1.972.024 2.41-.983.456-1.054-.416-2.065-1.44-2.175ZM104.955 98.108c-1.584.04-6.212-.642-6.996 1.167-1.306 3.013 4.958 1.868 6.16 1.824 1.515-.055 7.418.828 7.419-1.582.001-2.365-5.131-1.445-6.583-1.41ZM14.824 113.077c.004 5.481-.337 11.013.163 16.478.207 2.262.171 6.592 1.48 8.509.93 1.361 2.22 1.266 2.727-.369.34-1.092-.203-3.276-.264-4.444-.058-1.121-.126-2.242-.178-3.364-.133-2.888-.123-5.773-.083-8.665.034-2.479.631-5.76.068-8.145-.525-2.222-3.913-2.742-3.913 0Z" fill="#967EFB"/><path opacity=".5" d="M69.902 108.256c-9.508.238-19.037.025-28.537.496-4.685.233-9.352.742-14.013 1.249-2.29.25-4.58.508-6.865.789-.69.086-6.423.308-4.267 2.489.942.952 3.938-.043 5.123-.183 2.296-.272 4.596-.508 6.894-.751 4.374-.463 8.754-.901 13.146-1.144 10.345-.574 20.733-.401 31.089-.783 2.801-.103 5.594-.177 8.396-.067.736.029 6.144.303 3.795-1.694-1.11-.945-5.295-.457-6.683-.485-2.692-.056-5.386.017-8.078.084Z" fill="#967EFB"/><path opacity=".5" d="m84.71 137.169-.004.007c-.518.763-2.433.55-3.271.607a93.7 93.7 0 0 0-7.583.846c-5.038.755-10.033 1.219-15.126 1.345-10.072.249-20.186.016-30.243.706a54.999 54.999 0 0 0-6.612.835c-1.565.299-4.58 1.325-4.763-1.26-.22-3.114 7.594-3.109 9.829-3.316 9.594-.893 19.347-.705 28.97-.571 4.654.065 9.3.206 13.95-.077 4.645-.285 9.448-.211 14.06-.709-.594-2.303-.506-5.184-.673-7.536-.43-6.041-.314-12.103-.59-18.151-.121-2.664 3.508-3.068 4.584-.911 1.088 2.178.38 6.5.451 8.916.164 5.591 1.2 11.852.105 17.382-.381 1.924-2.004 2.935-3.083 1.887ZM90.56 111.846c-1.286.175-2.357 1.275-1.783 2.669.722 1.756 2.873 1.07 4.294.959 4.518-.354 9.234.353 13.697-.18 1.218-.146 2.986-.81 1.892-2.448-.822-1.231-3.819-1.015-5.093-1.133-4.357-.402-8.657-.295-13.008.133ZM98.182 119.506c-1.751.118-5.829.025-6.568 2.019-1.323 3.576 3.864 2.316 5.443 2.112 1.834-.236 6.158.397 7.136-1.382 1.746-3.182-4.473-2.855-6.01-2.749ZM93.678 127.354c-.83.832-.833 2.316 0 3.147 1.019 1.018 3.239.807 4.578.881 1.867.105 7.231 1.092 8.159-1.107 1.251-2.967-3.606-2.905-5.203-3.074-1.847-.194-6.004-1.379-7.534.153ZM28.21 76.564c0 3.19 4.983 3.19 4.983 0 0-3.172-4.982-3.22-4.982 0ZM37.661 76.6c0 3.648 5.675 3.64 5.675 0 0-3.634-5.675-3.67-5.675 0ZM31.944 81.45c-2.758.76-.217 3.098 1.064 3.633 2.035.849 4.814 1.475 6.85.202.81-.507 1.468-1.18.874-2.163-.633-1.046-1.499-.58-2.462-.483-1.22.122-2.206.103-3.384-.288-.88-.292-1.983-1.165-2.942-.902ZM81.98 76.767c0 2.157 3.35 2.157 3.35 0 0-2.159-3.35-2.159-3.35 0ZM89.39 77.09c0 2.399 3.722 2.399 3.722 0 0-2.396-3.722-2.396-3.722 0ZM89.115 82.294c-1.957.252-7.61.825-7.926 3.235-.489 3.718 5.707.708 7.12.417 1.802-.372 3.41-.276 5.208-.203.988.04 2.3.2 2.197-1.304-.17-2.469-4.891-2.365-6.6-2.145ZM39.958 116.581c-1.417.377-3.271 2.827-2.296 4.326 1.599 2.46 2.304-1.316 2.973-1.679 1.217-.662 2.205 1.754 3.478.488 2.007-2-2.891-3.474-4.155-3.135Z" fill="#967EFB"/><path opacity=".5" d="M56.195 114.763c-1.68.015-5.228 2.394-5.48 4.151-.149 1.045.543 2.047 1.669 2.062 1.532.018 2.019-1.974 3.347-2.391 1.433-.449 1.22.585 2.457 1.122.906.393 2.038.229 2.353-.885.594-2.1-2.619-4.092-4.346-4.059ZM43.331 124.822c-2.688 1.575 1.735 4.951 3.268 5.374 2.315.636 6.974-.553 7.523-3.38.218-1.126-.486-2.145-1.728-1.943-1.023.165-1.678 1.448-2.626 1.907-1.278.62-2.415.579-3.501-.355-.885-.76-1.359-2.523-2.936-1.603ZM45.28 148.096c-2.402.512-4.843.168-7.256.65-2.461.491-3.932 1.421-6.218.484l-.322-.136c-1.77-.763-3.624-.988-5.476.227-1.096.719-4.424 3.205-4.022 4.721.869 3.29 4.613-1.868 5.567-2.37 1.82-.959 3.07.266 4.943.611 2.245.414 4.052-.772 6.167-1.245 2.473-.551 5.256-.745 7.772-1.041.994-.117 4.76.67 5.1-.567.584-2.126-5.311-1.535-6.255-1.334ZM62.606 154.72c.157.118.031.023 0 0Zm6.726-6.753c2.056-.208 8.634-1.677 9.985.448.88 1.383-.517 6.49-1.848 7.151-1.065.527-3.544-.056-4.712-.097-2.173-.077-4.351-.11-6.522-.246-.728-.046-3.07.088-3.641-.556-.674-.761-.644-4.817-.803-5.823 1.89.612 5.565-.676 7.541-.877Zm4.39-2.082c-2.633.113-5.265.311-7.879.665-1.457.197-2.933.72-4.278.968-.434.08-1.138-.142-1.67.115-1.554.751-.193 5.828.182 7.183.576 2.084 2.024 2.421 4.054 2.617 2.674.259 5.402.178 8.084.144 2.585-.031 6.072.542 7.522-2.052.938-1.677 1.943-5.583 1.143-7.453-1.055-2.459-4.992-2.278-7.158-2.187ZM103.208 156.115c-.141.181-.141.181 0 0Zm.578-.696c-.044.067-.246.28 0 0Zm-6.28-.191c1.16-.219 2.322-.434 3.484-.647-1.1 1.541-2.26.905-4.14.771l.656-.124Zm-5.538-.545.883-.295c-.008.223.04.434.144.628a96.702 96.702 0 0 1-1.51-.174c.162-.052.322-.106.483-.159Zm-2.566-1.895c-.016-.403.592-.127.94-.153-.671.591-.985.642-.94.153Zm9.178-4.584c.088-.112.205-.106.35.018-.158.053-.77.312-.35-.018Zm5.952-.7c.346.447.015 0 0 0Zm-.168-.145c.087.066.087.066 0 0Zm-.743-.087c1.217.205 1.125 1.633 0 0Zm-14.296-.097c-.163.006-.248.204 0 0Zm4.654-3.041c-2.066.12-5.858 0-7.584 1.1-2.251 1.436-1.066 6.383-.865 8.55.297 3.206 1.805 4.118 4.823 4.454 3.603.402 7.303.476 10.924.382 3.26-.086 5.117-1.208 5.715-4.64.183-1.052.647-2.676.633-3.682-.011-.698-.359-1.016-.491-1.61-.748-3.378-2-3.779-5.463-3.926-2.55-.109-5.192-.759-7.692-.628ZM203.413 66.513c5.253.111 11.212 3.018 10.382 9.177-.609 4.511-4.515 8.174-9.039 8.49-4.862.34-10.003-3.392-10.663-8.343-.744-5.569 4.184-9.436 9.32-9.324Zm-2.576-2.507c-2.129.318-4.163 1.436-6.038 2.437-.716.383-4.345 2.715-1.5 3.294-6.857 11.059 9.281 21.33 18.355 14.144 4.074-3.227 6.219-9.347 3.585-14.137-2.724-4.954-9.183-6.522-14.402-5.738Z" fill="#967EFB"/><path opacity=".5" d="M199.582 73.419c0 2.065 3.206 2.065 3.206 0 0-2.066-3.206-2.066-3.206 0ZM205.526 73.75c0 2.238 3.476 2.238 3.476 0 0-2.24-3.476-2.24-3.476 0ZM201.515 78.178c-.468 1.7 4.865 2.57 5.043.604.085-.94-4.718-1.79-5.043-.604ZM217.149 77.128c6.137-.736 12.465-.396 18.632-.219 1.543.044 3.086.088 4.629.113.982.017 3.102.487 3.958.028 3.507-1.88-3.373-2.79-4.347-2.876-6.134-.505-15.6-.685-21.752-.447-1.82.07-2.213 3.533-1.12 3.4Z" fill="#967EFB"/><path opacity=".5" d="M244.766 107.636c.052-6.429.283-12.904.777-19.314.201-2.613.443-5.223.643-7.836.094-1.23.531-2.956-.192-4.035-.746-1.113-2.382-1.344-3.366-.358-1.18 1.528-.838 4.09-.985 5.937-.225 2.841-.497 5.68-.632 8.525-.263 5.51-.324 11.116.119 16.617.209 2.597.663 5.13 1.265 7.661.274 1.153 2.46 6.287 2 6.995-.712 1.098-5.972.684-7.112.714-2.929.078-5.858.129-8.787.186-2.507.047-5.015.082-7.522.104-.996.008-6.847-.169-5.549 1.307-14.513 1.012-29.303-.676-43.727-1.255-.728-.03-1.921-.237-3.021-.296-.132-.532-.241-1.006-.267-1.336-.19-2.319-.239-4.644-.445-6.962-.375-4.241-1.105-8.439-1.539-12.672-.433-4.229-.389-8.47-.641-12.709-.043-.726-.146-6.675-1.647-8.121.712.27 1.86.305 2.52.25 5.351-.43 10.663-1.36 15.968-2.158 1.518-.229 4.963-.067 6.221-.826 1.09-.657 1.52-2.959-.375-2.772-5.289.566-10.55 1.446-15.799 2.312-1.404.231-2.804.479-4.203.732-.936.17-3.403.155-4.129.72-.88.683-.974 1.15-.675 1.458-.415-.113-.913.066-1.51.663-1.129 1.47-.067 5.09.067 6.813.162 2.067.242 4.14.336 6.21.181 4.008.601 7.961 1.246 11.92.723 4.435 1.337 8.89 2.062 13.324.189 1.154.434 2.281.749 3.396-1.953.998-.626 2.586.923 2.867.01.003.022.004.033.006.483 1.177 1.157 2.267 1.684.69.041-.121.059-.27.064-.437 3.998.453 8.392.172 12.329.332 8.526.349 17.105.872 25.639.607a99.359 99.359 0 0 0 10.118-.856c1.963-.264 3.933-.58 5.865-1.017.137-.031.348-.065.591-.104l.118-.003c2.958-.045 5.912-.125 8.868-.247 2.481-.103 4.971-.156 7.444-.39 1.537-.146 4.782-.118 5.725-1.662.857-1.406-.576-5.023-.78-6.601-.358-2.777-.495-5.58-.471-8.379Z" fill="#967EFB"/><path opacity=".5" d="M214.793 89.07c-2.363.203-4.55 1.312-6.934 1.326-2.002.011-3.973-.587-5.986-.499-2.361.103-3.66 1.63-5.728 2.141-1.647.406-2.684-.855-4.132-1.412-1.829-.703-3.18-.34-4.747.725-1.152.782-3.837 2.538-3.816 4.122.061 4.793 5.654-1.83 6.782-1.909 1.498-.107 3.172 1.601 4.767 1.698 2.107.129 3.458-1.23 5.399-1.725 1.962-.5 4.084.113 6.051.303 2.246.218 4.21-.283 6.382-.818 2.104-.52 3.898-.492 6.036-.056 1.444.294 5.039 2.005 5.67-.195.861-2.996-8.092-3.842-9.744-3.7ZM215.511 98.214c-4.842.47-9.713.882-14.578 1.014-2.107.057-10.206-.846-9.488 1.832.616 2.295 11.638.85 13.882.674 2.479-.192 4.954-.461 7.42-.773.873-.111 2.984.004 3.601-.729.587-.7.298-2.132-.837-2.018ZM182.106 110.406c-.11.047-.11.047 0 0Zm1.021-.014c1.208-.038.949-.674 2.153-.343.556.154.613-.074 1.043.457.84 1.036.049 3.292-.78 4.126-3.066 3.091-6.746-4.102-2.416-4.24Zm0-3.031c-8.395.282-4.882 13.249 2.425 10.602 3.017-1.093 4.913-6.018 3.139-8.786-.864-1.347-1.964-1.586-3.411-1.679-.336-.022-.758.466-.967.444-.499-.053-.453-.609-1.186-.581ZM203.202 110.851c-.149-.047 2.652.768 2.345.448.654.68-.225 2.288-.965 2.569-1.791.681-2.797-2.105-1.38-3.017Zm1.243-3.517c-2.628.372-4.657 1.467-5.016 4.39-.332 2.699 1.491 5.431 4.367 5.483 6.267.114 6.458-10.684.649-9.873ZM233.057 110.968c.368 4.792-4.601.406 0 0Zm-2.132-5.125c-.434.743-.064 1.53.592 1.963-5.86 1.238-4.533 10.057 1.43 8.753 3.033-.662 3.591-3.851 3.138-6.484-.215-1.251-3.335-7.353-5.16-4.232Z" fill="#967EFB"/><path opacity=".5" d="M244.789 110.444c-1.747.311-5.877 2.24-5.841 4.312.057 3.235 3.566-.299 4.347-.773 4.193-2.553 9.627.754 13.993 1.459 2.003.322 5.92.918 7.688-.424 3.144-2.386-4.128-1.788-5.055-1.884-5.035-.521-10.044-3.599-15.132-2.69Z" fill="#CFC4FD"/><path opacity=".5" d="M352.775 142.381c0 1.19 1.057 0 1.049 0 .008 0-1.049-1.191-1.049 0ZM292.598 87.703c-.001 3.31-.169 6.687.441 9.957.185.99.331 2.886 1.375 3.4 1.049.516 2.066-.064 2.327-1.14.304-1.25-.364-3.123-.431-4.437-.092-1.794-.099-3.59-.099-5.387-.001-1.297.425-3.383-1.106-4.05-1.138-.498-2.507.425-2.507 1.657Z" fill="#967EFB"/><path opacity=".5" d="M344.919 82.467c-10.965 1.102-22.088 1.33-33.092 1.904-5.088.265-11.236-.072-16.028 1.896-.89.366-4.076 2.4-1.489 3.23.806.258 1.625-.61 2.288-.902 1.103-.484 2.38-.634 3.556-.823 10-1.607 20.46-1.327 30.561-2.077 2.589-.192 5.179-.39 7.762-.645 1.845-.181 5.725-1.511 7.428-.83 2.91 1.162 2.842 8.716 2.9 11.313.03 1.344-1.275 6.166 1.317 5.677 2.075-.391 1.324-5.4 1.163-6.771-.425-3.592-1.149-12.5-6.366-11.972Z" fill="#967EFB"/><path opacity=".5" d="M348.963 101.037c-9.525.859-19.268.016-28.832.354-5.013.178-10.021.46-15.034.625-2.168.072-4.339.076-6.508.091-1.038.007-5.759.636-2.839 2.693 1.294.911 5.415.177 6.899.159 2.229-.026 4.457-.119 6.685-.206 5.159-.202 10.316-.481 15.479-.621 4.938-.134 9.878-.162 14.816-.296 2.457-.067 4.948-.142 7.383-.501.549-.081 2.334-.144 2.716-.758.361-.579.107-1.625-.765-1.54ZM302.153 93.886c-.052.121-.052.121 0 0Zm4.124-1.254c.15.063.15.063 0 0Zm-.193-.035c2.223 2.266-1.195 4.97-3.277 2.759-2.211-2.346 1.846-2.75 3.277-2.759Zm-2.358-3.427c-7.655 1.362-4.945 11.566 2.206 10.091 3.14-.648 4.935-3.81 3.854-6.848-.422-1.187-1.343-2.49-2.624-2.863-.639-.186-1.203.106-1.813.038-.579-.066-.902-.548-1.623-.418ZM333.028 92.042c-4.618.014-9.236.21-13.851.298-1.416.027-5.055-.607-5.061 1.625-.006 2.385 4.048 1.504 5.396 1.472 4.58-.109 9.17-.31 13.73-.746 1.152-.11 5.14.08 5.136-1.487-.004-1.66-4.42-1.162-5.35-1.162ZM344.054 107.608c-11.418.307-22.819.413-34.228.998-4.268.219-8.529.381-12.803.381-.823 0-2.48-.318-3.255.2-2.102 1.406.291 2.612 1.662 2.688 9.372.521 18.88-.773 28.248-1.066 5.483-.171 10.968-.222 16.449-.501 1.495-.076 2.99-.164 4.483-.28.859-.067 3.129.116 3.822-.386 3.03-2.193-3.357-2.06-4.378-2.034Z" fill="#967EFB"/><path opacity=".5" d="M291.666 113.192c-.108 2.96-.119 5.869.268 8.813.153 1.158.222 2.473 1.58 2.767 1.233.267 1.859-.665 2.115-1.699.623-2.525.074-6.161.067-8.785-.003-1.296-.005-2.748-1.608-3.042a2.04 2.04 0 0 0-2.422 1.946Z" fill="#967EFB"/><path opacity=".5" d="M356.157 120.329a5337.764 5337.764 0 0 1-55.438 2.606c-1.443.06-12.649-.061-8.732 3.846 1.21 1.207 4.328.39 5.893.314 2.352-.116 4.704-.205 7.056-.324 9.324-.474 18.671-.603 27.988-1.136a258.239 258.239 0 0 0 15.343-1.349c2.425-.283 5.438-.254 7.71-1.205 1.168-.488 2.43-2.872.18-2.752Z" fill="#967EFB"/><path opacity=".5" d="M345.529 105.311c-1.406 1.401-.683 4.162-.576 5.892.145 2.381.322 4.764.62 7.132.193 1.538.09 3.933.911 5.261.96 1.557 3.077 1.384 3.946-.12.768-1.329.379-4.126.36-5.599-.028-2.039-.155-4.079-.276-6.111-.101-1.701.284-4.424-.651-5.878-.95-1.478-3.017-1.887-4.334-.577ZM303.282 116.175c-.164.127-.164.127 0 0Zm3.283-.412c3.063.617-1.89 4.193-3.455 1.739-.244-.384-.372-.855.02-1.188.359-.306.585.233.922.089.583-.25 1.892-.663 2.513-.64Zm-.422-2.936c-2.092.166-4.968.295-6.003 2.391-1.39 2.816.988 5.575 3.74 6.003 2.648.412 6.6-1.054 6.812-4.143.171-2.49-2.197-4.441-4.549-4.251ZM323.603 114.316c-2.165.036-6.42-.605-8.307.45-1.866 1.045-1.034 2.905.669 3.349 1.125.294 2.964-.181 4.136-.228 1.542-.062 3.084-.076 4.627-.097 2.594-.036 5.186-.006 7.78-.006 2.649 0 5.345.072 7.989-.123 3.346-.246 3.256-2.751-.016-3.065-5.56-.532-11.301-.367-16.878-.28ZM294.178 132.797c.069 3.46.113 6.925.261 10.382.047 1.093-.266 3.229 1.059 3.786 1.475.62 1.933-.926 2.103-1.974.539-3.32.012-7.111-.04-10.47-.018-1.129.226-2.699-1.055-3.261-1.045-.459-2.348.392-2.328 1.537Z" fill="#967EFB"/><path opacity=".5" d="M351.087 132.851c.088.207.088.207 0 0Zm.124-.035c.357.149.07.03 0 0Zm-27.957-2.797c-5.313.083-10.628.147-15.937.374-2.266.097-4.558.175-6.816.389-1.6.151-5.572.214-6.61 1.522-2.141 2.697 2.4 1.961 3.377 1.742 1.779-.398 3.595-.527 5.414-.623 3.944-.208 7.89-.319 11.839-.398 10.709-.216 21.428-.182 32.139-.231 1.037-.005 2.912-.422 3.869-.002.959.42.905 1.454 1.006 2.654.131 1.597-.921 4.64-.12 5.983 1.246 2.083 3.057.315 3.333-1.204.383-2.099-.223-4.62-.817-6.626-.837-2.83-1.998-2.943-4.736-3.165-3.2-.258-6.387-.415-9.597-.444a664.54 664.54 0 0 0-16.344.029ZM344.267 144.325c-11.523 1.337-23.374.549-34.958.596-2.817.012-5.636.034-8.45.17-1.487.072-5.01-.337-6.029.809-2.146 2.418 1.721 2.769 3.132 2.67a134.85 134.85 0 0 1 8.576-.318c10.08-.078 20.216.392 30.286-.106 4.22-.208 8.345-.93 12.486-1.736.917-.178 7.197-1.372 3.616-2.804-2.117-.845-6.436.458-8.659.719Z" fill="#967EFB"/><path opacity=".5" d="M310.624 139.899c-.081.103-.081.103 0 0Zm-.078-.018c-.027.074-.112.257 0 0Zm-.727-.938c.085.11.017.022 0 0Zm-.028-.007c.278.332.465.701.561 1.109-2.388.646-3.307-1.284-.561-1.109Zm-4.073-2.967c-1.544 1.924-2.82 4.167-.894 6.365 1.722 1.964 5.188 2.218 7.374.905 2.252-1.351 2.057-4.196.486-6.054-1.011-1.196-1.831-1.162-3.298-1.358-.999-.133-2.82-.91-3.668.142ZM321.69 139.53c0 2.562 11.064 1.46 13.032 1.456 1.649-.002 11.618.908 10.903-1.729-.589-2.167-10.409-1.09-12.499-1.093-1.808-.003-11.436-1.244-11.436 1.366ZM211.962 163.536c5.541.805 11.304 3.41 11.256 9.859-.041 5.423-4.589 11.194-10.429 10.87-5.255-.292-10.203-6.038-10.861-10.964-.342-2.552.297-5.299 1.797-7.397 1.967-2.751 5.088-2.746 8.237-2.368Zm-2.617-3.505c-4.007.022-6.94 1.471-9.42 4.531-.889 1.096-1.923 2.277-2.6 3.521-.633 1.16-.522 4.112 1.648 2.729-.534 5.715 2.807 11.262 7.608 14.191 5.219 3.183 11.119 2.563 15.462-1.9 3.977-4.084 5.377-10.983 2.468-16.034-2.908-5.05-9.644-7.093-15.166-7.038Z" fill="#967EFB"/><path opacity=".5" d="M221.361 158.498c-2.566 1.881-4.908 4.358-6.854 6.869-1.901 2.455-3.159 5.52-5.443 7.66-1.154-1.256-2.506-4.65-4.807-3.304-1.909 1.118-.68 3.039.25 4.3 2.402 3.258 5.069 4.569 8.149 1.35 2.799-2.922 4.387-6.822 7.002-9.914 1.148-1.355 2.921-2.702 3.835-4.2.828-1.357-.197-4.182-2.132-2.761Z" fill="#967EFB"/><path opacity=".75" d="M271.326 56.812c-3.581.069-12.422 1.371-13.736 5.606-.997 3.215 1.967 2.509 3.555 1.34 2.148-1.583 4.032-2.53 6.695-3.01 10.142-1.835 19.887 4.743 29.931 5.575 3.805.316 8.397.52 12.03-.711 2.587-.878 2.925-2.791-.027-3.083-2.509-.247-5.286.533-7.857.511-10.642-.091-20.102-6.428-30.591-6.228Z" fill="#CFC4FD"/></g><defs><clipPath id="a"><path fill="#fff" d="M0 0h370v213H0z"/></clipPath></defs></svg>