
<svg width="15px" height="15px" viewBox="0 0 15 15" version="1.1" xmlns="http://www.w3.org/2000/svg" xmlns:xlink="http://www.w3.org/1999/xlink">
    <!-- Generator: Sketch 48.2 (47327) - http://www.bohemiancoding.com/sketch -->
    <title>Shape</title>
    <desc>Created with Sketch.</desc>
    <defs></defs>
    <g id="nav-when-not-logged-in" stroke="none" stroke-width="1" fill="none" fill-rule="evenodd" transform="translate(-841.000000, -24.000000)">
        <g id="Group-3" transform="translate(841.333333, 24.000000)" fill="#404040">
            <path d="M9.8716241,10.2930568 C11.9073039,10.5770965 13.2691036,11.8079351 13.5358478,12.2542831 C14.041258,13.0793508 13.9991405,15 13.9991405,15 L0.00208667825,15 C0.00208667825,15 -0.0681091782,12.9576195 0.605771044,12.1325518 C0.984828669,11.7808837 2.17815823,10.5770965 4.21383807,10.2795311 C6.23547873,9.99549143 5.6177552,7.83137962 5.68795105,7.85843102 C5.75814691,7.89900812 5.67391188,7.39855726 5.67391188,7.39855726 C5.67391188,7.39855726 4.1997989,6.03246168 4.21383807,4.80162308 C4.24191641,3.55725879 4.21383807,2.92155095 4.21383807,2.92155095 C4.21383807,2.92155095 4.45250398,0 6.53030133,0 L7.69555255,0.541027953 C9.56276233,0.541027953 9.8716241,2.92155095 9.8716241,2.92155095 L9.8716241,4.97745717 C9.8716241,4.97745717 9.63295819,6.72227232 8.46770697,7.35798016 C8.46770697,7.35798016 8.38347194,7.85843102 8.4536678,7.81785392 C8.52386365,7.79080252 7.84998343,9.99549143 9.8716241,10.2930568 L9.8716241,10.2930568 Z" id="Shape"></path>
        </g>
    </g>
</svg>
