<svg width="244" height="202" viewBox="0 0 244 202" fill="none" xmlns="http://www.w3.org/2000/svg">
<path fill-rule="evenodd" clip-rule="evenodd" d="M6.5949 118.297C5.8752 118.297 5.15769 118.311 4.43889 118.349C3.89098 118.377 3.05369 118.264 2.59007 118.605C2.10837 118.959 2.14155 119.685 2.21679 120.197C2.61459 122.906 3.58547 125.308 5.61654 127.227C8.74381 130.182 12.3289 131.683 16.5712 132.352C19.5512 132.821 22.3023 132.169 24.496 130.052C26.0988 133.024 27.3147 136.312 27.9249 139.631C28.2259 141.269 28.3178 142.887 28.2648 144.554C28.2308 145.623 28.1718 146.688 28.0572 147.751C28.0075 148.213 27.7717 148.912 27.9527 149.349C28.1652 149.861 28.8817 149.911 29.2033 149.474C29.471 149.11 29.4218 148.396 29.4768 147.965C29.5679 147.25 29.6524 146.534 29.7128 145.816C29.8109 144.653 29.8834 143.487 29.8781 142.319C29.8658 139.696 29.2821 137.063 28.4835 134.573C26.9515 129.797 24.4659 125.552 20.6001 122.221C18.2231 120.173 15.5026 119.344 12.4162 118.898C10.4945 118.621 8.54156 118.297 6.5949 118.297Z" fill="#89C5CC"/>
<path fill-rule="evenodd" clip-rule="evenodd" d="M17.6941 137.29C9.92634 137.29 4.69473 143.543 2.22115 150.043C1.2887 152.493 1.07016 155.183 0.710793 157.755C0.595414 158.581 0.638157 159.839 0.302706 160.574C0.180966 160.841 -0.0981308 160.937 0.0353117 161.3C0.11609 161.52 0.274592 161.655 0.512601 161.699C1.00121 161.789 1.69209 161.257 2.11099 161.047C5.58558 159.307 7.86848 156.615 9.73082 153.322C10.8852 151.281 12.0566 149.162 12.7424 146.922C13.1613 145.553 13.4051 144.111 13.5484 142.691C13.6047 142.132 13.6593 141.559 13.656 140.997C13.6527 140.439 13.3927 140.144 13.2058 139.658C15.7977 138.678 18.7232 138.411 21.3487 139.426C23.777 140.365 25.7942 142.181 26.9237 144.461C27.2171 145.054 27.4434 145.679 27.6083 146.317C27.7162 146.735 27.7214 147.277 27.9214 147.654C28.4063 148.57 29.4265 147.958 29.3286 147.106C29.0554 144.728 27.6938 142.341 25.9534 140.688C23.7584 138.603 20.7831 137.29 17.6941 137.29Z" fill="#89C5CC"/>
<path d="M108.105 0H30.4216C28.0214 0 26.0757 1.94361 26.0757 4.34118V159.538C26.0757 161.936 28.0214 163.879 30.4216 163.879H108.105C110.506 163.879 112.451 161.936 112.451 159.538V4.34118C112.451 1.94361 110.506 0 108.105 0Z" fill="#DDE3E9"/>
<path d="M68.9919 153.569C73.4923 153.569 77.1405 149.925 77.1405 145.429C77.1405 140.934 73.4923 137.29 68.9919 137.29C64.4915 137.29 60.8433 140.934 60.8433 145.429C60.8433 149.925 64.4915 153.569 68.9919 153.569Z" fill="white"/>
<path d="M61.9297 10.853C62.5298 10.853 63.0162 10.3671 63.0162 9.76767C63.0162 9.16828 62.5298 8.68237 61.9297 8.68237C61.3297 8.68237 60.8433 9.16828 60.8433 9.76767C60.8433 10.3671 61.3297 10.853 61.9297 10.853Z" fill="white"/>
<path d="M76.054 8.68237H66.8189C66.2189 8.68237 65.7324 9.16828 65.7324 9.76767C65.7324 10.3671 66.2189 10.853 66.8189 10.853H76.054C76.6541 10.853 77.1405 10.3671 77.1405 9.76767C77.1405 9.16828 76.6541 8.68237 76.054 8.68237Z" fill="white"/>
<path d="M102.673 15.1941H35.8541C34.654 15.1941 33.6811 16.1659 33.6811 17.3647V42.3265C33.6811 43.5252 34.654 44.4971 35.8541 44.4971H102.673C103.873 44.4971 104.846 43.5252 104.846 42.3265V17.3647C104.846 16.1659 103.873 15.1941 102.673 15.1941Z" fill="white"/>
<path d="M76.5973 23.985H40.2C39.3 23.985 38.5703 24.7139 38.5703 25.613V26.7525C38.5703 27.6516 39.3 28.3805 40.2 28.3805H76.5973C77.4974 28.3805 78.2271 27.6516 78.2271 26.7525V25.613C78.2271 24.7139 77.4974 23.985 76.5973 23.985Z" fill="#DDE3E9"/>
<path d="M63.5595 31.3108H40.2C39.3 31.3108 38.5703 32.0396 38.5703 32.9387V34.0783C38.5703 34.9773 39.3 35.7062 40.2 35.7062H63.5595C64.4596 35.7062 65.1892 34.9773 65.1892 34.0783V32.9387C65.1892 32.0396 64.4596 31.3108 63.5595 31.3108Z" fill="#DDE3E9"/>
<path d="M97.2406 33.6441C99.3407 33.6441 101.043 31.9434 101.043 29.8456C101.043 27.7477 99.3407 26.0471 97.2406 26.0471C95.1404 26.0471 93.4379 27.7477 93.4379 29.8456C93.4379 31.9434 95.1404 33.6441 97.2406 33.6441Z" fill="#DDE3E9"/>
<path d="M97.2406 31.4735C98.1406 31.4735 98.8703 30.7447 98.8703 29.8456C98.8703 28.9465 98.1406 28.2177 97.2406 28.2177C96.3405 28.2177 95.6108 28.9465 95.6108 29.8456C95.6108 30.7447 96.3405 31.4735 97.2406 31.4735Z" fill="#F2F2F2"/>
<path d="M102.673 48.8382H35.8541C34.654 48.8382 33.6811 49.81 33.6811 51.0088V69.4588C33.6811 70.6576 34.654 71.6294 35.8541 71.6294H102.673C103.873 71.6294 104.846 70.6576 104.846 69.4588V51.0088C104.846 49.81 103.873 48.8382 102.673 48.8382Z" fill="white"/>
<path d="M92.8946 55.6756H56.4973C55.5973 55.6756 54.8676 56.4045 54.8676 57.3035V57.4663C54.8676 58.3654 55.5973 59.0943 56.4973 59.0943H92.8946C93.7947 59.0943 94.5244 58.3654 94.5244 57.4663V57.3035C94.5244 56.4045 93.7947 55.6756 92.8946 55.6756Z" fill="#DDE3E9"/>
<path d="M79.8568 61.3734H56.4973C55.5973 61.3734 54.8676 62.1023 54.8676 63.0014V63.1641C54.8676 64.0632 55.5973 64.7921 56.4973 64.7921H79.8568C80.7569 64.7921 81.4865 64.0632 81.4865 63.1641V63.0014C81.4865 62.1023 80.7569 61.3734 79.8568 61.3734Z" fill="#DDE3E9"/>
<path d="M45.0892 66.7456C48.6895 66.7456 51.6081 63.8302 51.6081 60.2338C51.6081 56.6375 48.6895 53.722 45.0892 53.722C41.4889 53.722 38.5703 56.6375 38.5703 60.2338C38.5703 63.8302 41.4889 66.7456 45.0892 66.7456Z" fill="#C5CFD6"/>
<path d="M102.673 75.9706H35.8541C34.654 75.9706 33.6811 76.9424 33.6811 78.1412V96.5912C33.6811 97.79 34.654 98.7618 35.8541 98.7618H102.673C103.873 98.7618 104.846 97.79 104.846 96.5912V78.1412C104.846 76.9424 103.873 75.9706 102.673 75.9706Z" fill="white"/>
<path d="M76.5973 82.8079H40.2C39.3 82.8079 38.5703 83.5368 38.5703 84.4359V84.5987C38.5703 85.4977 39.3 86.2266 40.2 86.2266H76.5973C77.4974 86.2266 78.2271 85.4977 78.2271 84.5987V84.4359C78.2271 83.5368 77.4974 82.8079 76.5973 82.8079Z" fill="#DDE3E9"/>
<path d="M63.5595 88.5057H40.2C39.3 88.5057 38.5703 89.2346 38.5703 90.1337V90.2965C38.5703 91.1956 39.3 91.9244 40.2 91.9244H63.5595C64.4596 91.9244 65.1892 91.1956 65.1892 90.2965V90.1337C65.1892 89.2346 64.4596 88.5057 63.5595 88.5057Z" fill="#AFB9C5"/>
<path d="M97.2406 91.1647C99.3407 91.1647 101.043 89.464 101.043 87.3662C101.043 85.2683 99.3407 83.5676 97.2406 83.5676C95.1404 83.5676 93.4379 85.2683 93.4379 87.3662C93.4379 89.464 95.1404 91.1647 97.2406 91.1647Z" fill="#DDE3E9"/>
<path d="M97.2406 88.9941C98.1406 88.9941 98.8703 88.2652 98.8703 87.3662C98.8703 86.4671 98.1406 85.7382 97.2406 85.7382C96.3405 85.7382 95.6108 86.4671 95.6108 87.3662C95.6108 88.2652 96.3405 88.9941 97.2406 88.9941Z" fill="#F2F2F2"/>
<path d="M102.673 103.103H35.8541C34.654 103.103 33.6811 104.075 33.6811 105.274V123.724C33.6811 124.922 34.654 125.894 35.8541 125.894H102.673C103.873 125.894 104.846 124.922 104.846 123.724V105.274C104.846 104.075 103.873 103.103 102.673 103.103Z" fill="white"/>
<path d="M92.8946 109.94H56.4973C55.5973 109.94 54.8676 110.669 54.8676 111.568V111.731C54.8676 112.63 55.5973 113.359 56.4973 113.359H92.8946C93.7947 113.359 94.5244 112.63 94.5244 111.731V111.568C94.5244 110.669 93.7947 109.94 92.8946 109.94Z" fill="#DDE3E9"/>
<path d="M79.8568 115.638H56.4973C55.5973 115.638 54.8676 116.367 54.8676 117.266V117.429C54.8676 118.328 55.5973 119.057 56.4973 119.057H79.8568C80.7569 119.057 81.4865 118.328 81.4865 117.429V117.266C81.4865 116.367 80.7569 115.638 79.8568 115.638Z" fill="#DDE3E9"/>
<path d="M45.0892 121.01C48.6895 121.01 51.6081 118.095 51.6081 114.499C51.6081 110.902 48.6895 107.987 45.0892 107.987C41.4889 107.987 38.5703 110.902 38.5703 114.499C38.5703 118.095 41.4889 121.01 45.0892 121.01Z" fill="#C5CFD6"/>
<path d="M239.57 13.5662H66.2757C63.8755 13.5662 61.9297 15.5098 61.9297 17.9073V196.981C61.9297 199.378 63.8755 201.322 66.2757 201.322H239.57C241.971 201.322 243.916 199.378 243.916 196.981V17.9073C243.916 15.5098 241.971 13.5662 239.57 13.5662Z" fill="#F2F2F2"/>
<path d="M230.878 36.9H201.543C199.143 36.9 197.197 38.8436 197.197 41.2412V76.5132C197.197 78.9108 199.143 80.8544 201.543 80.8544H230.878C233.279 80.8544 235.224 78.9108 235.224 76.5132V41.2412C235.224 38.8436 233.279 36.9 230.878 36.9Z" fill="white"/>
<path d="M216.211 62.4044C221.011 62.4044 224.903 58.5172 224.903 53.7221C224.903 48.9269 221.011 45.0397 216.211 45.0397C211.41 45.0397 207.519 48.9269 207.519 53.7221C207.519 58.5172 211.41 62.4044 216.211 62.4044Z" fill="#DDE3E9"/>
<path d="M228.162 64.575H204.259C203.359 64.575 202.63 65.3039 202.63 66.203C202.63 67.102 203.359 67.8309 204.259 67.8309H228.162C229.062 67.8309 229.792 67.102 229.792 66.203C229.792 65.3039 229.062 64.575 228.162 64.575Z" fill="#DDE3E9"/>
<path d="M223.816 70.0015H208.605C207.705 70.0015 206.976 70.7303 206.976 71.6294C206.976 72.5285 207.705 73.2574 208.605 73.2574H223.816C224.716 73.2574 225.446 72.5285 225.446 71.6294C225.446 70.7303 224.716 70.0015 223.816 70.0015Z" fill="#DDE3E9"/>
<path fill-rule="evenodd" clip-rule="evenodd" d="M66.2757 13.5662H239.57C241.971 13.5662 243.916 15.5098 243.916 17.9073V28.2176H61.9297V17.9073C61.9297 15.5098 63.8755 13.5662 66.2757 13.5662Z" fill="#C5CFD6"/>
<path d="M68.9919 23.3338C70.192 23.3338 71.1649 22.362 71.1649 21.1632C71.1649 19.9644 70.192 18.9926 68.9919 18.9926C67.7918 18.9926 66.819 19.9644 66.819 21.1632C66.819 22.362 67.7918 23.3338 68.9919 23.3338Z" fill="#F2F2F2"/>
<path d="M75.5109 23.3338C76.711 23.3338 77.6838 22.362 77.6838 21.1632C77.6838 19.9644 76.711 18.9926 75.5109 18.9926C74.3108 18.9926 73.3379 19.9644 73.3379 21.1632C73.3379 22.362 74.3108 23.3338 75.5109 23.3338Z" fill="#F2F2F2"/>
<path d="M82.0298 23.3338C83.2299 23.3338 84.2028 22.362 84.2028 21.1632C84.2028 19.9644 83.2299 18.9926 82.0298 18.9926C80.8297 18.9926 79.8568 19.9644 79.8568 21.1632C79.8568 22.362 80.8297 23.3338 82.0298 23.3338Z" fill="#F2F2F2"/>
<path d="M230.878 85.1956H201.543C199.143 85.1956 197.197 87.1392 197.197 89.5368V186.128C197.197 188.525 199.143 190.469 201.543 190.469H230.878C233.279 190.469 235.224 188.525 235.224 186.128V89.5368C235.224 87.1392 233.279 85.1956 230.878 85.1956Z" fill="white"/>
<path d="M223.273 94.9632H209.149C207.949 94.9632 206.976 95.935 206.976 97.1338V106.901C206.976 108.1 207.949 109.072 209.149 109.072H223.273C224.473 109.072 225.446 108.1 225.446 106.901V97.1338C225.446 95.935 224.473 94.9632 223.273 94.9632Z" fill="#DDE3E9"/>
<path d="M223.273 113.413H209.149C207.949 113.413 206.976 114.385 206.976 115.584V124.809C206.976 126.008 207.949 126.979 209.149 126.979H223.273C224.473 126.979 225.446 126.008 225.446 124.809V115.584C225.446 114.385 224.473 113.413 223.273 113.413Z" fill="#AFB9C5"/>
<path d="M223.273 131.321H209.149C207.949 131.321 206.976 132.292 206.976 133.491V142.716C206.976 143.915 207.949 144.887 209.149 144.887H223.273C224.473 144.887 225.446 143.915 225.446 142.716V133.491C225.446 132.292 224.473 131.321 223.273 131.321Z" fill="#DDE3E9"/>
<path d="M223.273 167.135H209.149C207.949 167.135 206.976 168.107 206.976 169.306V178.531C206.976 179.73 207.949 180.701 209.149 180.701H223.273C224.473 180.701 225.446 179.73 225.446 178.531V169.306C225.446 168.107 224.473 167.135 223.273 167.135Z" fill="#DDE3E9"/>
<path d="M223.273 149.228H209.149C207.949 149.228 206.976 150.2 206.976 151.398V160.623C206.976 161.822 207.949 162.794 209.149 162.794H223.273C224.473 162.794 225.446 161.822 225.446 160.623V151.398C225.446 150.2 224.473 149.228 223.273 149.228Z" fill="#C5CFD6"/>
<path d="M190.678 37.4426H72.7946C71.5945 37.4426 70.6216 38.4144 70.6216 39.6132V60.7764C70.6216 61.9752 71.5945 62.947 72.7946 62.947H190.678C191.879 62.947 192.851 61.9752 192.851 60.7764V39.6132C192.851 38.4144 191.879 37.4426 190.678 37.4426Z" fill="white"/>
<path d="M164.603 45.0939H77.1405C76.2405 45.0939 75.5108 45.8228 75.5108 46.7219V47.2917C75.5108 48.1907 76.2405 48.9196 77.1405 48.9196H164.603C165.503 48.9196 166.232 48.1907 166.232 47.2917V46.7219C166.232 45.8228 165.503 45.0939 164.603 45.0939Z" fill="#DDE3E9"/>
<path d="M134.776 51.47H77.1405C76.2405 51.47 75.5108 52.1989 75.5108 53.098V53.6678C75.5108 54.5668 76.2405 55.2957 77.1405 55.2957H134.776C135.676 55.2957 136.406 54.5668 136.406 53.6678V53.098C136.406 52.1989 135.676 51.47 134.776 51.47Z" fill="#DDE3E9"/>
<path d="M179.789 53.9934C181.889 53.9934 183.591 52.2927 183.591 50.1948C183.591 48.097 181.889 46.3963 179.789 46.3963C177.688 46.3963 175.986 48.097 175.986 50.1948C175.986 52.2927 177.688 53.9934 179.789 53.9934Z" fill="#DDE3E9"/>
<path d="M179.789 51.8228C180.689 51.8228 181.418 51.0939 181.418 50.1948C181.418 49.2958 180.689 48.5669 179.789 48.5669C178.889 48.5669 178.159 49.2958 178.159 50.1948C178.159 51.0939 178.889 51.8228 179.789 51.8228Z" fill="#F2F2F2"/>
<path d="M190.678 67.2882H72.7946C71.5945 67.2882 70.6216 68.26 70.6216 69.4588V86.2809C70.6216 87.4796 71.5945 88.4515 72.7946 88.4515H190.678C191.879 88.4515 192.851 87.4796 192.851 86.2809V69.4588C192.851 68.26 191.879 67.2882 190.678 67.2882Z" fill="white"/>
<path d="M164.643 73.6372H77.0998C76.2222 73.6372 75.5108 74.3478 75.5108 75.2244C75.5108 76.101 76.2222 76.8117 77.0998 76.8117H164.643C165.521 76.8117 166.232 76.101 166.232 75.2244C166.232 74.3478 165.521 73.6372 164.643 73.6372Z" fill="#DDE3E9"/>
<path d="M134.817 78.928H77.0998C76.2222 78.928 75.5108 79.6386 75.5108 80.5152C75.5108 81.3918 76.2222 82.1025 77.0998 82.1025H134.817C135.695 82.1025 136.406 81.3918 136.406 80.5152C136.406 79.6386 135.695 78.928 134.817 78.928Z" fill="#DDE3E9"/>
<path d="M179.789 81.6684C181.889 81.6684 183.591 79.9677 183.591 77.8698C183.591 75.7719 181.889 74.0713 179.789 74.0713C177.688 74.0713 175.986 75.7719 175.986 77.8698C175.986 79.9677 177.688 81.6684 179.789 81.6684Z" fill="#DDE3E9"/>
<path d="M179.789 79.4978C180.689 79.4978 181.418 78.7689 181.418 77.8698C181.418 76.9707 180.689 76.2419 179.789 76.2419C178.889 76.2419 178.159 76.9707 178.159 77.8698C178.159 78.7689 178.889 79.4978 179.789 79.4978Z" fill="#F2F2F2"/>
<path d="M190.678 92.7926H72.7946C71.5945 92.7926 70.6216 93.7644 70.6216 94.9632V111.785C70.6216 112.984 71.5945 113.956 72.7946 113.956H190.678C191.879 113.956 192.851 112.984 192.851 111.785V94.9632C192.851 93.7644 191.879 92.7926 190.678 92.7926Z" fill="white"/>
<path d="M164.643 99.1416H77.0998C76.2222 99.1416 75.5108 99.8522 75.5108 100.729C75.5108 101.605 76.2222 102.316 77.0998 102.316H164.643C165.521 102.316 166.232 101.605 166.232 100.729C166.232 99.8522 165.521 99.1416 164.643 99.1416Z" fill="#DDE3E9"/>
<path d="M134.817 104.432H77.0998C76.2222 104.432 75.5108 105.143 75.5108 106.02C75.5108 106.896 76.2222 107.607 77.0998 107.607H134.817C135.695 107.607 136.406 106.896 136.406 106.02C136.406 105.143 135.695 104.432 134.817 104.432Z" fill="#DDE3E9"/>
<path d="M179.789 107.173C181.889 107.173 183.591 105.472 183.591 103.374C183.591 101.276 181.889 99.5757 179.789 99.5757C177.688 99.5757 175.986 101.276 175.986 103.374C175.986 105.472 177.688 107.173 179.789 107.173Z" fill="#DDE3E9"/>
<path d="M179.789 105.002C180.689 105.002 181.418 104.273 181.418 103.374C181.418 102.475 180.689 101.746 179.789 101.746C178.889 101.746 178.159 102.475 178.159 103.374C178.159 104.273 178.889 105.002 179.789 105.002Z" fill="#AFB9C5"/>
<path d="M190.678 169.306H72.7946C71.5945 169.306 70.6216 170.278 70.6216 171.476V188.298C70.6216 189.497 71.5945 190.469 72.7946 190.469H190.678C191.879 190.469 192.851 189.497 192.851 188.298V171.476C192.851 170.278 191.879 169.306 190.678 169.306Z" fill="white"/>
<path d="M164.643 175.655H77.0998C76.2222 175.655 75.5108 176.365 75.5108 177.242C75.5108 178.119 76.2222 178.829 77.0998 178.829H164.643C165.521 178.829 166.232 178.119 166.232 177.242C166.232 176.365 165.521 175.655 164.643 175.655Z" fill="#DDE3E9"/>
<path d="M134.817 180.946H77.0998C76.2222 180.946 75.5108 181.656 75.5108 182.533C75.5108 183.409 76.2222 184.12 77.0998 184.12H134.817C135.695 184.12 136.406 183.409 136.406 182.533C136.406 181.656 135.695 180.946 134.817 180.946Z" fill="#DDE3E9"/>
<path d="M179.789 183.686C181.889 183.686 183.591 181.985 183.591 179.887C183.591 177.79 181.889 176.089 179.789 176.089C177.688 176.089 175.986 177.79 175.986 179.887C175.986 181.985 177.688 183.686 179.789 183.686Z" fill="#DDE3E9"/>
<path d="M179.789 181.515C180.689 181.515 181.418 180.787 181.418 179.887C181.418 178.988 180.689 178.26 179.789 178.26C178.889 178.26 178.159 178.988 178.159 179.887C178.159 180.787 178.889 181.515 179.789 181.515Z" fill="#F2F2F2"/>
<path d="M190.678 143.801H72.7946C71.5945 143.801 70.6216 144.773 70.6216 145.972V162.794C70.6216 163.993 71.5945 164.965 72.7946 164.965H190.678C191.879 164.965 192.851 163.993 192.851 162.794V145.972C192.851 144.773 191.879 143.801 190.678 143.801Z" fill="white"/>
<path d="M164.643 150.15H77.0998C76.2222 150.15 75.5108 150.861 75.5108 151.738C75.5108 152.614 76.2222 153.325 77.0998 153.325H164.643C165.521 153.325 166.232 152.614 166.232 151.738C166.232 150.861 165.521 150.15 164.643 150.15Z" fill="#DDE3E9"/>
<path d="M134.817 155.441H77.0998C76.2222 155.441 75.5108 156.152 75.5108 157.028C75.5108 157.905 76.2222 158.616 77.0998 158.616H134.817C135.695 158.616 136.406 157.905 136.406 157.028C136.406 156.152 135.695 155.441 134.817 155.441Z" fill="#DDE3E9"/>
<path d="M179.789 158.182C181.889 158.182 183.591 156.481 183.591 154.383C183.591 152.285 181.889 150.585 179.789 150.585C177.688 150.585 175.986 152.285 175.986 154.383C175.986 156.481 177.688 158.182 179.789 158.182Z" fill="#DDE3E9"/>
<path d="M179.789 156.011C180.689 156.011 181.418 155.282 181.418 154.383C181.418 153.484 180.689 152.755 179.789 152.755C178.889 152.755 178.159 153.484 178.159 154.383C178.159 155.282 178.889 156.011 179.789 156.011Z" fill="#F2F2F2"/>
<path d="M190.678 118.297H72.7946C71.5945 118.297 70.6216 119.269 70.6216 120.468V137.29C70.6216 138.488 71.5945 139.46 72.7946 139.46H190.678C191.879 139.46 192.851 138.488 192.851 137.29V120.468C192.851 119.269 191.879 118.297 190.678 118.297Z" fill="white"/>
<path d="M164.643 124.646H77.0998C76.2222 124.646 75.5108 125.357 75.5108 126.233C75.5108 127.11 76.2222 127.82 77.0998 127.82H164.643C165.521 127.82 166.232 127.11 166.232 126.233C166.232 125.357 165.521 124.646 164.643 124.646Z" fill="#DDE3E9"/>
<path d="M134.817 129.937H77.0998C76.2222 129.937 75.5108 130.647 75.5108 131.524C75.5108 132.401 76.2222 133.111 77.0998 133.111H134.817C135.695 133.111 136.406 132.401 136.406 131.524C136.406 130.647 135.695 129.937 134.817 129.937Z" fill="#DDE3E9"/>
<path d="M179.789 132.677C181.889 132.677 183.591 130.977 183.591 128.879C183.591 126.781 181.889 125.08 179.789 125.08C177.688 125.08 175.986 126.781 175.986 128.879C175.986 130.977 177.688 132.677 179.789 132.677Z" fill="#DDE3E9"/>
<path d="M179.789 130.507C180.689 130.507 181.418 129.778 181.418 128.879C181.418 127.98 180.689 127.251 179.789 127.251C178.889 127.251 178.159 127.98 178.159 128.879C178.159 129.778 178.889 130.507 179.789 130.507Z" fill="#F2F2F2"/>
</svg>
