<svg width="340" height="202" viewBox="0 0 340 202" fill="none" xmlns="http://www.w3.org/2000/svg">
<g opacity="0.345889">
<path opacity="0.345889" fill-rule="evenodd" clip-rule="evenodd" d="M239.15 106.518C235.768 68.674 54.3001 -4.36994 20.6112 31.4756C-13.0777 67.3212 19.31 134.594 89.9095 151.821C160.509 169.048 242.532 144.363 239.15 106.518Z" fill="#F2F2F2"/>
<path fill-rule="evenodd" clip-rule="evenodd" d="M126.988 131.108C130.018 98.9577 292.569 36.9041 322.746 67.3563C352.923 97.8085 345.285 161.861 282.045 176.496C218.805 191.131 123.959 163.258 126.988 131.108Z" fill="#DDE3E9"/>
</g>
<path d="M279.476 17.0511L288.584 7.92503C290.116 6.39018 292.601 6.38967 294.134 7.92388C294.134 7.92427 294.134 7.92465 294.135 7.92503L318.383 32.2174C319.855 33.6911 320.681 35.6895 320.681 37.7732V198.671" stroke="#CBCBCB" stroke-width="8"/>
<path d="M333.435 198.179H307.436C306.624 198.179 305.965 198.839 305.965 199.653V200.144C305.965 200.958 306.624 201.618 307.436 201.618H333.435C334.248 201.618 334.907 200.958 334.907 200.144V199.653C334.907 198.839 334.248 198.179 333.435 198.179Z" fill="#AFB9C5"/>
<path fill-rule="evenodd" clip-rule="evenodd" d="M284.954 11.6967C291.276 18.0266 291.276 28.2895 284.954 34.6195L275.242 44.3443L252.349 21.4215L262.061 11.6967C268.383 5.36673 278.632 5.36673 284.954 11.6967Z" fill="#C5CFD6"/>
<path d="M261.928 34.8764C268.25 41.2064 274.384 45.3271 275.629 44.0803C276.874 42.8335 272.759 36.6913 266.437 30.3614C260.116 24.0314 253.981 19.9107 252.736 21.1575C251.491 22.4043 255.606 28.5465 261.928 34.8764Z" fill="#F2F2F2"/>
<path fill-rule="evenodd" clip-rule="evenodd" d="M24.0306 84.8027C25.4358 84.6308 26.9355 84.6915 28.2423 85.2468C31.0211 86.4279 31.8109 89.715 31.7728 92.3866C31.7318 95.2622 31.1219 98.4031 33.3053 100.72C34.309 101.785 35.5575 102.6 36.543 103.685C37.5961 104.844 38.4224 106.171 39.0342 107.595C40.1576 110.211 40.7089 113.288 39.6817 116.032C38.7772 118.449 36.5017 120.629 36.9934 123.377C37.5062 126.243 40.3922 128.434 42.1965 130.569C44.2385 132.985 46.1186 136.073 46.4275 139.241C46.7237 142.278 45.4037 145.349 43.3779 147.644C39.3304 152.23 33.2465 154.479 27.112 154.465C24.5074 154.459 21.5586 154.341 19.3109 152.939C18.6162 152.506 18.2498 152.02 17.8368 151.345C17.4665 150.739 16.9774 150.345 16.4113 149.916C15.1675 148.975 14.2692 147.706 13.696 146.285C11.4699 140.768 13.2491 133.942 16.365 129.043C17.1034 127.882 17.7079 126.765 17.3492 125.381C16.9749 123.937 16.0549 122.635 15.2412 121.393C14.4372 120.166 13.5193 118.996 12.8908 117.669C12.2326 116.279 12.0473 114.824 12.1636 113.303C12.3821 110.446 13.6139 107.81 15.3577 105.512C17.0373 103.299 19.0095 101.181 19.0139 98.2813C19.0188 95.2078 16.9667 92.4737 17.8409 89.3489C18.2029 88.055 18.93 86.7275 20.1017 85.9517C21.2253 85.2078 22.709 84.9643 24.0306 84.8027Z" fill="#DDE3E9"/>
<path fill-rule="evenodd" clip-rule="evenodd" d="M23.1124 89.7161C23.1388 89.3033 23.6278 89.0557 24.0127 89.1634C24.5194 89.3053 24.5097 89.7794 24.4963 90.2017C24.4553 91.5 24.643 92.7616 24.9546 94.0213C25.6024 96.6402 26.7996 99.0532 27.748 101.569C28.6957 104.083 29.1405 106.678 28.5846 109.338C28.0605 111.845 27.2372 114.288 26.7008 116.799C26.2281 119.012 25.7251 121.346 26.445 123.553C27.1377 125.678 28.6693 127.409 29.7721 129.329C32.0551 133.304 33.068 137.714 33.2034 142.252C33.2662 144.359 33.2097 146.486 32.7215 148.552C32.4404 149.743 32.0628 151.351 31.0443 152.172C30.5747 152.551 29.7714 152.682 29.3761 152.121C29.005 151.595 29.3306 150.78 29.4484 150.219C29.9586 147.791 30.0613 145.31 29.9391 142.844C29.8209 140.456 29.5391 138.072 28.7885 135.791C28.0918 133.675 27.0333 131.773 25.7876 129.922C24.5183 128.035 23.1987 126.144 22.6742 123.908C22.1413 121.637 22.5742 119.327 23.1531 117.1C23.7653 114.744 24.5671 112.455 25.3961 110.163C26.204 107.93 26.4904 105.816 26.0444 103.479C25.1634 98.8604 22.8051 94.5255 23.1124 89.7161Z" fill="#C5CFD6"/>
<path fill-rule="evenodd" clip-rule="evenodd" d="M61.1323 90.4066C62.8712 90.9352 64.5983 91.7882 65.8378 93.1257C68.4735 95.97 67.6648 100.269 66.2098 103.408C64.6437 106.788 62.2703 110.185 63.6082 114.062C64.2231 115.845 65.2572 117.459 65.8405 119.255C66.4637 121.175 66.7327 123.174 66.6985 125.177C66.635 128.856 65.6577 132.782 63.0041 135.492C60.6678 137.879 56.8475 139.272 55.9739 142.778C55.0624 146.435 57.2907 150.529 58.28 153.994C59.3997 157.915 59.9749 162.546 58.6647 166.454C57.4092 170.199 54.24 173.143 50.6523 174.802C43.4841 178.118 35.1613 177.608 27.9735 174.396C24.9218 173.032 21.5252 171.357 19.6288 168.528C19.0426 167.654 18.8693 166.889 18.7416 165.874C18.6271 164.965 18.2614 164.244 17.8237 163.443C16.8619 161.681 16.4782 159.713 16.5556 157.734C16.8572 150.05 22.547 142.904 28.788 138.733C30.2667 137.745 31.5654 136.739 31.875 134.916C32.1984 133.013 31.807 130.993 31.508 129.101C31.2126 127.231 30.7539 125.369 30.7171 123.472C30.6787 121.486 31.2295 119.668 32.1688 117.93C33.9333 114.665 36.7697 112.189 40.0279 110.38C43.1662 108.638 46.5972 107.161 48.1332 103.734C49.7613 100.101 48.7977 95.799 51.4726 92.5589C52.5802 91.2173 54.1337 90.026 55.9175 89.7189C57.6282 89.4244 59.4969 89.9094 61.1323 90.4066Z" fill="#DDE3E9"/>
<path fill-rule="evenodd" clip-rule="evenodd" d="M57.5803 96.413C57.827 95.938 58.5283 95.9014 58.9221 96.231C59.4404 96.6649 59.181 97.2212 58.9445 97.7144C58.2175 99.2303 57.777 100.823 57.4826 102.478C56.8702 105.92 57.0079 109.405 56.8011 112.882C56.5945 116.356 55.7572 119.663 53.716 122.521C51.7915 125.216 49.5511 127.677 47.6106 130.369C45.9003 132.742 44.0914 135.241 43.7786 138.233C43.4772 141.113 44.363 143.966 44.6481 146.819C45.2386 152.724 44.1164 158.478 41.9012 163.923C40.8724 166.452 39.6939 168.941 38.042 171.132C37.0909 172.394 35.8081 174.1 34.1875 174.539C33.4401 174.741 32.4323 174.475 32.2636 173.603C32.1049 172.785 32.9118 171.991 33.3429 171.388C35.2095 168.781 36.6275 165.896 37.7742 162.912C38.8851 160.022 39.8026 157.051 40.1179 153.956C40.4103 151.083 40.1671 148.277 39.6789 145.43C39.1816 142.529 38.6276 139.598 39.1837 136.675C39.7483 133.706 41.4631 131.197 43.305 128.863C45.2531 126.394 47.3877 124.105 49.5559 121.826C51.6688 119.605 53.109 117.252 53.8101 114.25C55.1956 108.318 54.7054 101.947 57.5803 96.413Z" fill="#C5CFD6"/>
<path fill-rule="evenodd" clip-rule="evenodd" d="M7.37577 112.224C10.2672 112.224 12.8092 113.758 14.5608 115.936C16.6112 118.485 17.0253 121.598 17.8579 124.636C18.2722 126.149 18.9848 127.65 20.2335 128.677C21.3693 129.611 22.8112 129.798 24.1707 130.254C26.8876 131.167 29.0815 133.364 29.948 136.045C31.005 139.316 29.8854 142.614 30.0782 145.929C30.2552 148.973 33.2526 150.872 35.6642 152.331C38.0422 153.77 40.1844 155.117 40.9006 157.92C41.6601 160.893 41.9149 164.211 40.863 167.148C39.1116 172.038 33.9859 174.192 29.0332 174.526C24.5384 174.828 18.8868 174.353 15.5112 171.086C13.4914 169.131 12.7599 166.397 12.8506 163.677C12.907 161.985 13.2417 160.309 13.6743 158.675C13.981 157.516 14.3953 156.363 14.5133 155.165C14.827 151.98 11.8871 151.369 9.38454 150.494C6.20452 149.383 3.97823 147.284 2.43015 144.359C0.988453 141.636 0.38355 138.579 1.2478 135.581C1.6892 134.05 2.4898 132.661 3.57557 131.48C4.05353 130.96 4.72718 130.526 5.15858 129.98C5.56124 129.47 5.47358 128.809 5.33481 128.211C4.69317 125.451 2.69404 123.166 1.97911 120.411C1.33364 117.924 1.71521 114.829 3.98587 113.224C4.96689 112.531 6.17669 112.231 7.37577 112.224Z" fill="#C5CFD6"/>
<path fill-rule="evenodd" clip-rule="evenodd" d="M11.3157 119.415C14.3802 122.684 15.2132 127.118 15.4577 131.417C15.5946 133.827 15.4521 136.369 16.1593 138.707C16.7644 140.708 18.183 142.238 19.6453 143.684C22.5888 146.594 25.8715 149.552 26.7325 153.764C27.2376 156.236 26.8966 158.789 27.5947 161.233C28.2294 163.455 29.3469 165.638 30.7061 167.514C31.8005 169.025 33.2264 170.182 34.4227 171.591C34.7877 172.021 35.3106 172.654 35.1599 173.26C34.9836 173.971 34.0794 174.196 33.4378 174.085C31.942 173.824 30.6829 172.394 29.7048 171.354C28.2747 169.834 27.0594 168.199 26.0716 166.364C24.975 164.327 24.0921 162.166 23.7148 159.88C23.3233 157.509 23.5181 155.038 22.6242 152.763C21.1199 148.934 17.4711 146.675 14.8331 143.69C11.5462 139.972 12.0364 135.344 12.3731 130.77C12.558 128.256 12.7418 125.418 11.4733 123.122C10.9891 122.246 9.90948 121.43 9.70128 120.434C9.51058 119.521 10.5514 118.599 11.3157 119.415Z" fill="#AFB9C5"/>
<path fill-rule="evenodd" clip-rule="evenodd" d="M14.5838 173.129C14.584 191.823 17.6306 201.618 33.7149 201.618C49.7992 201.618 52.8458 191.823 52.8459 173.129H14.5838Z" fill="#89C5CC"/>
<path d="M98.4662 146.115H81.7878C81.246 146.115 80.8068 146.555 80.8068 147.097V149.553C80.8068 150.096 81.246 150.535 81.7878 150.535H98.4662C99.0081 150.535 99.4473 150.096 99.4473 149.553V147.097C99.4473 146.555 99.0081 146.115 98.4662 146.115Z" fill="#AFB9C5"/>
<path fill-rule="evenodd" clip-rule="evenodd" d="M85.7122 131.871C87.8181 125.036 88.9982 117.832 89.2523 110.259H90.6176H91.4923C91.7464 117.832 92.9265 125.036 95.0324 131.871H98.2209C102.42 131.871 105.824 135.279 105.824 139.484C105.824 143.689 102.42 147.097 98.2209 147.097H82.0331C77.8339 147.097 74.4297 143.689 74.4297 139.484C74.4297 135.279 77.8339 131.871 82.0331 131.871H85.7122Z" fill="#DDE3E9"/>
<path fill-rule="evenodd" clip-rule="evenodd" d="M72.7728 76.2098C78.394 75.6601 84.0153 75.3853 89.6365 75.3853C95.2577 75.3853 100.879 75.6601 106.5 76.2098L108.768 115.236C102.391 115.847 96.0135 116.153 89.6365 116.153C83.2595 116.153 76.8824 115.847 70.5054 115.236L72.7728 76.2098Z" fill="#C5CFD6"/>
<path fill-rule="evenodd" clip-rule="evenodd" d="M69.5243 150.535H110.239H120.541V201.618H110.239V161.341H69.5243V201.618H59.223V150.535H69.5243Z" fill="#F2F2F2"/>
<path fill-rule="evenodd" clip-rule="evenodd" d="M264.456 63.2082C268.789 73.5175 276.154 80.6805 280.055 91.4001C282.369 97.7571 283.333 104.669 283.392 111.748C283.423 115.593 283.356 119.441 283.339 123.286C283.321 127.035 283.219 130.761 282.901 134.487C282.582 138.232 282.224 141.933 282.067 145.702C281.944 148.638 281.888 152.054 280.894 154.732C280.103 156.862 278.094 157.174 277.561 154.591C277.265 153.155 277.302 151.551 277.335 150.075C277.377 148.182 277.487 146.291 277.543 144.398C277.768 136.8 277.476 129.201 277.629 121.601C277.778 114.175 278.731 106.757 277.676 99.381C276.805 93.2896 274.593 88.0589 272.05 83.0443C269.603 78.2198 266.94 73.5125 265.287 68.0247C264.812 66.4486 264.445 64.8154 264.269 63.1207C264.346 63.0849 264.408 63.114 264.456 63.2082Z" fill="#C1DEE2"/>
<path fill-rule="evenodd" clip-rule="evenodd" d="M263.275 83.5472C264.133 84.1675 264.612 85.075 265.192 85.9704C265.913 87.0836 266.761 88.0887 267.482 89.2027C268.986 91.5252 270.306 93.9904 271.677 96.407C274.279 100.994 276.254 105.883 277.233 111.19C278.247 116.689 278.52 122.366 278.946 127.947C279.397 133.863 279.851 139.822 279.911 145.76C279.938 148.421 280.081 151.245 279.762 153.887C279.564 155.532 278.822 156.934 277.151 156.92C273.601 156.892 271.935 152.955 271.239 149.727C270.214 144.972 270.009 139.922 270.171 135.06C270.367 129.198 271.384 123.423 271.823 117.583C272.289 111.401 272.026 105.328 269.903 99.5064C268.831 96.5647 267.586 93.6936 266.469 90.7714C265.993 89.5273 265.603 88.2492 264.96 87.0907C264.245 85.802 263.357 84.6322 262.797 83.2441C262.956 83.3453 263.116 83.4462 263.275 83.5472Z" fill="#89C5CC"/>
<path fill-rule="evenodd" clip-rule="evenodd" d="M304.167 71.219C304.275 71.1343 304.384 71.0496 304.493 70.9647C304.18 72.2873 303.613 73.3616 303.181 74.5706C302.792 75.6575 302.594 76.8874 302.332 78.0755C301.717 80.8657 301.006 83.5931 300.424 86.4072C299.274 91.9757 299.491 97.9746 300.246 104.153C300.959 109.989 302.086 115.815 302.623 121.65C303.068 126.489 303.26 131.479 302.835 136.095C302.546 139.231 301.6 142.974 299.023 142.658C297.809 142.509 297.176 141.046 296.921 139.396C296.512 136.744 296.426 133.956 296.266 131.319C295.91 125.434 295.839 119.567 295.769 113.743C295.702 108.247 295.519 102.643 295.885 97.2855C296.239 92.1163 297.345 87.4583 298.927 83.1605C299.76 80.8962 300.554 78.579 301.49 76.4209C301.939 75.3858 302.487 74.4711 302.937 73.4368C303.298 72.6048 303.585 71.7511 304.167 71.219Z" fill="#C1DEE2"/>
<path fill-rule="evenodd" clip-rule="evenodd" d="M264.371 100.584C264.841 99.7945 265.874 102.397 266.031 102.724C265.965 102.561 265.898 102.399 265.831 102.236C266.762 103.788 267.615 105.402 268.145 107.181C268.669 108.942 269.12 110.738 269.612 112.512C270.535 115.839 271.726 119.072 272.562 122.429C273.378 125.701 273.583 128.917 273.386 132.3C273.181 135.817 273.055 139.388 273.294 142.903C273.409 144.582 273.954 146.146 274.327 147.762C274.701 149.38 274.995 151.02 275.437 152.617C275.539 152.409 275.552 153.105 275.551 153.158C275.549 153.557 275.493 153.892 275.365 154.27C275.035 155.243 274.419 156.07 273.48 156.339C271.785 156.824 270.21 155.28 269.664 153.649C268.879 151.309 268.447 148.723 268.073 146.264C267.731 144.009 267.649 141.74 267.751 139.454C267.952 134.946 268.767 130.496 268.987 125.989C269.227 121.082 268.256 116.472 267.443 111.695C267.052 109.394 266.677 107.114 265.915 104.922C265.607 104.034 265.205 103.25 264.783 102.43C264.543 101.964 264.058 101.132 264.371 100.584Z" fill="#C1DEE2"/>
<path fill-rule="evenodd" clip-rule="evenodd" d="M278.128 92.9189C277.933 98.5403 277.598 104.119 276.849 109.681C276.086 115.357 275.208 121.014 274.473 126.695C273.758 132.225 273.008 137.847 273.108 143.455C273.181 147.585 272.497 154.572 277.079 156.611C281.718 158.675 282.714 149.859 283.018 146.949C283.602 141.366 283.413 135.725 283.13 130.111C282.839 124.35 282.353 118.619 281.752 112.879C281.083 106.503 280.559 100.098 280.138 93.7042C279.929 90.5415 279.878 87.3841 279.936 84.2207C279.99 81.2356 279.877 78.2196 278.817 75.3853C278.761 75.4256 278.706 75.466 278.65 75.5061" fill="#69A1AC"/>
<path fill-rule="evenodd" clip-rule="evenodd" d="M302.081 110.728C301.247 111.945 300.406 113.151 299.618 114.44C298.208 116.747 296.933 119.312 296.549 122.61C295.746 129.513 296.39 136.969 296.546 144.083C296.577 145.536 296.394 146.946 296.966 148.33C297.485 149.584 298.455 150.54 299.38 150.535C301.359 150.524 301.057 145.67 301.06 143.534C301.066 139.79 300.647 136.007 300.683 132.266C300.719 128.56 300.944 124.844 301.481 121.324C302.024 117.761 302.82 114.34 303.87 111.148C304.016 110.705 305.061 107.281 304.073 107.871" fill="#89C5CC"/>
<path fill-rule="evenodd" clip-rule="evenodd" d="M293.339 73.9118C292.038 73.9118 292.046 80.4081 292.007 81.2425C291.865 84.2537 291.899 87.2657 291.809 90.2775C291.613 96.8502 291.373 103.48 290.387 109.977C289.856 113.474 289.241 116.956 288.579 120.427C287.915 123.908 287.024 127.385 286.587 130.91C286.167 134.298 286.404 137.754 286.462 141.159C286.519 144.585 286.623 148.018 287.071 151.413C287.182 152.252 287.311 153.087 287.45 153.92C287.566 154.614 287.498 155.475 287.694 156.135C288.008 157.192 289.352 157.538 290.257 157.373C292.706 156.925 294.27 153.846 295.107 151.596C296.175 148.723 296.742 145.608 297.301 142.58C297.935 139.151 298.307 135.668 298.481 132.177C298.835 125.08 298.381 117.976 297.873 110.902C297.59 106.968 297.264 103.052 296.765 99.1419C296.268 95.249 295.63 91.3734 295.215 87.4689C294.913 84.6316 294.616 81.7903 294.421 78.9421C294.374 78.2629 294.335 73.9118 293.339 73.9118Z" fill="#69A1AC"/>
<path fill-rule="evenodd" clip-rule="evenodd" d="M291.71 121.133C291.498 114.312 288.76 84.3537 288.137 76.1059C287.981 74.0415 286.481 65.4462 286.287 63.1059C285.759 63.7674 285.804 74.0638 285.81 76.4296C285.816 78.7699 285.526 81.0714 285.377 83.3991C285.225 85.7742 281.719 116.448 281.263 118.73C280.358 123.27 279.752 127.93 279.285 132.572C278.83 137.096 278.122 141.87 278.731 146.418C278.871 147.465 279.093 148.496 279.453 149.458C279.843 150.497 280.11 151.458 280.423 152.546C280.927 154.297 281.838 155.835 283.237 156.558C286.106 158.041 287.647 154.684 288.428 151.762C289.676 147.095 290.476 142.351 290.852 137.45C291.267 132.027 291.88 126.593 291.71 121.133Z" fill="#89C5CC"/>
<path d="M304.984 141.203H262.307C261.765 141.203 261.326 141.643 261.326 142.185V184.918C261.326 185.46 261.765 185.9 262.307 185.9H304.984C305.526 185.9 305.965 185.46 305.965 184.918V142.185C305.965 141.643 305.526 141.203 304.984 141.203Z" fill="white"/>
<path d="M260.345 146.115H257.401C256.86 146.115 256.42 146.554 256.42 147.097V200.635C256.42 201.178 256.86 201.618 257.401 201.618H260.345C260.886 201.618 261.326 201.178 261.326 200.635V147.097C261.326 146.554 260.886 146.115 260.345 146.115Z" fill="#C5CFD6"/>
<path d="M284.872 146.115H281.928C281.387 146.115 280.947 146.554 280.947 147.097V200.635C280.947 201.178 281.387 201.618 281.928 201.618H284.872C285.413 201.618 285.853 201.178 285.853 200.635V147.097C285.853 146.554 285.413 146.115 284.872 146.115Z" fill="#C5CFD6"/>
<path d="M309.889 146.115H306.946C306.404 146.115 305.965 146.554 305.965 147.097V200.635C305.965 201.178 306.404 201.618 306.946 201.618H309.889C310.431 201.618 310.87 201.178 310.87 200.635V147.097C310.87 146.554 310.431 146.115 309.889 146.115Z" fill="#C5CFD6"/>
</svg>
