<svg width="339" height="202" viewBox="0 0 339 202" fill="none" xmlns="http://www.w3.org/2000/svg">
<g opacity="0.345889">
<path fill-rule="evenodd" clip-rule="evenodd" d="M238.301 106.283C234.919 68.4387 53.4514 -4.6052 19.7626 31.2404C-13.9263 67.0859 18.4614 134.359 89.0608 151.586C159.66 168.812 241.684 144.128 238.301 106.283Z" fill="#E5E5E5"/>
<path opacity="0.345889" fill-rule="evenodd" clip-rule="evenodd" d="M126.14 130.873C129.169 98.7224 291.721 36.6688 321.898 67.121C352.075 97.5732 344.436 161.626 281.196 176.261C217.956 190.896 123.11 163.023 126.14 130.873Z" fill="#79B3BC"/>
</g>
<path d="M278.627 16.8157L287.735 7.68968C289.267 6.15483 291.752 6.15432 293.285 7.68853C293.285 7.68891 293.286 7.6893 293.286 7.68968L317.535 31.982C319.006 33.4557 319.832 35.4542 319.832 37.5379V198.435" stroke="#CBCBCB" stroke-width="8"/>
<path d="M332.587 197.944H306.588C305.775 197.944 305.116 198.604 305.116 199.418V199.909C305.116 200.723 305.775 201.382 306.588 201.382H332.587C333.399 201.382 334.058 200.723 334.058 199.909V199.418C334.058 198.604 333.399 197.944 332.587 197.944Z" fill="#AFB9C5"/>
<path fill-rule="evenodd" clip-rule="evenodd" d="M284.105 11.4614C290.427 17.7913 290.427 28.0542 284.105 34.3842L274.393 44.109L251.5 21.1862L261.212 11.4614C267.534 5.13144 277.784 5.13144 284.105 11.4614Z" fill="#C5CFD6"/>
<path d="M261.079 34.6411C267.401 40.9711 273.535 45.0918 274.781 43.8449C276.026 42.5981 271.91 36.456 265.589 30.126C259.267 23.7961 253.133 19.6754 251.888 20.9222C250.642 22.169 254.758 28.3112 261.079 34.6411Z" fill="#F2F2F2"/>
<path fill-rule="evenodd" clip-rule="evenodd" d="M23.1819 84.5674C24.5871 84.3955 26.0869 84.4562 27.3937 85.0116C30.1724 86.1927 30.9623 89.4797 30.9242 92.1514C30.8831 95.027 30.2732 98.1679 32.4567 100.485C33.4604 101.55 34.7088 102.365 35.6944 103.45C36.7475 104.609 37.5738 105.936 38.1856 107.36C39.3089 109.976 39.8603 113.053 38.833 115.797C37.9286 118.213 35.653 120.394 36.1447 123.142C36.6576 126.008 39.5436 128.199 41.3479 130.334C43.3899 132.75 45.27 135.838 45.5788 139.006C45.875 142.043 44.555 145.113 42.5293 147.409C38.4818 151.995 32.3978 154.243 26.2633 154.229C23.6588 154.223 20.7099 154.106 18.4623 152.704C17.7676 152.271 17.4011 151.785 16.9881 151.109C16.6179 150.504 16.1288 150.11 15.5626 149.681C14.3188 148.739 13.4206 147.47 12.8473 146.05C10.6213 140.533 12.4005 133.707 15.5164 128.808C16.2547 127.647 16.8592 126.53 16.5005 125.146C16.1262 123.702 15.2063 122.399 14.3926 121.158C13.5885 119.931 12.6706 118.76 12.0422 117.434C11.384 116.044 11.1986 114.589 11.3149 113.068C11.5335 110.211 12.7652 107.574 14.509 105.277C16.1887 103.064 18.1609 100.946 18.1653 98.046C18.1701 94.9725 16.118 92.2385 16.9923 89.1137C17.3542 87.8198 18.0813 86.4922 19.253 85.7165C20.3767 84.9725 21.8604 84.7291 23.1819 84.5674Z" fill="#DDE3E9"/>
<path fill-rule="evenodd" clip-rule="evenodd" d="M22.2638 89.4809C22.2901 89.0681 22.7791 88.8206 23.1641 88.9283C23.6708 89.0701 23.661 89.5442 23.6477 89.9666C23.6066 91.2648 23.7943 92.5265 24.106 93.7861C24.7537 96.4051 25.9509 98.818 26.8994 101.334C27.847 103.847 28.2918 106.443 27.7359 109.102C27.2119 111.61 26.3885 114.053 25.8522 116.564C25.3795 118.777 24.8765 121.111 25.5964 123.318C26.2891 125.443 27.8206 127.173 28.9235 129.094C31.2065 133.069 32.2193 137.478 32.3548 142.017C32.4176 144.124 32.361 146.25 31.8728 148.317C31.5918 149.507 31.2142 151.116 30.1957 151.937C29.726 152.316 28.9228 152.447 28.5275 151.886C28.1564 151.36 28.4819 150.545 28.5998 149.984C29.11 147.556 29.2126 145.075 29.0905 142.609C28.9722 140.221 28.6905 137.837 27.9398 135.556C27.2431 133.439 26.1847 131.538 24.939 129.687C23.6696 127.8 22.35 125.909 21.8255 123.673C21.2926 121.402 21.7256 119.092 22.3044 116.864C22.9166 114.508 23.7185 112.22 24.5475 109.928C25.3554 107.694 25.6417 105.581 25.1957 103.244C24.3147 98.6252 21.9565 94.2904 22.2638 89.4809Z" fill="#C5CFD6"/>
<path fill-rule="evenodd" clip-rule="evenodd" d="M60.2837 90.1715C62.0226 90.7001 63.7496 91.5531 64.9892 92.8906C67.6249 95.7349 66.8162 100.034 65.3612 103.173C63.795 106.553 61.4217 109.95 62.7596 113.827C63.3745 115.61 64.4085 117.224 64.9919 119.02C65.6151 120.94 65.8841 122.939 65.8498 124.942C65.7864 128.621 64.809 132.546 62.1555 135.257C59.8191 137.643 55.9989 139.037 55.1252 142.543C54.2138 146.199 56.442 150.294 57.4314 153.759C58.5511 157.68 59.1263 162.311 57.816 166.219C56.5606 169.964 53.3913 172.908 49.8037 174.567C42.6354 177.883 34.3127 177.373 27.1248 174.161C24.0732 172.797 20.6766 171.121 18.7801 168.293C18.194 167.419 18.0207 166.653 17.893 165.639C17.7785 164.73 17.4128 164.009 16.975 163.207C16.0132 161.446 15.6295 159.477 15.707 157.499C16.0085 149.814 21.6984 142.669 27.9393 138.498C29.4181 137.51 30.7167 136.504 31.0264 134.681C31.3498 132.778 30.9584 130.758 30.6594 128.866C30.364 126.996 29.9052 125.134 29.8684 123.237C29.83 121.251 30.3809 119.433 31.3201 117.695C33.0846 114.43 35.921 111.954 39.1793 110.145C42.3176 108.403 45.7486 106.926 47.2846 103.498C48.9127 99.8662 47.949 95.5639 50.6239 92.3238C51.7315 90.9822 53.2851 89.7909 55.0688 89.4838C56.7795 89.1893 58.6483 89.6743 60.2837 90.1715Z" fill="#DDE3E9"/>
<path fill-rule="evenodd" clip-rule="evenodd" d="M56.7316 96.1778C56.9783 95.7028 57.6796 95.6663 58.0734 95.9959C58.5917 96.4298 58.3324 96.9861 58.0958 97.4792C57.3688 98.9951 56.9283 100.588 56.6339 102.243C56.0215 105.684 56.1593 109.17 55.9525 112.647C55.7458 116.121 54.9086 119.428 52.8673 122.286C50.9428 124.981 48.7024 127.442 46.7619 130.134C45.0516 132.506 43.2427 135.006 42.9299 137.998C42.6286 140.878 43.5143 143.731 43.7995 146.584C44.3899 152.489 43.2677 158.243 41.0525 163.688C40.0237 166.217 38.8453 168.706 37.1933 170.897C36.2423 172.159 34.9595 173.865 33.3388 174.304C32.5915 174.506 31.5837 174.239 31.415 173.368C31.2563 172.55 32.0631 171.756 32.4943 171.153C34.3609 168.545 35.7788 165.661 36.9256 162.677C38.0365 159.787 38.954 156.815 39.2692 153.72C39.5616 150.848 39.3184 148.041 38.8303 145.195C38.3329 142.294 37.779 139.362 38.3351 136.439C38.8997 133.471 40.6144 130.962 42.4564 128.628C44.4045 126.159 46.539 123.87 48.7072 121.59C50.8201 119.369 52.2603 117.017 52.9615 114.015C54.3469 108.083 53.8568 101.712 56.7316 96.1778Z" fill="#C5CFD6"/>
<path fill-rule="evenodd" clip-rule="evenodd" d="M6.52712 111.988C9.41851 111.988 11.9605 113.523 13.7121 115.701C15.7625 118.25 16.1767 121.363 17.0093 124.401C17.4236 125.913 18.1361 127.414 19.3849 128.442C20.5207 129.376 21.9625 129.563 23.322 130.019C26.039 130.931 28.2329 133.129 29.0993 135.81C30.1564 139.081 29.0368 142.379 29.2296 145.694C29.4065 148.738 32.4039 150.637 34.8155 152.096C37.1935 153.535 39.3358 154.882 40.052 157.685C40.8115 160.658 41.0663 163.976 40.0143 166.913C38.2629 171.803 33.1372 173.956 28.1845 174.29C23.6898 174.593 18.0381 174.118 14.6626 170.851C12.6427 168.896 11.9112 166.162 12.002 163.441C12.0584 161.75 12.393 160.074 12.8257 158.44C13.1323 157.281 13.5466 156.127 13.6647 154.93C13.9784 151.745 11.0384 151.133 8.53589 150.259C5.35587 149.148 3.12959 147.048 1.5815 144.124C0.139805 141.401 -0.465098 138.344 0.399154 135.346C0.840555 133.815 1.64115 132.426 2.72692 131.245C3.20488 130.725 3.87853 130.291 4.30993 129.745C4.71259 129.235 4.62493 128.574 4.48616 127.976C3.84452 125.216 1.84539 122.931 1.13046 120.175C0.484997 117.689 0.866562 114.594 3.13722 112.989C4.11824 112.296 5.32804 111.996 6.52712 111.988Z" fill="#C5CFD6"/>
<path fill-rule="evenodd" clip-rule="evenodd" d="M10.467 119.18C13.5316 122.448 14.3645 126.883 14.609 131.182C14.7459 133.592 14.6034 136.134 15.3107 138.472C15.9158 140.473 17.3344 142.003 18.7967 143.448C21.7402 146.359 25.0229 149.317 25.8838 153.529C26.389 156.001 26.048 158.554 26.746 160.998C27.3807 163.22 28.4982 165.403 29.8575 167.279C30.9519 168.79 32.3777 169.947 33.5741 171.355C33.9391 171.785 34.4619 172.418 34.3113 173.025C34.135 173.736 33.2307 173.961 32.5892 173.849C31.0933 173.589 29.8342 172.159 28.8562 171.119C27.426 169.599 26.2107 167.964 25.2229 166.129C24.1264 164.092 23.2434 161.93 22.8662 159.645C22.4746 157.274 22.6695 154.803 21.7755 152.528C20.2712 148.699 16.6225 146.439 13.9844 143.455C10.6976 139.737 11.1878 135.109 11.5244 130.535C11.7094 128.021 11.8932 125.182 10.6247 122.887C10.1404 122.011 9.06083 121.194 8.85263 120.199C8.66193 119.286 9.70275 118.364 10.467 119.18Z" fill="#AFB9C5"/>
<path fill-rule="evenodd" clip-rule="evenodd" d="M13.7351 172.894C13.7353 191.588 16.782 201.383 32.8663 201.383C48.9505 201.383 51.9972 191.588 51.9973 172.894H13.7351Z" fill="#89C5CC"/>
<path d="M97.6176 145.879H80.9392C80.3973 145.879 79.9581 146.319 79.9581 146.862V149.318C79.9581 149.86 80.3973 150.3 80.9392 150.3H97.6176C98.1594 150.3 98.5986 149.86 98.5986 149.318V146.862C98.5986 146.319 98.1594 145.879 97.6176 145.879Z" fill="#AFB9C5"/>
<path fill-rule="evenodd" clip-rule="evenodd" d="M84.8635 131.635C86.9695 124.801 88.1495 117.597 88.4037 110.023H89.7689H90.6436C90.8978 117.597 92.0778 124.801 94.1838 131.635H97.3723C101.572 131.635 104.976 135.044 104.976 139.248C104.976 143.453 101.572 146.862 97.3723 146.862H81.1845C76.9852 146.862 73.5811 143.453 73.5811 139.248C73.5811 135.044 76.9852 131.635 81.1845 131.635H84.8635Z" fill="#DDE3E9"/>
<path fill-rule="evenodd" clip-rule="evenodd" d="M71.9241 75.9745C77.5454 75.4249 83.1666 75.15 88.7878 75.15C94.4091 75.15 100.03 75.4249 105.652 75.9745L107.919 115.001C101.542 115.612 95.1649 115.918 88.7878 115.918C82.4108 115.918 76.0338 115.612 69.6568 115.001L71.9241 75.9745Z" fill="#C5CFD6"/>
<path fill-rule="evenodd" clip-rule="evenodd" d="M68.6757 150.3H109.391H119.692V201.382H109.391V161.106H68.6757V201.382H58.3743V150.3H68.6757Z" fill="#F2F2F2"/>
<path fill-rule="evenodd" clip-rule="evenodd" d="M263.607 62.9729C267.94 73.2822 275.306 80.4452 279.207 91.1648C281.52 97.5218 282.484 104.434 282.543 111.513C282.575 115.358 282.508 119.205 282.49 123.05C282.472 126.8 282.371 130.526 282.053 134.252C281.733 137.997 281.376 141.698 281.218 145.466C281.095 148.403 281.039 151.818 280.045 154.497C279.255 156.627 277.245 156.939 276.712 154.355C276.416 152.919 276.453 151.316 276.486 149.84C276.528 147.946 276.638 146.056 276.694 144.162C276.92 136.565 276.627 128.966 276.78 121.366C276.929 113.94 277.883 106.522 276.828 99.1457C275.957 93.0543 273.744 87.8236 271.201 82.809C268.754 77.9845 266.092 73.2772 264.438 67.7894C263.963 66.2134 263.596 64.5802 263.42 62.8854C263.497 62.8496 263.56 62.8787 263.607 62.9729Z" fill="#C1DEE2"/>
<path fill-rule="evenodd" clip-rule="evenodd" d="M262.426 83.3118C263.284 83.9322 263.764 84.8397 264.344 85.7351C265.065 86.8483 265.913 87.8533 266.634 88.9673C268.137 91.2898 269.458 93.755 270.828 96.1716C273.43 100.759 275.405 105.647 276.384 110.954C277.398 116.454 277.672 122.13 278.097 127.712C278.548 133.628 279.002 139.586 279.062 145.525C279.089 148.186 279.233 151.01 278.914 153.652C278.715 155.297 277.974 156.698 276.303 156.685C272.753 156.657 271.086 152.72 270.39 149.491C269.365 144.737 269.161 139.687 269.323 134.825C269.519 128.962 270.535 123.188 270.975 117.348C271.441 111.165 271.177 105.092 269.055 99.2711C267.982 96.3294 266.738 93.4582 265.62 90.5361C265.144 89.2919 264.754 88.0139 264.111 86.8553C263.396 85.5666 262.509 84.3968 261.949 83.0088C262.108 83.1099 262.267 83.2109 262.426 83.3118Z" fill="#89C5CC"/>
<path fill-rule="evenodd" clip-rule="evenodd" d="M303.318 70.9836C303.427 70.8989 303.536 70.8143 303.645 70.7294C303.331 72.0519 302.765 73.1263 302.332 74.3352C301.943 75.4221 301.746 76.6521 301.484 77.8401C300.868 80.6304 300.157 83.3578 299.576 86.1718C298.425 91.7403 298.643 97.7393 299.397 103.917C300.11 109.753 301.237 115.58 301.774 121.415C302.22 126.254 302.411 131.243 301.986 135.86C301.698 138.995 300.752 142.739 298.174 142.422C296.961 142.273 296.328 140.811 296.073 139.16C295.663 136.509 295.577 133.721 295.418 131.084C295.061 125.199 294.99 119.332 294.92 113.507C294.853 108.012 294.67 102.407 295.037 97.0502C295.39 91.8809 296.497 87.223 298.078 82.9252C298.912 80.6609 299.705 78.3436 300.641 76.1856C301.09 75.1504 301.639 74.2358 302.088 73.2014C302.449 72.3695 302.736 71.5158 303.318 70.9836Z" fill="#C1DEE2"/>
<path fill-rule="evenodd" clip-rule="evenodd" d="M263.523 100.348C263.992 99.5591 265.025 102.161 265.183 102.489C265.116 102.326 265.049 102.163 264.982 102.001C265.914 103.552 266.766 105.167 267.296 106.946C267.82 108.707 268.271 110.503 268.763 112.277C269.686 115.604 270.877 118.837 271.714 122.194C272.529 125.465 272.734 128.681 272.537 132.065C272.332 135.582 272.207 139.153 272.446 142.668C272.56 144.347 273.105 145.911 273.478 147.527C273.852 149.145 274.147 150.784 274.589 152.382C274.69 152.174 274.703 152.87 274.703 152.922C274.7 153.322 274.644 153.656 274.516 154.035C274.186 155.008 273.57 155.835 272.632 156.103C270.936 156.589 269.362 155.044 268.815 153.414C268.031 151.074 267.598 148.488 267.225 146.029C266.882 143.774 266.801 141.505 266.903 139.219C267.103 134.71 267.918 130.261 268.138 125.754C268.378 120.847 267.407 116.237 266.594 111.46C266.203 109.159 265.829 106.879 265.067 104.686C264.758 103.798 264.356 103.015 263.934 102.195C263.694 101.728 263.209 100.896 263.523 100.348Z" fill="#C1DEE2"/>
<path fill-rule="evenodd" clip-rule="evenodd" d="M277.279 92.6836C277.085 98.305 276.749 103.884 276.001 109.446C275.237 115.122 274.36 120.779 273.624 126.46C272.909 131.99 272.159 137.612 272.259 143.219C272.333 147.35 271.649 154.337 276.23 156.375C280.87 158.44 281.865 149.624 282.17 146.714C282.754 141.131 282.565 135.489 282.281 129.876C281.99 124.115 281.505 118.383 280.903 112.643C280.234 106.267 279.71 99.8628 279.289 93.4689C279.081 90.3062 279.029 87.1488 279.087 83.9854C279.141 81.0003 279.028 77.9843 277.968 75.15C277.912 75.1904 277.857 75.2307 277.802 75.2708" fill="#69A1AC"/>
<path fill-rule="evenodd" clip-rule="evenodd" d="M301.233 110.493C300.398 111.71 299.557 112.915 298.769 114.205C297.359 116.511 296.084 119.077 295.7 122.375C294.898 129.278 295.542 136.733 295.697 143.847C295.729 145.301 295.545 146.711 296.117 148.094C296.636 149.349 297.606 150.305 298.531 150.3C300.51 150.289 300.208 145.435 300.212 143.299C300.218 139.554 299.798 135.772 299.834 132.031C299.87 128.325 300.096 124.609 300.632 121.089C301.176 117.526 301.971 114.105 303.021 110.912C303.167 110.469 304.213 107.046 303.225 107.636" fill="#89C5CC"/>
<path fill-rule="evenodd" clip-rule="evenodd" d="M292.491 73.6765C291.189 73.6765 291.197 80.1728 291.158 81.0072C291.017 84.0184 291.05 87.0304 290.961 90.0422C290.765 96.6149 290.524 103.245 289.538 109.742C289.008 113.239 288.392 116.721 287.73 120.192C287.066 123.673 286.175 127.149 285.738 130.674C285.319 134.063 285.556 137.518 285.613 140.924C285.671 144.35 285.774 147.782 286.222 151.178C286.333 152.016 286.463 152.852 286.602 153.685C286.717 154.379 286.65 155.24 286.845 155.9C287.159 156.957 288.503 157.302 289.408 157.137C291.857 156.69 293.421 153.61 294.258 151.361C295.326 148.488 295.893 145.372 296.453 142.345C297.087 138.915 297.458 135.433 297.632 131.941C297.986 124.845 297.532 117.741 297.024 110.667C296.742 106.733 296.416 102.816 295.917 98.9066C295.419 95.0137 294.782 91.1381 294.366 87.2336C294.065 84.3963 293.768 81.555 293.572 78.7068C293.525 78.0277 293.486 73.6765 292.491 73.6765Z" fill="#69A1AC"/>
<path fill-rule="evenodd" clip-rule="evenodd" d="M290.862 120.898C290.649 114.077 287.911 84.1184 287.288 75.8706C287.133 73.8062 285.633 65.2109 285.438 62.8706C284.911 63.5321 284.956 73.8285 284.962 76.1944C284.968 78.5346 284.678 80.8361 284.529 83.1638C284.377 85.5389 280.87 116.213 280.415 118.495C279.51 123.035 278.904 127.694 278.436 132.336C277.981 136.861 277.273 141.635 277.882 146.183C278.022 147.23 278.244 148.26 278.605 149.222C278.995 150.262 279.262 151.223 279.575 152.31C280.078 154.062 280.989 155.6 282.388 156.323C285.258 157.806 286.799 154.449 287.58 151.526C288.827 146.859 289.628 142.116 290.003 137.214C290.418 131.792 291.031 126.358 290.862 120.898Z" fill="#89C5CC"/>
<path d="M304.135 140.968H261.458C260.916 140.968 260.477 141.408 260.477 141.95V184.682C260.477 185.225 260.916 185.665 261.458 185.665H304.135C304.677 185.665 305.116 185.225 305.116 184.682V141.95C305.116 141.408 304.677 140.968 304.135 140.968Z" fill="white"/>
<path d="M259.496 145.88H256.553C256.011 145.88 255.572 146.319 255.572 146.862V200.4C255.572 200.943 256.011 201.383 256.553 201.383H259.496C260.038 201.383 260.477 200.943 260.477 200.4V146.862C260.477 146.319 260.038 145.88 259.496 145.88Z" fill="#C5CFD6"/>
<path d="M284.023 145.88H281.08C280.538 145.88 280.099 146.319 280.099 146.862V200.4C280.099 200.943 280.538 201.383 281.08 201.383H284.023C284.565 201.383 285.004 200.943 285.004 200.4V146.862C285.004 146.319 284.565 145.88 284.023 145.88Z" fill="#C5CFD6"/>
<path d="M309.041 145.88H306.097C305.555 145.88 305.116 146.319 305.116 146.862V200.4C305.116 200.943 305.555 201.383 306.097 201.383H309.041C309.582 201.383 310.022 200.943 310.022 200.4V146.862C310.022 146.319 309.582 145.88 309.041 145.88Z" fill="#C5CFD6"/>
</svg>
