<svg width="558" height="258" viewBox="0 0 558 258" fill="none" xmlns="http://www.w3.org/2000/svg">
<g clip-path="url(#clip0)">
<rect width="558" height="258" fill="#0071BC"/>
<path d="M245.84 25H-102.27C-107.091 25 -111 28.9043 -111 33.7205V393.439C-111 398.255 -107.091 402.16 -102.27 402.16H245.84C250.662 402.16 254.57 398.255 254.57 393.439V33.7205C254.57 28.9043 250.662 25 245.84 25Z" fill="#F2F2F2"/>
<path d="M228.38 71.8724H169.452C164.631 71.8724 160.722 75.7767 160.722 80.5929V151.447C160.722 156.263 164.631 160.167 169.452 160.167H228.38C233.202 160.167 237.11 156.263 237.11 151.447V80.5929C237.11 75.7767 233.202 71.8724 228.38 71.8724Z" fill="white"/>
<path d="M198.916 123.105C208.559 123.105 216.376 115.297 216.376 105.664C216.376 96.0319 208.559 88.2233 198.916 88.2233C189.273 88.2233 181.456 96.0319 181.456 105.664C181.456 115.297 189.273 123.105 198.916 123.105Z" fill="#DDE3E9"/>
<path d="M222.924 127.465H174.909C173.1 127.465 171.635 128.929 171.635 130.736C171.635 132.542 173.1 134.006 174.909 134.006H222.924C224.732 134.006 226.198 132.542 226.198 130.736C226.198 128.929 224.732 127.465 222.924 127.465Z" fill="#DDE3E9"/>
<path d="M214.194 138.366H183.639C181.831 138.366 180.365 139.83 180.365 141.636C180.365 143.442 181.831 144.906 183.639 144.906H214.194C216.002 144.906 217.468 143.442 217.468 141.636C217.468 139.83 216.002 138.366 214.194 138.366Z" fill="#DDE3E9"/>
<path fill-rule="evenodd" clip-rule="evenodd" d="M-102.27 25H245.84C250.662 25 254.57 28.9043 254.57 33.7205V54.4315H-111V33.7205C-111 28.9043 -107.091 25 -102.27 25Z" fill="#C5CFD6"/>
<path d="M228.38 168.888H169.452C164.631 168.888 160.722 172.792 160.722 177.608V371.638C160.722 376.454 164.631 380.358 169.452 380.358H228.38C233.202 380.358 237.11 376.454 237.11 371.638V177.608C237.11 172.792 233.202 168.888 228.38 168.888Z" fill="white"/>
<path d="M213.103 188.509H184.73C182.319 188.509 180.365 190.461 180.365 192.869V212.49C180.365 214.898 182.319 216.85 184.73 216.85H213.103C215.513 216.85 217.468 214.898 217.468 212.49V192.869C217.468 190.461 215.513 188.509 213.103 188.509Z" fill="#DDE3E9"/>
<path d="M213.103 225.57H184.73C182.319 225.57 180.365 227.523 180.365 229.931V248.462C180.365 250.87 182.319 252.822 184.73 252.822H213.103C215.513 252.822 217.468 250.87 217.468 248.462V229.931C217.468 227.523 215.513 225.57 213.103 225.57Z" fill="#AFB9C5"/>
<path d="M147.627 72.9625H-89.1748C-91.5855 72.9625 -93.5398 74.9146 -93.5398 77.3227V119.835C-93.5398 122.243 -91.5855 124.195 -89.1748 124.195H147.627C150.038 124.195 151.992 122.243 151.992 119.835V77.3227C151.992 74.9146 150.038 72.9625 147.627 72.9625Z" fill="white"/>
<path d="M95.2472 88.3323H-80.4447C-82.2528 88.3323 -83.7185 89.7964 -83.7185 91.6024V92.747C-83.7185 94.5531 -82.2528 96.0172 -80.4447 96.0172H95.2472C97.0552 96.0172 98.521 94.5531 98.521 92.747V91.6024C98.521 89.7964 97.0552 88.3323 95.2472 88.3323Z" fill="#DDE3E9"/>
<path d="M35.3329 101.14H-80.4447C-82.2528 101.14 -83.7185 102.605 -83.7185 104.411V105.555C-83.7185 107.361 -82.2528 108.825 -80.4447 108.825H35.3329C37.1409 108.825 38.6066 107.361 38.6066 105.555V104.411C38.6066 102.605 37.1409 101.14 35.3329 101.14Z" fill="#DDE3E9"/>
<path d="M125.752 106.209C129.971 106.209 133.391 102.793 133.391 98.5788C133.391 94.3647 129.971 90.9484 125.752 90.9484C121.533 90.9484 118.113 94.3647 118.113 98.5788C118.113 102.793 121.533 106.209 125.752 106.209Z" fill="#DDE3E9"/>
<path d="M125.752 101.849C127.56 101.849 129.026 100.385 129.026 98.5788C129.026 96.7728 127.56 95.3087 125.752 95.3087C123.944 95.3087 122.479 96.7728 122.479 98.5788C122.479 100.385 123.944 101.849 125.752 101.849Z" fill="#F2F2F2"/>
<path d="M147.627 132.916H-89.1748C-91.5855 132.916 -93.5398 134.868 -93.5398 137.276V171.068C-93.5398 173.476 -91.5855 175.428 -89.1748 175.428H147.627C150.038 175.428 151.992 173.476 151.992 171.068V137.276C151.992 134.868 150.038 132.916 147.627 132.916Z" fill="white"/>
<path d="M95.329 145.669H-80.5266C-82.2894 145.669 -83.7185 147.097 -83.7185 148.858C-83.7185 150.619 -82.2894 152.046 -80.5266 152.046H95.329C97.0919 152.046 98.521 150.619 98.521 148.858C98.521 147.097 97.0919 145.669 95.329 145.669Z" fill="#DDE3E9"/>
<path d="M35.4147 156.297H-80.5266C-82.2894 156.297 -83.7185 157.725 -83.7185 159.486C-83.7185 161.247 -82.2894 162.674 -80.5266 162.674H35.4147C37.1776 162.674 38.6066 161.247 38.6066 159.486C38.6066 157.725 37.1776 156.297 35.4147 156.297Z" fill="#DDE3E9"/>
<path d="M125.752 161.802C129.971 161.802 133.391 158.386 133.391 154.172C133.391 149.958 129.971 146.541 125.752 146.541C121.533 146.541 118.113 149.958 118.113 154.172C118.113 158.386 121.533 161.802 125.752 161.802Z" fill="#DDE3E9"/>
<path d="M125.752 157.442C127.56 157.442 129.026 155.978 129.026 154.172C129.026 152.366 127.56 150.902 125.752 150.902C123.944 150.902 122.479 152.366 122.479 154.172C122.479 155.978 123.944 157.442 125.752 157.442Z" fill="#F2F2F2"/>
<path d="M147.627 184.148H-89.1748C-91.5855 184.148 -93.5398 186.1 -93.5398 188.509V222.3C-93.5398 224.708 -91.5855 226.661 -89.1748 226.661H147.627C150.038 226.661 151.992 224.708 151.992 222.3V188.509C151.992 186.1 150.038 184.148 147.627 184.148Z" fill="white"/>
<path d="M95.329 196.902H-80.5266C-82.2894 196.902 -83.7185 198.329 -83.7185 200.09C-83.7185 201.851 -82.2894 203.279 -80.5266 203.279H95.329C97.0919 203.279 98.521 201.851 98.521 200.09C98.521 198.329 97.0919 196.902 95.329 196.902Z" fill="#DDE3E9"/>
<path d="M35.4147 207.53H-80.5266C-82.2894 207.53 -83.7185 208.957 -83.7185 210.718C-83.7185 212.479 -82.2894 213.907 -80.5266 213.907H35.4147C37.1776 213.907 38.6066 212.479 38.6066 210.718C38.6066 208.957 37.1776 207.53 35.4147 207.53Z" fill="#DDE3E9"/>
<path d="M125.752 213.035C129.971 213.035 133.391 209.619 133.391 205.404C133.391 201.19 129.971 197.774 125.752 197.774C121.533 197.774 118.113 201.19 118.113 205.404C118.113 209.619 121.533 213.035 125.752 213.035Z" fill="#DDE3E9"/>
<path d="M125.752 208.674C127.56 208.674 129.026 207.21 129.026 205.404C129.026 203.598 127.56 202.134 125.752 202.134C123.944 202.134 122.479 203.598 122.479 205.404C122.479 207.21 123.944 208.674 125.752 208.674Z" fill="#AFB9C5"/>
<path d="M147.627 235.381H-89.1748C-91.5855 235.381 -93.5398 237.333 -93.5398 239.741V273.533C-93.5398 275.941 -91.5855 277.893 -89.1748 277.893H147.627C150.038 277.893 151.992 275.941 151.992 273.533V239.741C151.992 237.333 150.038 235.381 147.627 235.381Z" fill="white"/>
<path d="M95.329 248.135H-80.5266C-82.2894 248.135 -83.7185 249.562 -83.7185 251.323C-83.7185 253.084 -82.2894 254.511 -80.5266 254.511H95.329C97.0919 254.511 98.521 253.084 98.521 251.323C98.521 249.562 97.0919 248.135 95.329 248.135Z" fill="#DDE3E9"/>
<path d="M125.752 264.267C129.971 264.267 133.391 260.851 133.391 256.637C133.391 252.423 129.971 249.007 125.752 249.007C121.533 249.007 118.113 252.423 118.113 256.637C118.113 260.851 121.533 264.267 125.752 264.267Z" fill="#DDE3E9"/>
<path d="M125.752 259.907C127.56 259.907 129.026 258.443 129.026 256.637C129.026 254.831 127.56 253.367 125.752 253.367C123.944 253.367 122.479 254.831 122.479 256.637C122.479 258.443 123.944 259.907 125.752 259.907Z" fill="#F2F2F2"/>
<path fill-rule="evenodd" clip-rule="evenodd" d="M239.248 136.632C237.802 136.632 236.361 136.661 234.917 136.736C233.816 136.794 232.134 136.566 231.203 137.251C230.235 137.963 230.302 139.42 230.453 140.449C231.252 145.89 233.202 150.715 237.282 154.57C243.564 160.506 250.766 163.522 259.288 164.865C265.274 165.808 270.8 164.498 275.207 160.246C278.427 166.215 280.869 172.821 282.095 179.488C282.699 182.778 282.884 186.028 282.778 189.378C282.709 191.523 282.591 193.664 282.361 195.799C282.261 196.727 281.787 198.132 282.151 199.008C282.578 200.038 284.017 200.138 284.663 199.26C285.201 198.529 285.102 197.094 285.212 196.229C285.395 194.792 285.565 193.355 285.686 191.911C285.883 189.575 286.029 187.233 286.018 184.887C285.994 179.619 284.821 174.329 283.217 169.328C280.14 159.733 275.146 151.206 267.381 144.515C262.606 140.401 257.141 138.735 250.941 137.84C247.081 137.284 243.158 136.632 239.248 136.632Z" fill="#89C5CC"/>
<path fill-rule="evenodd" clip-rule="evenodd" d="M261.544 174.784C245.94 174.784 235.431 187.346 230.462 200.402C228.589 205.324 228.15 210.728 227.428 215.895C227.196 217.553 227.282 220.08 226.608 221.558C226.364 222.093 225.803 222.286 226.071 223.016C226.233 223.458 226.552 223.729 227.03 223.816C228.011 223.997 229.399 222.929 230.24 222.508C237.22 219.011 241.806 213.605 245.547 206.99C247.866 202.89 250.219 198.634 251.597 194.133C252.438 191.383 252.928 188.487 253.216 185.635C253.329 184.511 253.438 183.361 253.432 182.231C253.425 181.11 252.903 180.517 252.527 179.541C257.734 177.572 263.611 177.036 268.885 179.076C273.763 180.963 277.815 184.609 280.084 189.19C280.673 190.381 281.128 191.637 281.459 192.918C281.676 193.757 281.686 194.846 282.088 195.605C283.062 197.444 285.111 196.214 284.915 194.502C284.366 189.726 281.631 184.931 278.135 181.611C273.725 177.423 267.749 174.784 261.544 174.784Z" fill="#89C5CC"/>
<path d="M443.16 -101H287.11C282.289 -101 278.38 -97.0957 278.38 -92.2795V219.477C278.38 224.293 282.289 228.197 287.11 228.197H443.16C447.981 228.197 451.89 224.293 451.89 219.477V-92.2795C451.89 -97.0957 447.981 -101 443.16 -101Z" fill="#DDE3E9"/>
<path d="M364.589 207.486C373.63 207.486 380.958 200.166 380.958 191.135C380.958 182.105 373.63 174.784 364.589 174.784C355.549 174.784 348.221 182.105 348.221 191.135C348.221 200.166 355.549 207.486 364.589 207.486Z" fill="white"/>
<path d="M432.247 -2.89487H298.023C295.612 -2.89487 293.658 -0.942734 293.658 1.46535V38.5273C293.658 40.9354 295.612 42.8875 298.023 42.8875H432.247C434.658 42.8875 436.612 40.9354 436.612 38.5273V1.46535C436.612 -0.942734 434.658 -2.89487 432.247 -2.89487Z" fill="white"/>
<path d="M412.604 10.8399H339.49C337.682 10.8399 336.217 12.304 336.217 14.11V14.437C336.217 16.2431 337.682 17.7072 339.49 17.7072H412.604C414.412 17.7072 415.878 16.2431 415.878 14.437V14.11C415.878 12.304 414.412 10.8399 412.604 10.8399Z" fill="#DDE3E9"/>
<path d="M386.414 22.2855H339.49C337.682 22.2855 336.217 23.7496 336.217 25.5556V25.8827C336.217 27.6887 337.682 29.1528 339.49 29.1528H386.414C388.222 29.1528 389.688 27.6887 389.688 25.8827V25.5556C389.688 23.7496 388.222 22.2855 386.414 22.2855Z" fill="#DDE3E9"/>
<path d="M316.574 33.077C323.806 33.077 329.669 27.2205 329.669 19.9963C329.669 12.772 323.806 6.91558 316.574 6.91558C309.342 6.91558 303.479 12.772 303.479 19.9963C303.479 27.2205 309.342 33.077 316.574 33.077Z" fill="#C5CFD6"/>
<path d="M432.247 51.6079H298.023C295.612 51.6079 293.658 53.5601 293.658 55.9682V93.0301C293.658 95.4382 295.612 97.3903 298.023 97.3903H432.247C434.658 97.3903 436.612 95.4382 436.612 93.0301V55.9682C436.612 53.5601 434.658 51.6079 432.247 51.6079Z" fill="white"/>
<path d="M379.867 65.3426H306.753C304.944 65.3426 303.479 66.8067 303.479 68.6128V68.9398C303.479 70.7459 304.944 72.21 306.753 72.21H379.867C381.675 72.21 383.14 70.7459 383.14 68.9398V68.6128C383.14 66.8067 381.675 65.3426 379.867 65.3426Z" fill="#DDE3E9"/>
<path d="M353.676 76.7883H306.753C304.944 76.7883 303.479 78.2524 303.479 80.0584V80.3855C303.479 82.1915 304.944 83.6556 306.753 83.6556H353.676C355.484 83.6556 356.95 82.1915 356.95 80.3855V80.0584C356.95 78.2524 355.484 76.7883 353.676 76.7883Z" fill="#AFB9C5"/>
<path d="M421.334 82.1295C425.553 82.1295 428.973 78.7133 428.973 74.4991C428.973 70.285 425.553 66.8687 421.334 66.8687C417.115 66.8687 413.695 70.285 413.695 74.4991C413.695 78.7133 417.115 82.1295 421.334 82.1295Z" fill="#DDE3E9"/>
<path d="M421.334 77.7693C423.142 77.7693 424.608 76.3052 424.608 74.4991C424.608 72.6931 423.142 71.229 421.334 71.229C419.526 71.229 418.06 72.6931 418.06 74.4991C418.06 76.3052 419.526 77.7693 421.334 77.7693Z" fill="#F2F2F2"/>
<path d="M432.247 106.111H298.023C295.612 106.111 293.658 108.063 293.658 110.471V147.533C293.658 149.941 295.612 151.893 298.023 151.893H432.247C434.658 151.893 436.612 149.941 436.612 147.533V110.471C436.612 108.063 434.658 106.111 432.247 106.111Z" fill="white"/>
<path d="M412.604 119.846H339.49C337.682 119.846 336.217 121.31 336.217 123.116V123.443C336.217 125.249 337.682 126.713 339.49 126.713H412.604C414.412 126.713 415.878 125.249 415.878 123.443V123.116C415.878 121.31 414.412 119.846 412.604 119.846Z" fill="#DDE3E9"/>
<path d="M386.414 131.291H339.49C337.682 131.291 336.217 132.755 336.217 134.561V134.888C336.217 136.694 337.682 138.158 339.49 138.158H386.414C388.222 138.158 389.688 136.694 389.688 134.888V134.561C389.688 132.755 388.222 131.291 386.414 131.291Z" fill="#DDE3E9"/>
<path d="M316.574 142.083C323.806 142.083 329.669 136.226 329.669 129.002C329.669 121.778 323.806 115.921 316.574 115.921C309.342 115.921 303.479 121.778 303.479 129.002C303.479 136.226 309.342 142.083 316.574 142.083Z" fill="#C5CFD6"/>
</g>
<defs>
<clipPath id="clip0">
<rect width="558" height="258" fill="white"/>
</clipPath>
</defs>
</svg>
