<svg width="613" height="414" viewBox="0 0 613 414" fill="none" xmlns="http://www.w3.org/2000/svg">
<path opacity="0.345889" fill-rule="evenodd" clip-rule="evenodd" d="M72.4581 60.1866C122.118 37.7732 348.857 224.224 329.423 293.897C309.99 363.569 209.715 405.874 135.439 325.395C61.1632 244.916 22.7985 82.6 72.4581 60.1866Z" fill="#EEF5F6"/>
<path opacity="0.345889" fill-rule="evenodd" clip-rule="evenodd" d="M304.185 116.407C385.789 74.1926 638.613 159.998 581.421 235.26C524.228 310.523 360.674 392.915 285.899 346.094C211.125 299.273 222.58 158.622 304.185 116.407Z" fill="#EEF5F6"/>
<path opacity="0.5" fill-rule="evenodd" clip-rule="evenodd" d="M117.661 154.872C110.499 154.952 103.341 155.216 96.1939 155.669C89.3969 156.099 82.0221 155.772 75.3359 157.09C73.4373 157.464 70.8726 159.194 73.3971 161.097C75.1715 162.436 81.6634 160.896 83.7823 160.766C91.5855 160.287 99.3927 159.712 107.207 159.436C114.605 159.175 122.002 159.082 129.403 159.009C130.533 158.997 132.409 158.635 133.534 158.963C135.151 159.435 134.767 159.563 134.888 161.615C135.108 165.334 135.047 169.066 134.973 172.788C134.902 176.389 134.769 179.991 134.782 183.594C134.791 186.165 133.969 191.273 135.259 193.506C137.116 196.719 139.042 193.229 139.181 191.093C139.447 187.009 139.328 182.875 139.329 178.785C139.33 174.946 139.357 171.108 139.222 167.271C139.124 164.499 139.52 159.661 138.027 157.142C136.506 154.575 132.845 155.129 130.174 155.007C126.006 154.815 121.832 154.828 117.661 154.872Z" fill="#EFF6F7"/>
<path opacity="0.5" fill-rule="evenodd" clip-rule="evenodd" d="M72.0952 159.504C72.1031 166.716 71.2687 173.881 71.035 181.085C70.9277 184.397 70.7102 188.034 71.5481 191.286C72.394 194.569 75.0804 195.28 75.3898 191.615C76.0165 184.193 75.8628 176.497 76.3507 169.016C76.523 166.374 77.6439 161.533 76.5975 159.06C75.676 156.881 72.0913 156.464 72.0952 159.504Z" fill="#EFF6F7"/>
<path opacity="0.5" fill-rule="evenodd" clip-rule="evenodd" d="M139.251 191.296C126.814 192.942 113.812 192.342 101.286 192.601C95.2766 192.725 89.2683 192.733 83.2581 192.795C81.1605 192.817 75.8336 192.019 74.019 193.198C71.1303 195.076 74.2646 196.524 76.1769 196.565C88.0378 196.825 100.031 196.28 111.889 195.891C117.217 195.716 122.563 195.63 127.877 195.178C131.148 194.899 134.723 194.629 137.9 193.75C138.576 193.562 140.05 193.601 140.202 192.678C140.295 192.107 140.126 191.175 139.251 191.296Z" fill="#EFF6F7"/>
<path opacity="0.5" fill-rule="evenodd" clip-rule="evenodd" d="M87.5338 201.78C84.0772 201.8 73.6608 200.194 72.2293 203.565C70.3208 208.06 77.7658 207.011 79.768 206.96C84.3156 206.843 88.8601 206.83 93.4089 206.832C97.8721 206.834 102.335 206.805 106.797 206.699C108.09 206.668 111.1 207.205 111.843 205.648C112.408 204.465 111.962 203.531 110.919 202.905C108.411 201.398 101.895 202.272 98.958 202.136C95.1557 201.961 91.3408 201.78 87.5338 201.78Z" fill="#EFF6F7"/>
<path opacity="0.5" fill-rule="evenodd" clip-rule="evenodd" d="M129.586 202.612C127.61 202.729 123.615 201.915 121.845 202.819C119.834 203.847 120.542 205.456 122.279 206.163C123.481 206.652 128.415 206.395 129.586 205.828C130.807 205.237 132.188 202.452 129.586 202.612Z" fill="#EFF6F7"/>
<path opacity="0.5" fill-rule="evenodd" clip-rule="evenodd" d="M151.243 160.211C149.134 160.79 149.774 172.768 149.719 174.667C149.57 179.869 148.985 186.413 150.714 191.423C151.817 194.617 153.934 194.184 153.573 190.821C153.256 187.87 152.713 184.952 152.478 181.982C151.945 175.26 151.221 168.09 151.724 161.362C151.938 161.753 153.939 165.379 154.41 165.108C154.268 165.193 152.102 159.985 151.243 160.211Z" fill="#EFF6F7"/>
<path opacity="0.5" fill-rule="evenodd" clip-rule="evenodd" d="M174.976 155.8C170.707 155.863 166.437 155.938 162.168 156.057C158.774 156.151 153.441 155.594 150.329 157.021C146.623 158.721 148.381 162.509 151.862 162.589C154.941 162.66 158.225 161.965 161.333 161.859C169.726 161.571 178.134 161.51 186.531 161.438C194.126 161.373 202.043 162.183 209.571 161.042C210.687 170.957 207.667 180.913 208.694 190.942C208.854 192.499 208.782 194.698 210.764 195.053C213.266 195.5 213.369 193.022 213.464 191.248C213.735 186.182 213.588 181.112 213.959 176.04C214.303 171.339 214.979 166.534 214.407 161.826C213.704 156.032 210.928 156.497 206.02 156.256C195.655 155.747 185.353 155.647 174.976 155.8Z" fill="#EFF6F7"/>
<path opacity="0.5" fill-rule="evenodd" clip-rule="evenodd" d="M160.667 191.006C158.491 191.06 154.878 190.39 153.484 192.476C152.033 194.647 153.754 196.54 155.863 196.986C158.36 197.513 161.615 196.79 164.206 196.782C166.904 196.774 169.603 196.804 172.302 196.815C183.87 196.86 195.488 197.035 207.048 196.557C208.663 196.49 213.245 197.032 214.362 195.483C215.354 194.11 214.66 192.878 213.354 192.178C211.212 191.03 206.811 191.467 204.428 191.375C201.485 191.263 198.538 191.227 195.594 191.181C183.971 191.002 172.288 190.718 160.667 191.006Z" fill="#EFF6F7"/>
<path opacity="0.5" fill-rule="evenodd" clip-rule="evenodd" d="M170.453 201.04C166.124 201.114 161.505 200.924 157.218 201.581C153.45 202.158 152.986 205.801 157.043 206.227C160.771 206.619 165.291 205.887 169.037 205.646C170.368 205.561 171.915 205.682 172.553 204.211C173.219 202.675 171.946 201.201 170.453 201.04Z" fill="#EFF6F7"/>
<path opacity="0.5" fill-rule="evenodd" clip-rule="evenodd" d="M203.182 201.423C200.871 201.48 194.122 200.487 192.977 203.126C191.072 207.52 200.209 205.851 201.961 205.786C204.171 205.705 212.781 206.995 212.783 203.478C212.785 200.029 205.297 201.37 203.182 201.423Z" fill="#EFF6F7"/>
<path opacity="0.5" fill-rule="evenodd" clip-rule="evenodd" d="M71.7215 223.257C71.7271 231.25 71.2297 239.318 71.9588 247.291C72.2603 250.589 72.2087 256.906 74.1187 259.701C75.4746 261.686 77.355 261.546 78.0956 259.164C78.5907 257.571 77.7988 254.385 77.7105 252.681C77.6254 251.046 77.5261 249.411 77.4504 247.775C77.2561 243.561 77.2715 239.353 77.3294 235.137C77.3791 231.52 78.2497 226.735 77.4287 223.257C76.6633 220.015 71.7215 219.257 71.7215 223.257Z" fill="#EFF6F7"/>
<path opacity="0.5" fill-rule="evenodd" clip-rule="evenodd" d="M152.054 216.225C138.187 216.573 124.288 216.262 110.432 216.948C103.599 217.287 96.7922 218.03 89.9933 218.771C86.653 219.135 83.3146 219.511 79.9801 219.922C78.9739 220.046 70.6126 220.37 73.7574 223.55C75.1306 224.938 79.5005 223.488 81.2296 223.283C84.5774 222.888 87.9319 222.543 91.2845 222.189C97.6641 221.514 104.052 220.875 110.458 220.52C125.547 219.684 140.698 219.935 155.802 219.378C159.888 219.227 163.962 219.119 168.049 219.28C169.122 219.322 177.009 219.723 173.584 216.81C171.965 215.432 165.86 216.143 163.837 216.102C159.91 216.02 155.98 216.126 152.054 216.225Z" fill="#EFF6F7"/>
<path opacity="0.5" fill-rule="evenodd" clip-rule="evenodd" d="M173.653 258.395C173.651 258.398 173.649 258.401 173.647 258.405C172.891 259.518 170.099 259.208 168.877 259.292C165.155 259.544 161.503 259.971 157.815 260.524C150.467 261.625 143.182 262.303 135.754 262.486C121.064 262.85 106.312 262.51 91.6433 263.516C88.3943 263.74 85.1947 264.122 81.999 264.734C79.7169 265.171 75.3191 266.667 75.0523 262.897C74.7302 258.354 86.1288 258.362 89.388 258.059C103.382 256.757 117.606 257.031 131.643 257.227C138.431 257.321 145.206 257.529 151.989 257.114C158.765 256.699 165.77 256.808 172.496 256.08C171.63 252.721 171.757 248.521 171.514 245.089C170.889 236.277 171.056 227.436 170.654 218.615C170.477 214.729 175.771 214.141 177.341 217.286C178.926 220.463 177.896 226.768 177.998 230.291C178.236 238.447 179.748 247.577 178.151 255.644C177.595 258.45 175.228 259.924 173.653 258.395Z" fill="#EFF6F7"/>
<path opacity="0.5" fill-rule="evenodd" clip-rule="evenodd" d="M182.183 221.462C180.31 221.717 178.747 223.32 179.584 225.354C180.637 227.915 183.775 226.914 185.848 226.752C192.436 226.236 199.315 227.267 205.824 226.489C207.602 226.276 210.18 225.308 208.585 222.92C207.385 221.124 203.014 221.439 201.156 221.268C194.801 220.68 188.53 220.837 182.183 221.462Z" fill="#EFF6F7"/>
<path opacity="0.5" fill-rule="evenodd" clip-rule="evenodd" d="M193.303 232.633C190.748 232.805 184.8 232.67 183.723 235.577C181.792 240.793 189.357 238.955 191.661 238.659C194.336 238.314 200.644 239.237 202.069 236.642C204.617 232.002 195.544 232.479 193.303 232.633Z" fill="#EFF6F7"/>
<path opacity="0.5" fill-rule="evenodd" clip-rule="evenodd" d="M186.733 244.079C185.521 245.292 185.519 247.457 186.733 248.67C188.219 250.155 191.457 249.846 193.41 249.955C196.134 250.107 203.957 251.548 205.31 248.34C207.135 244.013 200.051 244.103 197.72 243.858C195.027 243.574 188.965 241.846 186.733 244.079Z" fill="#EFF6F7"/>
<path opacity="0.5" fill-rule="evenodd" clip-rule="evenodd" d="M91.2462 170.001C91.2462 174.654 98.513 174.654 98.513 170.001C98.513 165.374 91.2462 165.303 91.2462 170.001Z" fill="#EFF6F7"/>
<path opacity="0.5" fill-rule="evenodd" clip-rule="evenodd" d="M105.03 170.054C105.03 175.373 113.307 175.362 113.307 170.054C113.307 164.753 105.03 164.699 105.03 170.054Z" fill="#EFF6F7"/>
<path opacity="0.5" fill-rule="evenodd" clip-rule="evenodd" d="M96.6914 177.126C92.668 178.237 96.3745 181.647 98.2427 182.426C101.212 183.664 105.264 184.576 108.234 182.72C109.415 181.982 110.375 181 109.509 179.566C108.586 178.04 107.323 178.719 105.918 178.86C104.139 179.039 102.7 179.011 100.982 178.441C99.6995 178.015 98.0902 176.741 96.6914 177.126Z" fill="#EFF6F7"/>
<path opacity="0.5" fill-rule="evenodd" clip-rule="evenodd" d="M169.672 170.296C169.672 173.443 174.558 173.443 174.558 170.296C174.558 167.149 169.672 167.149 169.672 170.296Z" fill="#EFF6F7"/>
<path opacity="0.5" fill-rule="evenodd" clip-rule="evenodd" d="M180.478 170.769C180.478 174.266 185.907 174.266 185.907 170.769C185.907 167.272 180.478 167.273 180.478 170.769Z" fill="#EFF6F7"/>
<path opacity="0.5" fill-rule="evenodd" clip-rule="evenodd" d="M180.076 178.357C177.225 178.725 168.977 179.561 168.516 183.076C167.804 188.499 176.841 184.11 178.903 183.684C181.53 183.142 183.876 183.283 186.499 183.389C187.939 183.446 189.854 183.68 189.703 181.486C189.455 177.884 182.569 178.038 180.076 178.357Z" fill="#EFF6F7"/>
<path opacity="0.5" fill-rule="evenodd" clip-rule="evenodd" d="M108.38 228.366C106.313 228.918 103.609 232.491 105.031 234.678C107.363 238.264 108.391 232.757 109.367 232.227C111.143 231.263 112.584 234.787 114.44 232.938C117.368 230.021 110.223 227.872 108.38 228.366Z" fill="#EFF6F7"/>
<path opacity="0.5" fill-rule="evenodd" clip-rule="evenodd" d="M132.063 225.715C129.612 225.738 124.437 229.208 124.07 231.77C123.853 233.293 124.862 234.755 126.503 234.776C128.738 234.803 129.449 231.897 131.386 231.29C133.475 230.634 133.165 232.144 134.97 232.926C136.291 233.499 137.943 233.259 138.401 231.635C139.267 228.572 134.581 225.667 132.063 225.715Z" fill="#EFF6F7"/>
<path opacity="0.5" fill-rule="evenodd" clip-rule="evenodd" d="M113.3 240.386C109.38 242.684 115.831 247.608 118.067 248.224C121.443 249.153 128.238 247.419 129.038 243.295C129.357 241.653 128.33 240.167 126.519 240.46C125.027 240.703 124.071 242.573 122.689 243.243C120.824 244.148 119.167 244.086 117.582 242.725C116.291 241.616 115.6 239.045 113.3 240.386Z" fill="#EFF6F7"/>
<path opacity="0.5" fill-rule="evenodd" clip-rule="evenodd" d="M116.142 274.333C112.639 275.079 109.078 274.578 105.559 275.281C101.97 275.997 99.8247 277.353 96.4903 275.987C96.3334 275.921 96.1769 275.854 96.0204 275.788C93.4396 274.677 90.7346 274.347 88.0332 276.119C86.4345 277.168 81.5814 280.794 82.1664 283.007C83.4339 287.804 88.8947 280.281 90.2873 279.548C92.9426 278.15 94.7631 279.936 97.4969 280.44C100.771 281.044 103.406 279.314 106.491 278.625C110.098 277.819 114.157 277.538 117.827 277.106C119.277 276.936 124.77 278.083 125.265 276.278C126.117 273.178 117.519 274.04 116.142 274.333Z" fill="#EFF6F7"/>
<path opacity="0.5" fill-rule="evenodd" clip-rule="evenodd" d="M141.413 283.994C141.642 284.167 141.459 284.028 141.413 283.994V283.994ZM151.223 274.145C154.222 273.841 163.816 271.698 165.786 274.797C167.069 276.815 165.033 284.264 163.091 285.228C161.538 285.997 157.922 285.147 156.218 285.086C153.049 284.975 149.872 284.925 146.706 284.727C145.644 284.661 142.228 284.856 141.395 283.917C140.412 282.807 140.456 276.891 140.224 275.424C142.981 276.316 148.341 274.438 151.223 274.145ZM157.627 271.107C153.786 271.273 149.946 271.562 146.135 272.077C144.01 272.364 141.857 273.128 139.895 273.489C139.262 273.606 138.235 273.283 137.46 273.657C135.193 274.752 137.178 282.156 137.724 284.134C138.564 287.173 140.677 287.665 143.637 287.951C147.537 288.329 151.517 288.21 155.429 288.162C159.199 288.116 164.284 288.952 166.399 285.168C167.767 282.722 169.234 277.025 168.065 274.299C166.527 270.712 160.785 270.974 157.627 271.107Z" fill="#EFF6F7"/>
<path opacity="0.5" fill-rule="evenodd" clip-rule="evenodd" d="M200.633 286.029C200.428 286.293 200.428 286.293 200.633 286.029V286.029ZM201.475 285.014C201.411 285.111 201.117 285.422 201.475 285.014V285.014ZM192.316 284.736C194.009 284.417 195.703 284.102 197.398 283.793C195.793 286.039 194.102 285.111 191.361 284.915C191.679 284.855 191.998 284.796 192.316 284.736ZM184.239 283.941C184.669 283.797 185.098 283.653 185.527 283.51C185.514 283.836 185.584 284.142 185.737 284.427C185.003 284.348 184.269 284.263 183.536 284.172C183.77 284.095 184.005 284.018 184.239 283.941ZM180.497 281.177C180.473 280.587 181.359 280.992 181.867 280.952C180.888 281.815 180.431 281.889 180.497 281.177ZM193.882 274.491C194.011 274.327 194.182 274.335 194.394 274.516C194.162 274.594 193.27 274.972 193.882 274.491ZM202.563 273.47C202.586 273.47 203.067 274.121 202.563 273.47V273.47ZM202.319 273.257C202.445 273.353 202.445 273.353 202.319 273.257V273.257ZM201.236 273.131C203.01 273.43 202.876 275.513 201.236 273.131V273.131ZM180.384 272.989C180.023 273.288 180.146 272.998 180.384 272.989V272.989ZM187.171 268.554C184.158 268.73 178.627 268.553 176.11 270.158C172.826 272.254 174.554 279.468 174.848 282.63C175.283 287.304 177.482 288.635 181.884 289.126C187.138 289.712 192.535 289.821 197.816 289.682C202.572 289.557 205.28 287.921 206.151 282.914C206.418 281.382 207.095 279.012 207.074 277.544C207.059 276.527 206.552 276.062 206.36 275.197C205.268 270.269 203.442 269.684 198.391 269.469C194.673 269.311 190.819 268.363 187.171 268.554Z" fill="#EFF6F7"/>
<path opacity="0.5" fill-rule="evenodd" clip-rule="evenodd" d="M346.786 155.34C354.447 155.504 363.139 159.744 361.927 168.726C361.04 175.306 355.343 180.648 348.745 181.108C341.653 181.603 334.155 176.161 333.192 168.94C332.108 160.818 339.294 155.178 346.786 155.34ZM343.029 151.684C339.923 152.148 336.955 153.778 334.221 155.239C333.177 155.797 327.884 159.199 332.035 160.044C322.034 176.174 345.572 191.156 358.805 180.673C364.748 175.965 367.876 167.04 364.035 160.053C360.062 152.828 350.64 150.541 343.029 151.684Z" fill="#A7EFF8"/>
<path opacity="0.5" fill-rule="evenodd" clip-rule="evenodd" d="M341.198 165.413C341.198 168.426 345.874 168.426 345.874 165.413C345.874 162.401 341.198 162.401 341.198 165.413Z" fill="#A7EFF8"/>
<path opacity="0.5" fill-rule="evenodd" clip-rule="evenodd" d="M349.868 165.896C349.868 169.162 354.937 169.162 354.937 165.896C354.937 162.63 349.868 162.63 349.868 165.896Z" fill="#A7EFF8"/>
<path opacity="0.5" fill-rule="evenodd" clip-rule="evenodd" d="M344.017 172.355C343.335 174.833 351.114 176.104 351.373 173.236C351.496 171.866 344.492 170.626 344.017 172.355Z" fill="#A7EFF8"/>
<path opacity="0.5" fill-rule="evenodd" clip-rule="evenodd" d="M366.821 170.823C375.772 169.749 385.001 170.246 393.995 170.503C396.246 170.568 398.497 170.631 400.749 170.669C402.18 170.693 405.271 171.38 406.52 170.71C411.635 167.967 401.601 166.64 400.18 166.514C391.233 165.778 377.426 165.515 368.453 165.863C365.8 165.966 365.226 171.015 366.821 170.823Z" fill="#A7EFF8"/>
<path opacity="0.5" fill-rule="evenodd" clip-rule="evenodd" d="M407.1 215.321C407.177 205.942 407.513 196.5 408.234 187.149C408.527 183.338 408.88 179.532 409.172 175.72C409.309 173.925 409.947 171.411 408.892 169.835C407.804 168.212 405.419 167.875 403.982 169.313C402.261 171.541 402.761 175.279 402.547 177.973C402.218 182.116 401.82 186.256 401.623 190.408C401.241 198.444 401.152 206.62 401.797 214.644C402.102 218.431 402.764 222.125 403.643 225.818C404.044 227.499 407.229 234.988 406.56 236.02C405.522 237.622 397.849 237.016 396.185 237.061C391.915 237.176 387.642 237.25 383.371 237.332C379.713 237.402 376.056 237.452 372.398 237.484C370.946 237.497 362.413 237.238 364.306 239.392C343.138 240.867 321.567 238.404 300.528 237.56C299.466 237.517 297.727 237.215 296.122 237.128C295.93 236.353 295.772 235.66 295.733 235.179C295.456 231.798 295.384 228.405 295.084 225.025C294.536 218.84 293.472 212.718 292.839 206.543C292.208 200.376 292.271 194.189 291.904 188.007C291.841 186.947 291.692 178.269 289.502 176.161C290.54 176.554 292.214 176.606 293.179 176.528C300.983 175.898 308.73 174.542 316.468 173.378C318.681 173.045 323.704 173.281 325.541 172.175C327.13 171.217 327.759 167.858 324.994 168.13C317.279 168.956 309.605 170.239 301.951 171.502C299.903 171.84 297.861 172.201 295.819 172.57C294.456 172.816 290.856 172.797 289.799 173.62C288.514 174.618 288.378 175.297 288.813 175.748C288.208 175.582 287.483 175.843 286.611 176.715C284.964 178.859 286.513 184.138 286.709 186.652C286.945 189.667 287.061 192.688 287.198 195.709C287.464 201.554 288.076 207.319 289.016 213.094C290.07 219.564 290.966 226.06 292.023 232.528C292.298 234.212 292.657 235.854 293.115 237.481C290.268 238.937 292.203 241.253 294.461 241.664C294.477 241.666 294.494 241.669 294.51 241.672C295.214 243.388 296.198 244.978 296.967 242.678C297.026 242.502 297.053 242.285 297.06 242.041C302.892 242.701 309.301 242.291 315.042 242.525C327.477 243.034 339.989 243.796 352.437 243.41C357.365 243.257 362.308 242.819 367.195 242.161C370.058 241.776 372.932 241.317 375.749 240.678C375.951 240.633 376.258 240.584 376.612 240.526C376.67 240.525 376.729 240.523 376.783 240.522C381.097 240.457 385.407 240.342 389.718 240.162C393.335 240.012 396.97 239.935 400.576 239.594C402.816 239.381 407.55 239.421 408.925 237.168C410.176 235.12 408.085 229.844 407.788 227.543C407.266 223.492 407.066 219.403 407.1 215.321Z" fill="#C1DEE2"/>
<path opacity="0.5" fill-rule="evenodd" clip-rule="evenodd" d="M363.383 188.24C359.936 188.536 356.749 190.154 353.27 190.175C350.351 190.191 347.476 189.318 344.54 189.447C341.096 189.598 339.201 191.825 336.185 192.57C333.783 193.163 332.27 191.324 330.158 190.511C327.491 189.484 325.521 190.014 323.235 191.568C321.555 192.709 317.637 195.271 317.668 197.579C317.758 204.572 325.916 194.912 327.561 194.795C329.746 194.64 332.187 197.131 334.513 197.272C337.587 197.461 339.558 195.479 342.388 194.757C345.251 194.027 348.345 194.921 351.215 195.199C354.489 195.515 357.354 194.786 360.522 194.004C363.592 193.247 366.208 193.287 369.327 193.923C371.432 194.352 376.676 196.848 377.597 193.639C378.851 189.268 365.793 188.035 363.383 188.24Z" fill="#A7EFF8"/>
<path opacity="0.5" fill-rule="evenodd" clip-rule="evenodd" d="M364.433 201.578C357.37 202.263 350.264 202.864 343.169 203.057C340.096 203.14 328.282 201.823 329.33 205.728C330.228 209.076 346.304 206.968 349.578 206.713C353.193 206.432 356.802 206.04 360.399 205.585C361.674 205.423 364.753 205.59 365.652 204.521C366.509 203.501 366.087 201.412 364.433 201.578Z" fill="#A7EFF8"/>
<path opacity="0.5" fill-rule="evenodd" clip-rule="evenodd" d="M315.709 219.361C315.548 219.429 315.548 219.429 315.709 219.361V219.361ZM317.198 219.341C318.959 219.285 318.582 218.356 320.338 218.84C321.149 219.063 321.232 218.732 321.86 219.507C323.085 221.017 321.931 224.307 320.723 225.524C316.25 230.031 310.883 219.541 317.198 219.341ZM317.198 214.918C304.954 215.33 310.077 234.244 320.734 230.383C325.135 228.788 327.902 221.605 325.313 217.568C324.054 215.604 322.448 215.255 320.338 215.119C319.849 215.087 319.232 215.799 318.927 215.767C318.2 215.69 318.268 214.878 317.198 214.918Z" fill="#A7EFF8"/>
<path opacity="0.5" fill-rule="evenodd" clip-rule="evenodd" d="M346.479 220.009C346.261 219.941 350.345 221.129 349.898 220.664C350.852 221.656 349.57 224.001 348.491 224.41C345.878 225.403 344.412 221.34 346.479 220.009ZM348.291 214.88C344.458 215.423 341.499 217.02 340.975 221.283C340.491 225.218 343.15 229.203 347.344 229.28C356.485 229.447 356.764 213.698 348.291 214.88Z" fill="#A7EFF8"/>
<path opacity="0.5" fill-rule="evenodd" clip-rule="evenodd" d="M390.023 220.181C390.559 227.169 383.313 220.773 390.023 220.181V220.181ZM386.914 212.705C386.28 213.788 386.82 214.938 387.776 215.568C379.229 217.374 381.165 230.236 389.863 228.336C394.286 227.369 395.099 222.718 394.44 218.878C394.126 217.052 389.576 208.154 386.914 212.705Z" fill="#A7EFF8"/>
<path opacity="0.5" fill-rule="evenodd" clip-rule="evenodd" d="M407.135 219.416C404.587 219.869 398.563 222.683 398.616 225.705C398.698 230.423 403.817 225.27 404.955 224.577C411.073 220.854 418.996 225.678 425.365 226.705C428.285 227.175 433.998 228.045 436.578 226.088C441.165 222.607 430.556 223.478 429.205 223.339C421.861 222.58 414.555 218.09 407.135 219.416Z" fill="#C1DEE2"/>
<path opacity="0.5" fill-rule="evenodd" clip-rule="evenodd" d="M507.481 186.246C507.479 191.073 507.235 196 508.124 200.77C508.394 202.214 508.606 204.979 510.129 205.728C511.659 206.481 513.143 205.635 513.523 204.067C513.966 202.242 512.994 199.511 512.895 197.596C512.76 194.979 512.751 192.358 512.75 189.738C512.749 187.846 513.371 184.802 511.138 183.828C509.477 183.104 507.481 184.45 507.481 186.246Z" fill="#89C5CC"/>
<path opacity="0.5" fill-rule="evenodd" clip-rule="evenodd" d="M583.793 178.611C567.8 180.217 551.577 180.55 535.526 181.387C528.107 181.774 519.14 181.281 512.15 184.153C510.853 184.686 506.204 187.654 509.978 188.863C511.154 189.24 512.349 187.973 513.315 187.548C514.924 186.842 516.786 186.623 518.502 186.347C533.087 184.005 548.342 184.413 563.077 183.319C566.852 183.038 570.63 182.749 574.397 182.379C577.089 182.114 582.747 180.174 585.231 181.166C589.476 182.862 589.376 193.879 589.46 197.668C589.504 199.628 587.602 206.662 591.383 205.949C594.409 205.378 593.313 198.07 593.077 196.071C592.459 190.832 591.403 177.84 583.793 178.611Z" fill="#89C5CC"/>
<path opacity="0.5" fill-rule="evenodd" clip-rule="evenodd" d="M589.691 205.695C575.8 206.949 561.588 205.718 547.639 206.211C540.328 206.471 533.023 206.882 525.711 207.124C522.549 207.229 519.383 207.233 516.219 207.255C514.705 207.266 507.818 208.183 512.079 211.184C513.965 212.512 519.977 211.442 522.142 211.416C525.393 211.378 528.642 211.243 531.891 211.115C539.417 210.821 546.937 210.413 554.467 210.21C561.669 210.015 568.875 209.973 576.077 209.778C579.661 209.681 583.294 209.571 586.845 209.048C587.647 208.929 590.25 208.836 590.807 207.942C591.333 207.097 590.963 205.572 589.691 205.695Z" fill="#89C5CC"/>
<path opacity="0.5" fill-rule="evenodd" clip-rule="evenodd" d="M521.417 195.265C521.342 195.442 521.342 195.442 521.417 195.265V195.265ZM527.432 193.436C527.652 193.529 527.652 193.529 527.432 193.436V193.436ZM527.151 193.386C530.393 196.69 525.407 200.634 522.37 197.409C519.147 193.987 525.064 193.397 527.151 193.386ZM523.712 188.386C512.546 190.373 516.499 205.256 526.929 203.105C531.507 202.161 534.126 197.548 532.55 193.117C531.934 191.386 530.592 189.486 528.723 188.941C527.792 188.669 526.967 189.097 526.08 188.997C525.233 188.901 524.763 188.197 523.712 188.386Z" fill="#89C5CC"/>
<path opacity="0.5" fill-rule="evenodd" clip-rule="evenodd" d="M566.449 192.575C559.715 192.596 552.98 192.882 546.247 193.01C544.182 193.049 538.874 192.125 538.866 195.38C538.857 198.859 544.769 197.574 546.737 197.527C553.415 197.368 560.11 197.075 566.762 196.439C568.442 196.279 574.259 196.556 574.253 194.271C574.247 191.85 567.805 192.575 566.449 192.575Z" fill="#89C5CC"/>
<path opacity="0.5" fill-rule="evenodd" clip-rule="evenodd" d="M582.532 215.28C565.878 215.727 549.249 215.883 532.608 216.735C526.384 217.054 520.168 217.291 513.935 217.291C512.734 217.291 510.317 216.826 509.187 217.582C506.121 219.633 509.613 221.393 511.611 221.504C525.281 222.262 539.149 220.374 552.812 219.948C560.81 219.698 568.81 219.625 576.804 219.218C578.984 219.107 581.166 218.978 583.343 218.809C584.595 218.712 587.906 218.978 588.918 218.246C593.336 215.047 584.021 215.24 582.532 215.28Z" fill="#89C5CC"/>
<path opacity="0.5" fill-rule="evenodd" clip-rule="evenodd" d="M506.121 223.423C505.964 227.741 505.948 231.984 506.513 236.278C506.735 237.967 506.837 239.885 508.818 240.314C510.616 240.704 511.528 239.343 511.901 237.835C512.81 234.151 512.01 228.85 511.999 225.024C511.995 223.132 511.993 221.014 509.655 220.586C507.871 220.26 506.189 221.549 506.121 223.423Z" fill="#89C5CC"/>
<path opacity="0.5" fill-rule="evenodd" clip-rule="evenodd" d="M600.184 233.833C573.225 235.253 546.302 236.493 519.324 237.634C517.22 237.723 500.876 237.545 506.59 243.245C508.355 245.005 512.902 243.813 515.184 243.701C518.614 243.532 522.046 243.403 525.476 243.229C539.075 242.537 552.709 242.35 566.298 241.573C573.776 241.146 581.237 240.477 588.676 239.606C592.214 239.192 596.607 239.235 599.921 237.848C601.626 237.134 603.465 233.658 600.184 233.833Z" fill="#89C5CC"/>
<path opacity="0.5" fill-rule="evenodd" clip-rule="evenodd" d="M584.683 211.929C582.633 213.971 583.687 217.999 583.842 220.523C584.054 223.996 584.312 227.471 584.746 230.925C585.028 233.169 584.879 236.661 586.076 238.599C587.477 240.868 590.564 240.617 591.831 238.424C592.952 236.485 592.385 232.405 592.355 230.256C592.315 227.285 592.13 224.308 591.954 221.343C591.806 218.864 592.368 214.892 591.005 212.77C589.619 210.614 586.604 210.019 584.683 211.929Z" fill="#89C5CC"/>
<path opacity="0.5" fill-rule="evenodd" clip-rule="evenodd" d="M523.064 227.775C522.824 227.96 522.824 227.96 523.064 227.775V227.775ZM527.853 227.175C532.32 228.073 525.096 233.29 522.813 229.71C522.456 229.15 522.271 228.463 522.843 227.977C523.366 227.533 523.694 228.318 524.188 228.107C525.038 227.743 526.946 227.141 527.853 227.175ZM527.236 222.892C524.186 223.134 519.992 223.322 518.482 226.38C516.454 230.487 519.923 234.509 523.936 235.134C527.798 235.735 533.564 233.596 533.873 229.092C534.122 225.461 530.668 222.614 527.236 222.892Z" fill="#89C5CC"/>
<path opacity="0.5" fill-rule="evenodd" clip-rule="evenodd" d="M552.703 225.064C549.545 225.115 543.338 224.181 540.587 225.721C537.865 227.244 539.079 229.956 541.562 230.604C543.204 231.033 545.886 230.341 547.596 230.272C549.844 230.18 552.094 230.16 554.343 230.129C558.126 230.078 561.908 230.121 565.691 230.121C569.556 230.121 573.486 230.227 577.344 229.943C582.224 229.584 582.093 225.929 577.32 225.472C569.211 224.696 560.838 224.936 552.703 225.064Z" fill="#89C5CC"/>
<path opacity="0.5" fill-rule="evenodd" clip-rule="evenodd" d="M544.637 265.997C544.637 267.733 546.177 265.997 546.166 265.997C546.177 265.997 544.637 264.26 544.637 265.997Z" fill="#89C5CC"/>
<path opacity="0.5" fill-rule="evenodd" clip-rule="evenodd" d="M509.786 252.018C509.885 257.066 509.95 262.118 510.166 267.161C510.234 268.756 509.777 271.87 511.711 272.683C513.862 273.588 514.531 271.332 514.779 269.804C515.564 264.961 514.794 259.432 514.719 254.532C514.693 252.887 515.049 250.597 513.181 249.776C511.657 249.107 509.755 250.35 509.786 252.018Z" fill="#89C5CC"/>
<path opacity="0.5" fill-rule="evenodd" clip-rule="evenodd" d="M592.789 252.098C592.917 252.398 592.917 252.398 592.789 252.098V252.098ZM592.969 252.046C593.073 252.089 593.491 252.265 592.969 252.046V252.046ZM552.195 247.967C544.446 248.088 536.693 248.18 528.949 248.512C525.644 248.654 522.301 248.768 519.008 249.08C516.675 249.3 510.88 249.392 509.367 251.298C506.245 255.233 512.866 254.16 514.292 253.841C516.887 253.259 519.536 253.072 522.188 252.932C527.941 252.629 533.696 252.467 539.456 252.351C555.077 252.037 570.709 252.084 586.332 252.014C587.845 252.007 590.579 251.399 591.976 252.011C593.375 252.624 593.296 254.132 593.442 255.882C593.635 258.211 592.099 262.65 593.269 264.609C595.085 267.648 597.726 265.068 598.13 262.852C598.687 259.791 597.803 256.115 596.938 253.189C595.717 249.06 594.022 248.896 590.028 248.573C585.363 248.196 580.714 247.967 576.033 247.924C568.089 247.851 560.138 247.843 552.195 247.967Z" fill="#89C5CC"/>
<path opacity="0.5" fill-rule="evenodd" clip-rule="evenodd" d="M582.842 268.831C566.035 270.783 548.751 269.633 531.855 269.702C527.746 269.719 523.634 269.752 519.529 269.951C517.361 270.056 512.222 269.458 510.736 271.13C507.606 274.656 513.245 275.169 515.304 275.023C519.467 274.727 523.64 274.592 527.814 274.56C542.514 274.446 557.298 275.132 571.987 274.407C578.141 274.103 584.157 273.051 590.197 271.874C591.535 271.613 600.695 269.872 595.472 267.785C592.385 266.551 586.084 268.453 582.842 268.831Z" fill="#89C5CC"/>
<path opacity="0.5" fill-rule="evenodd" clip-rule="evenodd" d="M533.772 262.377C533.655 262.528 533.655 262.528 533.772 262.377V262.377ZM533.659 262.351C533.619 262.459 533.496 262.726 533.659 262.351V262.351ZM532.599 260.984C532.623 261.015 532.723 261.143 532.599 260.984V260.984ZM532.558 260.974C532.963 261.457 533.235 261.996 533.375 262.59C529.893 263.533 528.551 260.716 532.558 260.974ZM532.338 260.842C532.339 260.842 532.829 261.048 532.338 260.842V260.842ZM526.618 256.645C524.364 259.451 522.504 262.722 525.313 265.928C527.826 268.794 532.88 269.164 536.068 267.25C539.353 265.278 539.069 261.128 536.778 258.418C535.303 256.674 534.107 256.722 531.967 256.438C530.509 256.244 527.854 255.111 526.618 256.645Z" fill="#89C5CC"/>
<path opacity="0.5" fill-rule="evenodd" clip-rule="evenodd" d="M549.914 261.839C549.914 265.576 566.05 263.967 568.921 263.963C571.325 263.96 585.865 265.286 584.822 261.441C583.964 258.281 569.642 259.851 566.592 259.847C563.955 259.843 549.914 258.033 549.914 261.839Z" fill="#89C5CC"/>
<path opacity="0.5" fill-rule="evenodd" clip-rule="evenodd" d="M359.255 296.852C367.336 298.026 375.743 301.826 375.672 311.233C375.613 319.141 368.979 327.559 360.462 327.086C352.797 326.661 345.579 318.279 344.619 311.096C344.122 307.374 345.052 303.367 347.242 300.305C350.11 296.294 354.662 296.3 359.255 296.852ZM355.438 291.74C349.593 291.771 345.317 293.886 341.699 298.349C340.402 299.949 338.893 301.671 337.906 303.484C336.983 305.177 337.145 309.483 340.31 307.465C339.531 315.801 344.403 323.891 351.406 328.163C359.019 332.806 367.624 331.901 373.96 325.393C379.76 319.435 381.801 309.372 377.558 302.004C373.317 294.64 363.491 291.661 355.438 291.74Z" fill="#EEF5F6"/>
<path opacity="0.5" fill-rule="evenodd" clip-rule="evenodd" d="M372.965 289.506C369.222 292.248 365.806 295.86 362.968 299.523C360.194 303.103 358.36 307.574 355.028 310.696C353.345 308.863 351.374 303.913 348.017 305.877C345.231 307.506 347.025 310.309 348.382 312.149C351.885 316.9 355.775 318.813 360.268 314.118C364.349 309.855 366.666 304.167 370.481 299.658C372.155 297.68 374.74 295.717 376.073 293.532C377.281 291.553 375.787 287.431 372.965 289.506Z" fill="#EEF5F6"/>
<path opacity="0.5" fill-rule="evenodd" clip-rule="evenodd" d="M445.839 141.191C440.617 141.292 427.723 143.191 425.806 149.368C424.351 154.057 428.673 153.027 430.99 151.321C434.124 149.014 436.872 147.633 440.755 146.932C455.548 144.256 469.761 153.851 484.411 155.064C489.961 155.524 496.658 155.823 501.957 154.026C505.73 152.746 506.223 149.956 501.917 149.531C498.258 149.17 494.209 150.307 490.458 150.275C474.936 150.142 461.138 140.899 445.839 141.191Z" fill="#C1DEE2"/>
</svg>
