<svg width="172" height="60" viewBox="0 0 172 60" fill="none" xmlns="http://www.w3.org/2000/svg">
<path d="M18.6153 48.9848C16.1888 46.5235 15.0254 43.848 15.1527 41.0063C15.8308 26.0411 51.4477 10.7034 94.5475 6.81763C101.143 6.22226 107.689 5.92091 114.003 5.92091C125.784 5.92091 136.824 6.98566 145.931 8.99883L146.08 8.37788C136.414 5.85822 124.316 4.52623 111.1 4.52623C104.84 4.52623 98.3504 4.82514 91.8111 5.41504C48.9299 9.28068 13.4877 24.7012 12.8059 39.79C12.6208 43.9265 14.9737 47.6686 19.7963 50.9121L18.6147 48.9848H18.6153Z" fill="white"/>
<path d="M108.464 0.859142C101.519 0.831285 94.209 1.14127 86.6603 1.82172C40.2278 6.01 1.7599 22.6633 1.02452 38.8914C0.663025 46.8604 9.46342 53.2831 24.0089 57.2619L21.3047 54.4065C13.1931 50.5883 8.61033 45.613 8.87088 39.82C9.60529 23.5904 48.0752 6.93469 94.5116 2.74932C108.489 1.48928 121.628 1.49946 133.161 2.56967C125.709 1.48758 117.386 0.89333 108.464 0.857535L108.464 0.859142ZM56.1686 22.2467C43.9793 22.2467 34.1855 27.8327 34.1855 36.3368C34.1855 44.7986 43.9793 50.4679 56.1686 50.4679C61.9714 50.4679 67.2944 48.9888 71.1802 46.6061L66.3358 43.1561C64.207 44.471 60.9602 45.867 57.0208 45.867C51.3788 45.867 47.7588 42.9914 47.7588 36.3372C47.7588 29.5999 51.3786 26.7256 57.0208 26.7256C60.9601 26.7256 64.2071 28.2039 66.3358 29.5183L71.1802 26.0674C67.2945 23.7261 61.9714 22.2473 56.1686 22.2473V22.2467ZM146.246 22.2876C136.771 22.2876 129.265 25.369 129.265 31.6128C129.265 36.6651 134.749 38.637 142.093 40.2392C147.045 41.3076 151.888 41.8809 151.888 44.2228C151.888 45.4969 149.865 46.2365 145.767 46.2365C141.136 46.2365 135.919 43.9775 133.471 42.0465L128.52 45.2501C130.756 47.3449 136.558 50.4675 145.767 50.4675C156.837 50.4675 163.6 46.8935 163.6 41.3073C163.6 36.1723 157.904 33.7903 150.292 32.1052C144.169 30.7495 140.337 30.5438 140.337 28.6134C140.337 27.3813 142.04 26.4362 146.405 26.4362C149.12 26.4362 154.071 27.5044 156.892 29.4762L161.679 26.4372C157.741 23.6442 153.111 22.2882 146.244 22.2882L146.246 22.2876ZM74.6215 23.1094V49.6047H82.7988V33.0502L93.5233 49.6047H101.755L111.179 33.0502V49.6047H123.852V23.1094H109.879L100.727 39.0478L90.4897 23.1094H74.621H74.6215ZM53.5144 54.8176C52.7535 54.8176 52.0762 55.304 52.0762 56.1854C52.0762 57.6367 53.9806 57.3807 53.9806 58.3456C53.9806 58.7048 53.7309 58.9981 53.2329 58.9981C52.7148 58.9981 52.4211 58.6792 52.3511 58.3085H52.2294C52.1849 58.5965 52.1273 58.8252 52.0439 59.1199C52.2296 59.2605 52.6129 59.3948 53.0731 59.3948C54.0891 59.3948 54.7662 58.807 54.7662 57.9499C54.7662 56.4992 52.8239 56.7354 52.8239 55.7888C52.8239 55.482 53.0982 55.2153 53.4878 55.2153C53.878 55.2153 54.1281 55.4001 54.2621 55.7641H54.3581C54.4409 55.4823 54.4856 55.3294 54.5617 55.1316C54.3188 54.9398 53.9741 54.8176 53.5144 54.8176ZM145.559 54.8176C144.799 54.8176 144.12 55.304 144.12 56.1854C144.12 57.6367 146.025 57.3807 146.025 58.3456C146.025 58.7048 145.776 58.9981 145.279 58.9981C144.76 58.9981 144.466 58.6792 144.395 58.3085H144.274C144.23 58.5965 144.172 58.8252 144.088 59.1199C144.273 59.2605 144.657 59.3948 145.118 59.3948C146.134 59.3948 146.812 58.807 146.812 57.9499C146.812 56.4992 144.869 56.7354 144.869 55.7888C144.869 55.482 145.143 55.2153 145.534 55.2153C145.923 55.2153 146.173 55.4001 146.307 55.7641H146.403C146.486 55.4823 146.531 55.3294 146.608 55.1316C146.365 54.9398 146.019 54.8176 145.559 54.8176ZM169.596 54.8176C168.835 54.8176 168.157 55.304 168.157 56.1854C168.157 57.6367 170.062 57.3807 170.062 58.3456C170.062 58.7048 169.812 58.9981 169.314 58.9981C168.796 58.9981 168.502 58.6792 168.431 58.3085H168.311C168.266 58.5965 168.209 58.8252 168.125 59.1199C168.31 59.2605 168.694 59.3948 169.155 59.3948C170.171 59.3948 170.848 58.807 170.848 57.9499C170.848 56.4992 168.905 56.7354 168.905 55.7888C168.905 55.482 169.179 55.2153 169.569 55.2153C169.959 55.2153 170.209 55.4001 170.343 55.7641H170.438C170.522 55.4823 170.567 55.3294 170.644 55.1316C170.401 54.9398 170.055 54.8176 169.596 54.8176ZM31.4797 54.8186C30.1374 54.8186 28.9428 55.4961 28.9428 57.2603C28.9428 58.4681 29.8179 59.3948 31.3008 59.3948C31.825 59.3948 32.2664 59.2922 32.6049 59.1132C32.6238 58.9337 32.6751 58.7497 32.7457 58.5701L32.6629 58.5188C32.3878 58.8067 31.9144 58.9982 31.5053 58.9982C30.7699 58.9982 29.9901 58.4801 29.9901 57.1633C29.9901 55.8082 30.7646 55.2143 31.4482 55.2143C31.9024 55.2143 32.2273 55.3868 32.5469 55.7831H32.6363C32.6558 55.5664 32.7003 55.3416 32.7837 55.1316C32.4897 54.952 31.9271 54.8186 31.4797 54.8186ZM62.6585 54.8186C61.1756 54.8186 60.2035 55.8467 60.2035 57.1062C60.2035 58.7042 61.2896 59.3948 62.6386 59.3948C64.0637 59.3948 65.0803 58.3652 65.0803 57.0996C65.0803 55.5594 64.013 54.8186 62.6585 54.8186ZM89.7314 54.8186C88.3891 54.8186 87.1946 55.4961 87.1946 57.2603C87.1946 58.4681 88.0696 59.3948 89.5526 59.3948C90.0767 59.3948 90.5185 59.2922 90.8576 59.1132C90.8759 58.9337 90.9281 58.7497 90.9975 58.5701L90.9147 58.5188C90.6395 58.8067 90.1668 58.9982 89.7571 58.9982C89.0223 58.9982 88.2428 58.4801 88.2428 57.1633C88.2428 55.8082 89.0158 55.2143 89.7 55.2143C90.1535 55.2143 90.479 55.3868 90.7986 55.7831H90.8881C90.9069 55.5664 90.953 55.3416 91.0364 55.1316C90.7418 54.952 90.1789 54.8186 89.7314 54.8186ZM129.361 54.8186C128.018 54.8186 126.823 55.4961 126.823 57.2603C126.823 58.4681 127.699 59.3948 129.182 59.3948C129.706 59.3948 130.147 59.2922 130.486 59.1132C130.504 58.9337 130.556 58.7497 130.627 58.5701L130.543 58.5188C130.268 58.8067 129.796 58.9982 129.387 58.9982C128.651 58.9982 127.871 58.4801 127.871 57.1633C127.871 55.8082 128.644 55.2143 129.329 55.2143C129.782 55.2143 130.109 55.3868 130.428 55.7831H130.518C130.536 55.5664 130.582 55.3416 130.665 55.1316C130.37 54.952 129.808 54.8186 129.361 54.8186ZM163.191 54.8186C161.848 54.8186 160.653 55.4961 160.653 57.2603C160.653 58.4681 161.529 59.3948 163.011 59.3948C163.535 59.3948 163.976 59.2922 164.315 59.1132C164.335 58.9337 164.386 58.7497 164.456 58.5701L164.373 58.5188C164.098 58.8067 163.625 58.9982 163.216 58.9982C162.48 58.9982 161.701 58.4801 161.701 57.1633C161.701 55.8082 162.474 55.2143 163.159 55.2143C163.612 55.2143 163.938 55.3868 164.257 55.7831H164.347C164.367 55.5664 164.411 55.3416 164.494 55.1316C164.2 54.952 163.638 54.8186 163.191 54.8186ZM92.9934 54.869C92.4437 56.3264 91.4848 58.6019 91.1719 59.3111C91.2936 59.2983 91.3886 59.2797 91.4915 59.2797C91.5932 59.2797 91.6895 59.2983 91.7911 59.3111C91.9129 58.8697 92.0548 58.4353 92.2277 58.0013C92.4505 57.9946 92.6679 57.989 92.8907 57.989C93.1665 57.989 93.4345 57.9946 93.7096 58.0013C93.8691 58.4354 94.0165 58.8765 94.151 59.3111C94.3294 59.2983 94.5145 59.2797 94.6941 59.2797C94.8731 59.2797 95.0517 59.2983 95.2563 59.3111C94.7705 58.2695 94.0228 56.3264 93.4804 54.869C93.397 54.8818 93.3197 54.9014 93.2369 54.9014C93.1535 54.9014 93.0762 54.8818 92.9934 54.869ZM132.622 54.869C132.072 56.3264 131.114 58.6019 130.801 59.3111C130.922 59.2983 131.018 59.2797 131.121 59.2797C131.223 59.2797 131.318 59.2983 131.42 59.3111C131.542 58.8697 131.683 58.4353 131.854 58.0013C132.078 57.9946 132.296 57.989 132.519 57.989C132.795 57.989 133.063 57.9946 133.337 58.0013C133.497 58.4354 133.645 58.8765 133.779 59.3111C133.957 59.2983 134.143 59.2797 134.322 59.2797C134.501 59.2797 134.68 59.2983 134.885 59.3111C134.399 58.2695 133.651 56.3264 133.108 54.869C133.025 54.8818 132.948 54.9014 132.864 54.9014C132.782 54.9014 132.705 54.8818 132.622 54.869ZM33.4423 54.9014C33.4807 55.4639 33.4937 55.956 33.4937 56.6725V57.5409C33.4937 58.2574 33.4807 58.7492 33.4423 59.3111C33.583 59.2989 33.7552 59.2797 34.7968 59.2797C35.3855 59.2797 35.6862 59.3056 35.9163 59.3111C35.9036 59.235 35.8907 59.1707 35.8907 59.0362C35.8907 58.9017 35.9036 58.8378 35.9163 58.7489C35.4239 58.8068 34.9316 58.8317 34.4524 58.8317C34.4397 58.5766 34.4334 58.3021 34.4334 58.0336C34.4334 57.7585 34.4401 57.4829 34.4401 57.2156C34.9259 57.2156 35.4048 57.2337 35.8906 57.2727C35.8718 57.1381 35.8592 57.0811 35.8592 57.0111C35.8592 56.9271 35.8651 56.8702 35.8906 56.7229C35.4048 56.7484 34.9965 56.7605 34.4401 56.7733C34.4401 56.307 34.4398 55.8477 34.4715 55.3807C34.6632 55.3807 35.4305 55.4251 35.9163 55.4568C35.9035 55.3613 35.8906 55.3044 35.8906 55.1705C35.8906 55.0549 35.9035 54.9786 35.9163 54.9013C35.744 54.9208 35.2073 54.9327 34.5808 54.9327C34.2034 54.9327 33.8198 54.908 33.4423 54.9014ZM36.7734 54.9014C36.7795 55.2082 36.8048 55.5978 36.8048 56.1731C36.8048 57.4771 36.7096 59.1266 36.6773 59.3111C36.7735 59.2928 36.8757 59.2797 36.9712 59.2797C37.0674 59.2797 37.1695 59.2928 37.2718 59.3111C37.2523 59.0749 37.2338 58.7177 37.2338 57.695C37.2338 57.2159 37.2333 56.6845 37.2461 56.2054C38.2305 57.2409 39.1644 58.2756 40.0398 59.3111C40.1165 59.2928 40.1995 59.2797 40.289 59.2797C40.3785 59.2797 40.4611 59.2928 40.5505 59.3111C40.5505 57.6114 40.551 56.7612 40.6533 54.9014C40.5571 54.9208 40.4612 54.9327 40.3651 54.9327C40.2695 54.9327 40.174 54.9208 40.0778 54.9014C40.1229 55.1893 40.1225 56.927 40.1225 57.9442C39.1826 56.9269 38.2693 55.9179 37.3488 54.9014C37.2527 54.9208 37.1568 54.9327 37.0606 54.9327C36.9651 54.9327 36.869 54.9208 36.7734 54.9014ZM41.2868 54.9014C41.3057 54.9975 41.3191 55.0861 41.3191 55.1829C41.3191 55.2779 41.3057 55.3679 41.2868 55.4635C41.6703 55.4185 42.2068 55.3808 42.4558 55.3808C42.4753 55.4709 42.4758 55.701 42.4758 55.9438V57.5409C42.4758 58.2574 42.4628 58.7492 42.4244 59.3111C42.565 59.2989 42.7373 59.2797 42.9485 59.2797C43.1598 59.2797 43.332 59.299 43.4727 59.3111C43.4343 58.7492 43.4213 58.2574 43.4213 57.5409V55.9438C43.4213 55.7009 43.4218 55.4708 43.4346 55.3808C43.6903 55.3808 44.2271 55.4185 44.5722 55.4635C44.5533 55.3679 44.5399 55.2779 44.5399 55.1829C44.5399 55.0861 44.5533 54.9975 44.5722 54.9014C44.0292 54.9202 43.7411 54.9327 42.9485 54.9327C42.1559 54.9327 41.8688 54.9202 41.2868 54.9014ZM45.1667 54.9014C45.2051 55.4639 45.2181 55.956 45.2181 56.6725V57.5409C45.2181 58.2574 45.2051 58.7492 45.1667 59.3111C45.3073 59.2989 45.4806 59.2797 46.5221 59.2797C47.1102 59.2797 47.4106 59.3056 47.6408 59.3111C47.6274 59.235 47.6151 59.1707 47.6151 59.0362C47.6151 58.9017 47.6274 58.8378 47.6408 58.7489C47.1477 58.8068 46.656 58.8317 46.1769 58.8317C46.1641 58.5766 46.1578 58.3021 46.1578 58.0336C46.1578 57.7585 46.1645 57.4829 46.1645 57.2156C46.6503 57.2156 47.1293 57.2337 47.6151 57.2727C47.5956 57.1381 47.5837 57.0811 47.5837 57.0111C47.5837 56.9271 47.5901 56.8702 47.6151 56.7229C47.1293 56.7484 46.7203 56.7605 46.1645 56.7733C46.1645 56.307 46.1642 55.8477 46.1959 55.3807C46.3876 55.3807 47.1543 55.4251 47.6407 55.4568C47.6273 55.3613 47.6151 55.3044 47.6151 55.1705C47.6151 55.0549 47.6273 54.9786 47.6407 54.9013C47.4679 54.9208 46.9317 54.9327 46.3053 54.9327C45.9278 54.9327 45.5441 54.908 45.1667 54.9014ZM48.4217 54.9014C48.4594 55.4639 48.4721 55.956 48.4721 56.6725V57.5409C48.4721 58.2574 48.4594 58.7492 48.4217 59.3111C48.5617 59.2989 48.7342 59.2797 48.9448 59.2797C49.1561 59.2797 49.3289 59.299 49.4689 59.3111C49.4306 58.7492 49.4176 58.2574 49.4176 57.5409V57.2793H49.4756L50.6199 59.3111C50.8116 59.2989 51.0093 59.2797 51.2011 59.2797C51.3928 59.2797 51.5848 59.299 51.7765 59.3111C51.3096 58.5891 50.8245 57.8606 50.4154 57.1386C51.0485 56.9785 51.4056 56.5823 51.4056 55.962C51.4056 55.5851 51.2456 55.3039 50.9899 55.1183C50.7665 54.9588 50.5305 54.9014 49.8846 54.9014C49.45 54.9014 49.1756 54.9328 48.9449 54.9328C48.7342 54.9328 48.5617 54.9141 48.4217 54.9014ZM57.2429 54.9014C57.2812 55.4639 57.2942 55.956 57.2942 56.6725V57.5409C57.2942 58.2574 57.2812 58.7492 57.2429 59.3111C57.3835 59.2989 57.5564 59.2797 57.767 59.2797C57.9776 59.2797 58.1505 59.299 58.2911 59.3111C58.2528 58.7492 58.2407 58.2574 58.2407 57.5409V57.2156C58.7265 57.2156 59.2055 57.2337 59.6913 57.2727C59.6718 57.1381 59.6589 57.0811 59.6589 57.0111C59.6589 56.9271 59.6663 56.8702 59.6913 56.7229C59.2055 56.7485 58.7971 56.7605 58.2407 56.7733C58.2407 56.307 58.2405 55.8477 58.2721 55.3807C58.4639 55.3807 59.2306 55.4252 59.717 55.4568C59.7036 55.3613 59.6913 55.3045 59.6913 55.1705C59.6913 55.0549 59.7036 54.9786 59.717 54.9013C59.5441 54.9208 59.007 54.9327 58.3806 54.9327C58.0032 54.9327 57.6203 54.908 57.2429 54.9014ZM65.8225 54.9014C65.8609 55.4639 65.8739 55.956 65.8739 56.6725V57.5409C65.8739 58.2574 65.8609 58.7492 65.8225 59.3111C65.9632 59.2989 66.136 59.2797 66.3467 59.2797C66.5573 59.2797 66.7298 59.299 66.8698 59.3111C66.8321 58.7492 66.8194 58.2574 66.8194 57.5409V57.2793H66.8765L68.0217 59.3111C68.2135 59.2989 68.4111 59.2797 68.6029 59.2797C68.7947 59.2797 68.9866 59.299 69.1784 59.3111C68.7121 58.5891 68.2248 57.8606 67.8163 57.1386C68.4488 56.9785 68.8074 56.5823 68.8074 55.962C68.8074 55.5851 68.6474 55.3039 68.3917 55.1183C68.1677 54.9588 67.9308 54.9014 67.2855 54.9014C66.8508 54.9014 66.5762 54.9328 66.3467 54.9328C66.1361 54.9328 65.9632 54.9141 65.8225 54.9014ZM71.8702 54.9014C71.6907 56.3715 71.4799 57.8421 71.212 59.3111C71.3143 59.2928 71.4093 59.2797 71.5116 59.2797C71.6078 59.2797 71.7099 59.2928 71.8122 59.3111C71.8761 58.3462 71.9335 57.3748 72.0681 56.41H72.0814C72.5605 57.3748 73.0201 58.3462 73.4748 59.3111C73.5132 59.305 73.5576 59.2987 73.5966 59.2987C73.6343 59.2987 73.6784 59.305 73.7174 59.3111C74.1776 58.3206 74.6508 57.3367 75.1299 56.3462H75.1432C75.2449 57.3367 75.354 58.4229 75.3991 59.3111C75.5768 59.2928 75.7551 59.2797 75.9279 59.2797C76.1008 59.2797 76.2737 59.2928 76.4454 59.3111C76.2859 58.4095 76.0627 56.3715 75.8965 54.9014C75.807 54.9202 75.7174 54.9327 75.6273 54.9327C75.5384 54.9327 75.4423 54.9202 75.3534 54.9014C74.8925 55.9174 74.3685 57.0041 73.8638 57.9556C73.3969 57.0553 72.8545 55.9174 72.3876 54.9014C72.3042 54.9202 72.2145 54.9327 72.1317 54.9327C72.0422 54.9327 71.9591 54.9202 71.8702 54.9014ZM77.1314 54.9014C77.1704 55.4639 77.1828 55.956 77.1828 56.6725V57.5409C77.1828 58.2574 77.1703 58.7492 77.1314 59.3111C77.272 59.2989 77.4443 59.2797 78.4859 59.2797C79.0739 59.2797 79.3747 59.3056 79.6054 59.3111C79.5926 59.235 79.5797 59.1707 79.5797 59.0362C79.5797 58.9017 79.5927 58.8378 79.6054 58.7489C79.1129 58.8068 78.6203 58.8317 78.1406 58.8317C78.1278 58.5766 78.1225 58.3021 78.1225 58.0336C78.1225 57.7585 78.1282 57.4829 78.1282 57.2156C78.614 57.2156 79.094 57.2337 79.5797 57.2727C79.5603 57.1381 79.5474 57.0811 79.5474 57.0111C79.5474 56.9271 79.5542 56.8702 79.5797 56.7229C79.094 56.7484 78.6846 56.7605 78.1282 56.7733C78.1282 56.307 78.1283 55.8477 78.1606 55.3807C78.3523 55.3807 79.1196 55.4251 79.6054 55.4568C79.5926 55.3613 79.5797 55.3044 79.5797 55.1705C79.5797 55.0549 79.5927 54.9786 79.6054 54.9013C79.4325 54.9208 78.896 54.9327 78.269 54.9327C77.8922 54.9327 77.5088 54.908 77.1314 54.9014ZM80.3854 54.9014C80.4238 55.4644 80.4368 55.955 80.4368 56.6715V57.541C80.4368 58.2569 80.4238 58.7492 80.3854 59.3111C80.526 59.2983 80.6992 59.2798 80.9105 59.2798C81.2422 59.2798 81.6762 59.3111 82.3154 59.3111C83.5164 59.3111 84.5269 58.3841 84.5269 56.9779C84.5269 55.3677 83.5241 54.9014 82.0662 54.9014C81.5037 54.9014 81.1911 54.9337 80.9105 54.9337C80.6993 54.9337 80.526 54.9141 80.3854 54.9014ZM85.3841 54.9014C85.423 55.4639 85.4354 55.956 85.4354 56.6725V57.5409C85.4354 58.2574 85.423 58.7492 85.3841 59.3111C85.5247 59.2989 85.6973 59.2797 85.9091 59.2797C86.1197 59.2797 86.2917 59.299 86.4323 59.3111C86.3952 58.7492 86.3819 58.2574 86.3819 57.5409V56.6725C86.3819 55.956 86.3951 55.4639 86.4323 54.9014C86.2916 54.9141 86.1197 54.9327 85.9091 54.9327C85.6973 54.9327 85.5247 54.9141 85.3841 54.9014ZM95.8626 54.9014C95.9003 55.4639 95.9139 55.956 95.9139 56.6725V57.5409C95.9139 58.2574 95.9003 58.7492 95.8626 59.3111C96.0032 59.2989 96.1754 59.2797 96.3867 59.2797C96.5985 59.2797 96.7705 59.299 96.9117 59.3111C96.8728 58.7492 96.8604 58.2574 96.8604 57.5409V57.2793H96.9175L98.0617 59.3111C98.2529 59.2989 98.4511 59.2797 98.6429 59.2797C98.8347 59.2797 99.0272 59.299 99.2184 59.3111C98.7521 58.5891 98.2663 57.8606 97.8572 57.1386C98.4898 56.9785 98.8484 56.5823 98.8484 55.962C98.8484 55.5851 98.6884 55.3039 98.4327 55.1183C98.2087 54.9588 97.9727 54.9014 97.3275 54.9014C96.8922 54.9014 96.6169 54.9328 96.3868 54.9328C96.1755 54.9328 96.0032 54.9141 95.8626 54.9014ZM99.7121 54.9014C99.7498 55.4639 99.7634 55.956 99.7634 56.6725V57.5409C99.7634 58.2574 99.7498 58.7492 99.7121 59.3111C99.8521 59.2989 100.025 59.2797 101.067 59.2797C101.654 59.2797 101.955 59.3056 102.184 59.3111C102.172 59.235 102.159 59.1707 102.159 59.0362C102.159 58.9017 102.172 58.8378 102.184 58.7489C101.692 58.8068 101.2 58.8317 100.721 58.8317C100.709 58.5766 100.702 58.3021 100.702 58.0336C100.702 57.7585 100.709 57.4829 100.709 57.2156C101.194 57.2156 101.674 57.2337 102.159 57.2727C102.14 57.1381 102.127 57.0811 102.127 57.0111C102.127 56.9271 102.133 56.8702 102.159 56.7229C101.674 56.7484 101.265 56.7605 100.709 56.7733C100.709 56.307 100.709 55.8477 100.74 55.3807C100.932 55.3807 101.699 55.4251 102.184 55.4568C102.172 55.3613 102.159 55.3044 102.159 55.1705C102.159 55.0549 102.172 54.9786 102.184 54.9013C102.012 54.9208 101.476 54.9327 100.849 54.9327C100.472 54.9327 100.088 54.908 99.7121 54.9014ZM111.499 54.9014C111.32 56.3715 111.11 57.8421 110.841 59.3111C110.943 59.2928 111.038 59.2797 111.141 59.2797C111.237 59.2797 111.338 59.2928 111.441 59.3111C111.506 58.3462 111.563 57.3748 111.697 56.41H111.71C112.19 57.3748 112.65 58.3462 113.104 59.3111C113.142 59.305 113.187 59.2987 113.226 59.2987C113.264 59.2987 113.308 59.305 113.347 59.3111C113.806 58.3206 114.28 57.3367 114.759 56.3462H114.771C114.874 57.3367 114.983 58.4229 115.028 59.3111C115.207 59.2928 115.385 59.2797 115.558 59.2797C115.731 59.2797 115.903 59.2928 116.076 59.3111C115.916 58.4095 115.692 56.3715 115.526 54.9014C115.436 54.9202 115.347 54.9327 115.257 54.9327C115.168 54.9327 115.072 54.9202 114.982 54.9014C114.521 55.9174 113.998 57.0041 113.493 57.9556C113.027 57.0553 112.484 55.9174 112.017 54.9014C111.934 54.9202 111.845 54.9327 111.761 54.9327C111.672 54.9327 111.589 54.9202 111.499 54.9014ZM116.76 54.9014C116.799 55.4639 116.812 55.956 116.812 56.6725V57.5409C116.812 58.2574 116.799 58.7492 116.76 59.3111C116.901 59.2989 117.074 59.2797 118.116 59.2797C118.705 59.2797 119.004 59.3056 119.234 59.3111C119.222 59.235 119.21 59.1707 119.21 59.0362C119.21 58.9017 119.222 58.8378 119.234 58.7489C118.742 58.8068 118.25 58.8317 117.771 58.8317C117.758 58.5766 117.751 58.3021 117.751 58.0336C117.751 57.7585 117.758 57.4829 117.758 57.2156C118.244 57.2156 118.724 57.2337 119.21 57.2727C119.19 57.1381 119.177 57.0811 119.177 57.0111C119.177 56.9271 119.184 56.8702 119.21 56.7229C118.724 56.7484 118.314 56.7605 117.758 56.7733C117.758 56.307 117.758 55.8477 117.79 55.3807C117.982 55.3807 118.749 55.4251 119.234 55.4568C119.222 55.3613 119.21 55.3044 119.21 55.1705C119.21 55.0549 119.222 54.9786 119.234 54.9013C119.062 54.9208 118.525 54.9327 117.898 54.9327C117.521 54.9327 117.138 54.908 116.76 54.9014ZM120.014 54.9014C120.053 55.4644 120.066 55.955 120.066 56.6715V57.541C120.066 58.2569 120.053 58.7492 120.014 59.3111C120.155 59.2983 120.328 59.2798 120.538 59.2798C120.871 59.2798 121.307 59.3111 121.945 59.3111C123.147 59.3111 124.157 58.3841 124.157 56.9779C124.157 55.3677 123.153 54.9014 121.696 54.9014C121.134 54.9014 120.82 54.9337 120.538 54.9337C120.328 54.9337 120.155 54.9141 120.014 54.9014ZM125.014 54.9014C125.053 55.4639 125.065 55.956 125.065 56.6725V57.5409C125.065 58.2574 125.053 58.7492 125.014 59.3111C125.155 59.2989 125.328 59.2797 125.539 59.2797C125.749 59.2797 125.922 59.299 126.062 59.3111C126.023 58.7492 126.011 58.2574 126.011 57.5409V56.6725C126.011 55.956 126.023 55.4639 126.062 54.9014C125.922 54.9141 125.749 54.9327 125.539 54.9327C125.328 54.9327 125.155 54.9141 125.014 54.9014ZM135.517 54.9014C135.556 55.4639 135.568 55.956 135.568 56.6725V57.5409C135.568 58.2574 135.556 58.7492 135.517 59.3111C135.657 59.2989 135.829 59.2797 136.041 59.2797C136.252 59.2797 136.424 59.299 136.565 59.3111C136.527 58.7492 136.513 58.2574 136.513 57.5409V56.6725C136.513 55.956 136.527 55.4639 136.565 54.9014C136.424 54.9141 136.252 54.9327 136.041 54.9327C135.829 54.9327 135.657 54.9141 135.517 54.9014ZM137.619 54.9014C137.658 55.4644 137.671 55.955 137.671 56.6715V57.541C137.671 58.2569 137.658 58.7492 137.619 59.3111C137.76 59.2983 137.932 59.2798 138.143 59.2798C138.476 59.2798 138.911 59.3111 139.55 59.3111C140.752 59.3111 141.761 58.3841 141.761 56.9779C141.761 55.3677 140.759 54.9014 139.301 54.9014C138.738 54.9014 138.425 54.9337 138.143 54.9337C137.932 54.9337 137.76 54.9141 137.619 54.9014ZM147.51 54.9014C147.548 55.4639 147.561 55.956 147.561 56.6725V57.5409C147.561 58.2574 147.548 58.7492 147.51 59.3111C147.65 59.2989 147.823 59.2797 148.864 59.2797C149.452 59.2797 149.753 59.3056 149.983 59.3111C149.97 59.235 149.958 59.1707 149.958 59.0362C149.958 58.9017 149.97 58.8378 149.983 58.7489C149.49 58.8068 148.998 58.8317 148.52 58.8317C148.506 58.5766 148.5 58.3021 148.5 58.0336C148.5 57.7585 148.506 57.4829 148.506 57.2156C148.992 57.2156 149.472 57.2337 149.958 57.2727C149.939 57.1381 149.926 57.0811 149.926 57.0111C149.926 56.9271 149.932 56.8702 149.958 56.7229C149.472 56.7484 149.062 56.7605 148.506 56.7733C148.506 56.307 148.507 55.8477 148.539 55.3807C148.73 55.3807 149.497 55.4251 149.983 55.4568C149.97 55.3613 149.958 55.3044 149.958 55.1705C149.958 55.0549 149.97 54.9786 149.983 54.9013C149.81 54.9208 149.273 54.9327 148.646 54.9327C148.269 54.9327 147.886 54.908 147.51 54.9014ZM150.764 54.9014C150.802 55.4639 150.814 55.956 150.814 56.6725V57.5409C150.814 58.2574 150.802 58.7492 150.764 59.3111C150.905 59.2989 151.077 59.2797 151.288 59.2797C151.5 59.2797 151.671 59.299 151.812 59.3111C151.773 58.7492 151.761 58.2574 151.761 57.5409V57.2793H151.819L152.962 59.3111C153.154 59.2989 153.351 59.2797 153.543 59.2797C153.735 59.2797 153.927 59.299 154.118 59.3111C153.652 58.5891 153.166 57.8606 152.757 57.1386C153.39 56.9785 153.748 56.5823 153.748 55.962C153.748 55.5851 153.589 55.3039 153.333 55.1183C153.109 54.9588 152.872 54.9014 152.228 54.9014C151.792 54.9014 151.518 54.9328 151.288 54.9328C151.077 54.9328 150.905 54.9141 150.764 54.9014ZM154.171 54.9014C154.587 55.879 155.507 58.2183 155.903 59.3111C155.992 59.2989 156.089 59.2797 156.184 59.2797C156.281 59.2797 156.369 59.299 156.465 59.3111C156.964 57.8482 157.794 55.9052 158.216 54.9014C158.127 54.9208 158.031 54.9327 157.936 54.9327C157.84 54.9327 157.744 54.9208 157.654 54.9014C157.322 55.8918 156.887 57.0432 156.446 58.1097C156.056 57.0432 155.597 55.8541 155.308 54.9014C155.123 54.9208 154.931 54.9327 154.746 54.9327C154.561 54.9327 154.369 54.9208 154.171 54.9014ZM158.843 54.9014C158.882 55.4639 158.895 55.956 158.895 56.6725V57.5409C158.895 58.2574 158.882 58.7492 158.843 59.3111C158.984 59.2989 159.157 59.2797 159.367 59.2797C159.578 59.2797 159.751 59.299 159.891 59.3111C159.853 58.7492 159.841 58.2574 159.841 57.5409V56.6725C159.841 55.956 159.853 55.4639 159.891 54.9014C159.751 54.9141 159.578 54.9327 159.367 54.9327C159.157 54.9327 158.984 54.9141 158.843 54.9014ZM165.153 54.9014C165.192 55.4639 165.204 55.956 165.204 56.6725V57.5409C165.204 58.2574 165.192 58.7492 165.153 59.3111C165.294 59.2989 165.466 59.2797 166.508 59.2797C167.096 59.2797 167.396 59.3056 167.626 59.3111C167.614 59.235 167.602 59.1707 167.602 59.0362C167.602 58.9017 167.614 58.8378 167.626 58.7489C167.134 58.8068 166.642 58.8317 166.162 58.8317C166.15 58.5766 166.143 58.3021 166.143 58.0336C166.143 57.7585 166.15 57.4829 166.15 57.2156C166.635 57.2156 167.116 57.2337 167.602 57.2727C167.582 57.1381 167.569 57.0811 167.569 57.0111C167.569 56.9271 167.575 56.8702 167.602 56.7229C167.116 56.7484 166.706 56.7605 166.15 56.7733C166.15 56.307 166.151 55.8477 166.182 55.3807C166.374 55.3807 167.141 55.4251 167.626 55.4568C167.613 55.3613 167.602 55.3044 167.602 55.1705C167.602 55.0549 167.613 54.9786 167.626 54.9013C167.453 54.9208 166.917 54.9327 166.291 54.9327C165.914 54.9327 165.53 54.908 165.153 54.9014ZM106.332 54.9327C105.77 54.9327 105.158 55.2144 105.158 55.9552C105.158 56.3004 105.348 56.6337 105.624 57.0044C104.933 57.3557 104.473 57.7008 104.473 58.3656C104.473 58.8642 104.882 59.3948 105.687 59.3948C106.186 59.3948 106.736 59.2022 107.119 58.8887L107.426 59.311C107.604 59.3055 107.778 59.2797 107.95 59.2797C108.187 59.2797 108.422 59.3056 108.736 59.311C108.442 59.0237 108.059 58.602 107.785 58.2818C108.098 57.9373 108.391 57.5921 108.673 57.1642C108.558 57.0558 108.436 56.9272 108.32 56.7932C108.058 57.3423 107.778 57.7652 107.56 58.0269C107.215 57.6245 106.876 57.2278 106.55 56.7999C107.113 56.4547 107.369 56.1279 107.369 55.7127C107.369 55.2019 106.927 54.9327 106.332 54.9327ZM62.6372 55.1829C63.4615 55.1829 64.0307 55.8593 64.0307 56.9654C64.0307 58.3589 63.3601 58.9981 62.5925 58.9981C61.8772 58.9981 61.2503 58.5251 61.2503 57.1633C61.2503 56.0638 61.7612 55.1829 62.6372 55.1829ZM106.435 55.2209C106.666 55.2209 106.889 55.4064 106.889 55.687C106.889 56.0833 106.589 56.4092 106.378 56.5688C106.167 56.2687 105.981 55.9437 105.981 55.6813C105.981 55.3806 106.186 55.2209 106.435 55.2209ZM49.4353 55.2656C50.1318 55.2656 50.4265 55.3478 50.4265 56.1027C50.4265 56.7036 50.119 57.0168 49.5571 57.0168C49.512 57.0168 49.4665 57.0112 49.4154 57.0045C49.4154 56.4225 49.4226 55.847 49.4353 55.2656ZM66.8362 55.2656C67.5332 55.2656 67.8274 55.3478 67.8274 56.1027C67.8274 56.7036 67.5205 57.0168 66.958 57.0168C66.9129 57.0168 66.8683 57.0112 66.8172 57.0045C66.8172 56.4225 66.8234 55.847 66.8362 55.2656ZM82.0514 55.2656C82.9334 55.2656 83.5143 55.9181 83.5143 56.9664C83.5143 58.2959 82.9081 58.9477 81.9487 58.9477C81.6869 58.9477 81.5149 58.9338 81.3865 58.9278C81.3798 58.8066 81.3798 58.0263 81.3798 57.6817V56.5441C81.3798 56.1983 81.3798 55.4186 81.3865 55.298C81.5843 55.2779 81.7446 55.2656 82.0514 55.2656ZM96.8764 55.2656C97.5729 55.2656 97.8666 55.3478 97.8666 56.1027C97.8666 56.7036 97.5603 57.0168 96.9972 57.0168C96.9528 57.0168 96.9091 57.0112 96.8574 57.0045C96.8574 56.4225 96.863 55.847 96.8764 55.2656ZM121.681 55.2656C122.562 55.2656 123.144 55.9181 123.144 56.9664C123.144 58.2959 122.537 58.9477 121.578 58.9477C121.316 58.9477 121.142 58.9338 121.015 58.9278C121.008 58.8066 121.008 58.0263 121.008 57.6817V56.5441C121.008 56.1983 121.008 55.4186 121.015 55.298C121.213 55.2779 121.373 55.2656 121.681 55.2656ZM139.284 55.2656C140.166 55.2656 140.749 55.9181 140.749 56.9664C140.749 58.2959 140.141 58.9477 139.182 58.9477C138.921 58.9477 138.748 58.9338 138.62 58.9278C138.614 58.8066 138.614 58.0263 138.614 57.6817V56.5441C138.614 56.1983 138.614 55.4186 138.62 55.298C138.819 55.2779 138.977 55.2656 139.284 55.2656ZM151.776 55.2656C152.472 55.2656 152.767 55.3478 152.767 56.1027C152.767 56.7036 152.46 57.0168 151.897 57.0168C151.852 57.0168 151.809 57.0112 151.757 57.0045C151.757 56.4225 151.763 55.847 151.776 55.2656ZM92.9891 56.1027C93.1937 56.6019 93.3729 57.1062 93.5579 57.6236H92.3889C92.574 57.1062 92.7712 56.6019 92.9891 56.1027ZM132.618 56.1027C132.822 56.6019 133.001 57.1062 133.186 57.6236H132.017C132.202 57.1062 132.4 56.6019 132.618 56.1027ZM105.807 57.2537C106.171 57.7267 106.555 58.1992 106.938 58.6662C106.772 58.819 106.51 58.9154 106.254 58.9154C105.667 58.9154 105.328 58.4489 105.328 58.027C105.328 57.7013 105.513 57.4777 105.807 57.2537Z" fill="white"/>
</svg>
