<svg xmlns="http://www.w3.org/2000/svg" version="1.1" xmlns:xlink="http://www.w3.org/1999/xlink" width="1000" height="1000"><style>
    #light-icon {
      display: inline;
    }
    #dark-icon {
      display: none;
    }

    @media (prefers-color-scheme: dark) {
      #light-icon {
        display: none;
      }
      #dark-icon {
        display: inline;
      }
    }
  </style><g id="light-icon"><svg xmlns="http://www.w3.org/2000/svg" version="1.1" xmlns:xlink="http://www.w3.org/1999/xlink" width="1000" height="1000"><g><g transform="matrix(28.571428571428573,0,0,28.571428571428573,0,0)"><svg xmlns="http://www.w3.org/2000/svg" version="1.1" xmlns:xlink="http://www.w3.org/1999/xlink" width="35" height="35"><svg fill="none" height="35" viewBox="0 0 35 35" width="35" xmlns="http://www.w3.org/2000/svg">
  <circle cx="17.5" cy="17.5" r="17" stroke="#323a45"></circle>
  <circle cx="17.5" cy="17.5" fill="#323a45" r="15.1667"></circle>
  <path d="m11.5 18.5h-1.5v6h14.5v-6h-1.5v4h-11.5z" fill="#f7f7f7"></path>
  <path d="m17.5 19-5-5h3.5v-7h3.5v7h3z" fill="#f7f7f7"></path>
  <g stroke="#f7f7f7">
    <path d="m11.5 18.5h-1.5v6h14.5v-6h-1.5v4h-11.5z"></path>
    <path d="m17.5 19-5-5h3.5v-7h3.5v7h3z"></path>
  </g>
</svg></svg></g></g></svg></g><g id="dark-icon"><svg xmlns="http://www.w3.org/2000/svg" version="1.1" xmlns:xlink="http://www.w3.org/1999/xlink" width="1000" height="1000"><g clip-path="url(#SvgjsClipPath1058)"><rect width="1000" height="1000" fill="#ffffff"></rect><g transform="matrix(28.571428571428573,0,0,28.571428571428573,0,0)"><svg xmlns="http://www.w3.org/2000/svg" version="1.1" xmlns:xlink="http://www.w3.org/1999/xlink" width="35" height="35"><svg fill="none" height="35" viewBox="0 0 35 35" width="35" xmlns="http://www.w3.org/2000/svg">
  <circle cx="17.5" cy="17.5" r="17" stroke="#323a45"></circle>
  <circle cx="17.5" cy="17.5" fill="#323a45" r="15.1667"></circle>
  <path d="m11.5 18.5h-1.5v6h14.5v-6h-1.5v4h-11.5z" fill="#f7f7f7"></path>
  <path d="m17.5 19-5-5h3.5v-7h3.5v7h3z" fill="#f7f7f7"></path>
  <g stroke="#f7f7f7">
    <path d="m11.5 18.5h-1.5v6h14.5v-6h-1.5v4h-11.5z"></path>
    <path d="m17.5 19-5-5h3.5v-7h3.5v7h3z"></path>
  </g>
</svg></svg></g></g><defs><clipPath id="SvgjsClipPath1058"><rect width="1000" height="1000" x="0" y="0" rx="500" ry="500"></rect></clipPath></defs></svg></g></svg>