<svg width="72" height="72" viewBox="0 0 72 72" fill="none" xmlns="http://www.w3.org/2000/svg">
<g clip-path="url(#clip0)">
<path d="M17.9089 44.96C17.9089 48.6678 14.88 51.6967 11.1722 51.6967C7.46444 51.6967 4.43555 48.6678 4.43555 44.96C4.43555 41.2522 7.46444 38.2233 11.1722 38.2233H17.9089V44.96Z" fill="#E01E5A"/>
<path d="M21.3037 44.96C21.3037 41.2522 24.3326 38.2233 28.0404 38.2233C31.7482 38.2233 34.777 41.2522 34.777 44.96V61.8278C34.777 65.5356 31.7482 68.5644 28.0404 68.5644C24.3326 68.5644 21.3037 65.5356 21.3037 61.8278V44.96Z" fill="#E01E5A"/>
<path d="M28.0404 17.9089C24.3326 17.9089 21.3037 14.88 21.3037 11.1722C21.3037 7.46444 24.3326 4.43555 28.0404 4.43555C31.7482 4.43555 34.777 7.46444 34.777 11.1722V17.9089H28.0404Z" fill="#36C5F0"/>
<path d="M28.04 21.3033C31.7478 21.3033 34.7766 24.3322 34.7766 28.04C34.7766 31.7478 31.7478 34.7767 28.04 34.7767H11.1722C7.46444 34.7767 4.43555 31.7478 4.43555 28.04C4.43555 24.3322 7.46444 21.3033 11.1722 21.3033H28.04Z" fill="#36C5F0"/>
<path d="M55.0918 28.04C55.0918 24.3322 58.1207 21.3033 61.8285 21.3033C65.5362 21.3033 68.5651 24.3322 68.5651 28.04C68.5651 31.7478 65.5362 34.7767 61.8285 34.7767H55.0918V28.04Z" fill="#2EB67D"/>
<path d="M51.697 28.04C51.697 31.7478 48.6681 34.7767 44.9603 34.7767C41.2525 34.7767 38.2236 31.7478 38.2236 28.04V11.1722C38.2236 7.46444 41.2525 4.43555 44.9603 4.43555C48.6681 4.43555 51.697 7.46444 51.697 11.1722V28.04Z" fill="#2EB67D"/>
<path d="M44.9603 55.0911C48.6681 55.0911 51.697 58.12 51.697 61.8278C51.697 65.5356 48.6681 68.5644 44.9603 68.5644C41.2525 68.5644 38.2236 65.5356 38.2236 61.8278V55.0911H44.9603Z" fill="#ECB22E"/>
<path d="M44.9603 51.6967C41.2525 51.6967 38.2236 48.6678 38.2236 44.96C38.2236 41.2522 41.2525 38.2233 44.9603 38.2233H61.8281C65.5359 38.2233 68.5647 41.2522 68.5647 44.96C68.5647 48.6678 65.5359 51.6967 61.8281 51.6967H44.9603Z" fill="#ECB22E"/>
</g>
<defs>
<clipPath id="clip0">
<rect width="72" height="72" fill="white"/>
</clipPath>
</defs>
</svg>
